<svg class="seasonal-eating-icon" xmlns="http://www.w3.org/2000/svg" data-name="Слой 1" viewBox="0 0 100 100"
  x="0px" y="0px">
  <g>
    <path
      d="M53.15551,93.868c-0.76509-.70478-2.47954-0.764-4.23753.12392l-0.16945-1.501a30.81933,30.81933,0,0,0-3.33641.01762c-4.879.541-8.91361-1.29112-12.68462-4.17815a28.65493,28.65493,0,0,1-5.75425-6.61592c-0.52788-.7476-1.04972-1.4996-1.58693-2.24046a20.47093,20.47093,0,0,1-3.00344-5.24524c-0.63-1.81494-1.54435-3.542-2.05682-5.38471a28.47353,28.47353,0,0,1-.5671-12.15346,24.115,24.115,0,0,1,3.70679-9.92079,21.56,21.56,0,0,1,8.45511-7.68518,18.3474,18.3474,0,0,1,11.22237-1.78444c1.5614,0.26132,3.14162.44373,4.67784,0.81052a27.0279,27.0279,0,0,1,3.09649,1.15322c0.30469,0.114.62333,0.19068,1.05391,0.32,0.11273-.54621.24539-1.003,0.29547-1.46877,0.11832-1.10019.25321-2.20313,0.28263-3.30758a63.72033,63.72033,0,0,1,2.19262-14.10527c0.475-1.857,1.1443-3.66427,1.7858-5.68519a5.60557,5.60557,0,0,0-1.36-.05551c-0.94046.192-1.858,0.49409-2.78859,0.73709a2.13883,2.13883,0,0,0-1.66824,2.22624c-0.18918,4.47239-2.29287,7.89815-5.55876,10.85014-3.35016,3.02817-7.35936,4.32582-11.6598,4.84713a22.25,22.25,0,0,1-6.45814-.36308,47.78829,47.78829,0,0,0-8.44493-.99621,8.07092,8.07092,0,0,0-4.43618,1.03061,3.13706,3.13706,0,0,1-.9638.16094,2.70093,2.70093,0,0,1,.38053-0.75045c1.223-1.00916,2.52926-1.92692,3.68084-3.01a9.91452,9.91452,0,0,0,2.0271-2.58887,45.30392,45.30392,0,0,1,6.23064-9.18,22.899,22.899,0,0,1,3.84685-3.26275,21.29285,21.29285,0,0,1,7.55638-3.80353,14.698,14.698,0,0,1,7.96772.36453,9.83194,9.83194,0,0,1,4.11271,1.9673c0.48065,0.45913.96309,0.91641,1.56988,1.49358,0.932-.44886,1.96341-0.94,2.9898-1.44145,1.2518-.6116,2.51613-1.20083,3.74094-1.86283a5.18136,5.18136,0,0,0,1.45966-1.127c0.59273-.6903,1.04689-1.49767,1.591-2.23226a7.95083,7.95083,0,0,1,1.28557-1.53543,1.4653,1.4653,0,0,1,2.56009.97574,4.3865,4.3865,0,0,1-.7645,3.575A31.676,31.676,0,0,0,59.203,19.039a63.3489,63.3489,0,0,0-2.99889,10.09713c-0.503,2.34255-.6879,4.75526-0.97453,7.14147-0.11467.95472-.14129,1.92187-0.17035,2.88451-0.0311,1.03026.18664,1.25884,1.216,1.39808a3.49324,3.49324,0,0,0,2.363-.43141c0.9493-.56971,1.92232-1.10449,2.91082-1.60342a13.41254,13.41254,0,0,1,8.24693-1.369,25.90186,25.90186,0,0,1,8.33,2.68708,17.701,17.701,0,0,1,3.97219,3.50082,9.58861,9.58861,0,0,1,2.16124,3.843,58.27153,58.27153,0,0,1,1.91963,6.64411,22.28276,22.28276,0,0,1,.51419,7.45946c-0.27074,2.48424-.37312,4.99461-0.792,7.45217a16.91082,16.91082,0,0,1-1.53939,4.78745,92.27392,92.27392,0,0,1-5.13094,9.033,26.8437,26.8437,0,0,1-6.69107,7.13775,22.436,22.436,0,0,1-7.26029,3.12485,12.8605,12.8605,0,0,1-6.55585.27894,2.69337,2.69337,0,0,0-1.056.15782,1.52673,1.52673,0,0,1-.65806.161C55.664,92.76863,54.75894,94.19058,53.15551,93.868ZM76.6597,84.30739a22.50328,22.50328,0,0,0,4.09936-6.03725c0.51608-.86791,1.03824-1.73227,1.547-2.60444a22.36539,22.36539,0,0,0,2.69661-6.34825,42.47642,42.47642,0,0,0,.83521-11.48995,37.03436,37.03436,0,0,0-1.00456-5.96c-0.72654-3.30959-1.85986-6.44834-4.328-8.92587a3.28669,3.28669,0,0,1-.2961-0.31672,8.39653,8.39653,0,0,0-2.69961-2.12149,22.89146,22.89146,0,0,0-9.08331-2.65708,6.09878,6.09878,0,0,0-5.72081,2.2856,3.95663,3.95663,0,0,1-1.9803,1.68268l2.17575-2.76028a3.34368,3.34368,0,0,0-1.77469.61c-0.53467.39571-.949,0.94982-1.44863,1.39836-0.40862.36683-.55034,1.06211-1.37933,1.22309l0.46571-1.074-0.30724-.163a11.82943,11.82943,0,0,1-.88082,1.17869c-0.99352,1.04364-1.49015,2.84262-3.59962,2.3552l0.5283-1.00228c-1.157.16823-.68321,2.03316-2.06837,1.82429l-0.27373-.81641-0.856.55132a11.26828,11.26828,0,0,0-1.26374-.54343c-0.50391-.143-1.03018-0.20569-1.54261-0.32167a0.52439,0.52439,0,0,1-.16054-0.2171l0.57933-.75662c-0.71522-.65293-1.32893.00792-2.06095-0.00248l0.65167-.72961c-0.00429-.54968-0.77513-0.87626-0.25415-1.573a22.10169,22.10169,0,0,0,2.25439,1.27564,3.64357,3.64357,0,0,0,2.60378.13917c0.48033-.90127-0.62333-1.02556-0.6744-1.62467L51.77,40.505c-1.07333-.37449-2.06746-0.7363-3.07173-1.06732a21.57338,21.57338,0,0,0-2.747-.82858,26.31834,26.31834,0,0,0-6.72328-.574,17.33037,17.33037,0,0,0-7.06478,1.849c-5.78659,3.08876-9.11035,8.12254-10.98072,14.2424a28.68376,28.68376,0,0,0-.9527,8.2903,17.52523,17.52523,0,0,0,1.02707,6.67315c1.289,3.19415,2.3531,6.52584,4.52248,9.31611,1.06212,1.36611,1.98525,2.83974,2.9849,4.25509a23.9732,23.9732,0,0,0,4.44311,4.917c2.19014,1.76949,4.52761,3.38285,7.34353,3.85525,3.17947,0.53341,6.40294.75356,9.54145-.43923a7.21388,7.21388,0,0,1,1.83034-.31236c0.65866-.06612,1.33576.00207,1.98359-0.11049,0.86854-.15088,1.7167-0.41905,2.70263-0.66966l-0.49732,1.14781a10.43994,10.43994,0,0,1,2.0184.61755c1.66054,0.91561,2.01334.93427,3.43207-.18366q0.06358,0.05266.12607,0.10657l-0.04746.653a5.85348,5.85348,0,0,0,3.88131-.55338,19.97616,19.97616,0,0,0,3.009-2.45605L68.6715,89.351l-1.31063,1.72472a16.83864,16.83864,0,0,0,8.71284-6.1806ZM33.27386,30.46147c0.00975,0.52246.30257,0.77009,0.728,0.47427a2.865,2.865,0,0,0,.72936-1.01331c0.2874-.52857.52105-1.08637,0.77764-1.6317a8.38569,8.38569,0,0,1-.4175,2.77949,0.8523,0.8523,0,0,1-.97641.643,3.54914,3.54914,0,0,0-2.52612.97791,22.98882,22.98882,0,0,0,6.14475-.69793,18.07572,18.07572,0,0,0,9.59182-6.78476,17.15358,17.15358,0,0,0,1.658-3.342c0.18437-.39467-0.13118-0.35279-0.37094-0.345l-0.03087-.02415q-0.00009-.72625.00019-1.45216l0.85723,0.366c-0.00967-.87495-0.43816-0.58852-0.84629-0.35126a2.53855,2.53855,0,0,0-1.09425.54678,16.4,16.4,0,0,0-1.5019,3.20986,1.76612,1.76612,0,0,1-.89716,1.15137l0.02553,0.0111-1.226-.07165a1.479,1.479,0,0,1,.2878-0.29449,2.28192,2.28192,0,0,0,1.547-2.70752,2.21,2.21,0,0,1,.66079-1.82162,27.87521,27.87521,0,0,0,1.73857-2.22109L47.87273,17.608a24.27036,24.27036,0,0,0-9.5875,8.24071,2.6768,2.6768,0,0,1,.88826-2.31019c1.09336-1.14887,2.2526-2.2349,3.37733-3.35421,0.20774-.20675.38176-0.44739,0.57135-0.67239a64.55941,64.55941,0,0,0-6.82192,3.20433A6.06711,6.06711,0,0,0,34.4798,24.526c-0.84436,1.16752-1.5703,2.42138-2.33285,3.64714-0.60674.97531-1.19386,1.96284-1.78969,2.94494l-0.4117-.5066a11.81348,11.81348,0,0,0,.86566-1.17666c0.68276-1.21191,1.31968-2.44955,1.98972-3.66877,0.34919-.63539.73032-1.25323,1.097-1.879-2.443,1.47007-4.2212,3.62939-6.26406,5.48219l-0.26032-.22942,1.72275-2.43c-4.04819,2.47923-5.88972,3.23937-7.42026,2.92119l3.52144-1.4857c-0.98986.02427-1.86378,0.66448-3.09474,0.24825a9.87691,9.87691,0,0,1,1.35285-.51033c3.679-.7436,6.69891-2.84939,9.82845-4.7285a3.22451,3.22451,0,0,0,.44355-0.46841c-0.51485.095-.79519,0.15218-1.07737,0.198a16.77522,16.77522,0,0,1-5.16367.36748,3.36035,3.36035,0,0,1-.79991-0.36143c2.60552-.3786,5.08572-0.62479,7.51393-1.12394a14.72931,14.72931,0,0,0,6.68806-3.06828l-6.04976.26748-0.03284-.31432a5.21483,5.21483,0,0,1,2.8412-.61511A22.85954,22.85954,0,0,0,49.39874,14.956a5.65186,5.65186,0,0,0-.525-0.63382,11.38671,11.38671,0,0,0-4.15623-2.22589,2.65447,2.65447,0,0,0-3.09939.72556l0.87312,0.69744-3.32136-.44-0.00733-.16484,0.95668-.30793c-1.00571-.2463-1.91045-0.482-2.82313-0.68129a1.35436,1.35436,0,0,0-.70322.047,18.69239,18.69239,0,0,0-3.35552,1.27366,43.53712,43.53712,0,0,0-5.12492,3.50079c-3.60666,2.90041-5.858,6.864-8.05518,10.82635a9.44607,9.44607,0,0,1-2.42539,2.99446c-0.2832.221-.55139,0.46124-0.8639,0.72412,0.87783,0,1.63628.0106,2.39434-.00193,2.52376-.04172,4.94761.66913,7.4256,0.96421,1.16555,0.13879,2.32866.65155,3.52727,0.16124,0.34294,0.35876.67392,0.38514,0.85186-.12368,0.16981-.48556.22743-1.00949,0.383-1.50116,0.14022-.4431.34633-0.86533,0.53006-1.313,0.40179,0.203.61071,0.30862,0.81934,0.4143a1.53491,1.53491,0,0,0-.85777,1.86189C32.78839,31.778,32.89028,30.96922,33.27386,30.46147ZM57.75086,13.118a1.24916,1.24916,0,0,1,.13006,1.47978,39.2222,39.2222,0,0,0-2.23748,5.78018c-0.81118,3.21365-1.38629,6.49229-1.93365,9.7648-0.266,1.59013-.24336,3.22853-0.3532,4.87216l0.66028-.099L53.857,37.18971l-0.53324-.66132-0.20768.06226,0.77958,4.14609-0.81948-.87909c0,0.581-.0396,1.06384.0087,1.53776,0.08542,0.83826.181,0.87687,1.11623,0.71771,0.13928-2.90344.28981-5.77831,0.40359-8.65464a9.36556,9.36556,0,0,0-.17163-1.571,6.32182,6.32182,0,0,1,.07169-2.8895l0.49286,0.87471c0.67443-1.04739-.14522-1.94034-0.23114-2.92978l0.87769,0.282c-0.18-1.375-.63484-2.61062-0.23036-4.098L56.187,24.51577c-0.23921-3.07147.13894-3.71853,1.03543-3.32131l0.37348-4.619,0.23521-.02992L58.455,17.68982l0.3-.05526c0-.43667.00931-0.87359-0.00243-1.30995a6.09276,6.09276,0,0,1-.04434-1.53033,21.648,21.648,0,0,1,.84022-2.34914l-0.23475-.27758c-1.505.87546-3.42732,0.47614-4.94618,1.8014C55.83354,14.65287,56.59658,13.33932,57.75086,13.118Zm1.28264-1.59614c1.52806-.04466,1.52806-0.04466,2.10042-3.03655Zm-9.32314,5.59895c-1.10957.44-.83108,1.6364-1.5757,2.39926C49.82947,19.126,49.82947,19.126,49.71035,17.12079Zm-7.751-5.60746a8.92887,8.92887,0,0,0-3.61551.22165,5.37431,5.37431,0,0,0,1.71068-.00961C40.64055,11.64763,41.21709,12.65522,41.95936,11.51333Zm19.71209-.66365c-0.21209.75987-1.55606,0.99027-.95132,2.29521C61.217,12.35524,62.0207,11.87213,61.67145,10.84969Zm-15.8756,6.91217a0.83231,0.83231,0,0,0-1.18846.715ZM63.33859,9.04039l-0.21223-.08258-0.4826,1.14686L62.897,10.20355ZM50.3173,43.57265l-0.20813-.294-0.61795.51144,0.14374,0.202Zm3.09279,0.01717-0.26578-.231-0.5222.70705,0.19737,0.15379Zm2.81178-.63521-0.20311-.20192-0.722.9075a3.47159,3.47159,0,0,0,.596-0.29713A3.69316,3.69316,0,0,0,56.22187,42.95461Zm-0.33631-1.38273a0.95868,0.95868,0,0,0-.31734-0.24686,0.74418,0.74418,0,0,0-.31669.13259,0.65193,0.65193,0,0,0,.21472.26967A1.06688,1.06688,0,0,0,55.88556,41.57188Zm3.8786-26.89109,0.23939,0.065,0.10781-.5987-0.16974-.04281ZM51.42128,44.00473l0.293-.214a0.60719,0.60719,0,0,0-.23583-0.197,0.857,0.857,0,0,0-.27387.23123Z">
    </path>
    <path
      d="M77.54505,82.25806q-0.44264,1.02462-.88531,2.04929l-0.58607.5878a1.22534,1.22534,0,0,1-.09583-0.6347C76.46833,83.5703,77.01661,82.92123,77.54505,82.25806Z">
    </path>
    <path
      d="M78.416,56.52925c1.26781-.86849,1.35026-2.06724.93522-3.48371l-0.8958.11019a0.92554,0.92554,0,0,1,.18335-0.34807,1.42289,1.42289,0,0,0,.61242-1.87338,3.14387,3.14387,0,0,0-.76653-0.8413,3.40875,3.40875,0,0,1,1.85019-1.46969,1.59223,1.59223,0,0,0,1.17315-2.016c2.34673,3.311,1.73375,6.99738,1.4989,10.58648l1.117,0.35766c-1.88335.74784-1.05826,2.32957-1.59727,3.51484l0.9855,0.54617a0.76316,0.76316,0,0,1-.13374.31418,1.25458,1.25458,0,0,0-.90762,1.29694,8.89217,8.89217,0,0,1-.29062,1.70023,1.06329,1.06329,0,0,1-.23517.64213c-1.24107.618-.96078,1.71912-0.973,2.76219-0.01476,1.26062-.14047,2.50775-1.39247,3.25433l-0.03373-.02492c0.17014-.62743.34027-1.25486,0.56507-2.084l-2.1759.86249a3.15545,3.15545,0,0,0,1.14713-2.91188,2.93662,2.93662,0,0,0-3.15973,1.92654c-0.26048-.61579-0.78949-1.16084-0.1418-1.83508a4.13292,4.13292,0,0,0,2.89921-.773,10.78247,10.78247,0,0,0,1.45367-.80375,1.32808,1.32808,0,0,0,.49392-0.78822,11.287,11.287,0,0,0,.02222-1.65336l-1.92295.59668-0.05678-.08437c1.56119-1.00248,1.011-2.53076,1.05712-4.01649H78.6922l-0.00053-.0014c1.30608-1.05014,1.44675-1.66989.78368-3.613l-1.07778.13293Zm4.0808-5.50161L80.3487,52.23205c0.07592,0.95555-.21792,1.83757.44784,2.54379C82.605,53.96665,82.87826,53.41478,82.49679,51.02764Zm-0.08735,7.5427-2.14821,1.23929v2.94863a2.62976,2.62976,0,0,1,.7587-0.77453c1.22323,0.29176,1.0704-.59106,1.15538-1.27445C82.24565,60.14371,82.30019,59.57617,82.40944,58.57034Zm-0.5816-10.07517c-2.03071.65565-2.43836,1.81233-1.54287,3.16943,0.34422-.21639.70415-0.41732,1.03681-0.65624C82.642,50.06021,82.65326,49.98369,81.82784,48.49517Zm-0.5834,10.04391a2.89337,2.89337,0,0,0,1.04258-.82963,4.82209,4.82209,0,0,0,.24361-2.90627c-1.80685.55291-1.85275,0.60856-1.62427,2.2879C80.96266,57.505,81.09451,57.9087,81.24444,58.53908ZM79.31725,69.13488c1.18556-.76483,1.245-0.98554.87514-2.47761C79.19673,67.19378,79.64819,68.129,79.31725,69.13488Zm1.77831-4.06934,0.29209,0.163a1.1594,1.1594,0,0,0,.4163-0.43234,3.752,3.752,0,0,0-.0563-2.06018C80.66193,63.41439,81.19375,64.30432,81.09556,65.06554ZM80.383,56.42924l-0.08308-.12185a0.99427,0.99427,0,0,0-.07928.26432c-0.00687.63714-.00367,1.27439-0.00367,1.9116l0.29506-.01378Z">
    </path>
    <path
      d="M30.43506,81.9386V83.265c-1.01574-1.11846-1.89364-1.96467-2.62729-2.92147-1.07641-1.40382-2.06991-2.87314-3.05615-4.34313a1.94914,1.94914,0,0,1-.31967-2.05679c0.709,0.73389,1.323,1.36939,1.93684,2.00464a0.9002,0.9002,0,0,0,.87718.80794,13.86512,13.86512,0,0,1,2.86492,4.40719c-0.90355-.762-1.35746-1.9687-2.47013-2.52715A8.09432,8.09432,0,0,0,30.43506,81.9386Z">
    </path>
    <path
      d="M78.39529,73.8792c-0.196.53347-.39191,1.06693-0.63437,1.72707l1.08329,0.09152a0.74263,0.74263,0,0,1-.18862.24251c-1.36415.39841-2.71851,0.84159-4.10123,1.16178a4.06041,4.06041,0,0,0-3.10851,1.97476l0.02043,0.01605V77.77232c1.47753-2.1983,2.32305-4.88453,3.53288-7.56483l0.63852,0.669,1.32845-.38642a1.15845,1.15845,0,0,1-.19942.37383c-1.517.20223-2.08172,1.35374-2.60112,2.56762-0.46787,1.09344-.96309,2.17519-1.52322,3.43525a6.16972,6.16972,0,0,0,1.057-.01144c0.37363-.07533.72375-0.3063,1.0962-0.3417a3.38883,3.38883,0,0,0,3.209-2.235,1.34307,1.34307,0,0,1,.41338-0.38279Z">
    </path>
    <path
      d="M78.72664,64.094a5.67053,5.67053,0,0,1-2.365,1.377,2.83331,2.83331,0,0,0-.761,1.17021,14.30474,14.30474,0,0,1-.37653-4.33641l-0.01224.00768,0.86892,2.67766a1.93649,1.93649,0,0,0,.47415-0.66183,9.44833,9.44833,0,0,0,.00419-2.00622c-0.28075-2.05942-.62418-4.11027-0.93941-6.165a3.07034,3.07034,0,0,1,.034-0.46813l1.01544,1.70617-0.00844-.01586a6.123,6.123,0,0,0,.34857,3.11l0.54432-.94409,1.138,0.44655,0.00053,0.0014-1.08742,1.44611L77.13932,61.023v3.13875l1.53055-.15214Z">
    </path>
    <path
      d="M84.88,59.4867a25.67857,25.67857,0,0,1-.66787,9.456,4.44477,4.44477,0,0,1-.55372,1.15771,21.1605,21.1605,0,0,1-2.528,3.3298c0.19038-.40012.36137-0.81093,0.57471-1.19841,0.7352-1.3354,1.4965-2.65659,2.21917-3.99864a1.30227,1.30227,0,0,0,.16237-0.83034c-0.42779-1.79675.43542-3.47425,0.44853-5.23158A21.41178,21.41178,0,0,1,84.88,59.4867Z">
    </path>
    <path
      d="M67.7107,42.63744a6.17507,6.17507,0,0,1-2.99859-.98406c0.25866-.18377.46677-0.33164,0.67492-0.47946,0.12345,0.33709.23335,0.7007,0.7891,0.30815l-0.804-.2937L64.57883,40.679l-1.13472,1.55622q-0.08215.10052-.16477,0.20062l-0.87072-.06318c1.04739-1.73436,2.69718-2.66482,4.0747-3.88919-0.08827.78467-.9422,1.04744-1.16651,1.62166,0.94015,0.68135,1.83712,1.33141,2.7338,1.9813-0.28859-.02638-0.5769-0.05258-1.10913-0.10094Z">
    </path>
    <path
      d="M65.09493,78.51239c0.36125-1.48463.66169-2.98743,1.09856-4.44946a23.72358,23.72358,0,0,0,.91362-6.08886c0.01107-.34866.08465-0.69534,0.12933-1.04293l0.29691-.02884a4.51825,4.51825,0,0,1,.194,1.00314,29.03964,29.03964,0,0,1-2.268,10.18006,1.77009,1.77009,0,0,1-.37056.42233Z">
    </path>
    <path
      d="M24.90678,69.56209a27.16087,27.16087,0,0,1,1.86184,2.83224,4.71181,4.71181,0,0,1,.11945,1.78015l0.01908-.01729c-0.734-.43186-1.4762-0.794-1.12747-1.9392a2.23471,2.23471,0,0,0-.54888-1.27619c-0.95574-1.59778-1.9804-3.15606-2.8863-4.78095a4.42088,4.42088,0,0,1-.35222-1.87412,18.61935,18.61935,0,0,0,2.59541,4.68862Z">
    </path>
    <path
      d="M21.7027,59.89458c1.05141,3.54332,3.13263,6.50841,4.96373,9.64564-0.1754-.17747-0.36693-0.34179-0.52371-0.53441A39.538,39.538,0,0,1,21.831,62.09327,2.76248,2.76248,0,0,1,21.7027,59.89458Z">
    </path>
    <path
      d="M55.68111,66.84029a50.00249,50.00249,0,0,1,.585,11.34708C56.32733,74.3916,55.46865,70.644,55.68111,66.84029Z">
    </path>
    <path
      d="M63.91477,47.86492l-4.16054-3.52745a0.21861,0.21861,0,1,0-.01194.09688c0.02659-.035.08932-0.0421,0.11673-0.07681a3.36116,3.36116,0,0,0,.18585-0.31988l-2.82115-.36852a1.20576,1.20576,0,0,1,.36024-0.411c0.84335,0.10928,1.68514.24231,2.5181,0.41367a1.49864,1.49864,0,0,1,.76153.38165c1.101,1.17675,2.17076,2.38271,3.251,3.57888Z">
    </path>
    <path
      d="M64.96078,81.59547c-0.66706,1.05861-1.53563,1.84429-1.81917,3.11474l1.16377-.07731,0.0598,0.15314c-0.89875.28737-1.70566,0.93118-2.96291,0.77709a7.92962,7.92962,0,0,0,2.16146-3.645C63.71649,81.354,63.81935,81.38181,64.96078,81.59547Z">
    </path>
    <path
      d="M65.36,84.49469a16.66827,16.66827,0,0,1,4.13829-1.22052c1.48148-.05183,2.754-0.63747,4.29405-0.763a1.61168,1.61168,0,0,1-.52851.577c-2.60348.59275-5.21633,1.14441-7.82675,1.70663Z">
    </path>
    <path
      d="M63.44411,42.23519c2.51679,0.82571,5.36118,2.91751,6.00922,4.37693-2.0261-1.37093-4.09973-2.774-6.17368-4.17672Q63.3618,42.3359,63.44411,42.23519Z">
    </path>
    <path
      d="M62.92978,71.10457q-0.24851-3.52856-.497-7.05713c0.92983,2.27634.56328,4.6771,0.82867,7.017Z">
    </path>
    <path
      d="M75.22412,62.3048a1.97381,1.97381,0,0,1-.49815-0.68252c-0.25027-1.695-.44763-3.39778-0.662-5.09806l-0.01717.01328c0.2209,0.62589.47852,1.24171,0.65359,1.88017a23.11084,23.11084,0,0,1,.56108,2.51313,6.96726,6.96726,0,0,1-.04949,1.38163Z">
    </path>
    <path d="M44.456,72.14783c-1.11914-1.93422-.94452-4.11413-1.02124-6.25743Z">
    </path>
    <path
      d="M22.665,54.33222L23.229,58.095C22.15546,56.83517,21.88631,55.43756,22.665,54.33222Z">
    </path>
    <path
      d="M78.41793,73.89586l-0.30073-.88431,0.01254,0.015q0.70824-.73434,1.41626-1.46883l0.03352,0.02478a1.10521,1.10521,0,0,0,.5064.2789c0.48832-.11923.95608-0.32259,1.48646-0.40136-0.89566,1.03165-2.477,1.15817-3.17714,2.41912Z">
    </path>
    <path d="M80.58181,44.83783l0.234,0.71041-3.48055,2.10811-0.1427-.18774Z">
    </path>
    <path
      d="M61.562,91.48334l-0.62459-.47516,2.50324-1.48585v1.0042c-0.56092.33985-1.15725,0.70117-1.75309,1.06293C61.6464,91.554,61.60438,91.51844,61.562,91.48334Z">
    </path>
    <path
      d="M78.07484,79.30645l-2.23155,3.535c-0.11252-.87658.90182-2.56629,2.00825-3.71142Z">
    </path>
    <path
      d="M31.48566,79.997c-0.74955-.99181-1.51793-1.97043-2.23071-2.988a1.60979,1.60979,0,0,1-.00754-0.78182l0.39732-.08453L31.5711,79.92Z">
    </path>
    <path
      d="M59.8066,47.33265L57.30967,44.542c1.231,0.15331,1.97929.93873,2.65512,2.64854Z">
    </path>
    <path
      d="M72.2146,80.29832l3.36378-1.19679a0.64366,0.64366,0,0,1-.50561.95433c-0.93187.17609-1.87989,0.26682-2.82122,0.39284Z">
    </path>
    <path
      d="M70.05615,73.68483a5.53423,5.53423,0,0,1,1.70908-3.08873l-1.32856,3.2532Z">
    </path>
    <path
      d="M66.84577,87.207c1.12771-.482,2.25356-0.9687,3.389-1.4318a2.01586,2.01586,0,0,1,.479.42444,11.95036,11.95036,0,0,1-3.879.99341Z">
    </path>
    <path
      d="M71.42594,54.46155c0.03988,0.79343-.22765,1.62031,1.2013,1.66249l-1.10081.60157c-0.34007-.77556-0.6473-1.47621-1.0177-2.3209Z">
    </path>
    <path d="M53.089,45.88537c1.13918,0.77848,1.31255,1.42871.88167,3.00178Z">
    </path>
    <path
      d="M65.36614,63.772l0.90536,1.64686-0.718.93988c-0.641-.83952.00237-1.74978-0.17209-2.59912Z">
    </path>
    <path
      d="M69.687,38.76045l-2.45383,1.40578A3.57582,3.57582,0,0,1,69.46873,38.41Z">
    </path>
    <path
      d="M69.00179,40.19032a3.396,3.396,0,0,1,2.46764-1.268C70.77573,39.46781,70.2892,40.4046,69.00179,40.19032Z">
    </path>
    <path
      d="M23.62723,69.60112l1.57217,2.34273a2.74,2.74,0,0,1-1.82565-2.16512Z">
    </path>
    <path
      d="M73.5803,41.00365c-0.671.44021-1.0512,1.38152-2.15577,1.17974l0.208-.84433,1.77057-.53412Z">
    </path>
    <path
      d="M73.01329,65.88492c0.29672,0.69193.29672,0.69193,0.02863,2.10172A1.94162,1.94162,0,0,1,73.01329,65.88492Z">
    </path>
    <path
      d="M72.84572,70.7187c-0.62159-1.74552-.571-1.91038.46582-1.73791C73.1619,69.53908,73.01364,70.09226,72.84572,70.7187Z">
    </path>
    <path
      d="M72.43467,61.156c-0.141-.67637-0.28736-1.35174-0.41466-2.03068a0.894,0.894,0,0,1,.19937-0.31888,4.39011,4.39011,0,0,1,.5384,2.28544Z">
    </path>
    <path
      d="M45.33942,76.07158l-0.89061-2.5912C45.2318,74.12887,45.38343,74.56765,45.33942,76.07158Z">
    </path>
    <path
      d="M49.65174,41.01353l1.86484,0.97733C50.38875,42.29686,50.16023,42.19929,49.65174,41.01353Z">
    </path>
    <path
      d="M77.49306,44.29407l1.77988-1.64913c-0.12783,1.31947-.96742,1.47418-1.5763,1.86074Z">
    </path>
    <path
      d="M71.44585,79.07684a2.86912,2.86912,0,0,1-1.09992,2.43129,4.4236,4.4236,0,0,1,1.12036-2.41519Z">
    </path>
    <path
      d="M31.5711,79.92l1.62315,1.892L32.96,82.00154a4.04821,4.04821,0,0,1-1.47393-2.00487Z">
    </path>
    <path
      d="M66.83473,87.19311l-2.18422.894c0.43323-1.15178,1.37647-.83592,2.19508-0.88024Z">
    </path>
    <path
      d="M72.85125,62.046c0.06326,0.614.12654,1.228,0.22311,2.16519-0.70048-.8497-0.33834-1.53628-0.524-2.13455Z">
    </path>
    <path d="M56.3701,46.63031L56.76624,48.566l-0.26963.06335-0.52669-1.9012Z">
    </path>
    <path
      d="M60.89243,57.68561l0.6505,1.86267a2.3657,2.3657,0,0,1-.95265-1.71957Z">
    </path>
    <path
      d="M27.246,76.75619a0.9002,0.9002,0,0,1-.87718-0.80794q-0.02121-.34159-0.0427-0.6837l0.25109-.09292Z">
    </path>
    <path
      d="M67.54379,74.46322a1.28592,1.28592,0,0,1,1.02271-1.23367C68.43721,74.063,68.43721,74.063,67.54379,74.46322Z">
    </path>
    <path
      d="M34.36594,76.96668l-0.64309-1.76275,0.33074-.11723A2.573,2.573,0,0,1,34.36594,76.96668Z">
    </path>
    <path
      d="M65.38142,63.7596q-0.30229-1.14676-.6046-2.29352c0.8342,0.64465.6026,1.49563,0.58946,2.30571Z">
    </path>
    <path
      d="M68.85383,43.21511l1.22325-.28215a1.82277,1.82277,0,0,1-.30115.78757,0.61178,0.61178,0,0,1-.90834-0.52165Z">
    </path>
    <path
      d="M68.85338,77.06949c-0.15337.63835-.013,1.40469-0.93257,1.95726a3.30337,3.30337,0,0,1,.9473-1.94537Z">
    </path>
    <path
      d="M65.77043,79.2167l0.68716-1.2894C66.52556,78.76687,66.52556,78.76687,65.77043,79.2167Z">
    </path>
    <path
      d="M76.66921,57.39509a2.23216,2.23216,0,0,1,1.74669-.86587l-0.01833-.01761c-0.51884.40952-.7628,1.36929-1.7368,0.86762Z">
    </path>
    <path
      d="M70.28309,61.13391l-1.59041.68766-0.12022-.39117a2.58437,2.58437,0,0,1,1.72275-.28094Z">
    </path>
    <path d="M57.79977,63.14064v1.70086l-0.18126-.00131v-1.638Z"></path>
    <path
      d="M61.14839,50.82857l0.63729,1.27159a1.19619,1.19619,0,0,1-.93874-1.112Z">
    </path>
    <path d="M76.4295,51.30595c0.01448,1.01428-.32411,1.00847-0.95537.6196Z">
    </path>
    <path
      d="M76.69354,53.10237L77.21321,54.295C76.32588,53.9929,76.453,53.57229,76.69354,53.10237Z">
    </path>
    <path
      d="M68.86811,77.08139a2.25474,2.25474,0,0,1,.72543-1.88732,3.09136,3.09136,0,0,1-.7403,1.87526Z">
    </path>
    <path
      d="M67.1608,76.72906l-0.2312-1.30875C67.07135,75.786,67.97031,75.93373,67.1608,76.72906Z">
    </path>
    <path
      d="M26.88807,74.17448a2.50914,2.50914,0,0,1,1.22024,1.39707,1.87338,1.87338,0,0,1-1.20116-1.41428Z">
    </path>
    <path
      d="M75.47381,42.30436l1.31727-1.07891a1.33179,1.33179,0,0,1-1.25158,1.15385Z">
    </path>
    <path
      d="M74.064,56.52422l-0.81052-1.27259c0.93081,0.10289.82761,0.71066,0.79349,1.28569Z">
    </path>
    <path
      d="M78.11721,73.01154l-1.55276.84194a1.63214,1.63214,0,0,1,1.56514-.82707Z">
    </path>
    <path
      d="M31.71154,84.291q0.12616-.29232.252-0.58466c0.82962,0.05338.36489,0.86506,0.60023,1.35354Z">
    </path>
    <path d="M24.90679,69.56209l-0.31909-.58674,0.06783-.509,0.30512,0.01818Z">
    </path>
    <path
      d="M59.9648,47.19051l0.97908,1.27734c-0.92752-.128-0.84755-0.78766-1.13693-1.13551Z">
    </path>
    <path
      d="M65.0888,78.50783c0.07025,0.45188.30818,0.95905-.47133,1.19455a1.21927,1.21927,0,0,1,.47744-1.19Z">
    </path>
    <path d="M46.29039,77.72437L46.80507,78.674l-0.21962.1446-0.58013-.90616Z">
    </path>
    <path
      d="M57.617,67.77678V66.71011C57.9966,67.20331,57.9966,67.20331,57.617,67.77678Z">
    </path>
    <path
      d="M64.52394,60.01784l-0.19861-.84438,0.16389-.11054a1.92041,1.92041,0,0,1,.33838.42934,1.34841,1.34841,0,0,1,.01174.4798Z">
    </path>
    <path
      d="M74.13151,43.2842c-0.73684.53034-.73684,0.53034-1.07728-0.3318,0.33027,0.06317.636,0.12163,0.942,0.18048Z">
    </path>
    <path d="M80.28159,75.48556l-0.34866.6735-0.18561-.07138,0.25495-.71227Z">
    </path>
    <path
      d="M62.98838,45.42621l-0.72087-.40839,0.10321-.18787,0.73165,0.38838Z">
    </path>
    <path d="M41.61921,70.50578l0.23375,0.6314-0.1983.08966-0.30533-.57328Z">
    </path>
    <path
      d="M70.2952,61.14947l1.212-.593c-0.195.73308-.75392,0.53961-1.22394,0.57756Z">
    </path>
    <path d="M75.09552,83.824l-0.30013.60366-0.23068-.11515,0.32891-.59449Z">
    </path>
    <path d="M84.46438,59.12553l-0.16582.61852-0.22939-.05326,0.14146-.663Z">
    </path>
    <path
      d="M75.53951,42.3793q-0.70426.45214-1.40826,0.9046l-0.135-.151q0.73881-.41424,1.47792-0.82812Z">
    </path>
    <path
      d="M73.40309,40.80494l1.296-.88241A1.88894,1.88894,0,0,1,73.58,41.00329Z">
    </path>
    <path
      d="M67.68246,42.62356q0.44757,0.00172.89524,0.0034,0.13807,0.2941.276,0.58822l0.01385-.01628Q68.27514,42.91117,67.68246,42.62356Z">
    </path>
    <path
      d="M75.54327,46.0537a1.09937,1.09937,0,0,1-.44685.21364,1.08724,1.08724,0,0,1-.35092-0.2877,0.69524,0.69524,0,0,1,.28082-0.21151A1.69594,1.69594,0,0,1,75.54327,46.0537Z">
    </path>
    <path d="M33.94675,82.68971l0.48056,0.45965-0.43255.43272-0.47888-.46132Z">
    </path>
    <path d="M78.4141,80.96969l-0.89,1.3168Q77.969,81.6281,78.4141,80.96969Z">
    </path>
    <path d="M67.33979,81.331l-0.54677.35671-0.13786-.17529,0.47578-.44651Z">
    </path>
    <path
      d="M42.24024,73.17991l-0.22414-.56678,0.17359-.08437,0.30677,0.55384Z">
    </path>
    <path d="M28.69837,71.88331l0.38592,0.50416-0.16271.12816-0.39471-.49922Z">
    </path>
    <path
      d="M57.70594,86.05457l0.28776,0.16222a1.87647,1.87647,0,0,1-.25778.3,0.41665,0.41665,0,0,1-.20664-0.13262A1.792,1.792,0,0,1,57.70594,86.05457Z">
    </path>
    <path
      d="M46.29956,14.26372l-2.48788.335-0.10044-.13115,2.80626-1.57284L46.278,14.28061Z">
    </path>
    <path
      d="M46.278,14.28061l0.99012,0.33886c-0.432.26126-.69151,0.42613-0.95871,0.57736a1.55275,1.55275,0,0,1-.87188.24656q0.43092-.58979.86192-1.17962Z">
    </path>
    <path d="M43.676,12.99633H42.971l-0.0284-.23618,0.70722-.10695Z"></path>
    <path
      d="M28.86323,30.97827a2.8772,2.8772,0,0,1-.34316.22127,3.53382,3.53382,0,0,1-.59433.09432l0.80462-.51908Z">
    </path>
    <path
      d="M42.53191,23.57817c0.432-1.64559,2.2359-2.02255,2.61873-3.487C45.32281,21.36713,44.67582,22.21257,42.53191,23.57817Z">
    </path>
    <path
      d="M36.08132,30.70695c0.27076-1.08034.25443-2.0662,1.07952-2.75045C37.5906,29.52281,37.37655,30.15595,36.08132,30.70695Z">
    </path>
    <path
      d="M39.041,28.75262c0.81291-.22725,1.62493-0.45779,2.43953-0.67881a3.70006,3.70006,0,0,1,.47753-0.067l0.07706,0.295-3.15764,1.01453a0.88759,0.88759,0,0,1-.07928-0.24337,0.29972,0.29972,0,0,1,.07793-0.11659c0.05934-.0739.12094-0.146,0.1816-0.21882Z">
    </path>
    <path
      d="M33.26136,30.4948q-0.29609-.29557-0.59226-0.59114c0.40886-.5189.81781-1.03779,1.34045-1.70091A3.3697,3.3697,0,0,1,33.26136,30.4948Z">
    </path>
    <path
      d="M45.09948,24.96781l1.07009,0.41144-1.362.66549L44.6213,25.882q0.2521-.4514.504-0.90292Z">
    </path>
    <path
      d="M39.3763,26.22968l0.64015-1.588,0.30141,0.1262A1.77831,1.77831,0,0,1,39.3763,26.22968Z">
    </path>
    <path
      d="M48.61253,21.52139a1.04244,1.04244,0,0,1-.75049,1.17933q0.36011-.60154.71992-1.20327Z">
    </path>
    <path
      d="M39.05769,28.73759l-0.60258-.41242,0.42845-.26474L39.041,28.75256Z">
    </path>
    <path d="M39.85263,30.19979l-0.661.261-0.09393-.19962,0.61831-.3439Z">
    </path>
    <path
      d="M42.61984,26.541l-0.21532.33063-0.25525-.18327a3.26989,3.26989,0,0,1,.25362-0.311A1.98171,1.98171,0,0,1,42.61984,26.541Z">
    </path>
    <path d="M43.43115,24.24l-0.33924.78061-0.24535-.08168,0.26574-.83745Z">
    </path>
  </g>
</svg>