<svg id="calendar-svg" class="hvr-pop" xmlns="http://www.w3.org/2000/svg" xmlns:xlink="http://www.w3.org/1999/xlink"
  version="1.1" x="0px" y="0px" viewBox="0 0 100 100"
  style="enable-background:new 0 0 100 100;" xml:space="preserve">
  <title>Meal Plan</title>
  <path
    d="M86.7,65.3c-0.1-5.6-0.9-11.1-0.6-16.7c0.1-1.9-0.3-3.8-0.1-5.6c0.3-2.6,0.5-5.2,0.5-7.8c0-4.3-0.2-8.6-0.3-12.9  c0-0.4,0-1.1-0.2-1.2c-1.8-1.3-1.3-3.1-1.2-4.8c0.1-2.4-1.4-4.6-3.9-4.8c-1.1-0.1-1.6-0.7-1.7-1.5c-0.1-1.1-0.5-2.3-0.2-3.4  c0-0.1,0.1-0.2,0.1-0.3c-0.2,0-0.3,0.1-0.5,0.1c-0.4,0-0.7,0-1-0.1c-0.4,0.3-0.9,0.7-1.5,0.5c-1.7-0.5-1.6,0.6-1.6,1.6  c0,0.7,0.3,1.7-0.8,2c-1.5,0.3-3.1,0.5-4.6,0.9c-0.6,0.1-0.9,0-0.8-0.6c0.3-1.1,0-2.2,0-3.2c0.2-2.8,0.1-2.8-2.6-2.2  C64.6,5.5,64.2,6,64,7c-0.2,1.1-0.8,2-0.9,3.1c0,0.6-0.4,1.2-1.2,1c-2.6-0.6-5.3,0.1-8-0.5c-2.4-0.5-2.5-0.4-2.4-2.9  c0.1-2-1.2-2.7-3-2.3c-1.9,0.4-1.8,1.8-1.9,3c-0.1,1.7-1,2.1-2.4,1.7c-2.1-0.5-4.2-0.5-6.3-0.3c-2,0.2-2.9-0.8-2.5-2.8  c0.3-1.5,1-3-1.7-2.1c-0.5,0.2-1.2-0.3-1.7-0.3c-0.7-0.1-1.3,0.1-1.1,1c0.2,0.7-0.3,1.3-0.1,2.1c0.3,1.6-0.7,2.7-2.4,2.8  c-1.5,0-3,0-4.5,0.2c-2.6,0.3-2.6,0.3-2.5-2.3c0.2-3.5,0.2-3.5-2.6-3.4c-1,0-1.6,0.2-1.4,1.5c0.1,0.8-0.2,1.7-0.3,2.5  c-0.1,1.1-0.5,1.8-1.7,2.2c-3,0.9-4,2.2-4,5c-0.1,2.7,0,5.3,0,8c0,5.2,0.1,10.4,0.1,15.6c0,1.4,0,2.9-0.2,4.1  c-0.4,2.9,0.3,5.6,0.5,8.4c0.2,4.9,0.4,9.8,0.4,14.7c0.1,7.3,0.9,14.6,1,21.9c0,1.9,0.7,3.7,1.1,5.5c0.2,0.7,0.6,1.3,1.3,1.7  c1.6,1,3.2,1.6,5.2,1.5c3.4-0.1,6.8-0.1,10.2,0c7.3,0.1,14.6-0.2,21.9,0.3c3.1,0.2,6.3,0.1,9.4-0.2c3.5-0.3,7.1-0.1,10.7-0.1  c2.3-0.1,4.6,0,6.8-0.7c4.8-1.5,6.3-5.7,6.8-10C87.3,79.7,86.9,72.5,86.7,65.3z M15.5,13.9c0.5-0.2,0.9,0.1,1.1,0.5  c-0.3,1.2-1.3,1.1-2.1,1.5c-0.3,0.1-0.8,0.1-0.8-0.4C13.8,14.5,14.7,14.2,15.5,13.9z M16.2,19.7c0.1,1,0,2.1-1.1,2.1  c-1.3,0-0.5-1.3-0.7-1.9c0-0.5,0-0.9,0.1-1.3c0.2-0.8,0.2-2,1.3-1.8c1.2,0.2,0.3,1.2,0.4,1.9C16.2,19,16.2,19.4,16.2,19.7z M14.5,31  c0.5-0.5,1-0.6,0.1-1.5c-1.1-1,0.5-1.9,1.4-2.8c-0.7-0.4-1.7,0.7-1.8-0.7c-0.1-1.4-0.3-2.7,1.5-3.2c0.7-0.2,1.5-0.4,2.2-0.3  c1.9,0,2.4-1.2,2.8-2.7c0.4-1.3,0.3-2.8,1-4c0.2-0.4,0.1-0.7-0.1-1c-1-1.5-0.5-2.1,1.2-2c2.1,0,4.1,0.1,6.2,0.1c0.7,0,0.9,0.3,0.9,1  c-0.1,1.9-0.2,3.8-0.1,5.6c0,1,0,2.2,1.4,2.4c1.5,0.2,3.3-0.7,3.7-1.9c0.6-1.8,0.4-3.6,0.6-5.4c0.1-1.2,0.5-1.9,1.8-2  c2.3-0.2,4.7-0.5,7-0.4c1.2,0,2.4,0.4,2.3,2.3c-0.1,1.7,0.3,3.4,0.4,5.1c0,0.5,0.1,1,0,1.4c-0.2,0.5-0.9,1,0.1,1.5  c0.7,0.3,1.2,1.6,2.3,0.7c1-0.8,1.5-0.4,2,0.7c0-3.2,0.3-6.2,0.5-9.2c0.1-1.5,0.5-1.9,2-1.5c2,0.5,4.2,0.7,6.3,0.8  c2.9,0.1,3,0.2,3.1,3c0,0.4,0,0.8,0,1.3c0,3.2,0.1,3.3,3.3,3.5c1.1,0.1,1-0.9,1-1.3c-0.3-2.1,1.2-3.9,1.1-6c0-0.5,0.3-0.7,0.7-0.9  c1.5-0.6,4.4-0.1,5.3,1.1c0.2,0.2,0.2,0.6,0.1,0.9c-0.3,2.2,1.1,4.1,0.8,6.3c-0.1,0.5,0.6,1.2,1,1.9c-0.8,0.2-1.6,0.4-2.3,0.6  c0,0.1,0,0.2,0,0.4c2,0,4,0,6,0c0.5,0,0.9,0,0.9-0.6c0-0.8-0.5-0.4-0.8-0.2c-0.5,0.2-1,0-1.2-0.5c-0.1-0.2-0.1-0.6,0.1-0.8  c0.3-0.5,0.8-0.4,1.3-0.1c0.3,0.2,0.6,0.5,0.9,0.1c0.3-0.4-0.1-0.6-0.2-0.9c-0.5-1-0.3-2.1-0.3-3.2c0-0.9,0.2-2-0.8-2.6  c-0.5-0.3-0.8-0.7-0.2-1.1c0.5-0.4,0.9-0.2,1.4,0.4c1.4,2,1.6,4.3,1.8,6.6c0.2,1.8,0,3.6-0.3,5.4c-0.5,2.8-0.2,5.6-0.1,8.3  c0,1.4-0.5,1.9-2.1,2c-2,0.1-3.4-1.5-5.4-1.1c-0.5,0.1-1.1,0-1.6,0c-0.5,0-0.8,0-0.3,0.7c0.6,0.7-0.4,0.4-0.6,0.4  c-5.2,0.4-10.4,0.3-15.6,0.4c-8.9,0.3-17.7-0.8-26.6-1.3c-2.8-0.1-5.7-0.2-8.5-0.2c-1.7,0-3.2,1.2-5.1,0.9c-1.4-0.2-2.6-0.6-2.9-1.8  C13.4,33.8,13.4,32.2,14.5,31z M83.8,87.7c-0.1,1.5-0.6,3-1.1,4.2c-0.6,1.3-2.4,2.2-4.1,2.1c-2.7-0.2-5.2,0.6-7.8,1  c-1.6,0.2-2,0.2-1.7-1.4c0-0.2-0.1-0.4-0.2-0.8c-0.8,0.7,0.3,2.1-0.9,2.4c-0.9,0.2-1.8,0.3-2.7,0.3c-4.8-0.1-9.6-0.1-14.3-0.3  c-7.4-0.3-14.9-0.3-22.3-0.3c-2.5,0-4.9,0.8-7.4-0.1c0.2-0.6,1.1,0.1,1.3-0.7c-1.6-0.8-3.2-0.6-4.9-0.6c-1,0-2.4-1.7-2.3-2.6  c0.1-0.6,0.4-0.6,0.9-0.7c1.3-0.3,2.5-0.2,3.8,0c0.7,0.1,1.4,0.1,2.3-0.5c-1.8-0.2-1.9-1.2-1.6-2.5c0.2-1,0.2-2-1.4-1.7  c-0.8,0.1-1.7-0.1-2.5-0.2c-0.9-0.1-1-0.7-1.1-1.4c0-0.9,0.5-0.9,1.2-1c0.6,0,1.3,0.2,1.9-0.3c-0.3-0.7-0.8-0.5-1.1-0.4  c-2.1,0.8-2.1-0.5-2-1.9c0.1-3.8,0-3.8,3.9-3.9c0.5,0,1.1,0.1,1.8-0.4c-1.8-0.7-3.6-0.2-5.2-0.5c-0.3-0.6,0.8-0.8,0.4-1.2  c-0.3-0.4-1-0.6-1.5-0.2c-0.7,0.5-0.9,0.1-0.9-0.5c0.2-2-0.5-3.9-0.3-6c0.1-0.9,0.3-1.2,1.2-1c1.2,0.3,2.5-0.1,3.8-0.3  c-1.2-0.3-2.4-0.8-3.6-0.7c-1.2,0.1-1.6-0.1-1.6-1.4c0.1-2.4,0-2.4,3.9-3.4c-1.7-0.5-1.7-0.5-3.2-0.2c-0.9,0.2-0.9-0.4-0.9-0.9  c0.1-2.9-0.1-5.8-0.4-8.7c0-0.3,0-0.7,0.1-0.9c2.3-2.4,1.1-4.9,0.4-7.4c-0.6-2.1,1.1-3.9,3.6-3.6c6.7,0.8,13.5,0.6,20.2,0  c0.4,0,0.8,0,1.1,0c0.5-0.2,1.2-0.4,1.9-0.4c1,0,1.9,0.3,2.5,0.8c0.7-0.4,2-0.4,3-0.4c4.6-0.1,9.2,0,13.9,0.5  c1.9,0.2,4.2-0.5,6.4-0.5c3.4,0,6.8-0.1,10.3-0.5c2-0.2,4.2-0.1,6.3-0.2c0.4,0,0.8,0,0.8,0.5c0,0.6-0.6,0.4-1,0.4  c-1.5-0.3-2.8,0.2-4.5,0.8c1.6,0,2.8,0,4,0c0.5,0,1.4-0.3,1.4,0.6c0,0.9-0.9,0.8-1.5,0.8c-0.8,0.1-1.6,0-2.3,0.7c0.8,0,1.5,0,2.3,0  c1.1,0,1.7,0.3,1.9,1.6c0.5,3.7,0.5,3.8-3.3,4c-0.8,0-1.6-0.2-2.1,0.6c1.2,1,3.3-1.1,4.2,1.2c0.6,0,0.3-1.3,1.1-0.9  c0.7,0.3,0.4,0.9,0.5,1.4c0.2,6.4,0.1,12.8,0.2,19.2C84.5,75.5,84.1,81.6,83.8,87.7z M15.6,87.7c-0.1-1.8,1.1-1.7,2.1-1.5  c1.2,0,2.3-0.6,2.3,1.2c0,1.1-0.2,1.8-1.5,1.6C17.5,88.8,15.7,90,15.6,87.7z">
  </path>
  <path
    d="M82.8,59.3c-0.8-0.6-1.3-1.3-2.3-1.1c-0.8,0.2-0.8,2.4,0,2.9c0.6,0.3,1.3,0.5,2,0.8c-0.5,0.5-1,0.3-1.5,0.3  c-0.4,0-0.9,0-0.9,0.6c0,0.5,0.3,0.9,0.9,0.9c0.4,0,0.7,0,1.1,0c0.7,0,1.1,0.5,0.9,1c-0.1,0.6-0.7,0.2-1.1,0.1  c-1.6-0.4-3.3-0.4-5-0.3c-0.8,0-2,0.6-1.1-1.2c0.7-1.4,0.8-3.3,0.1-4.6c-0.9-1.8,0.3-1.4,1-1.3c0.8,0.1,1.6,0.3,2.1-0.6  c0.4-0.7,0.4-0.2,0.6,0.1c0.6,0.6,1.3,0.7,2,0.3c0.3-0.1,0.5-0.5,0.3-0.8c-0.3-0.7-1.1-0.9-1.7-0.9c-1.7,0.1-3.3-0.5-5-0.2  c-0.7,0.1-1.5,0.2-2.3-0.4c0.9-0.5,1.8-0.3,2.6-0.3c1.2,0,2.4,0.6,3.4-0.7c0.5-0.6,0.5,0.1,0.7,0.3c0.6,0.6,1.3,0.9,1.9,0.4  c0.7-0.5,0.6-1.3,0.2-2.1c-0.1-0.3-1-0.3-0.3-0.9c0.2-0.2,0.5-0.4,0.7-0.5c0.3,0.4,0.8,0.9,0.7,1.1C82.3,54.4,82.7,56.8,82.8,59.3z   M79.5,59.6c-0.1-0.7,0.2-1.6-1.1-1.6c-1.6,0-1.4,1.1-1.6,2.1c-0.2,1,0.5,1,1.2,1C79.1,61.1,79.6,60.8,79.5,59.6z M78.2,63.6  c0.8,0.2,1.4-0.2,1.4-1.1c0-1-0.8-1-1.4-0.9c-0.7,0-1.3,0.1-1.3,1.1C76.8,63.6,77.4,63.7,78.2,63.6z">
  </path>
  <path
    d="M77.7,89.7c-0.2,0.7,0.8,0.9,1.2,1.9c-4.6-0.2-9,0.5-13.4-0.1c2.1-0.3,4.1-0.5,6.2-0.7C73.7,90.5,75.9,91.2,77.7,89.7z">
  </path>
  <path
    d="M69,86.6c2.1-0.8,10.4-0.9,12-0.2c-2.9,0.2-5.4,0.7-8,0.3c-0.9-0.1-1.8-0.2-2.6,0.6C70,87.7,69.6,86.6,69,86.6z">
  </path>
  <path
    d="M72.4,78.4c2.5-0.8,5-1.5,7.7-1.4c0.4,0,1-0.2,1.1,0.3c0.1,0.6-0.5,0.8-1,0.8C77.6,77.9,75,78.6,72.4,78.4z">
  </path>
  <path
    d="M77.3,79.9c0.4,0.9,0.8,1.6,1.8,1.5c0.7,0,1.5-0.3,2.4,0.7c-3,0-5.6,0-8.5,0C74.4,80.9,76.9,82.6,77.3,79.9z">
  </path>
  <path
    d="M79,73.9c1.2-0.1,2.1-0.2,2.9,0c0.4,0.1,0.9,0.2,0.8,0.8c-0.1,0.5-0.5,0.4-0.9,0.3c-1.6-0.5-3.2-0.7-4.8-0.2  c-0.3,0.1-0.8,0-0.7-0.5c0.1-0.4,0.4-0.6,0.8-0.6C77.8,73.8,78.6,73.9,79,73.9z">
  </path>
  <path
    d="M75.2,67.3c0.7-0.8,1-1.2,1.3-1.7c1,2.2,4.1-0.9,5.1,2.2C79.6,66.9,77.6,67,75.2,67.3z">
  </path>
  <path
    d="M81,70.8c-1.6,0.8-3.2,0.1-4.4,0.8c0,0-0.7-0.3-0.6-0.8c0.1-0.3,0.4-0.9,0.7-0.7C77.9,71.1,79.4,70.1,81,70.8z">
  </path>
  <path d="M15,58.3c-0.6-1.5-0.6-3-0.5-4.6C15.3,54.8,15.3,55.1,15,58.3z"></path>
  <path d="M78.2,43.8c1.2-0.8,2.3-0.6,3.7,0.5C80.3,44.1,79.3,43.9,78.2,43.8z">
  </path>
  <path
    d="M70.8,27.1c3.1-0.2,6.2-1.4,9.4-0.9c0.4,0.1,1-0.2,0.8,0.5c-0.1,0.6-0.6,0.5-1,0.4c-1.4-0.3-2.8-0.4-4.1-0.1  C74.2,27.5,72.5,27.5,70.8,27.1z">
  </path>
  <path d="M78.6,33.5c-3.9,0.3-7.9,0.3-11.9,0.4C70.7,33.5,74.6,32.5,78.6,33.5z">
  </path>
  <path
    d="M15.2,33.8c4.4-0.9,8.7,0.3,13.1,0.6c-2.2-0.1-4.3,0.3-6.5-0.3C19.6,33.6,17.4,33.7,15.2,33.8z">
  </path>
  <path
    d="M70.1,30.4c1.1-0.7,2.9,0.3,3.5-1.5c1.4,1.8,3.5,0.3,5.4,1.2C75.9,30.8,73,30.4,70.1,30.4z">
  </path>
</svg>