<svg id="dark-theme-select" class="nav-icons"
  xmlns:dc="http://purl.org/dc/elements/1.1/"
  xmlns:cc="http://creativecommons.org/ns#"
  xmlns:rdf="http://www.w3.org/1999/02/22-rdf-syntax-ns#"
  xmlns:svg="http://www.w3.org/2000/svg" xmlns="http://www.w3.org/2000/svg"
  xmlns:sodipodi="http://sodipodi.sourceforge.net/DTD/sodipodi-0.dtd"
  xmlns:inkscape="http://www.inkscape.org/namespaces/inkscape"
  viewBox="0 0 16.933333 16.933334" version="1.1" x="0px" y="0px">
  <title>Dark theme</title>
  <g transform="translate(0,-280.06664)">
    <path
      
      d="m 8.4666667,283.24164 c -1.6644104,0 -3.1867293,0.88611 -4.047815,2.29909 -0.54948,0.17405 -1.0028685,0.50454 -1.2857096,0.92759 -0.2521268,0.37711 -0.3730337,0.79684 -0.4294312,1.21336 -1.255051,0.42449 -2.17454435,1.57423 -2.17454435,2.9683 0,1.74979 1.42520295,3.175 3.17500005,3.175 h 4.7625001 4.7625003 c 1.749798,0 3.175,-1.42521 3.175,-3.175 0,-1.39407 -0.919493,-2.54381 -2.174544,-2.9683 -0.0564,-0.41652 -0.177306,-0.83625 -0.429432,-1.21336 -0.282842,-0.42305 -0.736228,-0.75354 -1.285709,-0.92759 -0.861086,-1.41298 -2.383404,-2.29909 -4.0478153,-2.29909 z m 0,1.05834 c 1.0097625,0 1.9584063,0.41026 2.6453163,1.11207 -0.494643,0.10121 -0.941745,0.34009 -1.2934607,0.67438 -0.5117638,0.48698 0.2184237,1.25489 0.7301877,0.76791 0.285281,-0.27115 0.667186,-0.44013 1.09399,-0.4377 0.497892,0.003 1.02108,0.26621 1.277442,0.64027 0.199924,0.29904 0.306441,0.68645 0.306441,0.99994 4e-5,0.25219 0.178021,0.46931 0.425297,0.51883 0.969354,0.1944 1.693954,1.03816 1.693954,2.0743 0,1.18178 -0.934881,2.11666 -2.116667,2.11666 H 8.4666667 3.7041666 c -1.1817867,0 -2.1166667,-0.93488 -2.1166667,-2.11666 0,-1.03614 0.7245994,-1.8799 1.6939536,-2.0743 0.2472759,-0.0495 0.4252568,-0.26664 0.4252971,-0.51883 0,-0.3135 0.1065167,-0.7009 0.3064412,-0.99994 0.1999242,-0.29903 0.4687181,-0.51055 0.845943,-0.58032 0.1557306,-0.0288 0.2903543,-0.12593 0.3669028,-0.26459 0.6524215,-1.18032 1.8922659,-1.91202 3.2406291,-1.91202 z">
    </path>
  </g>
</svg>