<svg id="dark-theme-select" class="nav-icons"
  xmlns:dc="http://purl.org/dc/elements/1.1/"
  xmlns:cc="http://creativecommons.org/ns#"
  xmlns:rdf="http://www.w3.org/1999/02/22-rdf-syntax-ns#"
  xmlns:svg="http://www.w3.org/2000/svg" xmlns="http://www.w3.org/2000/svg"
  xmlns:sodipodi="http://sodipodi.sourceforge.net/DTD/sodipodi-0.dtd"
  xmlns:inkscape="http://www.inkscape.org/namespaces/inkscape"
  viewBox="0 0 16.933333 16.933333" version="1.1" x="0px" y="0px">
  <title>Dark theme</title>
  <g transform="translate(0,-280.06669)">
    <path
      style="color:#000000;font-style:normal;font-variant:normal;font-weight:normal;font-stretch:normal;font-size:medium;line-height:normal;font-family:sans-serif;font-variant-ligatures:normal;font-variant-position:normal;font-variant-caps:normal;font-variant-numeric:normal;font-variant-alternates:normal;font-feature-settings:normal;text-indent:0;text-align:start;text-decoration:none;text-decoration-line:none;text-decoration-style:solid;text-decoration-color:#000000;letter-spacing:normal;word-spacing:normal;text-transform:none;writing-mode:lr-tb;direction:ltr;text-orientation:mixed;dominant-baseline:auto;baseline-shift:baseline;text-anchor:start;white-space:normal;shape-padding:0;clip-rule:nonzero;display:inline;overflow:visible;visibility:visible;opacity:1;isolation:auto;mix-blend-mode:normal;color-interpolation:sRGB;color-interpolation-filters:linearRGB;solid-color:#000000;solid-opacity:1;vector-effect:none;fill:#000000;fill-opacity:1;fill-rule:evenodd;stroke:none;stroke-width:3.99999976;stroke-linecap:round;stroke-linejoin:round;stroke-miterlimit:4;stroke-dasharray:none;stroke-dashoffset:30.23622131;stroke-opacity:1;paint-order:stroke fill markers;color-rendering:auto;image-rendering:auto;shape-rendering:auto;text-rendering:auto;enable-background:accumulate"
      d="m 36.001953,14.001953 c -6.006698,9.45e-4 -11.335637,3.251497 -14.660156,8.171875 -0.468922,-0.09222 -0.944694,-0.178112 -1.34375,-0.177734 -4.997552,0.0031 -8.626383,3.854373 -9.404297,8.59375 C 5.8513843,31.366801 2,35.046539 2,40.001953 c 0,5.505411 4.498494,9.994141 10.003906,9.994141 h 3.992188 c 2.82717,0 2.82717,-3.994141 0,-3.994141 h -3.992188 c -3.3585855,0 -6.0019529,-2.641436 -6.0019529,-6 C 6.0019531,36.643389 8.6453092,34 12.003906,34 c 1.104913,1.51e-4 2.000168,-0.895093 2,-2 0,-3.337436 2.658206,-6.003956 5.994141,-6.001953 0.496725,5.67e-4 0.996041,0.0692 1.490234,0.199219 0.885536,0.232441 1.816885,-0.165311 2.259766,-0.966797 2.465212,-4.462866 7.156079,-7.225882 12.253906,-7.226563 7.755335,-0.001 13.996094,6.240428 13.996094,13.996094 -1.66e-4,1.104907 0.895089,2.000151 2,2 C 55.356649,34 58,36.643389 58,40.001953 c 0,3.358564 -2.643363,6 -6.001953,6 H 28 c -2.820472,0 -2.820472,3.994141 0,3.994141 H 51.998047 C 57.503466,49.996094 62,45.507364 62,40.001953 62,35.175232 58.302056,31.647771 53.740234,30.722656 53.04883,21.429743 45.467275,14.000555 36.001953,14.001953 Z"
      transform="matrix(0.26458333,0,0,0.26458333,0,280.06669)"></path>
    <path
      style="color:#000000;font-style:normal;font-variant:normal;font-weight:normal;font-stretch:normal;font-size:medium;line-height:normal;font-family:sans-serif;font-variant-ligatures:normal;font-variant-position:normal;font-variant-caps:normal;font-variant-numeric:normal;font-variant-alternates:normal;font-feature-settings:normal;text-indent:0;text-align:start;text-decoration:none;text-decoration-line:none;text-decoration-style:solid;text-decoration-color:#000000;letter-spacing:normal;word-spacing:normal;text-transform:none;writing-mode:lr-tb;direction:ltr;text-orientation:mixed;dominant-baseline:auto;baseline-shift:baseline;text-anchor:start;white-space:normal;shape-padding:0;clip-rule:nonzero;display:inline;overflow:visible;visibility:visible;opacity:1;isolation:auto;mix-blend-mode:normal;color-interpolation:sRGB;color-interpolation-filters:linearRGB;solid-color:#000000;solid-opacity:1;vector-effect:none;fill:#000000;fill-opacity:1;fill-rule:evenodd;stroke:none;stroke-width:1.05833328;stroke-linecap:round;stroke-linejoin:round;stroke-miterlimit:4;stroke-dasharray:none;stroke-dashoffset:30.23622131;stroke-opacity:1;paint-order:stroke fill markers;color-rendering:auto;image-rendering:auto;shape-rendering:auto;text-rendering:auto;enable-background:accumulate"
      d="m 9.5253906,285.86914 c -0.9700092,1.2e-4 -1.8627364,0.52582 -2.3320312,1.375 -0.3482878,0.63023 -1.0728376,0.94219 -1.7695313,0.75977 A 0.52921956,0.52921956 0 1 0 5.15625,289.02734 c 1.1597664,0.30368 2.3829544,-0.22209 2.9628906,-1.27148 0.2862658,-0.518 0.815535,-0.83 1.40625,-0.83008 a 0.52921956,0.52921956 0 1 0 0,-1.05664 z">
    </path>
  </g>
</svg>