<svg class="subscription-icons"   data-toggle="tooltip" data-placement="right" title="Not included"
  xmlns="http://www.w3.org/2000/svg" xmlns:xlink="http://www.w3.org/1999/xlink"
  version="1.1" x="0px" y="0px" viewBox="0 0 100 100"
  enable-background="new 0 0 100 100" xml:space="preserve">
  <path
    d="M39.4,56.2l6.2-6.2l-6.2-6.2c-1.2-1.2-1.2-3.2,0-4.4c1.2-1.2,3.2-1.2,4.4,0l6.2,6.2l6.2-6.2c1.2-1.2,3.2-1.2,4.4,0  c1.2,1.2,1.2,3.2,0,4.4L54.4,50l6.2,6.2c1.2,1.2,1.2,3.2,0,4.4c-0.6,0.6-1.4,0.9-2.2,0.9s-1.6-0.3-2.2-0.9L50,54.4l-6.2,6.2  c-0.6,0.6-1.4,0.9-2.2,0.9c-0.8,0-1.6-0.3-2.2-0.9C38.2,59.4,38.2,57.4,39.4,56.2z M8.6,50C8.6,27.2,27.2,8.6,50,8.6  c22.8,0,41.4,18.6,41.4,41.4c0,22.8-18.6,41.4-41.4,41.4C27.2,91.4,8.6,72.8,8.6,50z M14.8,50c0,19.4,15.8,35.2,35.2,35.2  S85.2,69.4,85.2,50S69.4,14.8,50,14.8S14.8,30.6,14.8,50z">
  </path>
</svg>