<svg class="management-icons hvr-pop"  data-toggle="tooltip" data-placement="right" title="Delete" xmlns="http://www.w3.org/2000/svg" xmlns:xlink="http://www.w3.org/1999/xlink"
  version="1.1" x="0px" y="0px" viewBox="0 0 24 24"
  style="enable-background:new 0 0 24 24;" xml:space="preserve">
  <path
    d="M20.579,2.804h-1.724h-2.759V1.769c0-0.381-0.309-0.69-0.69-0.69H8.594c-0.381,0-0.69,0.309-0.69,0.69v1.035H5.146H3.421  c-0.381,0-0.69,0.309-0.69,0.69c0,0.381,0.309,0.69,0.69,0.69h1.035v18.048c0,0.381,0.309,0.69,0.69,0.69h13.709  c0.381,0,0.69-0.309,0.69-0.69V4.183h1.035c0.381,0,0.69-0.309,0.69-0.69C21.268,3.113,20.96,2.804,20.579,2.804z M9.284,2.459  h5.432v0.344H9.284V2.459z M18.165,21.541H5.835V4.183h12.329V21.541z">
  </path>
  <path
    d="M8.508,18.667c0.381,0,0.69-0.309,0.69-0.69V7.632c0-0.381-0.309-0.69-0.69-0.69s-0.69,0.309-0.69,0.69  v10.346C7.819,18.359,8.128,18.667,8.508,18.667z">
  </path>
  <path
    d="M15.406,18.667c0.381,0,0.69-0.309,0.69-0.69V7.632c0-0.381-0.309-0.69-0.69-0.69  c-0.381,0-0.69,0.309-0.69,0.69v10.346C14.716,18.359,15.025,18.667,15.406,18.667z">
  </path>
  <path
    d="M12,18.667c0.381,0,0.69-0.309,0.69-0.69V7.919c0-0.381-0.309-0.69-0.69-0.69  c-0.381,0-0.69,0.309-0.69,0.69v10.059C11.31,18.358,11.619,18.667,12,18.667z">
  </path>
</svg>