<svg xmlns="http://www.w3.org/2000/svg" xmlns:xlink="http://www.w3.org/1999/xlink"
  version="1.1" x="0px" y="0px" viewBox="0 0 64 64"
  enable-background="new 0 0 64 64" xml:space="preserve">
  <title>Four people</title>
  <g display="none">
    <rect x="-232.51" y="-84.738" display="inline" fill="#000000" width="787"
      height="375.042"></rect>
  </g>
  <g display="none">
    <g display="inline">
      <g>
        <path fill="#000000"
          d="M32,63C14.906,63,1,49.093,1,32S14.906,1,32,1s31,13.906,31,31S49.094,63,32,63z">
        </path>
      </g>
      <g>
        <g>
          <path fill="#000000"
            d="M32,2c16.542,0,30,13.458,30,30c0,16.542-13.458,30-30,30S2,48.542,2,32C2,15.458,15.458,2,32,2 M32,0      C14.327,0,0,14.327,0,32s14.327,32,32,32s32-14.327,32-32S49.673,0,32,0L32,0z">
          </path>
        </g>
      </g>
    </g>
    <g display="inline">
      <g>
        <circle cx="15.271" cy="22.016" r="1.946"></circle>
      </g>
      <g>
        <path
          d="M17.444,24.74h-4.346c-1.532,0-2.78,1.247-2.78,2.78v5.451c0,0.558,0.453,1.011,1.011,1.011     c0.558,0,1.011-0.453,1.011-1.011v-4.889h0.607v4.609c0,0.002-0.001,0.004-0.001,0.006v10.306c0,0.558,0.453,1.011,1.011,1.011     c0.558,0,1.011-0.453,1.011-1.011v-8.291h0.606v8.291c0,0.558,0.453,1.011,1.011,1.011s1.011-0.453,1.011-1.011v-8.291v-2.015     v-4.616h0.607v4.889c0,0.558,0.453,1.011,1.011,1.011c0.558,0,1.011-0.453,1.011-1.011V27.52     C20.224,25.988,18.977,24.74,17.444,24.74z">
        </path>
      </g>
      <g>
        <circle fill="#000000" cx="26.419" cy="22.016" r="1.946"></circle>
      </g>
      <g>
        <path fill="#000000"
          d="M28.592,24.74h-4.346c-1.532,0-2.78,1.247-2.78,2.78v5.451c0,0.558,0.453,1.011,1.011,1.011     c0.558,0,1.011-0.453,1.011-1.011v-4.889h0.607v4.609c0,0.002-0.001,0.004-0.001,0.006v10.306c0,0.558,0.453,1.011,1.011,1.011     s1.011-0.453,1.011-1.011v-8.291h0.606v8.291c0,0.558,0.453,1.011,1.011,1.011c0.558,0,1.011-0.453,1.011-1.011v-8.291v-2.015     v-4.616h0.607v4.889c0,0.558,0.453,1.011,1.011,1.011s1.011-0.453,1.011-1.011V27.52C31.371,25.988,30.124,24.74,28.592,24.74z">
        </path>
      </g>
      <g>
        <circle fill="#000000" cx="37.574" cy="22.016" r="1.946"></circle>
      </g>
      <g>
        <path fill="#000000"
          d="M39.747,24.74h-4.346c-1.532,0-2.78,1.247-2.78,2.78v5.451c0,0.558,0.453,1.011,1.011,1.011     s1.011-0.453,1.011-1.011v-4.889h0.607v4.609c0,0.002-0.001,0.004-0.001,0.006v10.306c0,0.558,0.453,1.011,1.011,1.011     c0.558,0,1.011-0.453,1.011-1.011v-8.291h0.606v8.291c0,0.558,0.453,1.011,1.011,1.011s1.011-0.453,1.011-1.011v-8.291v-2.015     v-4.616h0.607v4.889c0,0.558,0.453,1.011,1.011,1.011c0.558,0,1.011-0.453,1.011-1.011V27.52     C42.527,25.988,41.279,24.74,39.747,24.74z">
        </path>
      </g>
      <g>
        <circle fill="#000000" cx="48.729" cy="22.016" r="1.946"></circle>
      </g>
      <g>
        <path fill="#000000"
          d="M50.902,24.74h-4.346c-1.532,0-2.78,1.247-2.78,2.78v5.451c0,0.558,0.453,1.011,1.011,1.011     c0.558,0,1.011-0.453,1.011-1.011v-4.889h0.607v4.609c0,0.002-0.001,0.004-0.001,0.006v10.306c0,0.558,0.453,1.011,1.011,1.011     c0.558,0,1.011-0.453,1.011-1.011v-8.291h0.606v8.291c0,0.558,0.453,1.011,1.011,1.011c0.558,0,1.011-0.453,1.011-1.011v-8.291     v-2.015v-4.616h0.607v4.889c0,0.558,0.453,1.011,1.011,1.011s1.011-0.453,1.011-1.011V27.52     C53.682,25.988,52.435,24.74,50.902,24.74z">
        </path>
      </g>
    </g>
  </g>
  <g display="none">
    <path display="inline"
      d="M32,0C14.327,0,0,14.327,0,32s14.327,32,32,32s32-14.327,32-32S49.673,0,32,0z M26.419,20.069   c1.075,0,1.946,0.871,1.946,1.946c0,1.075-0.871,1.946-1.946,1.946s-1.946-0.871-1.946-1.946   C24.472,20.941,25.344,20.069,26.419,20.069z M15.271,20.069c1.075,0,1.946,0.871,1.946,1.946c0,1.075-0.871,1.946-1.946,1.946   s-1.946-0.871-1.946-1.946C13.325,20.941,14.196,20.069,15.271,20.069z M20.224,32.971c0,0.558-0.453,1.011-1.011,1.011   c-0.558,0-1.011-0.453-1.011-1.011v-4.889h-0.607v4.616v2.015v8.291c0,0.558-0.453,1.011-1.011,1.011s-1.011-0.453-1.011-1.011   v-8.291h-0.607v8.291c0,0.558-0.453,1.011-1.011,1.011c-0.558,0-1.011-0.453-1.011-1.011V32.697c0-0.002,0.001-0.004,0.001-0.006   v-4.609H12.34v4.889c0,0.558-0.453,1.011-1.011,1.011s-1.011-0.453-1.011-1.011V27.52c0-1.533,1.247-2.78,2.78-2.78h4.346   c1.532,0,2.78,1.247,2.78,2.78V32.971z M31.371,32.971c0,0.558-0.453,1.011-1.011,1.011s-1.011-0.453-1.011-1.011v-4.889h-0.607   v4.616v2.015v8.291c0,0.558-0.453,1.011-1.011,1.011c-0.558,0-1.011-0.453-1.011-1.011v-8.291h-0.607v8.291   c0,0.558-0.453,1.011-1.011,1.011c-0.558,0-1.011-0.453-1.011-1.011V32.697c0-0.002,0.001-0.004,0.001-0.006v-4.609h-0.607v4.889   c0,0.558-0.453,1.011-1.011,1.011s-1.011-0.453-1.011-1.011V27.52c0-1.533,1.247-2.78,2.78-2.78h4.346   c1.532,0,2.78,1.247,2.78,2.78V32.971z M48.729,20.069c1.075,0,1.946,0.871,1.946,1.946c0,1.075-0.872,1.946-1.946,1.946   c-1.075,0-1.946-0.871-1.946-1.946C46.782,20.941,47.654,20.069,48.729,20.069z M37.574,20.069c1.075,0,1.946,0.871,1.946,1.946   c0,1.075-0.871,1.946-1.946,1.946s-1.946-0.871-1.946-1.946C35.627,20.941,36.499,20.069,37.574,20.069z M42.527,32.971   c0,0.558-0.453,1.011-1.011,1.011s-1.011-0.453-1.011-1.011v-4.889h-0.607v4.616v2.015v8.291c0,0.558-0.453,1.011-1.011,1.011   c-0.558,0-1.011-0.453-1.011-1.011v-8.291H37.27v8.291c0,0.558-0.453,1.011-1.011,1.011c-0.558,0-1.011-0.453-1.011-1.011V32.697   c0-0.002,0.001-0.004,0.001-0.006v-4.609h-0.607v4.889c0,0.558-0.453,1.011-1.011,1.011s-1.011-0.453-1.011-1.011V27.52   c0-1.533,1.247-2.78,2.78-2.78h4.346c1.532,0,2.78,1.247,2.78,2.78V32.971z M53.682,32.971c0,0.558-0.453,1.011-1.011,1.011   s-1.011-0.453-1.011-1.011v-4.889h-0.607v4.616v2.015v8.291c0,0.558-0.453,1.011-1.011,1.011c-0.558,0-1.011-0.453-1.011-1.011   v-8.291h-0.607v8.291c0,0.558-0.453,1.011-1.011,1.011c-0.558,0-1.011-0.453-1.011-1.011V32.697c0-0.002,0.001-0.004,0.001-0.006   v-4.609h-0.607v4.889c0,0.558-0.453,1.011-1.011,1.011c-0.558,0-1.011-0.453-1.011-1.011V27.52c0-1.533,1.247-2.78,2.78-2.78h4.346   c1.532,0,2.78,1.247,2.78,2.78V32.971z">
    </path>
  </g>
  <g>
    <g>
      <path
        d="M32,0C14.327,0,0,14.327,0,32s14.327,32,32,32c17.673,0,32-14.327,32-32S49.673,0,32,0z M32,62C15.458,62,2,48.542,2,32    S15.458,2,32,2s30,13.458,30,30S48.542,62,32,62z">
      </path>
      <circle cx="15.271" cy="22.016" r="1.946"></circle>
      <path
        d="M17.444,24.74h-4.346c-1.532,0-2.78,1.247-2.78,2.78v5.451c0,0.558,0.453,1.011,1.011,1.011s1.011-0.453,1.011-1.011    v-4.889h0.607v4.609c0,0.002-0.001,0.004-0.001,0.006v10.306c0,0.558,0.453,1.011,1.011,1.011c0.558,0,1.011-0.453,1.011-1.011    v-8.291h0.607v8.291c0,0.558,0.453,1.011,1.011,1.011s1.011-0.453,1.011-1.011v-8.291v-2.015v-4.616h0.607v4.889    c0,0.558,0.453,1.011,1.011,1.011c0.558,0,1.011-0.453,1.011-1.011V27.52C20.224,25.988,18.977,24.74,17.444,24.74z">
      </path>
      <circle cx="26.419" cy="22.016" r="1.946"></circle>
      <path
        d="M28.592,24.74h-4.346c-1.532,0-2.78,1.247-2.78,2.78v5.451c0,0.558,0.453,1.011,1.011,1.011s1.011-0.453,1.011-1.011    v-4.889h0.607v4.609c0,0.002-0.001,0.004-0.001,0.006v10.306c0,0.558,0.453,1.011,1.011,1.011c0.558,0,1.011-0.453,1.011-1.011    v-8.291h0.607v8.291c0,0.558,0.453,1.011,1.011,1.011c0.558,0,1.011-0.453,1.011-1.011v-8.291v-2.015v-4.616h0.607v4.889    c0,0.558,0.453,1.011,1.011,1.011s1.011-0.453,1.011-1.011V27.52C31.371,25.988,30.124,24.74,28.592,24.74z">
      </path>
      <circle cx="37.574" cy="22.016" r="1.946"></circle>
      <path
        d="M39.747,24.74h-4.346c-1.532,0-2.78,1.247-2.78,2.78v5.451c0,0.558,0.453,1.011,1.011,1.011s1.011-0.453,1.011-1.011    v-4.889h0.607v4.609c0,0.002-0.001,0.004-0.001,0.006v10.306c0,0.558,0.453,1.011,1.011,1.011c0.558,0,1.011-0.453,1.011-1.011    v-8.291h0.607v8.291c0,0.558,0.453,1.011,1.011,1.011c0.558,0,1.011-0.453,1.011-1.011v-8.291v-2.015v-4.616h0.607v4.889    c0,0.558,0.453,1.011,1.011,1.011s1.011-0.453,1.011-1.011V27.52C42.527,25.988,41.279,24.74,39.747,24.74z">
      </path>
      <circle cx="48.729" cy="22.016" r="1.946"></circle>
      <path
        d="M50.902,24.74h-4.346c-1.532,0-2.78,1.247-2.78,2.78v5.451c0,0.558,0.453,1.011,1.011,1.011    c0.558,0,1.011-0.453,1.011-1.011v-4.889h0.607v4.609c0,0.002-0.001,0.004-0.001,0.006v10.306c0,0.558,0.453,1.011,1.011,1.011    c0.558,0,1.011-0.453,1.011-1.011v-8.291h0.607v8.291c0,0.558,0.453,1.011,1.011,1.011c0.558,0,1.011-0.453,1.011-1.011v-8.291    v-2.015v-4.616h0.607v4.889c0,0.558,0.453,1.011,1.011,1.011s1.011-0.453,1.011-1.011V27.52    C53.682,25.988,52.435,24.74,50.902,24.74z">
      </path>
    </g>
  </g>
  <g display="none">
    <g display="inline">
      <g>
        <path fill="#000000"
          d="M32,63C14.906,63,1,49.093,1,32S14.906,1,32,1s31,13.906,31,31S49.094,63,32,63z">
        </path>
        <path
          d="M32,2c16.542,0,30,13.458,30,30S48.542,62,32,62S2,48.542,2,32S15.458,2,32,2 M32,0C14.327,0,0,14.327,0,32     s14.327,32,32,32s32-14.327,32-32S49.673,0,32,0L32,0z">
        </path>
      </g>
      <g>
        <circle fill="#000000" cx="32" cy="32" r="27.562"></circle>
      </g>
    </g>
    <g display="inline">
      <circle cx="15.271" cy="22.016" r="1.946"></circle>
      <path
        d="M17.444,24.74h-4.346c-1.532,0-2.78,1.247-2.78,2.78v5.451c0,0.558,0.453,1.011,1.011,1.011    c0.558,0,1.011-0.453,1.011-1.011v-4.889h0.607v4.609c0,0.002-0.001,0.004-0.001,0.006v10.306c0,0.558,0.453,1.011,1.011,1.011    c0.558,0,1.011-0.453,1.011-1.011v-8.291h0.606v8.291c0,0.558,0.453,1.011,1.011,1.011s1.011-0.453,1.011-1.011v-8.291v-2.015    v-4.616h0.607v4.889c0,0.558,0.453,1.011,1.011,1.011c0.558,0,1.011-0.453,1.011-1.011V27.52    C20.224,25.988,18.977,24.74,17.444,24.74z">
      </path>
      <circle cx="26.419" cy="22.016" r="1.946"></circle>
      <path
        d="M28.592,24.74h-4.346c-1.532,0-2.78,1.247-2.78,2.78v5.451c0,0.558,0.453,1.011,1.011,1.011    c0.558,0,1.011-0.453,1.011-1.011v-4.889h0.607v4.609c0,0.002-0.001,0.004-0.001,0.006v10.306c0,0.558,0.453,1.011,1.011,1.011    s1.011-0.453,1.011-1.011v-8.291h0.606v8.291c0,0.558,0.453,1.011,1.011,1.011c0.558,0,1.011-0.453,1.011-1.011v-8.291v-2.015    v-4.616h0.607v4.889c0,0.558,0.453,1.011,1.011,1.011s1.011-0.453,1.011-1.011V27.52C31.371,25.988,30.124,24.74,28.592,24.74z">
      </path>
      <circle cx="37.574" cy="22.016" r="1.946"></circle>
      <path
        d="M39.747,24.74h-4.346c-1.532,0-2.78,1.247-2.78,2.78v5.451c0,0.558,0.453,1.011,1.011,1.011s1.011-0.453,1.011-1.011    v-4.889h0.607v4.609c0,0.002-0.001,0.004-0.001,0.006v10.306c0,0.558,0.453,1.011,1.011,1.011c0.558,0,1.011-0.453,1.011-1.011    v-8.291h0.606v8.291c0,0.558,0.453,1.011,1.011,1.011s1.011-0.453,1.011-1.011v-8.291v-2.015v-4.616h0.607v4.889    c0,0.558,0.453,1.011,1.011,1.011c0.558,0,1.011-0.453,1.011-1.011V27.52C42.527,25.988,41.279,24.74,39.747,24.74z">
      </path>
      <circle cx="48.729" cy="22.016" r="1.946"></circle>
      <path
        d="M50.902,24.74h-4.346c-1.532,0-2.78,1.247-2.78,2.78v5.451c0,0.558,0.453,1.011,1.011,1.011    c0.558,0,1.011-0.453,1.011-1.011v-4.889h0.607v4.609c0,0.002-0.001,0.004-0.001,0.006v10.306c0,0.558,0.453,1.011,1.011,1.011    c0.558,0,1.011-0.453,1.011-1.011v-8.291h0.606v8.291c0,0.558,0.453,1.011,1.011,1.011c0.558,0,1.011-0.453,1.011-1.011v-8.291    v-2.015v-4.616h0.607v4.889c0,0.558,0.453,1.011,1.011,1.011s1.011-0.453,1.011-1.011V27.52    C53.682,25.988,52.435,24.74,50.902,24.74z">
      </path>
    </g>
  </g>
</svg>