<svg id="menu-horizontal" class="footer-icon"
  xmlns="http://www.w3.org/2000/svg" xmlns:xlink="http://www.w3.org/1999/xlink"
  version="1.1" x="0px" y="0px" viewBox="0 0 90 90"
  enable-background="new 0 0 90 90" xml:space="preserve">
  <path
    d="M19.5,55.3c-5.7,0-10.3-4.6-10.3-10.3s4.6-10.3,10.3-10.3c5.7,0,10.3,4.6,10.3,10.3S25.2,55.3,19.5,55.3z M19.5,36.7  c-4.6,0-8.3,3.7-8.3,8.3s3.7,8.3,8.3,8.3s8.3-3.7,8.3-8.3S24.1,36.7,19.5,36.7z">
  </path>
  <path
    d="M45,55.3c-5.7,0-10.3-4.6-10.3-10.3S39.3,34.7,45,34.7S55.3,39.3,55.3,45S50.7,55.3,45,55.3z M45,36.7  c-4.6,0-8.3,3.7-8.3,8.3s3.7,8.3,8.3,8.3s8.3-3.7,8.3-8.3S49.6,36.7,45,36.7z">
  </path>
  <path
    d="M70.5,55.3c-5.7,0-10.3-4.6-10.3-10.3s4.6-10.3,10.3-10.3c5.7,0,10.3,4.6,10.3,10.3S76.2,55.3,70.5,55.3z M70.5,36.7  c-4.6,0-8.3,3.7-8.3,8.3s3.7,8.3,8.3,8.3s8.3-3.7,8.3-8.3S75.1,36.7,70.5,36.7z">
  </path>
</svg>