<svg id="menu-vertical" class="nav-icons"
  xmlns="http://www.w3.org/2000/svg" xmlns:xlink="http://www.w3.org/1999/xlink"
  version="1.1" x="0px" y="0px" viewBox="0 0 90 90"
  enable-background="new 0 0 90 90" xml:space="preserve">
  <path
    d="M45,29.8c-5.7,0-10.3-4.6-10.3-10.3c0-5.7,4.6-10.3,10.3-10.3s10.3,4.6,10.3,10.3C55.3,25.2,50.7,29.8,45,29.8z M45,11.2  c-4.6,0-8.3,3.7-8.3,8.3s3.7,8.3,8.3,8.3s8.3-3.7,8.3-8.3S49.6,11.2,45,11.2z">
  </path>
  <path
    d="M45,55.3c-5.7,0-10.3-4.6-10.3-10.3S39.3,34.7,45,34.7S55.3,39.3,55.3,45S50.7,55.3,45,55.3z M45,36.7  c-4.6,0-8.3,3.7-8.3,8.3s3.7,8.3,8.3,8.3s8.3-3.7,8.3-8.3S49.6,36.7,45,36.7z">
  </path>
  <path
    d="M45,80.8c-5.7,0-10.3-4.6-10.3-10.3c0-5.7,4.6-10.3,10.3-10.3s10.3,4.6,10.3,10.3C55.3,76.2,50.7,80.8,45,80.8z M45,62.2  c-4.6,0-8.3,3.7-8.3,8.3s3.7,8.3,8.3,8.3s8.3-3.7,8.3-8.3S49.6,62.2,45,62.2z">
  </path>
</svg>