<svg id="dark-theme-select" class="nav-icons"
  xmlns="http://www.w3.org/2000/svg" data-name="Layer 1" viewBox="0 0 24 24"
  x="0px" y="0px">
  <title>svg,</title>
  <path
    d="M21.422,14.45a.6.6,0,0,0-.629-.137,8.513,8.513,0,0,1-2.948.52A8.688,8.688,0,0,1,9.167,6.155a8.513,8.513,0,0,1,.52-2.948.6.6,0,0,0-.766-.772A9.876,9.876,0,1,0,21.565,15.079.6.6,0,0,0,21.422,14.45ZM12.278,20.4A8.678,8.678,0,0,1,8.189,4.068a9.88,9.88,0,0,0,9.656,11.965,9.805,9.805,0,0,0,2.087-.223A8.688,8.688,0,0,1,12.278,20.4Z">
  </path>
</svg>