<svg class="nav-icons"  data-toggle="tooltip" data-placement="right" title="Dashboard"
  xmlns:dc="http://purl.org/dc/elements/1.1/"
  xmlns:cc="http://creativecommons.org/ns#"
  xmlns:rdf="http://www.w3.org/1999/02/22-rdf-syntax-ns#"
  xmlns:svg="http://www.w3.org/2000/svg" xmlns="http://www.w3.org/2000/svg"
  xmlns:sodipodi="http://sodipodi.sourceforge.net/DTD/sodipodi-0.dtd"
  xmlns:inkscape="http://www.inkscape.org/namespaces/inkscape"
  viewBox="0 0 16.933333 16.933333" version="1.1" x="0px" y="0px">
  <g transform="translate(0,-280.06669)">
    <path
      
      d="M 12.003906,2 C 8.714501,2 6.0019531,4.7106015 6.0019531,8 v 4.001953 c 0,2.667326 3.9999999,2.667326 3.9999999,0 V 8 c 0,-1.142589 0.859389,-2 2.001953,-2 H 30 v 17.998047 c -0.0017,1.597291 1.777178,2.55216 3.107422,1.667969 l 4.894531,-3.263672 4.886719,3.263672 c 1.330244,0.884191 3.109162,-0.07068 3.107422,-1.667969 V 6 h 6.001953 c 1.14257,0 2,0.857411 2,2 v 40.003906 c 0,0.667238 -1.146076,1.992188 -2.324219,1.992188 H 12.003906 c -0.701385,0 -1.37376,0.129555 -2.001953,0.355468 V 23.998047 c 0.01277,-1.125203 -0.9041348,-2.040294 -2.0292968,-2.023438 -1.1020475,0.01512 -1.9831914,0.921328 -1.9707031,2.023438 v 32 C 6.0019531,59.287445 8.7144938,62 12.003906,62 h 35.992188 c 3.28941,0 6.001953,-2.712555 6.001953,-6.001953 V 53.574219 C 56.332226,52.698969 58,50.54981 58,48.003906 V 8 C 58,4.7106015 55.287453,2 51.998047,2 Z m 21.998047,4 h 8.001953 v 14.261719 l -2.894531,-1.925781 c -0.672698,-0.449527 -1.549958,-0.449527 -2.222656,0 l -2.884766,1.925781 z M 12.003906,53.998047 h 37.994141 v 2 c 0,1.142551 -0.859372,2 -2.001953,2 H 12.003906 c -1.142586,0 -2.001953,-0.857449 -2.001953,-2 0,-1.142589 0.859367,-2 2.001953,-2 z"
      transform="matrix(0.26458333,0,0,0.26458333,0,280.06669)"></path>
  </g>
</svg>