<svg xmlns="http://www.w3.org/2000/svg" xmlns:xlink="http://www.w3.org/1999/xlink"
  version="1.1" x="0px" y="0px" viewBox="0 0 64 64"
  enable-background="new 0 0 64 64" xml:space="preserve">
  <g display="none">
    <rect x="-10.5" y="-84.759" display="inline" fill="#000000" width="787"
      height="375.042"></rect>
  </g>
  <g display="none">
    <g display="inline">
      <g>
        <path fill="#000000"
          d="M32,63C14.907,63,1,49.094,1,32S14.907,1,32,1s31,13.906,31,31S49.093,63,32,63z">
        </path>
      </g>
      <g>
        <g>
          <path fill="#000000"
            d="M32,2c16.542,0,30,13.458,30,30S48.542,62,32,62S2,48.542,2,32S15.458,2,32,2 M32,0      C14.327,0,0,14.327,0,32s14.327,32,32,32s32-14.327,32-32S49.673,0,32,0L32,0z">
          </path>
        </g>
      </g>
    </g>
    <g display="inline">
      <g>
        <circle cx="32" cy="14.453" r="3.407"></circle>
      </g>
      <g>
        <path
          d="M35.803,19.222h-7.607c-2.682,0-4.865,2.183-4.865,4.865v9.54c0,0.977,0.792,1.769,1.769,1.769s1.769-0.792,1.769-1.769     V25.07h1.062v8.067c0,0.004-0.001,0.007-0.001,0.011v18.036c0,0.977,0.792,1.769,1.769,1.769c0.977,0,1.769-0.792,1.769-1.769     v-14.51h1.061v14.51c0,0.977,0.792,1.769,1.769,1.769s1.769-0.792,1.769-1.769v-14.51v-3.526V25.07h1.062v8.556     c0,0.977,0.792,1.769,1.769,1.769s1.769-0.792,1.769-1.769v-9.54C40.668,21.405,38.485,19.222,35.803,19.222z">
        </path>
      </g>
    </g>
  </g>
  <g display="none">
    <path display="inline"
      d="M32,0C14.327,0,0,14.327,0,32c0,17.673,14.327,32,32,32c17.673,0,32-14.327,32-32   C64,14.327,49.673,0,32,0z M32,11.047c1.881,0,3.407,1.525,3.407,3.406c0,1.881-1.525,3.407-3.407,3.407   c-1.881,0-3.407-1.525-3.407-3.407C28.593,12.572,30.119,11.047,32,11.047z M40.668,33.626c0,0.977-0.792,1.769-1.769,1.769   s-1.769-0.792-1.769-1.769V25.07h-1.062v8.078v3.526v14.51c0,0.977-0.792,1.769-1.769,1.769s-1.769-0.792-1.769-1.769v-14.51   h-1.061v14.51c0,0.977-0.792,1.769-1.769,1.769s-1.769-0.792-1.769-1.769V33.148c0-0.004,0.001-0.007,0.001-0.011V25.07H26.87   v8.556c0,0.977-0.792,1.769-1.769,1.769s-1.769-0.792-1.769-1.769v-9.54c0-2.682,2.183-4.865,4.865-4.865h7.607   c2.682,0,4.865,2.183,4.865,4.865V33.626z">
    </path>
  </g>
  <g>
    <g>
      <path
        d="M32,0C14.327,0,0,14.327,0,32c0,17.673,14.327,32,32,32c17.673,0,32-14.327,32-32C64,14.327,49.673,0,32,0z M32,62    C15.458,62,2,48.542,2,32C2,15.458,15.458,2,32,2s30,13.458,30,30C62,48.542,48.542,62,32,62z">
      </path>
      <circle cx="32" cy="14.453" r="3.407"></circle>
      <path
        d="M35.803,19.222h-7.607c-2.682,0-4.865,2.183-4.865,4.865v9.54c0,0.977,0.792,1.769,1.769,1.769s1.769-0.792,1.769-1.769    V25.07h1.062v8.067c0,0.004-0.001,0.007-0.001,0.011v18.036c0,0.977,0.792,1.769,1.769,1.769s1.769-0.792,1.769-1.769v-14.51    h1.061v14.51c0,0.977,0.792,1.769,1.769,1.769s1.769-0.792,1.769-1.769v-14.51v-3.526V25.07h1.062v8.556    c0,0.977,0.792,1.769,1.769,1.769s1.769-0.792,1.769-1.769v-9.54C40.668,21.405,38.485,19.222,35.803,19.222z">
      </path>
    </g>
  </g>
  <g display="none">
    <g display="inline">
      <g>
        <path fill="#000000"
          d="M32,63C14.907,63,1,49.094,1,32S14.907,1,32,1s31,13.906,31,31S49.093,63,32,63z">
        </path>
        <path
          d="M32,2c16.542,0,30,13.458,30,30S48.542,62,32,62S2,48.542,2,32S15.458,2,32,2 M32,0C14.327,0,0,14.327,0,32     s14.327,32,32,32s32-14.327,32-32S49.673,0,32,0L32,0z">
        </path>
      </g>
      <g>
        <circle fill="#000000" cx="32" cy="32" r="27.562"></circle>
      </g>
    </g>
    <g display="inline">
      <circle cx="32" cy="14.453" r="3.407"></circle>
      <path
        d="M35.803,19.222h-7.607c-2.682,0-4.865,2.183-4.865,4.865v9.54c0,0.977,0.792,1.769,1.769,1.769s1.769-0.792,1.769-1.769    V25.07h1.062v8.067c0,0.004-0.001,0.007-0.001,0.011v18.036c0,0.977,0.792,1.769,1.769,1.769c0.977,0,1.769-0.792,1.769-1.769    v-14.51h1.061v14.51c0,0.977,0.792,1.769,1.769,1.769s1.769-0.792,1.769-1.769v-14.51v-3.526V25.07h1.062v8.556    c0,0.977,0.792,1.769,1.769,1.769s1.769-0.792,1.769-1.769v-9.54C40.668,21.405,38.485,19.222,35.803,19.222z">
      </path>
    </g>
  </g>
</svg>