<svg class="account-icons"  data-toggle="tooltip" data-placement="right" title="Change password"
  xmlns:dc="http://purl.org/dc/elements/1.1/"
  xmlns:cc="http://creativecommons.org/ns#"
  xmlns:rdf="http://www.w3.org/1999/02/22-rdf-syntax-ns#"
  xmlns:svg="http://www.w3.org/2000/svg" xmlns="http://www.w3.org/2000/svg"
  xmlns:sodipodi="http://sodipodi.sourceforge.net/DTD/sodipodi-0.dtd"
  xmlns:inkscape="http://www.inkscape.org/namespaces/inkscape"
  viewBox="0 0 16.933333 16.933333" version="1.1" x="0px" y="0px">
  <g transform="translate(0,-280.06669)">
    <path
      d="M 32 2 C 24.278594 2 17.996094 8.2805671 17.996094 16.001953 L 17.996094 22 L 15.996094 22 C 12.705874 22 10.003906 24.714494 10.003906 28 L 10.003906 40.001953 C 10.003906 43.130571 10.676968 46.110262 11.861328 48.804688 A 2.0001999 2.0001999 0 1 0 15.521484 47.195312 C 14.549191 44.983344 14.003906 42.559144 14.003906 40.001953 L 14.003906 28 C 14.003906 26.871622 14.872452 26 15.996094 26 L 47.996094 26 C 49.125761 26 49.998047 26.871509 49.998047 28 L 49.998047 40.001953 C 49.998047 49.92446 41.922754 57.998047 32 57.998047 C 29.442018 57.998047 27.016635 57.452941 24.804688 56.480469 A 2.0001999 2.0001999 0 1 0 23.195312 60.140625 C 25.89051 61.325583 28.871086 61.998047 32 61.998047 C 44.098874 61.998047 53.998047 52.101015 53.998047 40.001953 L 53.998047 28 C 53.998047 24.708863 51.286048 22 47.996094 22 L 45.996094 22 L 45.996094 16.001953 C 45.996094 8.2805671 39.721405 2 32 2 z M 32 6 C 37.574592 6 42.003906 10.427377 42.003906 16.001953 L 42.003906 22 L 21.998047 22 L 21.998047 16.001953 C 21.998047 10.427377 26.425405 6 32 6 z M 32 34 C 28.709988 34 25.998057 36.71195 25.998047 40.001953 C 25.998026 43.291994 28.709967 46.001953 32 46.001953 C 35.290033 46.001953 38.001972 43.291994 38.001953 40.001953 C 38.001942 36.71195 35.290012 34 32 34 z M 32 38 C 33.128256 38 34.001949 38.873689 34.001953 40.001953 C 34.00196 41.130218 33.128264 42.001953 32 42.001953 C 30.871736 42.001953 29.999993 41.130218 30 40.001953 C 30.000003 38.873689 30.871744 38 32 38 z "
      transform="matrix(0.26458333,0,0,0.26458333,0,280.06669)"></path>
  </g>
</svg>