<svg class="seasonal-eating-icon" xmlns="http://www.w3.org/2000/svg" data-name="Слой 1" viewBox="0 0 100 100"
  x="0px" y="0px">
  <path
    d="M58.841,27.46648a1.29891,1.29891,0,0,0,.82294-.03708c1.60951-.51366,2.78417.29521,3.71859,1.46372a3.03277,3.03277,0,0,0,2.38556,1.226,9.11112,9.11112,0,0,1,3.35176.53132,2.20967,2.20967,0,0,1,1.1932,1.008c.05041.09521.11582.18295.1658.27834.23114.44106.3567,1.08711.71412,1.27479a2.80624,2.80624,0,0,0,1.6679.12818,11.20779,11.20779,0,0,1,3.00089.32539,4.37172,4.37172,0,0,1,3.37163,1.93881,21.84117,21.84117,0,0,0,2.21468,2.34137,3.08858,3.08858,0,0,1,.93184,1.7524,2.387,2.387,0,0,0,.69,1.395,3.86463,3.86463,0,0,1,.8652,2.47972,29.398,29.398,0,0,1-.16159,3.59412c-.00183.10513-.04735.2099-.03916.31337a21.743,21.743,0,0,1-.51737,5.53031,46.90936,46.90936,0,0,1-1.99239,8.91763c-.28923.74385-.37559,1.56919-.61214,2.338-.731,2.376-1.77284,4.62853-2.621,6.95909-.5609,1.54139-1.27831,3.02166-1.84067,4.56256a22.33169,22.33169,0,0,1-1.8934,3.83737,30.14756,30.14756,0,0,1-4.09209,5.39585,8.50506,8.50506,0,0,1-5.72767,2.596,3.4463,3.4463,0,0,1-2.28433-.32976.48421.48421,0,0,0-.20112-.07365c-.566-.0721-1.13286-.13412-1.6986-.20827-.58359-.07649-.88582-.66059-1.46374-.80652A4.29905,4.29905,0,0,1,56.417,84.72859a25.28663,25.28663,0,0,1-2.85015,2.684,7.9626,7.9626,0,0,1-3.88676,1.98519A61.15886,61.15886,0,0,1,43.145,90.63951c-.6709.06426-1.35708.14888-1.74383-.65423-.09821-.204-.34065-.25584-.55012-.30363a7.30192,7.30192,0,0,1-3.04446-1.68832c-.90845-.75579-1.80523-1.5199-2.67752-2.3162a3.815,3.815,0,0,1-.66987-.69807c-.10247-.15681-.25839-.34038-.42586-.25405-.70988.366-1.47.056-2.17059.01512a3.99705,3.99705,0,0,1-3.12758-1.74891,30.36539,30.36539,0,0,1-2.73132-4.25462,30.51874,30.51874,0,0,1-2.53409-5.89581A28.03264,28.03264,0,0,0,22.239,69.541c-.68308-1.71477-1.619-3.34627-1.72793-5.24107a3.64087,3.64087,0,0,0-.47073-1.41633,19.02741,19.02741,0,0,1-1.2265-4.50672c-.138-.54953-.29468-1.09729-.39011-1.66251a75.3673,75.3673,0,0,1-.69626-9.954,6.8077,6.8077,0,0,1,.25006-1.98186,16.08359,16.08359,0,0,0,.28527-1.87367,3.188,3.188,0,0,1,.68-1.94164,2.763,2.763,0,0,0,.42541-1.1751,8.1902,8.1902,0,0,1,5.12454-5.50371,21.947,21.947,0,0,1,5.43415-1.24844,9.34226,9.34226,0,0,1,4.1041.60832.90487.90487,0,0,0,1.16748-.28606,21.26338,21.26338,0,0,1,3.78908-3.42191,6.32039,6.32039,0,0,1,2.186-.67186c.61285-.15527,1.2409-.26183,1.83689-.47651a4.03584,4.03584,0,0,1,1.78994-.12646c.21509.021.53028.07287.562.25655.12379.71663.74074.66956,1.1982.869.35734.1558.72133.29541,1.10649.452.26366-.07525.244-.37291.36762-.57064a5.18175,5.18175,0,0,1,1.29378-1.74181,2.70921,2.70921,0,0,0,.75872-1.113,41.02246,41.02246,0,0,0,3.02962-6.89627,7.39521,7.39521,0,0,1,2.24908-3.505A7.55733,7.55733,0,0,0,56.911,14.3336a7.328,7.328,0,0,1,1.66314-1.70946c.83237-.7885,1.71225-1.5297,2.51371-2.34764A3.85344,3.85344,0,0,1,64.995,9.33341c1.48978.33305,2.91571.88157,4.36449,1.35037a7.75343,7.75343,0,0,1,1.40386.74455.456.456,0,0,1,.19009.56181c-.371,1.33468.19563,2.7488-.19568,4.07559a12.07248,12.07248,0,0,1-1.6666,3.60158,9.18527,9.18527,0,0,0-.99105,2.41677,1.24337,1.24337,0,0,1-1.39883.95847,10.14253,10.14253,0,0,1-3.164-.32933,1.6982,1.6982,0,0,0-2.21208.70117C60.51489,24.74125,59.36405,25.85439,58.841,27.46648Zm4.98138,6.0515a1.906,1.906,0,0,0-1.79895.66339,1.61311,1.61311,0,0,0,1.80695-.65539c.517-.06757,1.15641.07244,1.25465-.70486a4.614,4.614,0,0,1,1.20664.09092c-.62247.94818-1.83748.79266-2.66882,1.545a4.19009,4.19009,0,0,0,2.30888.04828,10.45228,10.45228,0,0,1,4.01688-1.15779c.22272-.00511.32838-.11874.26046-.3351A4.36508,4.36508,0,0,0,68.405,31.618c.66166.74175.66166.74175.2149,1.33428a3.09458,3.09458,0,0,0-2.78967-2.14319A4.41907,4.41907,0,0,1,63.23679,29.87a6.11062,6.11062,0,0,0-4.081-1.3804.68108.68108,0,0,0-.80144.48407,18.12135,18.12135,0,0,0-.99259,4.43274,2.34614,2.34614,0,0,0,.33994-.18181c.26711-.21941.53514-.48663.52761.17926a.213.213,0,0,0,.11091.15923,5.42827,5.42827,0,0,0,1.789.29969c.48523-.00987.6212-.4767.92412-.73326-.37378-.42184-.9834-.10226-1.29257-.58572.71881-.28683,1.63078.75259,2.26586-.22761-.26147-.32582-.74448-.20722-.90607-.59072l-.01537.0215a.82213.82213,0,0,1,.61907.032,1.443,1.443,0,0,0,1.57237-.1445,4.00558,4.00558,0,0,1,.85947-.35863.23655.23655,0,0,1,.32561.1709c.04922.15981-.0061.28619-.16155.31681-.338.06659-.70478.05794-.91387.39588a1.183,1.183,0,0,0,.74955.34179c.32917.085.71661.01613.9634.34594A1.17983,1.17983,0,0,0,63.82242,33.518ZM56.95091,15.79205c1.38355-1.0949,1.53582-1.28092,1.66359-2.24993L56.842,15.70282a2.63233,2.63233,0,0,0-1.138,1.69788A5.13927,5.13927,0,0,0,56.95091,15.79205ZM38.06352,32.5627l.02071.01911a.47694.47694,0,0,1,.12094-.57554,5.00535,5.00535,0,0,1,2.58238-1.48163,2.56144,2.56144,0,0,1,2.03382.234,7.80205,7.80205,0,0,1,1.4539,1.0555c.0667.07853.16252.13178.33885.03759.42549-.22728.52811-.174.47394.19811a2.53486,2.53486,0,0,0,.53065,1.56656c-.2384.016-.46232.1-.70147-.10242-.44-.3725-.47345.03684-.4737.30392a4.62362,4.62362,0,0,0,.17338.71666c.05907.345-.012.6239-.44858.66651-.18019-.25034.22846-.54381-.1479-.78915a1.15749,1.15749,0,0,0-.49019.59353c-.05627.117-.09132.33114.08217.35745.59478.09022.35761.43217.29551.74577-.03441.17394-.02435.3577-.25018.39509-.24922.04127-.29729-.13908-.32594-.31853-.04682-.29316-.25092-.30813-.47418-.28806a2.25124,2.25124,0,0,0-.70549.18606c-.27991.12139-.00341.49745-.29465.578-.88556-.61912-.88556-.61912-1.9645-.20422.502.36111.98247.7332,1.489,1.06464a2.19581,2.19581,0,0,0,2.45129-.15332,8.34721,8.34721,0,0,0,1.85376-3.6901l1.41279-2.84675a22.79574,22.79574,0,0,1-2.19535-.98,6.65894,6.65894,0,0,0-4.08193.11745,11.51574,11.51574,0,0,0-4.79232,3.44259c-.578.62667-.48221.86033.37029,1.15945a1.23485,1.23485,0,0,0,.30885.08241,4.325,4.325,0,0,1,2.944,1.12582.35187.35187,0,0,0,.54578-.04016c.39569-.47877.39268-.48126.90781-.27233.70218.2848,1.06338.1034,1.397-.71585-.71712-.24613-1.44819.27653-2.23178-.05311.486-.37984,1.04514-.29211,1.60968-.48315a1.93053,1.93053,0,0,0-1.21044-.55679c-.49852-.00536-.63919.63793-1.06512.93953.04763-.64312.74039-1.52566,1.1859-1.56483a.35965.35965,0,0,1,.28382.09438c.32427.536,1.02477.47582,1.40218.92336.0873.1035.21827.216.36728.12553a.35808.35808,0,0,0,.13231-.461c-.08879-.26125-.11621-.56334-.527-.55111a.89532.89532,0,0,1-.71365-.29654c.27461-.23075.746.1253.82971-.34673.07384-.41653-.23516-.6155-.53319-.84644-.32464-.25155-.86386-.0696-.98313-.25631-.45518-.71266-.7928-.2471-1.15935-.02156C39.27551,31.775,38.67208,32.17283,38.06352,32.5627ZM66.27873,13.79993c.32334-.15429.319.35816.5976.30087.3148-.22248.15378-.7396.56938-1.04593-.0144.74238-.40055,1.298-.29093,1.92711.33544.10553.29467-.40854.68814-.27933a4.42324,4.42324,0,0,0-.23022,1.99909c.02836.14424-.07112.23113-.19244.32442a2.14909,2.14909,0,0,0-.72424,1.702,2.27029,2.27029,0,0,1,.079,1.34005c-.066.35675.1441.41512.40389.45914.02463.12884-.06212.31018.12268.367.206.0633.34008-.08834.40626-.24407a16.75465,16.75465,0,0,0,1.56241-3.95218c.21437-1.41878,1.01486-2.72891.6326-4.2653a.87783.87783,0,0,0-1.02758-.68364c-.41545.08135-.31923.4375-.22626.678.12463.32246.01875.72927.37456.97146.18084.12311.13943.31.11945.483a16.13179,16.13179,0,0,1-1.64463,5.80484,15.7412,15.7412,0,0,1,.53479-2.92459c.46232-1.26734.99272-2.55166.33711-3.96446a1.096,1.096,0,0,1-.0372-.31661,2.7342,2.7342,0,0,0-2.41723-2.31441,10.53972,10.53972,0,0,0-3.78106.43291,4.00076,4.00076,0,0,0-2.28769,2.07539c.31153.25546.51924-.19379.86273.04688a9.12007,9.12007,0,0,0-3.1766,4.65c.25587-.09631.41772-.21862.57207-.20488.73409.06536.96169-.44387,1.18388-.96912a4.3252,4.3252,0,0,0,.17761-.49484,2.54081,2.54081,0,0,1,1.41176-1.60511c1.25641-.61759,2.535-1.19264,3.79573-1.80214a2.1796,2.1796,0,0,1,1.33192-.18759c-.02925.18118-.17333.23384-.30039.268a31.37707,31.37707,0,0,0-4.06861,1.69453,3.12237,3.12237,0,0,0-1.785,1.80684c-.18976.48774-.45147.94522-.6638,1.42425-.09573.216-.2203.35973-.47484.3029-.6567-.14661-.97533.30939-1.29081.71515q-1.12222,1.44333-2.19156,2.92793a2.60461,2.60461,0,0,0-.5412,1.55637,7.231,7.231,0,0,1-1.33748,3.80758c-.0558.089-.16907.24423-.35966.072.332-1.03548,1.06455-1.93777,1.15533-3.24937-.49962.52683-.56568,1.15-1.04591,1.46418-.15555-.14213-.19834-.29622-.11652-.4139a13.3697,13.3697,0,0,0,1.6-3.16082,1.523,1.523,0,0,1,.29674-.42736,19.10192,19.10192,0,0,0,2.47962-4.23009c.06375-.135.29721-.31926.01971-.53245a15.63907,15.63907,0,0,0-2.59814,3.87176c-.21331-.522.26909-.85327.04081-1.369-.575,1.06871-1.13129,2.07985-1.613,3.10905-1.13627,2.42776-1.98952,5.00182-3.75186,7.08485a2.05538,2.05538,0,0,0-.26268.45262,8.67406,8.67406,0,0,1-1.211,1.82581A2.97332,2.97332,0,0,0,47.085,33.2838a1.59917,1.59917,0,0,1-.37494.961c-.35581.6-.80964,1.1424-1.14022,1.75486-.25811.4782-.78212.80475-.83672,1.44383a7.72676,7.72676,0,0,1,1.78222.42256c.95467.3453,1.14615.20258,1.35252-.87312-.0314-.01534-.06564-.0473-.09378-.0435a2.84308,2.84308,0,0,1-1.04168.12132c-.332-.09215-.74966.50018-.89558-.05-.10527-.39688.47848-.408.75821-.57842a1.35248,1.35248,0,0,1,.51713-.089c1.02772-.12334,1.05691-.11568,1.26966-1.15794a28.11306,28.11306,0,0,1,1.98105-6.48719c.12143-.25635.17607-.57951.64837-.64035-.21505.58124-.39663,1.06453-.572,1.55025a1.917,1.917,0,0,0-.1389.47083c.499.26226.237.55127.07331.82732a10.18976,10.18976,0,0,0-1.41042,3.87455,6.09662,6.09662,0,0,1-.44734,1.82961.37093.37093,0,0,0,.12282.51522,1.34,1.34,0,0,0,1.4935-1.1938,21.74642,21.74642,0,0,1,1.26348-2.98833,52.78785,52.78785,0,0,1,3.01419-7.48769,10.65028,10.65028,0,0,1,2.13439-2.69387c.00817.21458.034.291.0084.339a1.761,1.761,0,0,1-.23412.34558,18.12907,18.12907,0,0,0-3.14826,5.75569,51.8902,51.8902,0,0,1-2.40108,6.15052c-.14718.27188-.36267.63464-.28314.87835.18256.5595-.07036.69969-.5011.812-.30544.07962-.61774.31616-.89749.26857-.81648-.13891-.99523.37239-1.22442.96456a21.61694,21.61694,0,0,0,6.087.248.42007.42007,0,0,0,.43482-.48884,10.55543,10.55543,0,0,0-.061-2.00139,2.67,2.67,0,0,1-.10734-1.85723,36.27356,36.27356,0,0,1,1.56477-3.64384,4.96249,4.96249,0,0,0,.67149-1.64477c.05685-.31088.12056-.62029.18177-.93022A8.773,8.773,0,0,0,56.813,27.037c.03985-.45912.50387.20756.59852-.24568a5.64424,5.64424,0,0,1,.66728-1.51249,1.147,1.147,0,0,0-.13391-1.09266,10.71216,10.71216,0,0,0-1.94454,3.02013c-.37057.82841-.725,1.66675-1.14436,2.46929-.58144,1.11256-1.21248,2.19841-1.83173,3.29015a1.36413,1.36413,0,0,0-.03777,1.47552,11.733,11.733,0,0,1,.99673,3.03517A3.31382,3.31382,0,0,1,52.95477,35.97c-.16615-.55254-.44853-.85419-1.06364-.78872a5.59237,5.59237,0,0,1,.78169-2.3335A37.51819,37.51819,0,0,0,55.032,28.41591,20.5046,20.5046,0,0,1,57.82576,23.523a5.91647,5.91647,0,0,1,1.20579-1.43677c.02366.9941.04414,1.8556.06463,2.7171a2.97482,2.97482,0,0,0,.93772-2.39986c-.0685-.527-.06443-1.06148-.08152-1.59255-.00575-.17855-.10845-.42778.23563-.45815l.30062,1.89066a7.6062,7.6062,0,0,0,1.36888-4.4042c.11158.36363.14449.64874.624.63106.47239-.01743.55326.377.50121.76553a1.86856,1.86856,0,0,1-.33148.76352,1.47642,1.47642,0,0,0-.343,1.15655c.69034.2244,1.04277-.1225,1.37077-.64194.17066-.27028.13111-.75841.67358-.80822-.0319.458-.43016.869.03833,1.35057.39816-.70339.78495-1.38673,1.24011-2.19078.21051,1.04791-.72647,1.57928-.69786,2.41724,1.27789.18263,1.41731.1011,1.28923-.74469-.32124.04928-.18158.6525-.72152.51034a2.93483,2.93483,0,0,1,.58515-1.27c.41854-.655.30543-1.09773-.29474-1.63525a2.86965,2.86965,0,0,1-1.15019-2.381c.56193.54741.55562,1.33449,1.14815,1.77758.20132-.85572-.54-1.56434-.3245-2.50305a3.2575,3.2575,0,0,1,.62442,1.331c.18019.43089.01924.978.53169,1.40107.16617-.79181.51195-1.40621.12421-2.26662a3.33883,3.33883,0,0,1-.441-1.72464ZM26.19347,62.93133a12.256,12.256,0,0,0-.37364-3.16324,6.48955,6.48955,0,0,0,.39079,3.14613,1.82807,1.82807,0,0,0-.06643,1.04382,9.87936,9.87936,0,0,1-.13043,3.26527,6.66877,6.66877,0,0,0-.16029,1.67842,4.76565,4.76565,0,0,0,1.00189,2.10818c.19685.34768.68729.331,1.076.38495.01991.00276.02859.11182.04133.16644-.17739.36316-.62558-.07859-.80844.20059a8.958,8.958,0,0,0,.64365,2.19268,4.44869,4.44869,0,0,0,2.00179,2.971,1.42781,1.42781,0,0,1-1.61426-.76935,12.21547,12.21547,0,0,1-1.04832-2.80845,3.52193,3.52193,0,0,0-1.987-2.72364,4.34228,4.34228,0,0,1-1.19963-.91443c-.15338-.14054-.46854-.27339-.27-.68352a6.29613,6.29613,0,0,0,2.4557,1.5491,2.91641,2.91641,0,0,1-.62088-2.89936c.14833-.80084.18925-1.60892.25824-2.41332a6.66387,6.66387,0,0,0-.18946-2.0532c-.33032.10649-.35936.27286-.36049.45255-.00289.46438-.239.32349-.46534.15681-.18539-.13649-.33971-.41293-.25172-.54794.29929-.45914-.02076-.59693-.33174-.78537a1.17849,1.17849,0,0,1-.31227-.29556.27279.27279,0,0,1,.00637-.382c.12307-.12461.24843-.0974.35556.03207a1.9366,1.9366,0,0,0,.72436.63392c.36969.15219.58491.01716.47678-.35811a6.23054,6.23054,0,0,1-.21747-2.00086,10.72757,10.72757,0,0,0-.33573-3.58347,1.27184,1.27184,0,0,1-.02591-.984c.372.09047.24483.44906.46051.58193a.752.752,0,0,0,.18549-.78261,2.27884,2.27884,0,0,1-.00488-1.15713,24.7858,24.7858,0,0,1,.7647-4.11636c.16561-.41312.17927-.73467-.34308-.91544-.1482-.05129-.23182-.2787-.39124-.21652-.85,1.16968.11705,2.61836-.56425,3.842a2.91283,2.91283,0,0,0-.82425-1.85221.686.686,0,0,1-.11976-.2906c-.01814-.13373-.03737-.29449.09848-.377.20727-.12584.30032.1388.42167.16154.365-1.24929.72887-2.49465,1.12588-3.85345a1.34915,1.34915,0,0,1-.00953,1.34958c-.1716.5692.22947.69828.55155.86341.42132.216.54893-.14213.679-.43148A13.99068,13.99068,0,0,1,27.99849,46.221c.244-.36088.27142-.59492-.19616-.82856-.26328-.13156-.67779-.20414-.66553-.68825.51963.05365.90407.68935,1.3799.47793.47448-.21081.65616-.78931.95889-1.21231.11931-.16673.30465-.29428.303-.6108a2.95228,2.95228,0,0,1-1.36885-.69386c-.20175-.17244-.39538-.33812-.32674-.6207a.30365.30365,0,0,1,.22544-.17639c.28764-.023.31218.24069.40518.42159a1.49563,1.49563,0,0,0,.9244.69877.61866.61866,0,0,0,.69662-.09335c.8059-.83974,1.91886-1.275,2.77126-2.04632a3.777,3.777,0,0,1,.97281-.60008,30.1917,30.1917,0,0,1,4.339-1.615,6.60959,6.60959,0,0,0,1.95105-.7628,3.48665,3.48665,0,0,1-1.60884-1.23521,1.01193,1.01193,0,0,0-.50052-.38928,6.27173,6.27173,0,0,1-1.81228-.92612,4.96785,4.96785,0,0,0-1.80769-.65713,3.37576,3.37576,0,0,1-.92494-.26114,7.62959,7.62959,0,0,0-4.38544-.49742c-.34847.05463-.692.14656-1.04315.17351A12.10386,12.10386,0,0,0,23.978,35.39455a5.18327,5.18327,0,0,0-1.69367,1.19632A9.84786,9.84786,0,0,0,20.353,39.9166,28.42029,28.42029,0,0,0,18.49937,48.309c-.04521,1.08527-.32895,2.20679.413,3.23177.0705.09739.01743.2767.03465.41685.11253.91627.17765,1.84028.35259,2.74687A86.68822,86.68822,0,0,0,21.77076,64.773c.40108,1.25156.74579,2.52092,1.1943,3.75643.17538.48308-.04808.96152.239,1.44524.419.70606.71623,1.48108,1.06455,2.22705.08987.19247.301.44641.2443.5694-.30989.67166.19474,1.12559.42495,1.65277.49119,1.1249,1.37827,2.11142,1.3089,3.4342a.73779.73779,0,0,0,.11574.29811,13.79631,13.79631,0,0,0,4.03121,5.08952,4.41993,4.41993,0,0,0,1.34874.64972,1.867,1.867,0,0,0,1.85772-.06919c-.053-.11189-.11282-.23739-.17208-.36311-.3725-.79046-.3715-.70987-1.29325-.7309a4.17888,4.17888,0,0,1-2.88513-1.268.33665.33665,0,0,1,.03494-.5507c.20332-.12985.27831.066.38487.221a3.07353,3.07353,0,0,0,3.06635,1.10989c-.20613-.256-.32855-.53367-.76277-.47427a2.0997,2.0997,0,0,1-1.5942-.4938c-.164-.12961-.54355-.25139-.25629-.55541.19222-.20346.342-.00115.51692.15035a1.34756,1.34756,0,0,0,1.37036.43481c-.16841-1.18663-.98421-2.11119-1.19408-3.22758-.62-3.29826-2.0421-6.3778-2.89185-9.61278-.34316-1.30636-.839-2.5733-1.13681-3.89812A3.10946,3.10946,0,0,0,26.19347,62.93133ZM73.7781,70.38692l.02148.02361c.06523-.48692.893-.675.513-1.35145-.8367.25782-.8367.25782-1.23214-.10189.51708-.19561,1.2329-.136,1.50228-.63082a13.48478,13.48478,0,0,0,1.18235-3.11025c-.40728-.20759-.82156.33123-1.01183-.26707.47369-.079,1.08537-.08575,1.20819-.60533a18.22829,18.22829,0,0,0,.2849-2.48624c.01539-.16468.021-.37938-.216-.41256a.34639.34639,0,0,0-.4319.33558,11.57617,11.57617,0,0,1-.74932,2.48111.92131.92131,0,0,0-.07289.70666c-.27668.20129-.28069.54632-.42093.81917a4.53779,4.53779,0,0,1-1.11584,1.82911,31.63585,31.63585,0,0,0,1.81891-5.83515c-.496-.09693-.84262.13754-1.21409-.07206.36157-.41339,1.1593-.03772,1.33638-.64451a9.94348,9.94348,0,0,0,.22311-1.66946c.00553-.04952-.05508-.10862-.0858-.164-.19938-.03756-.31921.1218-.47992.1801-.13377.04852-.27179.09888-.33883-.08872a.21517.21517,0,0,1,.11335-.26689,3.23219,3.23219,0,0,1,.48787-.19284.89905.89905,0,0,0,.66832-1.10518c-.41661-.07665-.73645.35668-1.12775.0664.192-.37386.60187-.33863.91494-.463a.71348.71348,0,0,0,.51819-.81149c-.14124-.69735.22285-1.30583.1879-1.98189a.47.47,0,0,1,.61811-.53357,9.54586,9.54586,0,0,0-.24671,1.13058c.01755.41661.25017.45681.56671.41715-.27555.39842-.99045.58682-.59939,1.30788.81326-.25739.81326-.25739,1.08708-1.24605l-.5145-.02949c.04685-.24385.2683-.2903.44416-.39276.79651-.46412.78546-.46072.32569-1.33043a1.86114,1.86114,0,0,1-.12156-.622,11.22436,11.22436,0,0,1,.09622-2.9517,5.1821,5.1821,0,0,0-.44432-2.78442,1.54486,1.54486,0,0,1-.09425-1.37912c.39342.3971.18337,1.05639.71649,1.39209a18.854,18.854,0,0,0,.0555-4.78015A6.3454,6.3454,0,0,0,77.11008,39.864c-.30706-.43688-.85461-1.09395-1.3336-.851-.45608.23133-.38513,1.0029-.09359,1.59728a1.25483,1.25483,0,0,1-.45931-1.62078c.24066-.69491.53405-.7938,1.186-.38141A7.59592,7.59592,0,0,0,78.29,39.84434c.26452.07511.67737.205.53668.52487-.16344.37169-.47854-.00732-.729-.07255-.044-.01145-.10565.054-.23452.12618.77748,1.40476.67992,2.98166.90338,4.574a2.46738,2.46738,0,0,0,1.12011-.8602.51736.51736,0,0,0,.066-.66723,16.62133,16.62133,0,0,1-.69708-2.681c-.05287-.18223-.14223-.40167.1699-.57354a3.78787,3.78787,0,0,1,.562,1.78942,3.03662,3.03662,0,0,0,.23849,1.03313c.2396.439.49412.45159.78269.06159a.78442.78442,0,0,0,.12442-.5983c-.09626-.84727-.16866-1.69833-.31441-2.53907-.08641-.49851-.30667-.96771-.94419-.99658l.01171.00394a4.2146,4.2146,0,0,0-1.98149-2.09014c.00725-.28458.32509-.24085.46681-.501-.99086-.466-1.74548-1.34146-2.87143-1.58275-.69959-.14992-1.39871-.31677-2.08379-.52719a2.70944,2.70944,0,0,0-1.4651-.03139c-.4239.09786-.85352.32244-1.33387-.006-.1572-.1075-.49-.02367-.714.05063-1.16642.3868-2.33618.76875-3.48049,1.21041-1.137.43882-1.91686,1.43279-3.01109,1.95136-.04172.01978-.04308.11959-.06381.18388.149.11721.28836.00622.38759-.0486a9.42038,9.42038,0,0,0,1.93642-1.03167c.09745-.088.23779-.17556.35632.00519.1103.1682-.00535.24244-.12832.31785-.32716.2007-.64525.41613-.978.60747-1.01977.58647-1.85143,1.40471-2.82875,2.044a4.61066,4.61066,0,0,1,1.32662,2.86667c-.63332-.67563-.57853-1.543-1.31363-2.10994.18638,1.29835.85742,2.34434,1.08895,3.55322a1.21182,1.21182,0,0,1-.66625-.8845,12.18611,12.18611,0,0,0-.80081-2.09776c-.08927-.25515-.17372-.35748-.44113-.28166-.25914.07347-.37718.36238-.278.47115.4167.45691.29905,1.08472.526,1.51063A33.90725,33.90725,0,0,1,63.378,47.184a2.66062,2.66062,0,0,0,.36381.65451c.21851.29935.51942.1829.7824.10552.24133-.071.28731-.26439.214-.50659a25.74576,25.74576,0,0,1-.41547-2.74042c-.03263-.17172-.09674-.3537.25022-.37141.14587.83336.32929,1.66378.42486,2.50114.06744.59086.25975.92161.89493.73976.0283.19342-.04949.286-.14545.31044-.59431.15166-.44.61494-.2633.92306.25164.43872.71207.2,1.0592.12347.43428-.0957.16-.44244.13958-.697a4.09649,4.09649,0,0,0-.42236-1.0968,2.57006,2.57006,0,0,1-.15569-1.90391c.835,2.34054,1.85388,4.59148,1.211,7.18179a.61262.61262,0,0,1-.2-.57229,9.61053,9.61053,0,0,0-.09648-2.01533c-.02553-.299-.18042-.45716-.49506-.40854-.255.03941-.39411.22315-.322.446.17377.53719.077,1.20406.4889,1.60245.51833.50135.10755.6423-.199.66412-.5854.04167-.80123.30494-.79793.85014.00044.072-.12267.14053-.18349.20524-.31334-.13554-.27616-.389-.31892-.62962-.04477-.25188-.4433-.29034-.36934-.69123a2.58649,2.58649,0,0,0-.67965-2.41613,1.671,1.671,0,0,0-.1158.92556c.01019.76966.099,1.54785.03251,2.30767a46.96128,46.96128,0,0,0-.15241,5.382c.01154.423-.03853.84432-.06131,1.26476a10.38748,10.38748,0,0,0-.23008,2.82851,25.90234,25.90234,0,0,0-.728,3.88877c-.45859,1.309-1.10812,2.55374-.56682,4.07594a7.06856,7.06856,0,0,0,.70818,1.76919,5.35942,5.35942,0,0,1,.35216.70332l-.22533.11721a4.53092,4.53092,0,0,1-1.29583-2.22013,4.25442,4.25442,0,0,0-.73528,1.86791,1.80226,1.80226,0,0,0,.61517,2.25048c.16436.1115.31768.25943.19375.42273-.155.20427-.39776.05674-.56757-.0398-.33944-.193-.37438-.68032-.84822-.88091-.14633.5463-.32974,1.06548-.41757,1.60331-.09737.59624.59168.93142.70894,1.43984-.16011.13072-.25061.15058-.35814.09083-.2084-.1158-.40008-.53456-.64655-.06188a.417.417,0,0,0,.288.65359c.75545.22631.82242.98819,1.32726,1.44926-.15828.052-.22835.10282-.28567.08963-.83006-.191-.79974-.18978-.8634.66-.02878.38428.21758.85163-.29087,1.25854a4.17667,4.17667,0,0,1,.009-2.13722c.10664-.37189.19282-.76222-.347-.99967a17.86037,17.86037,0,0,0-1.17473,2.39565A8.40844,8.40844,0,0,1,60.769,83.38865a1.26168,1.26168,0,0,0,1.0647.70653,3.011,3.011,0,0,0,1.05216-.08558c.18923-.03746.43481-.124.49413.20781-1.62093.86668-4.20086-.197-4.52409-1.89274.52265.326.81022.92518,1.45351,1.15618-1.02366-1.639-1.38745-2.04532-2.18718-2.43916q-.37341,1.0293-.74433,2.0524a.64322.64322,0,0,0,.243.8947c.8066.54431,1.56577,1.15978,2.35933,1.72474a1.8653,1.8653,0,0,0,.68486.29468,8.60305,8.60305,0,0,0,4.52507-.19569,12.54918,12.54918,0,0,1-2.9699-.21041,1.78186,1.78186,0,0,1,1.444-.27383,7.23118,7.23118,0,0,0,4.94231-1.484,14.12231,14.12231,0,0,0,2.22114-2.05913c.466-.56912.97175-1.1056,1.48377-1.68374.18542.43587-.23884.621-.19368.95244a5.0319,5.0319,0,0,0,1.4619-1.61949c.26447-.6417.6122-1.24939.84544-1.90195.9738-2.72459,2.43526-5.23567,3.18566-8.06754.36429-1.37473.88593-2.72416,1.38023-4.069a1.92263,1.92263,0,0,0,.05742-1.624,1.5289,1.5289,0,0,0-1.416,1.41442c-.40109,1.95663-.88828,3.89451-1.39462,5.82421a9.75725,9.75725,0,0,1-1.86124,3.48005c.4662-1.63689,1.59028-3.01468,1.8113-4.80192a1.87491,1.87491,0,0,0-.23156.0335c-.52163.19646-1.155.29083-1.40776.825-.1798.38-.52135.8858.086,1.30873.07627.05311-.03914.1977-.13289.22469-.61959.17833-.65692.75865-.84735,1.23154-.20146.50024-.28885,1.06953-.84238,1.36549a5.93884,5.93884,0,0,0,.6109-2.25268c-.81628.43837-1.64633.43914-2.33206.85524l-.0041.00649c.04048-.17444-.065-.37562.23637-.47136.66411-.211,1.30931-.48014,1.94946-.75343A1.23161,1.23161,0,0,0,73.7781,70.38692ZM29.36323,45.46208a17.32658,17.32658,0,0,0-2.9297,7.6859,31.33532,31.33532,0,0,0,.96459,9.39417c.42532,1.90564,1.038,3.77547,1.54407,5.66663.35029,1.30913.5802,2.65173,1.00839,3.9361.857,2.57062,1.65285,5.16549,2.72971,7.66343.57624,1.33665.98645,2.77459,2.16917,3.80064a2.13917,2.13917,0,0,1,.57827.90066c.45871,1.36378,1.69325,2.01746,2.69336,2.836a17.40225,17.40225,0,0,0,2.89154,1.66708,2.135,2.135,0,0,0,1.33729.32556,23.89422,23.89422,0,0,1,3.38785-.13226c2.79177-.04087,5.01023-1.42654,7.3088-2.6336a10.586,10.586,0,0,0,2.58021-2.4081c.21852-.23278.389-.46332.083-.82209-.19482-.22843-.11535-.51637.27109-.4279a.41037.41037,0,0,0,.5084-.23029A6.76382,6.76382,0,0,0,57.666,80.5992c.57175-2.59466,1.981-4.90406,2.22356-7.62548a23.15309,23.15309,0,0,1,.95778-3.86659c.38317-1.42021.66342-2.86081.93925-4.30318.26243-1.3722.42935-2.76539.67448-4.14174.36272-2.0365.90133-4.05419.28624-6.16873a1.35816,1.35816,0,0,1-.04041-.42381,31.98847,31.98847,0,0,0-.11433-5.50216c-.35932-2.63559-.208-3.96611-2.28-5.74513-.10236-.08789-.058-.18834-.02663-.28038.14-.411-.1627-.45947-.44042-.56691-.223-.08625-.52049.005-.66618-.27328-.2036-.3889-.55782-.37476-.92126-.41011a27.47375,27.47375,0,0,0-4.79363-.16991c-.41185.032-.83021.00662-1.24557.00759,1.8708-.56807,3.81666-.19134,5.76783-.32545a2.504,2.504,0,0,0-1.18506-.8406,8.12394,8.12394,0,0,0-4.6967-.44225,1.17431,1.17431,0,0,1-.51209.07873q-2.66038-.53138-5.32468-1.03913c-.38381-.07252-.77728-.08227-1.16595-.1256-.18112-.0202-.39538-.04764-.46537.13942-.14952.39963-.47415.2482-.71968.207a14.0326,14.0326,0,0,0-5.44609.59128A16.97881,16.97881,0,0,0,34.518,40.7921c-1.68729.84673-2.7013,2.3937-4.02229,3.61915a.91123.91123,0,0,0-.23394,1.04163A7.06909,7.06909,0,0,1,33.68959,43.002a1.2904,1.2904,0,0,1-.88223.834,6.14271,6.14271,0,0,0-1.88614,1.46716A20.39575,20.39575,0,0,0,29.66966,46.979a5.42616,5.42616,0,0,0-1.0146,2.82373c-.1251,1.3423.13689,2.69119.00562,4.0285-.01749.17822.07122.45228-.37519.43428a4.54192,4.54192,0,0,0,.05158-1.87193c-.01954-.9193-.07325-1.84136-.0395-2.75708a5.39775,5.39775,0,0,1,1.34573-3.237C29.91837,46.06175,29.93292,45.7993,29.36323,45.46208Zm28.30007-9.644a3.05838,3.05838,0,0,1,1.83052-.13227c.40933.03142.69521-.03749.84908-.42208.12134-.30331.51285-.46547.47311-.86168a.925.925,0,0,0-.93048.1342,6.04006,6.04006,0,0,1-.82185.44643c-.02682.01333-.09762-.05681-.13333-.07906.07569-.36746.61482-.26852.59522-.68256-.4186-.248-.91049-.15305-1.34723-.3284a.44613.44613,0,0,0-.39725.04c-.367.40224-.87221.779-1.01374,1.26547a27.11063,27.11063,0,0,0-.588,3.19828c-.07049.43093.14705.60668.5809.70461a9.16773,9.16773,0,0,1,2.31542.83953c.54666.29168.794.2219.97581-.34233a6.25613,6.25613,0,0,1,1.95211-2.52257c.21363-.20343.47835-.35607.54551-.71905a2.72254,2.72254,0,0,0-1.81168.0174c-.11159.06259-.259.14394-.22122.31815.03889.179.199.157.33259.18922.087.021.29754-.06323.21443.18539-.46.11025-.98446-.17853-1.40771.24923-.31412.31746-.52606.7893-1.11385.95906.15657-.90366,1.37477-1.16788,1.03895-2.20242A5.7442,5.7442,0,0,1,57.6633,35.8181ZM82.21743,53.78692c.20757-1.07168.41606-1.98589.55385-2.91289.103-.69283.11924-1.4017.16629-2.10422.09674-1.44428-.37067-2.86191-.35294-4.3064a16.464,16.464,0,0,1-.04126-2.22744c-.64445.46461-.826,1.11655-1.2561,1.33915-.555.28723-.43878.50773-.19635.87195a3.59006,3.59006,0,0,1,.484,2.55483,1.59226,1.59226,0,0,0,.12,1.18545c.519-.65845.287-1.47293.46473-2.31267.70313,1.95874-.38044,3.40772-.81575,4.98809-.03553.129-.21919.16832-.3646.08814-.17993-.09922-.07254-.24959-.05409-.37507a19.66982,19.66982,0,0,0,.04975-5.065c-.02891-.25849.03224-.584-.44423-.7249a22.10753,22.10753,0,0,1-.58847,5.31562,11.22693,11.22693,0,0,0,.06054,3.484c.82852-.34781,1.32119-1.06733,2.18411-1.44811A2.624,2.624,0,0,0,82.21743,53.78692Zm-.66021-.6304a6.5537,6.5537,0,0,0-1.21406.75475,1.31473,1.31473,0,0,0-.76546,1.80964.29052.29052,0,0,1,.00756.29148,1.41645,1.41645,0,0,0-.2963,1.27151c.15978.54622-.43467.783-.42488,1.28474a8.17691,8.17691,0,0,0-.1404,1.28371c.7021-.20781,1.40382-.19154,1.74642-.89768a7.858,7.858,0,0,0,1.08-3.89016C81.5182,54.468,81.55231,53.8703,81.55722,53.15652Zm-3.0425.75206c.98744-1.8389,1.83976-7.88745,1.356-9.19291a1.892,1.892,0,0,0-1.26361,2.13442,2.9744,2.9744,0,0,1-.06714.84079,4.38727,4.38727,0,0,0,.1455,2.19071,2.31116,2.31116,0,0,1-.20221,2.04687C78.02184,52.59159,78.19788,53.14861,78.51472,53.90858ZM77.438,64.42407c-.569.16295-1.0446.23389-1.161.7542a12.62356,12.62356,0,0,1-.7522,2.04816c-.26038.63022-.1231,1.39067-.617,1.94411-.06221.06969-.15723.32071-.11077.345,1.43262.14368,1.76969-.6187,1.797-1.67926a2.93919,2.93919,0,0,1,.14628-.6091C76.96326,66.3318,77.186,65.43634,77.438,64.42407Zm2.51024-4.48073c-.61835.29527-1.28746.15742-1.45373.7585a7.21068,7.21068,0,0,0-.33287,2.854c.8639-.25688,1.00771-.2891,1.0604-.62765A24.22857,24.22857,0,0,1,79.94819,59.94334Zm-3.41195,4.24515c.42375-.16566.976-.09544,1.09316-.66729A9.45689,9.45689,0,0,0,77.952,60.752c-1.1.21577-1.25049.2785-1.2551.87383C76.69047,62.46182,76.56406,63.27819,76.53624,64.18849Zm.37595-3.70681c1.37085-.311,1.62362-.71423,1.43432-2.28816C76.98641,58.36429,76.79206,58.67433,76.91219,60.48168ZM61.50845,35.7661a2.80471,2.80471,0,0,0,3.1974-.73381C63.42588,34.66086,62.32223,34.56166,61.50845,35.7661Zm-5.30583-4.16044a17.29911,17.29911,0,0,0-.75222,5.14642A9.58847,9.58847,0,0,0,56.20262,31.60566ZM78.77336,56.52653c-.82042.33755-1.426.59057-2.03495.83592-.43859.17673-.49649.475-.275,1.02439C77.1785,57.70241,78.58089,58.13517,78.77336,56.52653Zm2.653-16.57975a15.47939,15.47939,0,0,0,.18578,2.40665c.3489-.22138.74454-.36385.61692-.72646C82.03377,41.07226,82.14725,40.35219,81.42631,39.94678ZM65.79342,86.68108a3.15155,3.15155,0,0,0-2.80254.26332C63.98363,86.82085,64.8847,87.23473,65.79342,86.68108ZM75.92908,60.89779c.54056-.45179.60772-.70361.557-2.08819C75.8142,59.16155,75.69393,59.61238,75.92908,60.89779ZM62.56185,21.96462a4.56777,4.56777,0,0,1,1.74653.42495,1.24113,1.24113,0,0,0,.82983.04725c.09438-.029.20786-.06409.20148-.202a.22709.22709,0,0,0-.18484-.22275C64.29177,21.889,63.43042,21.52685,62.56185,21.96462ZM79.90141,62.1351a4.35533,4.35533,0,0,0,.7057-2.26645C79.93712,60.4894,80.00525,61.3389,79.90141,62.1351Zm-2.17706-5.76459c1.23929-.33838,1.23929-.33838,1.03745-1.41206A6.91672,6.91672,0,0,0,77.72435,56.37051Zm-15.2631-23.084c-.90926-.31672-1.202.23694-1.76121.62872C61.57259,34.23368,61.86512,33.65677,62.46125,33.28655Zm-.19371-.48976c.92547.36209.92547.36209,1.7275-.11426C63.39789,32.76,62.85762,32.1442,62.26754,32.79679ZM42.71265,31.43868a7.63464,7.63464,0,0,1,1.28925,1.43523c.06305.12915.17774.23617.31919.1053.11344-.10494.09487-.22507-.012-.35839A2.85829,2.85829,0,0,0,42.71265,31.43868Zm14.38871-.397a2.19029,2.19029,0,0,0-.283,1.99034A3.65127,3.65127,0,0,0,57.10136,31.04167Zm1.64093-8.06933c-.62679.85086-.625.92818-.06131,1.64284ZM61.9571,34.6866c-.94617.12054-1.02659.19947-1.26816,1.06413Zm15.25182-.00183a2.26116,2.26116,0,0,0,1.38523.89372A1.85656,1.85656,0,0,0,77.20892,34.68477ZM18.74118,54.71406c.08153.46325-.14313.9896.36,1.44535C19.22382,55.57473,18.83655,55.17446,18.74118,54.71406Zm36.3787-15.98092a1.77434,1.77434,0,0,0,.20284-1.43748C55.2644,37.83147,54.60116,38.0884,55.11988,38.73314Zm23.92024-1.7905c.3079.52575.49063.88724.97216,1.06126C80.04879,37.40962,79.71212,37.1656,79.04012,36.94264ZM54.81243,34.60612c.31692-.68071.3205-.68022.15222-1.31277C54.83125,33.73881,54.50675,34.0605,54.81243,34.60612ZM65.28068,50.36157a.50239.50239,0,0,0,.09892-.78173.18758.18758,0,0,0-.181-.01395c-.26772.233-.10066.4926-.00144.74477C65.20468,50.32991,65.24152,50.33862,65.28068,50.36157Zm.62161.39377c-.22337.344-.31454.62175-.12561.92693a.19464.19464,0,0,0,.181.04691c.33528-.24354.05938-.5438.03456-.82172C65.98951,50.87677,65.95816,50.84763,65.90229,50.75534Zm-.95157-2.15471c-.04871-.10138-.0015-.29913-.22381-.25618-.127.02452-.31258.0074-.33825.16677-.03316.20573.15437.3041.31243.34035C64.85065,48.88587,64.9486,48.77522,64.95072,48.60063ZM57.32711,30.26171c.25706-.41375.48687-.65521.22881-1.05729a5.36546,5.36546,0,0,0-.2115.50636A3.107,3.107,0,0,0,57.32711,30.26171Zm.46778-3.34188a.24117.24117,0,0,0,.08168-.01591.41662.41662,0,0,0,.19757-.44308c-.00923-.06486-.05638-.18077-.08115-.18029-.23578.00457-.17282.23517-.24537.36384A.18557.18557,0,0,0,57.79489,26.91983ZM43.90021,33.67651c-.14872-.16692-.12477-.38974-.33383-.41945-.02358-.00336-.09873.15443-.08981.23277.01592.13993-.06586.36974.2037.35916C43.7584,33.84592,43.82857,33.73577,43.90021,33.67651Z">
  </path>
  <path
    d="M60.00235,65.50051c-.91979-.23944-1.30979-.04516-1.388.74118a10.46774,10.46774,0,0,0-.13511,2.89782c.06483.3685-.03362.61288-.45479.61447a3.59739,3.59739,0,0,0-.112-1.51981,1.19,1.19,0,0,0-.397.8751c-.05449.26172-.10459.56172-.49064.53541a12.39207,12.39207,0,0,0,.33872-3.73032c-.55447.0932-1.17039.01742-1.32982.576-.36879,1.29219-.90993,2.53232-1.17574,3.94224a6.58817,6.58817,0,0,0,2.01-.45094c.16559-.071.17367-.19149.15618-.33777q.51318.03986,1.02594.08009a.35093.35093,0,0,1-.27345.38779,12.35,12.35,0,0,1-2.01388.60372,1.52787,1.52787,0,0,0-1.4697,1.69561c.92512.1394,1.73146-.43349,2.64471-.39861.03908.4383-.31.32454-.498.38387a4.8523,4.8523,0,0,1-1.65865.29953.88359.88359,0,0,0-.93522.54307,5.24841,5.24841,0,0,0-.52909,1.57179,3.65117,3.65117,0,0,0,1.61219-.12425c.33142-.08077.66033-.285.99813.02189a11.51382,11.51382,0,0,1-2.36036.48409c-.27721.06183-.59006.04587-.695.36358a6.2923,6.2923,0,0,0-.509,1.56517,21.04558,21.04558,0,0,0,2.45832.12248c.205.03047.49539-.00675.50062-.26415.01663-.82033.70923-1.44386.57369-2.299.39526-.14917.33705-.56293.48071-.85778.14943-.30671.194-.68387.56744-.83411.2883.21741.03012.36486-.02993.53578a17.96316,17.96316,0,0,0-.93592,2.78018,14.1901,14.1901,0,0,0-.29882,2.77381,3.38232,3.38232,0,0,1-.75834,2.44688c.11372-.66131.2747-1.317.33218-1.985.16345-1.899.14682-1.901-1.76216-1.89333a1.48619,1.48619,0,0,1-.31948-.0021,1.07378,1.07378,0,0,0-1.45845.93012,1.89813,1.89813,0,0,1-.19123.39424c-.35292-.42274.238-.74194-.04162-1.17954a1.5305,1.5305,0,0,0-1.66879.93327,52.24929,52.24929,0,0,1-2.93593,4.80469,1.4649,1.4649,0,0,0-.41643.81823c.48557.188.98495-.12039,1.45719.13061-.59943.39655-1.62977.49454-3.96695.38173.09943-.45152.51578-.36259.77444-.33792a1.671,1.671,0,0,0,1.6917-1.00273c1.19358-2.00438,2.30991-4.06086,3.5965-6.0023,1.73085-2.61179,2.43533-5.59852,3.19566-8.57931.03779-.1482-.02609-.36647.2954-.45087.28911.78432-.1896,1.4606-.21754,2.23837.539.10759.95505-.00423,1.13814-.56649.38926-1.19541.76668-2.395,1.17-3.6588-.92018-.15345-1.68818.40736-2.69706.17489.8259-.22488,1.48725-.45195,2.17091-.57576a.78422.78422,0,0,0,.73722-.84224c.03947-.70177.10248-1.40143.15666-2.11789-.627-.41281-1.18816.25079-1.804.09788.092-.46308.43483-.36388.68832-.4316,1.1866-.317,1.22829-.37505,1.31084-1.80505-.85934-.09688-1.54253.60169-2.40617.51741.00887-.45007.351-.44821.59338-.53413A8.67262,8.67262,0,0,1,55.456,60.664c.60757-.12748,1.12881-.34312,1.22083-1.02061.37837.06269.07833.54726.47629.525.3507-.01963.46144-.23084.52312-.54223a3.3764,3.3764,0,0,0,.1021-1.16995,10.20369,10.20369,0,0,0-2.68162.46048c-.25294.03572-.29215.24871-.39228.435-.11209.20855.05451.51039-.21691.656a8.44029,8.44029,0,0,1-.08133-2.91416c.379.27524.27892.65784.286.97735.00981.44282.23346.59968.60707.5148.75566-.17168,1.49913-.38967,2.24824-.58655a.51377.51377,0,0,0,.41069-.43208,7.88923,7.88923,0,0,0,.03088-3.64978c-.05662-.15824-.03352-.39966-.27994-.36956-.31048.03791-.20767.301-.18782.49886.03539.353.0911.705.11722,1.05826a.39784.39784,0,0,1-.30466.47843c-.15146-.13608-.12883-.3158-.14775-.48824a9.09663,9.09663,0,0,1-.11444-.95111c-.001-.47017-.40777-.52741-.67471-.73083.63793-.128.24617-.525.15922-.80176a9.14221,9.14221,0,0,0-.46182-1.08544c-.15057-.32445-.33422-.6351-.47556-.96288a11.05176,11.05176,0,0,1-.45188-1.19532.48831.48831,0,0,1,.29392-.65974c.29638,1.478,1.18312,2.66838,1.67675,4.01942.08035.2199.0611.54151.44264.4667.28531-.05594.36457-.25154.379-.5378.05136-1.02122.13076-2.04012.20381-3.05944.12776-1.78336.134-1.757-1.63366-1.4874a6.0478,6.0478,0,0,1-2.35049.18113,14.25592,14.25592,0,0,1,2.435-.56959,8.21853,8.21853,0,0,0-2.54726-2.63348c.37148-.359.68165-.21826.99033.00124.49636.58248.99836,1.16038,1.487,1.7491a3.15151,3.15151,0,0,0,1.08756.64608c.30928.1646.5849-.0717.77379-.35822.05629-.08538.18134.00193.28152.04238.16155.06524.286-.00452.23047-.19313a5.3458,5.3458,0,0,0-1.015-2.11542c-.29961-.33055-.94526-.05706-1.42955-.00226-.379.04289-.78963-.06423-1.13084.17727a1.15368,1.15368,0,0,1,.79213-.42776,15.42609,15.42609,0,0,1,3.18264-.16367c-.13367-.875-.34606-1.11885-1.08928-1.31177a7.66214,7.66214,0,0,0-4.0678.25032c-.13373.03719-.26509.10127-.4058.009a3.73088,3.73088,0,0,1,1.85554-.66054,4.89791,4.89791,0,0,0,.82873-.16261A2.32593,2.32593,0,0,1,59.558,43.64467a8.73976,8.73976,0,0,1,1.06463,2.55472c.07607.29613.00789.65738.41073.80118.05488.01959.13509.141.12447.15513-.46609.62.13217,1.411-.25143,2.27636-.30612-.64373-.21879-1.15492-.43739-1.58829-.1057-.20954-.17387-.40081-.441-.35524-.33976.058-.35129.30338-.24987.56384a11.402,11.402,0,0,1,.44172,4.91783,14.67648,14.67648,0,0,0,.186,2.21985,7.02051,7.02051,0,0,1,.01523,1.69613c.46414-.3509.10281-1.00206.602-1.22357a27.15826,27.15826,0,0,1-.62107,8.74237c.2516.297.51735-.132.85855.09755-.33187.46208-.96841.537-1.28163.9782Zm-.595-12.3296c-1.12.38663-1.12588.387-1.00956,1.57352a8.2,8.2,0,0,1,.04762,1.9992.96432.96432,0,0,0,.11633.88077c.6554-.01253.95176-.29062.97245-.96337.03231-1.051.26468-2.09671.21868-3.14289a3.946,3.946,0,0,0-1.12855-2.807c-.45719.74347-.12754,1.50334-.28732,2.16784C58.68692,53.14027,59.04227,52.89109,59.40736,53.17091ZM60.571,57.50529c-.27071.24677-1.06856.15135-.57533.85659a.31085.31085,0,0,1-.01582.29607c-.293.32809-.03675.57553.05283.8992.0914.33022-.56908.438-.56462.88308a3.373,3.373,0,0,1-.06969.4144c-.074.62761-.17059,1.25338-.2076,1.88457a10.008,10.008,0,0,0-.24857,2.26773c.9606-.16142.98495-.15574,1.0831-.6403A41.013,41.013,0,0,0,60.571,57.50529ZM57.454,62.42407c-.52969.27145-1.09054.188-1.12839.83507-.04111.703-.09512,1.40483-.14333,2.10718a.31764.31764,0,0,0,.17937.34958c.30361.1281,1.11186-.28013,1.0789-.58741C57.35032,64.28752,57.46371,63.45449,57.454,62.42407Zm2.31971-10.95983a6.21249,6.21249,0,0,0-.45321-3.43c-.08023-.16614-.16152-.33965-.368-.325-.2118.015-.26153.19282-.27193.37867-.03317.59251-.06823,1.18485-.09886,1.77756-.00719.139-.01514.28946.1481.36236C59.22405,50.4486,59.31158,51.01417,59.77366,51.46424Zm-1.29879-6.63085c.2789.68973.54341,1.36783.82964,2.03735a.368.368,0,0,0,.50717.24308c.22634-.09041.48657-.15964.42191-.48881-.05381-.27386-.1358-.54311-.20325-.81485C59.79933,44.87926,59.60124,44.74862,58.47487,44.83339Zm-.50066,20.4229c.44247-.17225.43943-.49121.49337-.78554a6.48681,6.48681,0,0,0,.25658-2.06669c-.03009-.22209-.21058-.24679-.40083-.20756-.34.07009-.4322.31346-.42382.62062C57.921,63.60505,57.94743,64.393,57.97421,65.25629Zm-5.89929,9.90159a16.02454,16.02454,0,0,0-1.5579,2.29053c.58823-.08931,1.2024.03413,1.29252-.33823C51.95223,76.52064,52.52022,75.95314,52.07492,75.15788Zm6.11985-15.32782c1.02579-.01218,1.11056-.33384.98655-1.84656C58.17816,58.234,58.16839,58.25158,58.19477,59.83006Zm.79156.9486c-.01505-.19456.06792-.4607-.21382-.51122a.55072.55072,0,0,0-.684.31587,4.297,4.297,0,0,0-.10043.50324c-.05624.24043-.11153.49727.13421.6606.18273.12145.77777-.20742.83485-.45187A2.88548,2.88548,0,0,0,58.98633,60.77866Zm-4.9386,10.44691c-.95467.04345-1.17712.19878-1.28908.86468-.05816.346.09832.4457.41192.36206C53.75059,72.29761,53.96274,71.85819,54.04773,71.22557ZM57.39505,60.617c-.79668.31515-.83524.38567-.806,1.47428C57.64938,62.00187,57.679,61.94764,57.39505,60.617Zm-5.4025,14.20946.22821.10531c.29519-.60156.594-1.20132.8825-1.80626.05742-.12038.09779-.274-.08726-.34531-.16871-.06506-.37158-.10126-.4395.10766C52.368,73.52913,52.1853,74.17954,51.99255,74.82641Zm7.98838-17.949a1.36616,1.36616,0,0,0,.12147-1.37353C59.75006,55.96486,59.98915,56.43272,59.98093,56.87741Z">
  </path>
  <path
    d="M42.44466,87.28353a10.25507,10.25507,0,0,0-3.25393-2.3346c.50182-.32938.82461-.00634,1.16515.158,1.01032.48744,1.866,1.22639,2.82585,1.797.68762.40873,1.3556.81325,2.17867.37246a.92031.92031,0,0,1,1.00826.16021,1.14139,1.14139,0,0,0,1.29616.07173c.91137-.40854,1.8373-.78671,2.9678-1.26683a3.51424,3.51424,0,0,1-1.63659,1.2033c-.44548.24535-1.14416.17069-1.12535.95872.00137.058-.19977.18458-.24123.16085-.74759-.42784-1.35029.193-2.03376.1932-.03118,0-.06347-.032-.10109-.05218.03826-.49874.67683-.31853.82312-.72738-.19412-.20816-.451-.39957-.71329-.25-.98754.5631-2.02.071-3.01561.00881-.57-.03564-1.17971-.29739-1.77073-.3539-1.61986-.15486-2.73832-1.18681-3.86282-2.19162a4.16358,4.16358,0,0,1-1.00779-1.55145c.59273.5565,1.17,1.13075,1.78238,1.66474A5.05238,5.05238,0,0,0,39.98,86.72643C40.8048,86.893,41.62335,87.0964,42.44466,87.28353Z">
  </path>
  <path
    d="M31.61811,69.03714c.92346,3.61332,1.80738,7.07191,2.69571,10.5478-.325-.04166-.34866-.276-.40657-.47829-.60775-2.1232-1.36151-4.20535-1.90385-6.34983-.27505-1.08759-1.00094-2.05538-1.31626-3.15287a9.647,9.647,0,0,1-.67341-3.06884c.90639,1.29747.73871,2.71559,1.474,3.90887C31.7579,70.01341,31.42671,69.59537,31.61811,69.03714Z">
  </path>
  <path
    d="M46.4176,86.3773a3.21591,3.21591,0,0,1,.5083-.35232,8.29257,8.29257,0,0,0,3.70963-3.68548A9.67464,9.67464,0,0,1,52.32141,80.018c-.372,1.17762-1.16232,2.13991-1.62012,3.31151.993.42292,1.86265-.25152,2.80082-.11738a2.18341,2.18341,0,0,1-1.51.39235A3.25319,3.25319,0,0,0,49.10072,84.929,5.27731,5.27731,0,0,1,46.4176,86.3773Z">
  </path>
  <path
    d="M33.42916,64.517c-.902-1.12914-1.52451-6.47054-.86354-7.78641A40.66205,40.66205,0,0,0,33.42916,64.517Z">
  </path>
  <path
    d="M51.85731,86.04934c.38053-.70948.96-1.10241,1.19955-1.72871.05027-.13141.22509-.08095.352-.10556a.92476.92476,0,0,0,.819-1.03906c-.025-.26685.129-.36678.22346-.34182.32721.08648.53594-.16321.87951-.30131C53.92293,84.898,52.949,85.9193,51.85731,86.04934Z">
  </path>
  <path
    d="M28.16473,56.3239a2.80561,2.80561,0,0,1,.81208,2.00147,11.22632,11.22632,0,0,0,1.02637,3.89753c.09328.16736.11182.35549-.1109.42538-.1675.05257-.24074-.087-.30055-.22619a11.44231,11.44231,0,0,1-.70729-2.2415C28.62417,58.89845,28.40259,57.60981,28.16473,56.3239Z">
  </path>
  <path
    d="M61.01109,44.67739c.923,1.20375,1.467,4.60626.85218,5.6402-.08221-.92155-.15031-1.84413-.25063-2.76434A23.83494,23.83494,0,0,1,61.01109,44.67739Z">
  </path>
  <path
    d="M59.979,65.48073a9.62788,9.62788,0,0,1-.35458,5.03327q.191-2.50516.37991-5.01192Z">
  </path>
  <path
    d="M56.98705,76.92737c.2769-.623.07512-1.36052.38142-1.99769A1.4769,1.4769,0,0,1,56.98705,76.92737Z">
  </path>
  <path
    d="M51.79283,42.3898a.43491.43491,0,0,1,.37622-.11757c.22827.012.49914-.09963.64376.19024a.18888.18888,0,0,1-.10651.25074c-.24487.12625-.48634.27692-.76529.04468A.41461.41461,0,0,1,51.79283,42.3898Z">
  </path>
  <path
    d="M54.64156,79.4791c-.41467.31433-.71872.01655-1.16512-.03826C53.92647,79.373,54.24293,79.2529,54.64156,79.4791Z">
  </path>
  <path
    d="M62.86128,66.02086c.54025.108.8775-.0827.96962-.63439a4.47976,4.47976,0,0,1,.089-.51252,2.74337,2.74337,0,0,0-.33715-2.73593c.5614-.06338.718-.46334.81528-.94168a10.819,10.819,0,0,0-.06688-2.95518,6.54015,6.54015,0,0,1,.30566-2.68253.78852.78852,0,0,1,.18277.705c-.01011.80967-.04482,1.62-.01031,2.42961a19.3089,19.3089,0,0,1-1.02621,7.75644.99991.99991,0,0,0,.05535.90548c.12538.23047.35411.47241.26779.80117-.24381.18236-.33679-.15649-.51681-.17953-.24893-.03187-.27282.26436-.5304.44983C62.94276,67.54871,63.4767,66.73815,62.86128,66.02086Z">
  </path>
  <path
    d="M79.8745,38.965c-.3607.16234-.59438.30728-1.0278-.13282a25.466,25.466,0,0,0-2.90534-2.38905c-.50335-.37817-.761-.279-1.10059.28368-.35963.5958-.69758,1.20516-1.03959,1.81174a1.48752,1.48752,0,0,1-.806.75961,22.32063,22.32063,0,0,0,1.36927-2.57706c-.206-.243-.496-.0446-.75406-.22588.35494-.64611,1.45213-.44421,1.50438-1.36731.2936.152.11667.46737.34817.54715,1.62723.56077,2.62422,1.9349,3.85251,3.0089a1.1242,1.1242,0,0,0,.56652.283C79.88621,38.969,79.8745,38.965,79.8745,38.965Z">
  </path>
  <path
    d="M69.67339,79.73863a14.27945,14.27945,0,0,0-2.39018.6341c-.07563-.36023.23107-.33816.35956-.39542.4128-.184.85583-.3034,1.28038-.46435a4.16572,4.16572,0,0,0,2.12139-1.44182,8.622,8.622,0,0,1,1.07482-1.08053,4.39057,4.39057,0,0,1-.77075,1.84816,7.78369,7.78369,0,0,0-2.3303,2.61452A11.00813,11.00813,0,0,1,67.863,82.88923,14.56818,14.56818,0,0,1,69.67339,79.73863Z">
  </path>
  <path
    d="M71.09081,73.28025c-.38955-.06182-.7533.03548-.86489.40941a15.52364,15.52364,0,0,0-.71933,2.7061,28.26092,28.26092,0,0,0,4.31209-1.6402,1.72118,1.72118,0,0,1-1.17274.98577c-.67363.28919-1.3711.53159-2.0722.75495-.86563.27578-1.68933.571-1.77013,1.69749a2.18149,2.18149,0,0,1,.13579-1.51034,8.82273,8.82273,0,0,0,.737-2.92458c.09655-.58078.476-.71248.73864-.94337.28152-.24752.48528.23442.672.47053Z">
  </path>
  <path
    d="M62.39542,81.77567c.21448-.25534.41748-.2525.60917-.109a7.0744,7.0744,0,0,1,.74006.62345,2.72779,2.72779,0,0,0,1.61338.973.28712.28712,0,0,1,.25473.38186c-.05908.15042-.23856.13194-.37184.084a6.43137,6.43137,0,0,1-.88916-.36219A21.20542,21.20542,0,0,1,62.39542,81.77567Z">
  </path>
  <path
    d="M73.7781,70.38692c-.23967.26487-.531.23127-1.01188.15953.44388-.18766.71763-.29683,1.03189-.13752Z">
  </path>
  <path
    d="M30.08578,40.89052c.03745-1.92219,2.77791-3.11878,5.41176-2.96454-.69348.16639-1.1362.35939-1.63621.434a4.00844,4.00844,0,0,0-3.47191,2.33635c-.03615.086-.1381.14461-.21546.20883C30.15913,40.91746,30.11591,40.89626,30.08578,40.89052Z">
  </path>
  <path
    d="M30.83472,78.983c-.87935.31268-1.22407.14237-1.83127-.84733C29.81337,78.01414,30.07633,79.0825,30.83472,78.983Z">
  </path>
  <path
    d="M31.22445,41.6919c-.1761-.373-.2526-.4637-.25474-.55362-.00525-.22135-.23162-.46716.02779-.65943a.2031.2031,0,0,1,.192.02711c.20256.20576.36834.43067.23029.73546C31.37815,41.33331,31.33934,41.42652,31.22445,41.6919Z">
  </path>
  <path
    d="M53.14815,37.945c-.75111-.03558-1.10732-.80394-1.91719-.79218C52.06822,36.78475,52.41789,36.94451,53.14815,37.945Z">
  </path>
  <path
    d="M59.3101,20.27671c.0972-.47272.52646-.65145.64148-1.06915a.22448.22448,0,0,1,.39573-.1199.32272.32272,0,0,1-.00461.47293C60.01918,19.82413,59.6569,20.04112,59.3101,20.27671Z">
  </path>
  <path d="M61.773,16.67753l-.68325.83183A.83791.83791,0,0,1,61.773,16.67753Z">
  </path>
  <path
    d="M63.17155,15.74827c-.1626.1931-.3083.389-.679.25825C62.70353,15.80912,62.84834,15.61149,63.17155,15.74827Z">
  </path>
  <path
    d="M66.304,13.77757A1.00354,1.00354,0,0,1,65.944,12.89c.32387.28989.505.53286.33662.90824Z">
  </path>
  <path
    d="M58.63523,21.12073a.59488.59488,0,0,1,.39213-.56519A.57493.57493,0,0,1,58.63523,21.12073Z">
  </path>
  <path
    d="M67.52618,19.63587a1.86643,1.86643,0,0,1-.3736.922A.85708.85708,0,0,1,67.52618,19.63587Z">
  </path>
  <path
    d="M61.1206,31.72542c-.52694.13742-.92522-.18248-1.3417-.43482a1.53629,1.53629,0,0,1,1.32612.45658Z">
  </path>
  <path
    d="M45.77078,31.3213c.07806.295.01627.46276-.18343.49429a.25328.25328,0,0,1-.28033-.25067c.02381-.37715-.297-.61915-.363-.95121a.31059.31059,0,0,1,.10532-.27053.3407.3407,0,0,1,.29131.035C45.72441,30.62356,45.67445,31.0565,45.77078,31.3213Z">
  </path>
  <path
    d="M38.06352,32.5627c-.04274.45783-.38121.66044-.74918.836a.99082.99082,0,0,1,.76978-.817Z">
  </path>
</svg>