<svg class="hvr-pop"  data-toggle="tooltip" data-placement="right" title="Learn more"
  xmlns="http://www.w3.org/2000/svg" xmlns:xlink="http://www.w3.org/1999/xlink"
  version="1.1" x="0px" y="0px" viewBox="0 0 100 100"
  style="enable-background:new 0 0 100 100;" xml:space="preserve">
  <path
    d="M91.8,21.5C91.8,21.6,91.8,21.6,91.8,21.5c0.4-2.8,1.1-5.5,0.8-8.2c-0.3-2.6-1.3-5-2.8-7.1c-0.2-0.3-0.5-0.6-0.8-0.6  c-0.8-0.1-1.1-0.8-1.7-1.2c-1.6-1-3.2-2.4-5.4-1.5c-0.3,0.1-0.7,0.1-1-0.1c-1.2-0.6-2.3-0.3-3.4,0.3C76.7,3.7,75.8,4.1,75,4  c-1.2-0.1-2,0.5-2.9,1c-5.4,3.5-9.4,8.3-12.7,13.7c-3.8,6.2-6,13.1-7.4,20.1c-1.4,7-2.4,14-1.5,21.2c0,0.2,0,0.5,0,0.7  C50,62.2,50,63.6,50,65c0,1.4-0.1,2.9,0,4.3c0,0.7-0.6,1.3-0.5,1.6c0.8,1.7,0,3.4,0,5c-0.6-1.1-0.7-2.2-0.9-3.4  c-1-5.6-2.3-11.1-4-16.6c-0.3-0.8-0.3-1.8-0.8-2.5c-1.3-2.2-2.3-4.5-3.3-6.9c-0.8-1.9-1.3-4-2.9-5.6c-0.6-0.6-1.1-1.3-1.5-2  c-1-2.2-2.5-3.9-4.2-5.6c-1.8-1.8-3.8-3.2-5.9-4.5c-0.9-0.5-1.8-0.8-2.9-0.9c-1.1-0.1-2.3-0.1-3.3-0.6c-0.6-0.3-1-0.4-1.6-0.2  c-0.6,0.1-1.1,0.4-1.7,0.4c-1.3,0.1-2.3,0.9-3.6,1.1c-0.9,0.7-1.9,1.4-3,1.9c-0.3,0.5-0.5,1-1,1.3c-0.6,0.4-0.9,1.2-1.2,1.9  c-0.6,1.7-0.8,3.5-0.8,5.4c0,2.2,0.1,4.2,1.5,6c1,1.4,1.6,3.2,2.7,4.6c3.5,4.7,7.3,9.1,12.1,12.4c0.7,0.5,1.4,0.8,2.1,1.2  c1.3,0.6,2.8,1.3,3.6,2.5c0.6,0.9,1.3,1.4,2.1,2.1c1.9,1.6,3.9,2.9,5.9,4.3c0.3,0.2,0.8,0.5,0.9,0.8c0.3,1.6,1.6,2.3,2.6,3.3  c2.3,2.2,4.6,4.5,6.2,7.3c0.4,0.8,1.1,1.4,1.4,2.3c0.4,1.3,0.1,1.8-1.2,1.9c-1.3,0.1-2.6-0.1-3.9,0c-0.7,0-1.4,0-2,0  c-2,0.7-3.9,1.5-5.9,2.1c-0.2,0.1-0.3,0.1-0.5,0.2c-1,0.3-1.9,0.8-2.8,1.1c-1,0.4-1.7,1.1-2.4,1.8c-0.2,0.2-0.3,0.4-0.1,0.7  c0.2,0.3,0.5,0.4,0.8,0.3c0.3,0,0.5-0.2,0.8-0.3c1.4-0.6,2.7-1.4,4.1-1.9c2.6-0.9,5.1-1.8,7.9-1.3c1.4,0.2,2.9,0.2,4.2,0.7  c1.1,0.4,2.1,0.3,3.1,0.4c0.5,0,0.9-0.1,1.4-0.1c4.7,0.2,9.3-0.1,14.1-0.8c-0.7,0.8-1.8,0.7-2.6,1.6c0.9,0,1.5-0.3,2-0.6  c2-1.2,3.9-1.1,5.9-0.1c0.2,0.1,0.4,0.2,0.7,0.3c0.3,0.1,0.6,0.2,0.8-0.2c0.2-0.3,0.2-0.9-0.1-0.9c-1.3-0.3-2.3-0.9-3.3-1.7  c-0.1-0.1-0.3,0-0.5,0c-3.9-0.2-7.8-0.7-11.7-0.1c-1.8,0.2-3.3-0.2-4.9-0.6c-0.4-0.1-0.6-0.2-0.6-0.7c0-1.4-0.1-2.7,0.6-4  c2.7-5.2,5.3-10.6,8.3-15.7c0.3-0.5,0.6-1.2,1-1.6c0.2-0.3,0.4-0.7,0.6-1c0.1-0.8,0.8-1.3,1.3-1.8c0.1-0.1,0.2-0.2,0.3-0.3  c0.1-0.1,0.2-0.2,0.2-0.3c0.1-0.1,0.2-0.2,0.2-0.3c1.2-1.5,2.2-3.1,3.5-4.6c0.1-0.2,0.3-0.3,0.4-0.5c0.5-0.7,0.9-1.3,1.4-1.9  c0.5-1,1.1-2,2-2.7c1.3-1.6,2.6-3.2,3.9-4.8c2.7-3.3,5.4-6.7,8.1-10c0-0.1,0.1-0.2,0.1-0.3c0.1-0.3,0.3-0.5,0.6-0.6  c0.6-0.7,1.2-1.4,1.7-2.1c0.5-1,1.1-2,1.6-2.9c1-1.7,2.2-3.4,3-5.2c0.6-1.3,1.1-2.7,1.7-4C91.7,22.5,91.7,22,91.8,21.5z M9.2,36.3  c0.1-0.4,0.2-0.8,0.3-1.3c2,1.2,3.9,2.6,6.4,2.9c-0.1-0.9-0.8-0.8-1.2-1c-1.4-0.5-2.7-1.3-4-2c-1-0.6-1.1-1.2-0.3-1.9  c0.6-0.5,1.3-0.9,1.9-1.2c0.4-0.2,1.3,0.9,1.3,1.5c0,1,0.5,1.8,1.4,1.8c0.5,0,0.8,0.1,1,0.4c1.8,2.1,3.8,4.1,5.7,6.7  c-2.4-0.5-4.4-1.2-6.4-1.9c-1.7-0.6-3.3-1.3-5-1.9C9.1,37.9,9,37.7,9.2,36.3z M18.4,35.8c0.4,0.3,0.7,0.7,1.1,1.4  C18.7,36.9,18.4,36.4,18.4,35.8z M39.1,74.1c1.3,0.2,1.8,0.6,2.9,2.3C40.7,75.7,39.9,74.9,39.1,74.1z M39.3,71.5  c-1-1-2.1-1.8-3.3-2.6c-2.2-1.4-4.2-3.1-6.3-4.7c-1.8-1.3-3.5-2.8-5.5-3.9c-0.4-0.2-0.8-0.4-0.9-0.8c-0.5-0.3-0.9-0.7-1.1-1.1  c-0.4-0.1-0.7-0.4-1-0.7c-2.2-1.7-4.1-3.6-6-5.6c-2.8-3.1-5.2-6.6-6-10.9c-0.1-0.8-0.4-1.6-0.1-2.6c1.8,0.7,3.6,1.3,5.4,2  c2.1,0.7,4.2,1.8,6.4,2c1.5,0.2,2.4,0.9,3.3,2c1.1,1.4,2.4,2.8,3.5,4.2c-4.3-2-8.5-3.9-12.9-5.5c1.6,1.2,3.4,1.9,5.2,2.7  c2.2,1.1,4.5,2.2,6.7,3.3c0.5,0.2,0.9,0.6,1.5,0.3c0.6-0.3,0.7,0.3,0.9,0.6c2.1,2.2,3.8,4.7,5.6,7.1c1,1.4,2,2.8,2.9,4.3  c-1-0.1-1.6-0.8-2.4-1.3c-1.5-1-3-2.1-4.5-3.2c-0.3-0.2-0.5-0.4-0.9-0.3c1.5,1.7,3.4,2.8,5.2,4.1c1.1,0.8,2.2,1.9,3.5,2.4  c0.2,0.1,0.3,0.2,0.4,0.3c0.8,1.4,1.7,2.8,2.1,4.5c-2.2-1.7-4.4-3.4-6.6-5c0.1,1,0.9,1.1,1.4,1.6c2.1,1.7,4.1,3.5,6.2,5  c0.1,0.1,0.3,0.2,0.4,0.4c1.1,2,2.2,4,2.8,6.4C42.5,75.5,41,73.4,39.3,71.5z M46,74.9c-1-0.7-1.2-1.3-1.1-2.6  c-0.6-3.3-1.1-6.6-1.7-9.9c-0.4,2.2,0.1,4.3,0.4,6.7c-2.6-3-4.1-6.2-4.6-9.9c-0.3-2.1-0.4-4.2-1.3-6.1c0.1,2.8,0.7,5.6,1,8.4  C37,59.2,35.2,57.2,35,54c-0.1-2.5-0.7-4.9-1.1-7.4c-0.1-0.4-0.3-0.8-0.7-1.1c0.4,3,0.8,6,1.2,9.3c-2.3-2.5-3.8-4.8-3.8-8.1  c0-2.2-0.6-4.4-0.7-6.7c0-0.2-0.2-0.4-0.4-0.9c0.2,3.4,0.4,6.4,0.6,9.9c-1.8-2-3.5-3.4-3.7-6c-0.2-2.2-0.7-4.3-0.9-6.5  c-0.1-0.8-0.3-1.5-0.6-2.2c-0.2,2.9,0.4,5.7,0.7,8.6c-0.5,0.1-0.7-0.2-0.7-0.5c-0.1-1-0.5-1.9-1.2-2.5c-1.8-1.9-2.3-4.5-3.1-6.9  c-0.1-0.4-0.1-0.8-0.6-1.1c0,1.7,0.7,3.3,1,5.2c-1.4-1.2-1.7-2.6-2-4.1c-0.2,0.9-0.8,1.6-0.6,2.6c-1.2-0.7-1.8-1.9-2.4-3.1  c-0.3-0.5-0.4-0.7-0.8-0.1c-0.4,0.5-0.6-0.1-0.7-0.3c-0.2-0.2-0.3-0.4,0-0.8c1.9-2.5,3.4-3.1,6.6-2.2c2.1,0.6,3.9,1.6,5.8,2.7  c3.4,2.1,6,4.9,8.5,8c0.7,0.9,1.3,1.8,1.8,2.8c0.5,1,1.1,2,1.7,2.9c1.3,2.1,2.6,4.2,3.3,6.7c0.3,1.2,0.8,2.5,1.5,3.6  c0.7,1.3,1.1,2.7,1,4.1c-0.1,2.3,0.5,4.6,0.7,6.9c0.1,0.8,0.3,0.4,0.5,0.1c0.3,0.3,0.1,0.7,0.1,1c0,0.3-0.2,0.7-0.2,1  c0,0.3-0.2,0.7,0.2,0.9c0.3-0.8,0.3-0.3,0.4,0.1c0.4,1.1,0.4,2.3,0.9,3.4c-0.8,0.1-1.4-0.5-2-1C45.2,73.3,46,74,46,74.9z M47.1,73.4  c0.2,1,0.3,1.9,0.5,3.1C46.8,75.4,46.7,74.5,47.1,73.4z M48.1,81.7c-0.2-0.2-0.4-0.4-0.3-1.1C47.8,81.1,48.4,81.2,48.1,81.7z   M47,89.6c-0.2,0-0.5-0.2-0.4-0.4c0.1-0.2,0.4-0.3,0.6-0.2c0.2,0,0.4,0.1,0.5,0.2C47.6,89.6,47.3,89.6,47,89.6z M49.6,79.8  c-0.2-0.3-0.1-0.6-0.1-0.8c0-0.2,0.2-0.2,0.2,0C49.7,79.2,49.8,79.5,49.6,79.8z M52.1,89.1c0.3,0,0.5,0.2,0.5,0.5  c0,0.2-0.1,0.3-0.3,0.3c-0.3,0-0.4-0.2-0.4-0.4C51.9,89.3,52,89.1,52.1,89.1z M58.1,23.9c0-0.2,0.2-0.4,0.3-0.6  c0.1,0.1,0.2,0.1,0.2,0.2c0,0.2,0,0.5-0.2,0.6C58.2,24.2,58.1,24.1,58.1,23.9z M61.9,18.2c0.4-0.7,0.6-1.4,1-2.1  c1.5-2.3,3.3-4.3,5.1-6.2c0.4-0.4,0.8-1,1.6-0.6c0.2,0.1,0.5-0.4,0.7-0.7c1.3-1.7,3.2-2.3,5.4-3c-1.2,3.2-2.4,6.3-2.5,9.7  c0.5-0.1,0.6-0.4,0.7-0.7c0.5-2.9,1.4-5.8,2.2-8.6c0.2-0.7,0.8-1.2,1.2-1.1c1.2,0.3,2.4-0.5,3.6,0.1c0.1,0.7-0.8,0.7-0.7,1.4  c0.6,0.3,1-0.2,1.5-0.5c1.1-0.7,1.1-0.7,2.2,0.2c0.2,0.1,0.4,0.3,0.6,0.3c0.4,0,0.8-0.3,1,0.3c0.1,0.4-0.4,0.5-0.6,0.8  c-5.1,4.5-9.9,9.4-13.9,15c-2.4,3.5-4.9,7-6.7,10.8c-0.3,0.6-0.6,1.1-1,1.7c-0.4-3.3,0-6.5,0.5-9.7c-0.5,0.1-0.5,0.4-0.6,0.7  c-0.6,3.2-0.9,6.3-0.7,9.5c0.1,0.9-0.1,1.7-0.5,2.6c-1.6,3.4-3.1,6.9-4.7,10.4c-0.5-0.4-0.5-0.8-0.5-1.3c-0.2-1.6-0.4-3.2-0.6-4.8  c-0.1-0.8-0.2-1.7-0.7-2.4c-0.4-0.6-0.2-1.3-0.1-1.9c0,0,0,0,0,0.1c0.9-2.6,1-5.4,1.8-8.1C58.1,25.9,59.5,21.8,61.9,18.2z   M52.4,45.9c0.2,0.3,0,0.5-0.1,0.8C52.4,46.4,52.2,46.1,52.4,45.9z M51.7,57.4c0.3,1.2,0.3,2.4,0.1,3.6c0,0,0,0,0,0  C51.4,59.8,51.5,58.6,51.7,57.4z M51.9,62.8c0.2-0.5,0.4-1.3-0.1-1.9c0.6-0.4,0.4-1.1,0.4-1.6c0-1.1,0-2.1,0-3.2  c0-1.8,0.2-3.6,0.8-5.4c0.2-0.8,0.4-1.6,0.3-2.4c0-0.3-0.1-0.7,0.5-0.8c0.4-0.1,0.4-0.5,0.2-0.7c-0.8-0.5-0.5-1.3-0.6-2.1  c-0.2-1.5-0.2-3.1-0.2-4.7c0-1.3,0.4-2.6,0.7-3.8c0.6-2.9,1.8-5.7,2.7-8.6c0-0.1,0.2-0.2,0.4-0.7c-0.6,3.3-1.1,6.4-1.6,9.4  c-0.1,0.6-0.2,1.2-0.2,1.8c-0.5,0.6-0.5,1.3-0.4,1.9c0.8,3.1,1,6.3,1.7,9.4c0.2,0.7,0,1.4-0.4,2.1c-0.8,1.5-1.5,3-1.7,4.8  c-0.9-0.6-0.1-1.4-0.6-2.1c-0.2,0.4-0.2,0.8-0.1,1.1c0.7,2.5-0.1,4.9-0.6,7.4c-0.3,1.6-0.7,3.2-1,4.9C51.8,66.1,51.4,64.5,51.9,62.8  z M57.5,67.6c-0.9,1.8-1.9,3.6-2.8,5.4c-0.8,1.7-1.9,3.4-2.8,5.1c-0.2-2.2,0.3-4.2,0.3-6.4c0-0.7,0.6-1.3,1-1.8c2-2.7,4.2-5.3,7-7.3  C59.8,64.5,58.4,65.9,57.5,67.6z M90.2,17c-0.2-1-0.4-1.9-0.7-2.9c-0.5,0.4-0.2,0.8-0.2,1.2c0.4,2.2,0.4,4.5,0.3,6.7  c-0.1,1.7-0.7,3.2-1.5,4.7c-1.5,2.5-3.2,4.9-4.9,7.2c-2.4,3.1-5,6-7.2,9.3c-3.5,5.2-7.9,9.6-11.7,14.6c-1.4,1.9-3,3.4-4.9,4.8  c-2.1,1.6-4,3.4-5.5,5.6c-0.2,0.3-0.4,0.7-1,0.9c-0.1-1.6,0.6-3,0.8-4.5c0.1-0.7,0.4-1.4,0.5-2.1c0.3-2.2,1.1-4,2.9-5.6  c1.7-1.5,3.4-3.1,5.2-4.6c2.1-1.7,4.2-3.4,6.6-4.8c0.1,0,0.1-0.2,0.1-0.3c-1.1,0-2,0.7-2.8,1.3c-3,2-5.7,4.3-8.3,6.7  c-0.8,0.8-1,2-2.3,2.4c-0.1-0.3-0.1-0.6,0-0.8c1.3-4,2.6-8,4.5-11.8c0.8-1.6,1.5-3.3,2.1-5.1c0.4-1.2,1-2.3,1.6-3.3  c1.6-2.7,3.2-5.4,4.7-8.1c0.5-1,1.2-1.7,2.3-2c0.4-0.1,0.9-0.4,1.2-0.7c1.6-1.7,3.8-2.4,5.8-3.4c1.7-0.9,3.4-1.6,5.3-2.4  c-2.4-0.1-8.9,3.1-12.2,5.8c-0.5-0.4,0-0.6,0.2-0.8c1-1.4,2.1-2.9,3.2-4.2c1.5-1.7,3.6-2.3,5.6-2.9c1.6-0.5,3.1-1.2,4.5-2.1  c-2.5,0.5-4.9,1.5-7.4,2.2c2.2-2,4.4-4,7.5-5.1c-0.9-0.6-1.5,0-2.1,0.1c-0.7,0.1-1.2,0.7-2.2,0.6c1.4-1.2,2.1-2.8,3.4-3.8  c0.6-0.5,1.3-1,1.7-1.8c0.2-0.3,0.5-0.8,1-0.4c0.5,0.4,0.6,0.3,0.7-0.3c0.1-0.4,0.5,0,0.6,0.2c1.1,1.4,2,2.9,2.3,4.7  C90.3,13.6,90.5,15.3,90.2,17z">
  </path>
  <path
    d="M53.1,94.5c0.3-0.1,0.6-0.2,0.6-0.3c0.1-0.4-0.2-0.5-0.5-0.5c-3-0.5-6-0.7-9,0.1c-2.1,0.5-4.2,0.8-6.1,2.1  c-0.4,0.3-1,0.5-1.2-0.1c-0.2-0.8-0.7-0.7-1.2-0.7c-1.2,0-2.5,0-3.9,0c1.3-1.2,1.3-0.9,3.2-0.7c2,0.2,4.2,0.4,6.1-0.5  c1.4-0.7,2.8-1,4.2-1.2c2.9-0.3,5.8-0.5,8.6,0.6c1.4,0.5,2.6,0.4,3.9-0.3c1.1-0.6,2.3-0.8,3.6-1.1c0.4-0.1,0.9-0.1,1,0.5  c0.1,0.6-0.2,1-0.8,1c-2.5-0.1-4.7,1.1-7.1,1.3C54.2,94.7,53.7,94.9,53.1,94.5z">
  </path>
  <path
    d="M60.5,96.5c-1.3,0-2.5,0-3.8,0c1.4-0.6,2.8-0.9,4.3-0.6c1,0.2,1.7-0.1,2.5-0.5c1.4-0.7,2.7-1.4,4.1-2.1  c0.3-0.2,0.7-0.2,1-0.3c0.1,0,0.2,0.1,0.3,0.2c0.1,0.1,0.1,0.3,0,0.5c-0.1,0.1-0.3,0.2-0.4,0.3c-1,0.5-2.2,0.6-3,1.4  c-0.8,0.7-1.9,1-2.9,1.6c0.9,0.7,2,0.6,3,1c-0.3,0.4-0.7,0.5-1.1,0.4c-0.1,0-0.2-0.1-0.3-0.1c-1.7-0.6-3.5-1.2-5.3-0.3  c0-0.8,0.6-0.6,0.8-0.8c0.3-0.2,0.6-0.3,0.9-0.5C60.5,96.7,60.5,96.6,60.5,96.5z">
  </path>
  <path
    d="M46.2,95.7c-1,0.6-2,0.2-2.8,0.5c-0.7,0.3-1.5,0.2-2.2,0.6c-0.2,0.1-0.6,0.4-0.7,0c-0.2-0.4,0.1-0.6,0.5-0.8  c0.8-0.4,1.6-0.4,2.4-0.5C44.3,95.4,45.1,95.6,46.2,95.7z">
  </path>
  <path
    d="M43.6,97c2.9-0.8,5.8-0.6,8.8-0.5c-0.3,0.4-0.6,0.2-0.9,0.3c-0.3,0-0.6,0-0.9,0.1c-1.9,0.1-3.8-0.1-5.6,0.4  C44.6,97.3,44,97.4,43.6,97z">
  </path>
  <path
    d="M80.7,30.9c-3.5,1.5-6.6,3.3-9.7,5.3c-3.1,2-6.2,3.9-8.8,6.5c0.5-1,1-2,1.9-2.7c4.5-3.4,9.2-6.5,14.4-8.8  c0.5-0.2,1.1-0.4,1.7-0.6C80.3,30.6,80.4,30.7,80.7,30.9z">
  </path>
  <path d="M82.9,24.6C77.2,27,71.7,29.7,67.1,34C69.5,30.3,77.6,25.4,82.9,24.6z">
  </path>
  <path
    d="M58.4,51.4c0.9-2.6,8.4-8.7,12.2-10c-2.1,1.6-4.4,2.9-6.4,4.6C62.2,47.8,59.9,49.1,58.4,51.4z">
  </path>
  <path
    d="M57.7,60.9c-0.7,1.3-1.6,2.4-2.8,3.3c0.6-1.3,1.4-2.6,2.6-3.4C57.6,60.8,57.6,60.8,57.7,60.9z">
  </path>
  <path
    d="M57.5,60.7c0.8-1.4,2-2.4,3.2-3.4c-0.8,1.4-1.8,2.6-3,3.5C57.6,60.8,57.6,60.8,57.5,60.7z">
  </path>
  <path
    d="M69,47.3c0.4-0.8,1.1-0.8,1.8-1C70.3,46.8,69.8,47.3,69,47.3C69,47.2,69,47.3,69,47.3z">
  </path>
  <path d="M69.3,22.5c-0.8-1.2-0.1-5.8,1.5-11C70.7,15.2,69.5,18.7,69.3,22.5z">
  </path>
  <path d="M66,18.3c0,3.6,0.2,7.3-0.4,10.9C65.2,25.6,65.3,22,66,18.3z"></path>
  <path
    d="M58.8,40c-0.4-3-0.1-6-0.1-9c0-0.4,0.1-0.7,0.6-0.7c0.3,0.1,0.5,0.4,0.4,0.7c-0.7,2.7-0.4,5.5-0.7,8.2  C59,39.5,59.1,39.7,58.8,40z">
  </path>
  <path d="M78.4,11.7c-0.4-1.9,0.2-3.4,1.7-4.6C79.5,8.6,78.9,10.1,78.4,11.7z">
  </path>
  <path
    d="M32.9,55.7c-5.3-2.4-10.5-4.8-15.7-7.2C19.3,48.5,30.8,53.7,32.9,55.7z">
  </path>
  <path
    d="M31.2,61.5c0.6,0.1,1.2,0.4,1.9,1.1C32.2,62.3,31.5,62.2,31.2,61.5L31.2,61.5z">
  </path>
  <path
    d="M29.8,56.8C29,57,28.7,56.4,28.3,56C28.8,56.2,29.5,56.1,29.8,56.8C29.7,56.9,29.8,56.8,29.8,56.8z">
  </path>
  <path
    d="M31.3,61.4c-0.6,0.2-0.9-0.2-1.5-0.6C30.6,60.8,30.9,61.2,31.3,61.4C31.2,61.5,31.3,61.4,31.3,61.4z">
  </path>
  <path d="M46,72.1c-0.2-0.3-0.2-0.6-0.1-1C46.2,71.5,46.1,71.8,46,72.1z"></path>
</svg>