<svg class="seasonal-eating-icon" xmlns="http://www.w3.org/2000/svg" data-name="Слой 1" viewBox="0 0 100 100"
  x="0px" y="0px">
  <path
    d="M69.08558,26.564c.12069-.22143,1.67087.06858,2.57705.305a16.95255,16.95255,0,0,1,3.06687,1.039c.0975.04659.21873.13405.30026.109.59048-.18112.90875.26024,1.32343.522,1.18326.74684,2.4948,1.27041,3.65061,2.069.085.05876.18333.12152.30223.047a7.574,7.574,0,0,1,2.39038,1.71921,1.614,1.614,0,0,0,.83266.53539,3.19856,3.19856,0,0,1,1.38078,1.06748,7.69309,7.69309,0,0,0,.6144.64568,3.19862,3.19862,0,0,1,.84633,1.16859,9.681,9.681,0,0,0,1.596,2.51275,4.64147,4.64147,0,0,1,.73748,1.77983c.25183.883.48793,1.77071.71826,2.65964a24.19815,24.19815,0,0,1,.59175,3.83142,15.96105,15.96105,0,0,1-.32528,4.57348,21.71382,21.71382,0,0,0-.32977,2.3194,1.62321,1.62321,0,0,1-.60444,1.10189,9.2397,9.2397,0,0,0-1.59818,2.11985,6.03311,6.03311,0,0,0-.69453,1.2819,9.035,9.035,0,0,1-1.6761,2.4441,3.23238,3.23238,0,0,0-.45793.567,8.35961,8.35961,0,0,1-3.96394,3.44716,11.18478,11.18478,0,0,1-3.13029,1.0468,7.88215,7.88215,0,0,0-1.47753.42979,3.14821,3.14821,0,0,1-.70242.19519,35.59886,35.59886,0,0,0-7.30337,2.07242,5.64058,5.64058,0,0,1-3.162.4303,3.41231,3.41231,0,0,0-1.21056.02776,15.47662,15.47662,0,0,1-3.55941-.01629c-.51192-.03934-1.02468-.07048-1.5354-.1217a.63891.63891,0,0,0-.53327.137,1.77682,1.77682,0,0,1-1.28846.40149,10.90575,10.90575,0,0,0-3.78459,1.0992c-.29435.12134-1.42648.52767-1.64063.62458a2.56975,2.56975,0,0,0-.48037.29755,3.82963,3.82963,0,0,1-2.97772.71449,28.97922,28.97922,0,0,0-8.55334-.0942c-.69237.10155-1.378.25635-2.07849.306a17.26641,17.26641,0,0,1-3.22245-.2104,20.07562,20.07562,0,0,0-5.58292-.15821.86472.86472,0,0,1-.84032-.13172.58033.58033,0,0,0-.38384-.10472,4.28372,4.28372,0,0,1-2.15591-.62945c-.98031-.52606-2.102-.69767-3.07843-1.23781a8.91222,8.91222,0,0,0-2.15493-.92112c-.50145-.12523-.87-.57983-1.37614-.79278-.3227-.13575-.59178-.44107-.98024-.50522a.34783.34783,0,0,1-.20676-.116c-.74134-.99895-2.07365-1.38778-2.641-2.57978-.11789-.2477-.434-.39876-.65192-.60169a2.12016,2.12016,0,0,1-.83164-1.25681,1.28958,1.28958,0,0,0-.43392-.67156c-.356-.36649-.69418-.75042-1.0377-1.129-.07159-.07888-.19046-.212-.10776-.27512.472-.36007.09471-.67435-.07623-.93179a6.45439,6.45439,0,0,1-1.08917-4.04452,1.46886,1.46886,0,0,0-.11091-1.02007c-.09412-.13632-.03348-.30557.01087-.46845.35479-1.303.71353-2.60406,1.18886-3.87035a2.37628,2.37628,0,0,0,.20587-.86091,2.45577,2.45577,0,0,1,.56475-1.56594,8.30557,8.30557,0,0,0,.96812-1.28923.53372.53372,0,0,1,.22047-.23324,35.57774,35.57774,0,0,0,3.27462-2.19474c.54956-.3384,1.20335-.415,1.768-.74027,1.264-.72822,2.622-1.26477,3.949-1.86655,1.44531-.65542,2.79731-1.5195,4.17756-2.3142a5.02187,5.02187,0,0,1,1.924-.57449c1.23579-.16,2.489-.09539,3.71808-.32264a2.13637,2.13637,0,0,1,.80575-.0552,3.14821,3.14821,0,0,0,2.02534-.38847,14.81806,14.81806,0,0,1,2.572-.969,10.05937,10.05937,0,0,1,3.56814-.49933,4.41325,4.41325,0,0,0,3.02971-.67969c.4267-.29382.95031-.39588,1.35541-.72609.05434-.0443.17664-.0826.21839-.05342.67343.4705,1.1532-.03436,1.57674-.38834a10.91212,10.91212,0,0,1,1.9057-1.22446c.09536-.05088.19658-.0908.29522-.1355.64857-.29395,1.06036-.94415,1.7841-1.14153a11.30954,11.30954,0,0,0,2.01551-.84162,5.15123,5.15123,0,0,0,1.04149-.62438,1.15909,1.15909,0,0,1,.40955-.25521,15.50277,15.50277,0,0,0,3.927-1.86739c.718-.42506,1.53432-.6464,2.28295-1.0243a10.22262,10.22262,0,0,1,1.584-.278c.72425-.2158,1.46561-.37472,2.201-.55243a7.46029,7.46029,0,0,1,4.32035-.07089C68.93676,26.60854,69.02187,26.57172,69.08558,26.564ZM86.89687,55.59534A2.71025,2.71025,0,0,0,88.026,53.63382c.20984-1.99027.36986-3.98634.51447-5.98264.049-.676.36323-1.3506.00016-2.00574.35505-.16937.27619.324.58592.24285a2.85154,2.85154,0,0,0-.01958-1.402,11.67584,11.67584,0,0,1-.59734-2.00417c-.20355-.90279-.68035-1.70429-.93885-2.58075a9.87125,9.87125,0,0,0-2.10071-3.70115,4.07773,4.07773,0,0,0-1.177-1.093c-.08809.38127.22006.5329.3986.7427.20874.24522.22031.24043.02411.64958a.21132.21132,0,0,0,.0311.22377c.35777.59471.60012,1.25684,1.04138,1.85635l.57168-.54523c-.38138,1.17-.317,1.53637.35541,2.2424.146-.3183-.10056-.7252.177-1.035.072.04724.10586.05716.11506.078a.36644.36644,0,0,1,.04236.15236c-.02749.693-.41493,1.41316.162,2.06359.0232.02617-.03139.1749-.08136.1979a.2299.2299,0,0,1-.21453-.05507,3.97712,3.97712,0,0,1-.185-.35313,11.93462,11.93462,0,0,0-.92886-1.62739,2.14951,2.14951,0,0,0-.3795,1.25336c-.00661.41587.20431.898-.30311,1.3575a7.8617,7.8617,0,0,0-.25981-2.50916,20.984,20.984,0,0,1-1.08314-2.181,7.01314,7.01314,0,0,1,1.50654,2.23923c.19181-.22147.352-.43576.284-.62472-.17064-.47423-.19663-1.07124-.82353-1.24694-.19757-.05538-.20756-.22045-.25649-.36881-.11851-.35924-.2322-.72024-.35989-1.07619-.05269-.14687-.11322-.39805-.2555-.37132-.43712.08213-.41952-.442-.69683-.51636-.19591.13661-.04763.445-.32376.50873a3.5314,3.5314,0,0,0-1.14748-2.2882c-.10683-.09336-.13731-.22593-.20952-.322a4.627,4.627,0,0,0-1.15527-1.40714,6.41979,6.41979,0,0,1-1.67207-1.39728c-.60393-.76726-1.48-.83383-2.2646-1.14547-.21779-.0865-.43043-.01166-.42587.30188.01237.8509-.05571,1.38232.99609,1.79208.20567.08012.38988.18092.23687.39231-.31776.439-.04616.60288.27954.81639a.87533.87533,0,0,1,.4687.86791c-.014.14018.004.25336-.12005.31488-.14872.07372-.354.12271-.41856-.07554-.09667-.297-.371-.35269-.56232-.52155a5.71314,5.71314,0,0,0-1.18118-.7086,1.39542,1.39542,0,0,1-.8168-1.67226c.09622-.41539-.03864-.83847.13869-1.24183a.47009.47009,0,0,0-.08982-.53417c-.41042-.26349-.64114-.73921-1.13651-.90019-.64164-.20852-1.27249-.45042-1.90718-.68016a1.81837,1.81837,0,0,0-1.11919-.06574c.08232.37986.52233.50052.66906.92673-2.064-1.14467-2.21325-1.19319-2.87552-.95765.07477.26.50473.32926.40958.74716a2.84546,2.84546,0,0,1-.61769-.4606,1.38649,1.38649,0,0,0-1.29071-.50518c-.48585.01613-.972.05892-1.45729.05044a10.94506,10.94506,0,0,0-4.94036.90455c1.00668.75387,2.11482.24953,3.19647.198.41534-.64706.93709-.22811,1.44473-.178a1.71386,1.71386,0,0,0,1.13774-.08538c-.27266-.39764-.77432-.31532-1.03838-.671a3.85227,3.85227,0,0,1,2.79455,1.81208c-.511-.09233-.68859-.54993-1.04589-.67337a1.94957,1.94957,0,0,0-1.24128.04441c.25589.36687.67407.47553.82894.86769-.33031.13847-.45245-.12155-.626-.26129-.33765-.27182-.68564-.65176-1.10765-.62569a6.26044,6.26044,0,0,0-2.25031.33495,10.69732,10.69732,0,0,0,1.72166.99015c1.07072.66389,1.11426.68812,1.37415,1.19855a1.20583,1.20583,0,0,1-.61923-.358,13.67959,13.67959,0,0,0-2.66537-1.526.97163.97163,0,0,0-1.118.10686,1.14117,1.14117,0,0,1-.73221.34612c.09551-.41808.59842-.4483.63768-.90256a2.55817,2.55817,0,0,0-2.40759.00363,7.03711,7.03711,0,0,0-1.73332,1.2673c-.18551.20536-.46811.20831-.65835.38186.28926.39567.7799.53421,1.16515.99941-.85746-.18519-1.38989-1.13337-2.28144-.61968-.00074.2691.36978.26486.29507.60666-.79408-.49815-1.36827-.16355-1.95556.42.4523.22851.83656.41837,1.21608.61728.10075.0528.17291.157.10592.26625a.20351.20351,0,0,1-.28633.06049,4.186,4.186,0,0,0-.45214-.33048c-.87306-.39537-1.00506-.53074-1.50477.07278.2375.35162.681.42951.96842.70243.27632.26233.6515.42721.86883.76988-.27668.18558-.39829-.0082-.522-.13255a6.85252,6.85252,0,0,0-1.32558-.93044c-.1337-.08252-.29628-.218-.44979-.12852a6.65131,6.65131,0,0,0-1.92621,1.17442c.37823.24093.72714.44632,1.05743.67821a4.34606,4.34606,0,0,1,.9625.81052c-.20884.13014-.31609.03444-.45646-.07465-.40512-.31482-.82287-.61546-1.252-.8967-.43714-.28648-.872-.41324-1.29732.06541a3.4066,3.4066,0,0,1-.64782.47808c-.27039.18552-.36265.43881-.12484.67159a23.4724,23.4724,0,0,1,1.97734,2.22455,1.04871,1.04871,0,0,0,.87915.34567c.2072-.00284.35369.05042.37807.2798-.30029.19644-.61882-.0243-.89622.11711-.00025.21582.2064.304.29435.46561a.75646.75646,0,0,1,.00829.771.21986.21986,0,0,1-.27572.10463c-.10316-.03419-.0757-.11959-.0784-.19934-.0245-.72211-.27659-.98076-1.0051-1.03354-.03632.31738.46684.40131.36211.66761-.14985.381-.11326.581.28607.71949a.25944.25944,0,0,1,.09141.35891c-.11119.17247-.27726.11142-.43249.044a.92391.92391,0,0,1-.44164-.55737c-.14329-.33216-.2801-.57456-.73407-.61167a1.365,1.365,0,0,1-1.11479-.84916c-.15648-.344-.30473-.69342-.4275-1.05046a3.5171,3.5171,0,0,0-.438-.862c-.31976-.4645-.84527-.55737-1.3028-.7732-.36164-.17061-.43434.20124-.63034.34632a.36744.36744,0,0,1-.23135.03075,2.257,2.257,0,0,0-1.50044.60476c.34065.29932.64357.5573.93523.82744.07379.06835.1525.18247.07709.28457-.11613.15724-.246.03238-.35335-.02916-.064-.03669-.09589-.12558-.15059-.183-.83622-.87816-1.1106-.93248-2.15976-.43331-.06732.032-.08786.06376-.01638.16.30559.1567.67136.33047,1.02343.52859a2.81831,2.81831,0,0,1,1.07946.76393c-.544.06165-.91216-.58136-1.2714-.42076-.41332.18478-.88215.15172-1.24719.35572-.02939.311.3694.15218.33925.41166a14.58011,14.58011,0,0,1-3.27172.62546,1.4263,1.4263,0,0,1,.61749-.35017c.14976-.07126.6168-.07523.13847-.405-.09388-.06472.03585-.17716.15747-.19529a1.537,1.537,0,0,0,.94841-.261,1.583,1.583,0,0,0-1.33316-.15491c-.2628.09675-.587-.04458-.78363.3947-.14036.31352-.55541-.29054-.90081-.111-.09322.04844-.21456.04794-.28466.19032.25615.26087.658.37.858.73069-.64125-.14419-1.12412-.7108-1.83745-.65007.414.372,1.00482.471,1.39238.91859a.49742.49742,0,0,1-.47813-.05513A13.6863,13.6863,0,0,0,34.702,39.0791a1.43378,1.43378,0,0,0-1.38566.00044,7.75809,7.75809,0,0,0,2.28058.9422,4.00914,4.00914,0,0,1,1.98122,1.3044.33071.33071,0,0,1-.29954-.07259,12.31018,12.31018,0,0,0-4.03373-1.65667,1.66321,1.66321,0,0,0-.70989-.01465,27.03519,27.03519,0,0,1-4.32365.59739,5.97908,5.97908,0,0,0-2.14351.39644c-1.18451.43043-2.16514,1.22545-3.301,1.72788-.32565.144-.63567.82434-1.08622.13721-.01142-.01743-.104.00554-.15137.02644-.55489.24474-1.22184.28558-1.57129.87341.47012.11038.89482-.36287,1.49211-.17015a5.10643,5.10643,0,0,1-.82032.355,21.49523,21.49523,0,0,0-2.40108.74508,5.40929,5.40929,0,0,0-2.95961,2.0178c-.047.07226-.151.25282-.22318.12985-.15147-.258-.26683-.18851-.41287-.02952a10.90659,10.90659,0,0,0-3.18712,5.45072,18.05028,18.05028,0,0,0-.24209,6.26752,3.4773,3.4773,0,0,0,.2417,1.01152c.54249,1.06785,1.33035,1.96748,1.94409,2.97332.20983-.09551.05024-.33863.27755-.40331a9.25059,9.25059,0,0,0,1.05951,1.715,4.91809,4.91809,0,0,0,1.34987,1.3904c.5831.32544.88244.92822,1.45075,1.28106a4.24372,4.24372,0,0,1,1.80041,1.4581c1.40714.62695,2.80956,1.26484,4.22447,1.87374a.5835.5835,0,0,0,.87261-.39813c-.571-.35172-.571-.35172-1.32873.24616.688-1.05276-.12059-.99476-.44843-1.26788-.29445.11026-.09409.5257-.441.54033a.70463.70463,0,0,1,.03445-.55323.284.284,0,0,0-.157-.39827c-.42582-.23553-.85142-.47153-1.28026-.70146a.24179.24179,0,0,0-.3475.09715.249.249,0,0,0,.048.35874c.06305.0513.12789.10038.19173.1507.08735.06887.04844.143-.00568.20054a.1891.1891,0,0,1-.13932.06039.7763.7763,0,0,1-.48727-.254A8.631,8.631,0,0,1,19.022,66.25222a.64691.64691,0,0,0-.47312-.39357,3.76183,3.76183,0,0,1-1.96869-1.05243,13.26046,13.26046,0,0,1-1.77827-2.204c-.08753-.1232-.23586-.24585-.01914-.45056,1.00626,1.02452,1.60281,2.48649,3.08438,3.01129A11.4678,11.4678,0,0,0,14.1682,61.507a.95143.95143,0,0,1,.99.25021,11.08733,11.08733,0,0,1,2.242,2.22183c.73466.92869,1.69448,1.65576,2.343,2.66016.07693.11914.16253.29376.37746.27739a4.43165,4.43165,0,0,1,.82338-1.09112c.11592-.11372.24479-.12663.34068.01076.07276.10423-.00383.17648-.08754.26269-.42078.43327-.41315.433.13159.69981a7.99355,7.99355,0,0,1,.70348.39646c.30657.1908.474.22175.65324-.207.34983-.83672.7603-.96087,1.56437-.5808a4.61879,4.61879,0,0,1,1.04365.61889c.17063.14468.3198.362.62434.1839.1529-.08941.23532.1112.21062.23776a1.09758,1.09758,0,0,1-.167.53118c-.188.23884-.52726.36385-.50121.777.03007.47673-.61143.10624-.70571.49206-.02752.11265-.22406.1545-.18621.25646.63649.6663,1.50281.58166,2.232.86542a1.38422,1.38422,0,0,0,1.67667-.39067,1.72686,1.72686,0,0,0,.34021-.62309c.16941-.65026.71771-1.08224.91546-1.70727a.18875.18875,0,0,1,.24736-.14675c.17579.07323.11908.22021.05508.336-.21727.39311-.445.78042-.77666,1.35779.58787-.33725.81587.15106,1.30517.08319a1.70584,1.70584,0,0,0-.45524,1.42441,7.13756,7.13756,0,0,1,2.44037.27538,6.887,6.887,0,0,0,1.98032.37632,5.66846,5.66846,0,0,0,2.07509-.15464c.817-.27067,1.72071-.18594,2.55338-.44407a9.729,9.729,0,0,1,4.33912-.18736,16.42924,16.42924,0,0,0,7.07274-.34214,2.10985,2.10985,0,0,0,.93359-.46923,1.01051,1.01051,0,0,1,.77182-.336c.53125-.01178.73522-.2599.805-.79007a3.31779,3.31779,0,0,1,.38139-1.14588c.11514-.21429.20935-.43974.31622-.65859a.17721.17721,0,0,0-.08267-.26648.26908.26908,0,0,0-.2292.00392,3.806,3.806,0,0,0-1.4832,1.65229,6.80228,6.80228,0,0,1-.41034.969c-.0899.1757-.11913.42245-.45536.48977.101-.79744.71578-1.38654.81939-2.17263a.84462.84462,0,0,0-.69548.45487c-.1883.3287-.39721.64564-.59895.96656-.15779.251-.3147.50263-.47884.74942-.08615.12952-.17339.31029-.37037.1672-.15828-.115-.03662-.24006.03531-.347.11975-.178.24053-.35612.37416-.52359a2.57506,2.57506,0,0,0,.52479-.99006c-.7782.42731-1.58342.40716-2.09452,1.066-.094.12119-.21994.2764-.46485.108a1.36175,1.36175,0,0,0-1.91134.32358c-.141.19751-.2582.41186-.39473.61277-.07766.11427-.17315.21467-.35115.09876.0439-.45638.4959-.72823.60379-1.16842-1.33795-.24645-1.3365-.245-2.14633.55969a.1437.1437,0,0,1-.213-.03429c-.10573-.23722.29-.39318.09606-.67523-.36247-.02457-.73827-.03645-1.11057-.079a.72847.72847,0,0,0-.85261.43929,4.10659,4.10659,0,0,1-.442.67813.20612.20612,0,0,1-.29061.03849c-.12336-.07693-.09444-.1858-.02793-.27719.0954-.13116.22149-.24153.3066-.37814.07411-.119.29566-.22218.121-.4002-.08887-.09059-.3098-.18326-.01608-.21023.41115-.03775.52568-.33315.6895-.60567.22012-.36616.43427-.7359.70226-1.19123.11942.73831-.53505,1.115-.57758,1.7335.57927,0,1.11927-.00762,1.65888.00341a.72861.72861,0,0,0,.54678-.29259,11.87093,11.87093,0,0,0,1.16056-1.50945c.08115.8052-.6222,1.13514-.79328,1.71927,1.50262.23441,1.5038.23522,2.2835-.89636.26445-.3838.52127-.77286.78159-1.15952.06728.88888-.77245,1.33142-.97911,2.1107,1.023.06587,1.91-.035,2.38372-1.06256-.06824-.15088-.42689-.03649-.35729-.31984.04257-.17329.23563-.20256.402-.20423a10.38719,10.38719,0,0,0,1.7567-.30676c.29562-.05391.60791-.04026.69961-.42342.0076-.03176-.00614-.12715.1407-.07462.57653.20625.58948.19122.84759-.2118.17487-.273.33918-.554.489-.8415.07821-.15009.12552-.32638.33513-.18079.14621.10156.07782.24031-.00037.35455-.17675.25831-.46787.4524-.46427.81424.78749.189.78489.18775,1.113-.47457.28435-.574.57548-1.14467.87834-1.74607a.42472.42472,0,0,1-.008.51006c-.207.44109-.42728.87616-.62485,1.32136-.23055.51954-.18523.59325.40761.59667a6.5136,6.5136,0,0,0,1.04962-.08843.54956.54956,0,0,1,.61217.26065c-.62865,0-1.21262-.02157-1.79371.01-.25247.01372-.60012-.06082-.73358.23208a8.5529,8.5529,0,0,0-.89361,2.25562,12.47276,12.47276,0,0,1,3.38989-1.13783c.20722-.06567.42811-.1997.62491-.08679a2.38346,2.38346,0,0,0,1.50391.06889,15.194,15.194,0,0,1,1.70136-.09533,40.849,40.849,0,0,0,4.867-.1126,13.96364,13.96364,0,0,0,2.23287-.4167c.17673-.045.43481-.03656.50287-.22271a7.55621,7.55621,0,0,0,.80636-1.90881c-1.04214.07839-1.04055.07888-1.3158.96355-.07144.22959-.05877.52516-.42964.61649.014-.41449.23064-.74966.18145-1.1666-.31475.07194-.61145.10723-.71087.3917-.12279.35128-.3312.33-.63248.2977a5.49383,5.49383,0,0,0-1.854.15407,42.11844,42.11844,0,0,1-7.14276.99961c-.12763.00789-.27682.05579-.29051-.14294.03-.10555.107-.12325.18923-.12795a37.11026,37.11026,0,0,0,5.86595-.78615,17.14671,17.14671,0,0,1,2.31761-.40675,1.71323,1.71323,0,0,0,1.73657-1.07758c.01176-.0339.08807-.04545.14263-.07139.12778.13654-.029.74588.35856.385.37186-.34621.75693-.20387,1.11957-.32731a9.28449,9.28449,0,0,1,1.973-.41855,1.65065,1.65065,0,0,0,.81518-.34112c.1462-.11.32415-.23384.21567-.4646-.0824-.17531-.24307-.18855-.41513-.16754a12.74391,12.74391,0,0,1-1.37122.15067,1.48912,1.48912,0,0,0-1.28381.53988c-.11193.14325-.2801.357-.54247.23731-.06908-.16594.19823-.2616.05-.46712a5.32371,5.32371,0,0,0-2.418.76392c-.17232.1122-.313.21959-.45332-.01542.10682-.28975.43764-.31469.58034-.54368l-.02624.02329a16.72772,16.72772,0,0,1,2.513-.62054,1.07259,1.07259,0,0,0,.85737-.62927c.09291-.15767.0817-.426.43946-.41736l-.31729.8509c.68367-.05092,1.29712-.07295,1.90418-.1472a2.03891,2.03891,0,0,0,1.70175-2.09208c-.60422.22914-.97335.86132-1.64577.97946a7.53932,7.53932,0,0,1,1.67018-1.39374,1.02218,1.02218,0,0,0,.48036-1.11966,3.2372,3.2372,0,0,0-1.959,1.73829,2.84435,2.84435,0,0,1-1.16747,1.42761,16.98535,16.98535,0,0,0,.9616-1.85425c-.57579-.08579-.99126.45912-1.56751.31223.7348-.63572,1.95691-.55486,2.243-1.7216.16315.17437.24649.51707.58351.21841a6.31368,6.31368,0,0,0,.88775-.67294l-.02593.024a.43938.43938,0,0,0,.15862-.01352c1.83448-.93669,3.84118-1.44566,5.70787-2.30105.358-.164.80715-.09631,1.09073-.45456.14624-.18476.34016-.127.50216-.00653a.26593.26593,0,0,1,.09711.20344c-.02543.20882-.22623.21674-.36946.24594a34.27,34.27,0,0,0-4.04767,1.4211c-.58184.19633-.58232.24305-.46617.94061.32286.01647.53677-.23955.81757-.328.26717-.08419.49162-.34168.84494-.19977-1.42872.64878-2.74164,1.384-3.19545,3.0671.13569-.03673.23668-.06429.33779-.0914.18449-.04944.22146-.21429.29749-.35728.04974-.09355.077-.21234.27748-.1596.612.161.97683.02485,1.18323-.46835.10081-.24092.149-.23144.30034-.07822.1426.14436.29756.07634.44872.01511.58146-.23554,1.1745-.4595,1.23152-1.31925.22881.62131.23208.62671.64028.3791a3.46867,3.46867,0,0,0,.44186-.32963c.26016-.22119.4955-.55411.94725-.56713a1.787,1.787,0,0,1-.57844.74868.49775.49775,0,0,0-.15046.58527.88258.88258,0,0,1-.04586.95218.52983.52983,0,0,0,.05217.53626,11.67353,11.67353,0,0,0,1.22519-1.11666c.47683-.39937.19662-1.08551.58393-1.54212.16877.3661-.02585.72011.06777,1.0347.22773.115.42157-.18054.65186.01171-.28051.39756-1.108.42272-.892,1.19189a.75426.75426,0,0,0,.48946-.18273c.77376-.54706,1.42328-1.24663,2.20707-1.78534a1.16177,1.16177,0,0,0,.46729-.91284c.06287-1.13871.45033-2.22278.55343-3.35447.03928-.431.26366-.09572.40805-.08961.082-2.30653.11111-2.43473.65353-2.72767-.07926.52192-.15472,1.01888-.23016,1.51584a5.19158,5.19158,0,0,0,1.20227-2.62564c.01344-.1368.04379-.359-.04744-.37916-.62531-.13835-.27568-.54214-.20566-.80788a12.269,12.269,0,0,0,.38722-1.73954c.19938-1.76859.54821-3.5412-.05818-5.30241a.44765.44765,0,0,1-.018-.23476c.03319-.14229.20155-.29463.26944-.175.222.391.75737.26346.99364.63686-.62516.08218-.59464.08274-.60675.75053-.01073.59141.05089,1.17809.02774,1.772a27.63953,27.63953,0,0,0-.1298,4.79834c.48348-.46251.092-1.10175.45915-1.51766a23.00114,23.00114,0,0,1-.34879,4.4805c-.09491.48109-.13242.4849-.62956.10311a10.44824,10.44824,0,0,0-.18422,2.409.545.545,0,0,0-.41268.22689c-.11458.206-.15533.36687-.51144.35215-.32724-.01354-.39363.438-.3955.76513-.00155.27322.13464.59038-.3307.64143-.0815.00894-.14953.21106-.2099.331a9.36767,9.36767,0,0,1-3.533,3.36476,1.191,1.191,0,0,0-.668.98461c-.01347.19.10839.49409-.28059.555v-.96662a2.79733,2.79733,0,0,0-1.08352.583c-.43924.27617-.19235.91493-.58733,1.27447-.20158-.30315.12916-.60373-.04985-.87367-.20169-.003-.33392.158-.50595.20841a1.23954,1.23954,0,0,0-1.01112,1.11423c-.01856.1715-.04654.38037-.33857.35758-.14195-.3367.28308-.68-.00506-1.0024a.85224.85224,0,0,0,.35615-.87984c-1.07672.18661-1.08978.19622-1.18392.84014-.11929.81594-.27432,1.003-1.07157,1.12091-1.01793.15048-1.98947.49153-2.99539.68732-.10593.02062-.21129.04426-.31672.06741a.25639.25639,0,0,0-.22928.28141.2075.2075,0,0,0,.29957.17467c.44245-.15731.924-.00855,1.35283-.16123a17.57466,17.57466,0,0,1,3.50194-.61082,9.21129,9.21129,0,0,0,3.73787-1.65493c.87743-.57793,1.703-1.30183,2.53768-1.97816a6.06165,6.06165,0,0,0,1.545-1.74553,18.43394,18.43394,0,0,1,2.02723-3.11364A1.25131,1.25131,0,0,0,86.89687,55.59534ZM68.47644,66.97523a22.78571,22.78571,0,0,1,2.21392-.64544c.1428-.02268.31482-.11572.27349-.24208-.16435-.50249.17633-.803.3893-1.16885.12795-.21981-.02049-.42442-.24485-.32673a6.06333,6.06333,0,0,1-1.27075.18418.71924.71924,0,0,0-.605.45635C69.02141,65.782,68.76635,66.31451,68.47644,66.97523Zm7.33849-4.03745c-.44427.17075-.99256.10547-1.20144.68179-.01122.03095-.12823.06175-.13662.05-.42849-.59724-.85706.0114-1.28325.00494-.11462-.00173-.28132.05746-.25879.24.0223.18068.2908.08334.33224.2743a1.589,1.589,0,0,1-1.09993.22017c-.46422-.12361-.42825.29772-.48382.60121a1.6279,1.6279,0,0,0,.92388-.10578,17.434,17.434,0,0,1,2.20587-.50848c.9117-.1239.91314-.11954,1.05763-1.068A.38942.38942,0,0,0,75.81493,62.93778ZM36.5193,37.94541a2.102,2.102,0,0,0,2.473.26163c-.01333-.21775-.37573-.15767-.27216-.48388a4.35216,4.35216,0,0,1,1.78864.77887c.13263.11326.25163.22591.4141.18946a4.5974,4.5974,0,0,0,1.28478-.35022,2.46378,2.46378,0,0,0-.97445-.47826,9.80338,9.80338,0,0,1-1.46747-.32573,1.61242,1.61242,0,0,0-1.98822.13843C37.42565,38.00185,36.96042,37.75131,36.5193,37.94541Zm51.96622,15.032a16.42654,16.42654,0,0,0,.87133-2.82282c.07475-.85846.12757-1.71992.15273-2.58115a4.311,4.311,0,0,0-.103-1.45518,1.11779,1.11779,0,0,0-.20743.87291,10.20119,10.20119,0,0,1-.37935,3.1204A14.20046,14.20046,0,0,0,88.48552,52.97743ZM74.62672,59.9379c-.493.17074-1.06893.31374-1.29187.75686-.32963.65519-.59856,1.34876-.91636,2.02623A7.27859,7.27859,0,0,0,74.62672,59.9379ZM23.62384,68.10917c.30036-.05711.418-.33344.58184-.52875.456-.54365.38623-.71258-.31353-.9144a.90011.90011,0,0,0-.15439-.04785.716.716,0,0,0-.71091.40283c-.10405.19008-.353.40546-.16275.65754A1.17152,1.17152,0,0,0,23.62384,68.10917Zm51.6975-9.58928a3.25086,3.25086,0,0,0-1.1392.34145c-.68838.29591-.68571.30213-.6587,1.10027C74.82167,59.58624,75.15173,59.33153,75.32134,58.51989ZM27.65239,39.7756c1.58887.126,3.19-.12307,3.61039-.53125A7.50405,7.50405,0,0,0,27.65239,39.7756ZM25.57822,67.79921c-.0548-.20425-.26037-.33157-.43624-.47815a.251.251,0,0,0-.40491.06012c-.14492.19046-.30073.3726-.44884.56069-.09662.12271-.25765.24827-.17627.41346a.6154.6154,0,0,0,.5352.29278C24.87873,68.66928,25.5338,68.08786,25.57822,67.79921ZM85.64469,55.71837c.70082-.21649.29369-.95708.74-1.28438.28183-.20669.30264-.83972.16583-1.45158C86.29351,53.88949,85.53658,54.62784,85.64469,55.71837ZM77.7154,61.33594a3.32394,3.32394,0,0,0-1.11284.37671.44593.44593,0,0,0-.22218.55407c.08579.2836.30765.1149.474.106C77.44371,62.34126,77.71354,62.01016,77.7154,61.33594ZM49.441,68.137a5.73545,5.73545,0,0,0,1.89085-.90716C50.40778,67.01445,50.03467,67.18259,49.441,68.137ZM76.0758,61.98639a3.57337,3.57337,0,0,0-1.10022.43492c-.15041.09019-.20283.32778-.01725.38107a1.38061,1.38061,0,0,0,.919-.16941C76.14292,62.51512,76.16854,62.28572,76.0758,61.98639Zm6.8876-27.99508c-.1597-.6454-.70024-.82486-1.208-1.04656A2.371,2.371,0,0,0,82.9634,33.99131ZM78.02687,61.826a2.38719,2.38719,0,0,0,1.10334-1.002C78.17628,61.034,78.17628,61.034,78.02687,61.826Zm-1.50777-.68052c.73092.06732,1.16836-.15711,1.375-.69752A4.56688,4.56688,0,0,0,76.5191,61.14551ZM73.05927,63.299a3.9864,3.9864,0,0,0,1.29852-.31738.20683.20683,0,0,0,.10054-.269.15059.15059,0,0,0-.12812-.06992C73.88332,62.811,73.34481,62.79222,73.05927,63.299Zm5.22653-2.65068a2.08344,2.08344,0,0,0,.87918-.30408.369.369,0,0,0,.17309-.41914c-.08363-.18272-.29029-.12669-.42222-.03544C78.66541,60.06292,78.28307,60.12128,78.2858,60.64836Zm-.57567,2.376a2.57964,2.57964,0,0,0,1.32517-.83321C78.59159,62.3543,77.97793,62.208,77.71013,63.02434ZM48.21194,38.351c.33243.717.4517.7935,1.11134.77165A1.386,1.386,0,0,0,48.21194,38.351Zm2.22026-4.65662,1.52695-.87751-.09484-.16275A3.15311,3.15311,0,0,0,50.4322,33.69433Zm23.05551,28.7a1.49194,1.49194,0,0,0,1.28377-.50335A1.49171,1.49171,0,0,0,73.48771,62.39431Zm2.68155-1.058c-.42287.02009-.86144.04579-1.05621.56323A1.64959,1.64959,0,0,0,76.16926,61.33633ZM47.73749,36.94072c.16974.9078.16974.9078.78315.84676A2.75117,2.75117,0,0,0,47.73749,36.94072ZM85.19686,55.52981c-.0447.53309-.38182,1.03368-.20007,1.6531C85.44342,56.64055,85.26547,56.07589,85.19686,55.52981ZM35.82633,38.845c-.44829-.1814-.71033-.487-1.22783-.03748C35.03466,38.85367,35.29962,39.14157,35.82633,38.845Zm51.835,12.13421a1.45129,1.45129,0,0,0-.37445,1.14363C87.73819,51.87353,87.70127,51.48678,87.66134,50.97916ZM35.71977,38.32749c.53369.4485.53369.4485.94273.18712a.73124.73124,0,0,0-.50329-.18726C36.0153,38.307,35.8656,38.18853,35.71977,38.32749ZM83.5214,34.19378c.01322.31721.0756.61437.40917.74226.02436.00934.11228-.05736.11317-.09027C84.05309,34.50334,83.732,34.39745,83.5214,34.19378ZM15.96414,65.64344c-.29985-.38146-.29985-.38146-.63847-.45425A1.10179,1.10179,0,0,0,15.96414,65.64344Zm64.236-4.09716c.2318-.12421.57971-.1363.53938-.53311A.88723.88723,0,0,0,80.20011,61.54628ZM52.6926,32.32254c.00985-.10972-.06578-.12421-.14567-.12242a.30525.30525,0,0,0-.324.19041c-.03307.10532.07357.11317.14533.1193A.30324.30324,0,0,0,52.6926,32.32254ZM49.56065,37.8204c.00558-.01941.02165-.04384.01512-.05745a.50332.50332,0,0,0-.27919-.2782c-.12145-.04174-.13231.07336-.10669.13467a.32965.32965,0,0,0,.29885.22942A.20523.20523,0,0,0,49.56065,37.8204Zm-9.18689,1.49269c.12457-.08513.30832.15381.42313-.17879C40.637,39.22015,40.47617,39.10667,40.37376,39.31309Zm47.58494.31315c.14758-.151.07971-.27772-.04049-.39917-.04729-.04776-.13065-.04773-.1295-.00323A.47813.47813,0,0,0,87.9587,39.62624Z">
  </path>
  <path
    d="M71.12583,51.0331c-.06182.36388-.11292.65258-.15919.942a.3638.3638,0,0,1-.23034.31018c-.15812.04765-.22717-.102-.28718-.22091a3.73343,3.73343,0,0,1-.5366-2.16672,1.05139,1.05139,0,0,0-.49613-1.08468.47816.47816,0,0,1-.243-.51981,22.06538,22.06538,0,0,0-.14734-3.64136c-.08893-.70707-.34013-1.30195-1.14088-1.4658-.119-.02435-.29738-.03185-.24572-.2286.04276-.16276.18106-.16833.328-.13889a1.74416,1.74416,0,0,1,1.21721.97374,12.54412,12.54412,0,0,0,.74165,1.69475c.27488.37.18566.43625.77682.47956-.13591-.51728-.59486-.91783-.49958-1.46986.14023-.11384.19712-.011.25062.07879a10.39884,10.39884,0,0,0,.66494,1.10891,5.73381,5.73381,0,0,1,.81421,2.65763c.01486.07646.02516.20866-.01328.2323-.47886.2946-.068.88128-.40926,1.22139a.23823.23823,0,0,0-.00977.30563c.47595.49037.11417,1.15344.35956,1.69032.05077.11106-.0111.212-.14777.21869a.19971.19971,0,0,1-.1953-.112C71.37891,51.64489,71.51692,51.28686,71.12583,51.0331Zm.09806-3.25031c-.04038-.81183-.09657-.94118-.60927-1.386C70.8395,46.87015,70.80578,47.35541,71.22389,47.78279ZM70.56877,51.079a2.94752,2.94752,0,0,0,.049-.3452c.00137-.12886-.01781-.28438-.19716-.23086-.11941.03562-.08567.17751-.04688.27036A2.29911,2.29911,0,0,0,70.56877,51.079Z">
  </path>
  <path
    d="M58.51581,61.02311a8.227,8.227,0,0,1,.15221,1.08794,2.342,2.342,0,0,0-.02056-1.47374c-.11777-.33051-.248-.65733-.34871-.993a.70438.70438,0,0,1,.47756-.98206,1.72557,1.72557,0,0,0,.13573,1.50194,2.54252,2.54252,0,0,1,.27348,1.48254c-.14495.86225.25938,1.70832.02943,2.56577-.0627.23385-.10521.4736-.14717.71236-.04132.2352-.14785.33291-.40437.40843-.55859.16442-.69372.48265-.59639,1.12654.01723.114.019.23789-.07184.29616-.12936.08294-.25385.01461-.35522-.09231a.6228.6228,0,0,1-.06871-.91763c.07293-.10769.20273-.18015.20479-.33151a.94915.94915,0,0,1-.67253-1.27091c.14031-.33042.11948-.6838.26334-1.01284.15795-.36124.17811-.77089.62816-.96076.18949-.07994.23722-.33556.25-.56578C58.256,61.40792,58.19647,61.16232,58.51581,61.02311Z">
  </path>
  <path
    d="M22.06064,51.78015c-.14733.05205-.30717.15627-.40145-.07058-.08284-.19929-.14428-.40828-.23777-.60208-.065-.13472-.10064-.32636-.3221-.30146-.24433.02749-.58048.07672-.67061-.14221-.24515-.59543-.90461-1.01708-.749-1.78344a2.9325,2.9325,0,0,0-.33817-1.71607.76839.76839,0,0,0-.9159-.5684c.90952-.51988.96189-.54812,1.56047.03173a6.0069,6.0069,0,0,1,1.88359,2.85006,3.80983,3.80983,0,0,0,.2849.57743,2.454,2.454,0,0,1,.25277.679c.05.46154.16915.53826-.35474,1.05491ZM20.226,48.24872a1.51852,1.51852,0,0,0,.21726.93792A.86917.86917,0,0,0,20.226,48.24872Z">
  </path>
  <path
    d="M39.03464,62.31072c.12809-1.51123-.16054-3.09538-.13707-4.68905a3.98623,3.98623,0,0,0-.74272-1.86225.86531.86531,0,0,1,.20021-.89295c.18788-.1166.30194-.00529.35674.17478a2.10046,2.10046,0,0,0,.274.75223,4.54893,4.54893,0,0,0,.78841.6754c.70323.58323.99351.80429.4242,1.76012-.30951.51969-.02628,1.06322-.13863,1.58475a.28019.28019,0,0,0,.04543.15366c.21825.45424-.28534.76212-.22932,1.22363.04754.39167.31536.77.141,1.185-.10877.25895-.12159.59427-.57016.52681C39.11791,62.8534,38.93408,62.75727,39.03464,62.31072Zm.39317-5.66415a5.37516,5.37516,0,0,1,.27622,1.53922C40.36979,57.42447,40.33069,57.22438,39.42781,56.64657Z">
  </path>
  <path
    d="M83.9536,53.91663a2.12127,2.12127,0,0,1-.1175,1.03638,5.40468,5.40468,0,0,0-.13035,1.65905,5.39057,5.39057,0,0,1-.277,2.19582,1.40114,1.40114,0,0,1-.2117.34169A.17546.17546,0,0,1,83,59.2077c-.11406-.05416-.1746-.17364-.1067-.26248.79694-1.04244.037-1.66379-.61472-2.3163-.0383-.03835-.0782-.07513-.11776-.11222-.51654-.48427-.51371-.48239-.14424-1.051.17051-.26242.3724-.47893.23515-.87641-.11374-.32939.18266-.65312.33723-.96338.15407-.30926.385-.58754.17559-.979-.06-.11221.021-.30748.0552-.4607a.22374.22374,0,0,1,.36965-.15089c.31436.193.65175.363.65109.83448A7.01024,7.01024,0,0,1,83.9536,53.91663Zm-1.15008,2.46295a2.02041,2.02041,0,0,0-.08008-1.179C82.10526,55.95106,82.10987,56.00443,82.80352,56.37958Zm.56967-3.20946c-.08767.26164-.1427.45761.02671.6294a.14522.14522,0,0,0,.135-.02485C83.63735,53.56836,83.54708,53.39509,83.37319,53.17012Z">
  </path>
  <path
    d="M36.13978,70.93338c.10756-.461.57759-.54367.60853-.93271-.798-.06364-1.48342.56293-2.3796.44838.17679-.26985.39192-.23207.53268-.3319.06465-.04585.16747-.08211.18448-.14212.04068-.1436-.18079-.41224-.02244-.416a3.73461,3.73461,0,0,1,.90841-.00276.867.867,0,0,0,.45283.05792c.84581-.24672,1.71843-.38558,2.55094-.69634.4429-.16534.45566-.64276.83666-.94056a1.84979,1.84979,0,0,1-.58339,1.48971c.12257.24527.4642.08309.53749.43173-.50057-.10884-.92619.25783-1.48048-.02454a1.07339,1.07339,0,0,0-1.285.43878C36.79818,70.5735,36.62948,70.90385,36.13978,70.93338Z">
  </path>
  <path
    d="M12.15906,52.50065a2.41243,2.41243,0,0,1-.13133,1.54371,1.79111,1.79111,0,0,0-.02255,1.33539c.38212-.66376.07606-1.49875.78535-1.97592.126.38685-.10658.62507-.18085.89539-.07752.28212-.21515.55631.19918.737a.27969.27969,0,0,1,.0377.48125c-.54592.3665-.42894.85615-.30818,1.35921.03427.14278.0176.28031-.13492.335-.18264.06546-.22878-.09525-.27005-.21469-.16677-.48283-.33567-.96553-.4808-1.4551a1.609,1.609,0,0,1,.16215-1.742C12.11556,53.4647,12.02719,52.93471,12.15906,52.50065Z">
  </path>
  <path
    d="M42.44727,64.51559a.37082.37082,0,0,1-.00412-.08067c.061-.36561.51838-.21379.65027-.50232.11842-.259.07557-.60075.42678-.80758.16472.25845-.16759.51185.02179.75367a4.1308,4.1308,0,0,0,1.72089-.23516A8.28958,8.28958,0,0,1,47.56,63.26188c.204.01115.44528-.04835.54095.23119-.04917.02526-.09445.06951-.13795.06783-1.82918-.07072-3.53015.69984-5.331.81545-.06448.00414-.12374.08969-.18542.1373Z">
  </path>
  <path
    d="M82.29256,46.74422a7.14858,7.14858,0,0,1-2.07436,5.352.98184.98184,0,0,1,.27247-.71681,6.14961,6.14961,0,0,0,1.34539-3.64663A1.59976,1.59976,0,0,1,82.29256,46.74422Z">
  </path>
  <path
    d="M48.62765,63.04779c.39738-1.69264,1.0631-3.16466,1.34492-4.74.25919.0391.29137.17531.25679.35822A23.49918,23.49918,0,0,1,48.8852,62.8715C48.86928,62.912,48.80076,62.93184,48.62765,63.04779Z">
  </path>
  <path
    d="M42.44656,64.51365c-.38669-.10224-.60469.07422-.74584.42281a3.85356,3.85356,0,0,1-.46946.93318c-.07215.094-.152.14964-.26593.08227a.15983.15983,0,0,1-.07043-.2086,13.3357,13.3357,0,0,0,1.18758-3.41417.242.242,0,0,1,.27978-.20494,5.051,5.051,0,0,1-.29086,1.56536c-.10561.41768-.02623.6755.37573.82592Z">
  </path>
  <path
    d="M49.8621,63.97813A33.54439,33.54439,0,0,0,53.91176,62.891c.29608-.08814.80787-.30508.86447-.04045.09.421-.48.284-.73437.362-.97458.29889-1.976.51164-2.97058.74313A2.02582,2.02582,0,0,1,49.8621,63.97813Z">
  </path>
  <path
    d="M73.12478,58.96028c-.196.10306-.3944.14377-.33927-.17044a.98852.98852,0,0,1,.286-.4765A13.83218,13.83218,0,0,1,75.50308,56.201a.58771.58771,0,0,1,.53576-.12324c-.49826.40175-.95456.74165-1.37834,1.11813a4.42837,4.42837,0,0,0-1.56286,1.78988Z">
  </path>
  <path
    d="M62.71766,60.74126c.09889,1.12529-.60181,1.93315-1.12,2.81346A24.506,24.506,0,0,1,62.71766,60.74126Z">
  </path>
  <path
    d="M12.892,58.25538a12.46393,12.46393,0,0,0,1.04307,1.964c.07376.09824.09413.203-.01982.264a.218.218,0,0,1-.20384-.0676,4.78583,4.78583,0,0,0-.83269-1.25721C12.632,58.88175,12.8222,58.56656,12.892,58.25538Z">
  </path>
  <path
    d="M66.95,62.94911a11.78887,11.78887,0,0,0,.31712-2.6087A2.29321,2.29321,0,0,1,66.95,62.94911Z">
  </path>
  <path
    d="M84.72421,51.514c-.18754-.18065.02715-.346.01714-.51708-.02524-.43344.16264-.92369-.32814-1.23679a.14218.14218,0,0,1-.023-.20893.22369.22369,0,0,1,.27061-.11275.62391.62391,0,0,1,.34606.31484A2.3389,2.3389,0,0,1,84.72421,51.514Z">
  </path>
  <path
    d="M39.53061,64.49036l-1.811,1.43423-.14181-.18641a12.645,12.645,0,0,1,1.80749-1.4338Z">
  </path>
  <path
    d="M65.56587,64.07873c-.09631-.02177-.27553-.05657-.20666-.1545a3.16131,3.16131,0,0,1,1.35859-1.23115c-.2891.70041-.92028.9-1.1772,1.40818Z">
  </path>
  <path
    d="M22.2996,52.68572a2.09075,2.09075,0,0,1,.41059.916.27.27,0,0,1-.22858.34977c-.18339.02811-.18024-.14371-.18126-.27422C22.298,53.3773,22.2996,53.07728,22.2996,52.68572Z">
  </path>
  <path
    d="M22.05264,51.789c.24974.16392.52794.324.20544.65914a.25339.25339,0,0,1-.29995.04847.18822.18822,0,0,1-.0839-.26815c.06283-.14807.12313-.29722.18547-.4471Z">
  </path>
  <path
    d="M13.603,57.63193a1.41846,1.41846,0,0,1,.44757,1.01171C13.82961,58.33764,13.55151,58.06113,13.603,57.63193Z">
  </path>
  <path
    d="M55.78176,62.73691c.09083.39672-.10083.5359-.22509.77594C55.47181,63.208,55.694,63.0639,55.78176,62.73691Z">
  </path>
</svg>