<svg  data-toggle="tooltip" data-placement="right" title="Info" xmlns="http://www.w3.org/2000/svg" xmlns:xlink="http://www.w3.org/1999/xlink"
  version="1.1" x="0px" y="0px" viewBox="0 0 100 100"
  style="enable-background:new 0 0 100 100;" xml:space="preserve">
  <style type="text/css">
    .st0 {
      fill: #000000;
    }

    .st1 {
      fill: none;
      stroke: #000000;
      stroke-width: 5.6693;
      stroke-linecap: round;
      stroke-miterlimit: 10;
    }

    .st2 {
      fill: none;
      stroke: #000000;
      stroke-width: 5.6693;
      stroke-linecap: round;
      stroke-linejoin: round;
      stroke-miterlimit: 10;
    }

    .st3 {
      fill-rule: evenodd;
      clip-rule: evenodd;
      fill: none;
      stroke: #000000;
      stroke-width: 5.6693;
      stroke-linecap: round;
      stroke-linejoin: round;
      stroke-miterlimit: 10;
    }

    .st4 {
      fill: none;
      stroke: #000000;
      stroke-width: 5.6693;
      stroke-linecap: square;
      stroke-miterlimit: 10;
    }

    .st5 {
      fill: none;
      stroke: #000000;
      stroke-width: 5.0823;
      stroke-miterlimit: 10;
    }

    .st6 {
      fill: none;
      stroke: #000000;
      stroke-width: 5.6693;
      stroke-linejoin: round;
      stroke-miterlimit: 10;
    }

    .st7 {
      fill: none;
      stroke: #000000;
      stroke-width: 8.5039;
      stroke-linecap: round;
      stroke-linejoin: round;
      stroke-miterlimit: 10;
    }

    .st8 {
      fill-rule: evenodd;
      clip-rule: evenodd;
    }

    .st9 {
      fill-rule: evenodd;
      clip-rule: evenodd;
      fill: none;
      stroke: #000000;
      stroke-width: 5.6693;
      stroke-linejoin: round;
      stroke-miterlimit: 10;
    }
  </style>
  <g>
    <g>
      <path
        d="M50,20.7c16.2,0,29.3,13.1,29.3,29.3S66.2,79.3,50,79.3S20.7,66.2,20.7,50S33.8,20.7,50,20.7 M50,15    c-19.3,0-35,15.7-35,35s15.7,35,35,35s35-15.7,35-35S69.3,15,50,15L50,15z">
      </path>
    </g>
    <circle cx="50.4" cy="65.2" r="3.8"></circle>
    <path class="st2"
      d="M41.8,42.8c0-4.8,4-8.7,8.8-8.5c4.5,0.1,8.2,3.8,8.3,8.3c0.1,3.6-2.1,6.8-5.2,8.1c-2,0.9-3.4,2.7-3.4,4.9v0">
    </path>
  </g>
</svg>