<svg id="logo" xmlns="http://www.w3.org/2000/svg" xmlns:xlink="http://www.w3.org/1999/xlink"
  version="1.1" x="0px" y="0px" viewBox="0 0 512 512"
  style="enable-background:new 0 0 512 512;" xml:space="preserve">
  <title>Home</title>
  <path
    d="M356.1,429.2l8,13.8c32.7-18.9,59.9-46.1,78.8-78.7l-13.8-8C411.5,386.5,386.3,411.7,356.1,429.2z">
  </path>
  <path
    d="M433.5,163.7l14.2-7.4c-22-42.1-57.3-75.8-100.3-96.1l-6.8,14.5C380.5,93.5,413.1,124.7,433.5,163.7z">
  </path>
  <path
    d="M169,75.8l-7-14.4c-33,16-61.4,40-82.5,69.9l13.1,9.2C112.2,112.9,138.5,90.6,169,75.8z">
  </path>
  <path
    d="M93.4,372.5l-13,9.3c16.3,22.7,36.8,42.1,60.4,57l8.5-13.5C127.5,411.4,108.5,393.5,93.4,372.5z">
  </path>
  <path
    d="M256,184c35.3,0,64-28.7,64-64s-28.7-64-64-64s-64,28.7-64,64C192,155.3,220.7,184,256,184z M256,72c26.5,0,48,21.5,48,48  s-21.5,48-48,48s-48-21.5-48-48C208,93.5,229.5,72,256,72z">
  </path>
  <rect x="336" y="112" width="24" height="16"></rect>
  <rect x="248" y="16" width="16" height="24"></rect>
  <rect x="152" y="112" width="24" height="16"></rect>
  <rect x="248" y="200" width="16" height="24"></rect>
  <rect x="308.7" y="48"
    transform="matrix(0.7071 -0.7071 0.7071 0.7071 54.1278 242.6762)"
    width="22.6" height="16"></rect>
  <rect x="184" y="44.7"
    transform="matrix(0.7071 -0.7071 0.7071 0.7071 16.6375 152.1665)" width="16"
    height="22.6"></rect>
  <rect x="312" y="172.7"
    transform="matrix(0.7071 -0.7071 0.7071 0.7071 -36.3818 280.1665)"
    width="16" height="22.6"></rect>
  <rect x="323" y="316"
    transform="matrix(0.7071 -0.7071 0.7071 0.7071 -129.5189 335.3137)"
    width="33.9" height="16"></rect>
  <rect x="371" y="316"
    transform="matrix(0.7071 -0.7071 0.7071 0.7071 -115.46 369.2548)"
    width="33.9" height="16"></rect>
  <rect x="419" y="316"
    transform="matrix(0.7071 -0.7071 0.7071 0.7071 -101.4011 403.196)"
    width="33.9" height="16"></rect>
  <path
    d="M264,336h-12.9l5.8,11.6c9.4,18.8,11.6,40.5,6,60.8l-2.7,9.7c-5.3,19.3,3.6,39.7,21.4,49c-4.1,5.5-8.9,10.3-14.4,14.4  l9.6,12.8c8.3-6.2,15.4-13.9,21-22.6c1.2,0.1,2.4,0.2,3.6,0.2c23.5,0,42.6-19.1,42.6-42.6V416C344,371.8,308.2,336,264,336z   M289.7,453.3c-11.5-5.6-17.4-18.6-14-31l1.6-5.8l18,18C294.2,441,292.4,447.3,289.7,453.3z M328,416v13.4  c0,12.9-9.2,23.9-21.9,26.2c3.5-9,5.5-18.5,5.8-28.2l15.9-15.9C327.9,413,328,414.5,328,416z M312,404.7V392h-16v20.7l-14.8-14.8  c1.8-15,0.2-30.3-4.7-44.6c21.5,4.3,39.3,19.3,47.2,39.8L312,404.7z">
  </path>
  <path
    d="M241.1,423.6l2.7-9.7c5.3-19.3-3.6-39.7-21.4-49c4.1-5.5,8.9-10.3,14.4-14.4l-9.6-12.8c-8.3,6.2-15.4,13.9-21,22.6  c-1.2-0.1-2.4-0.2-3.6-0.2c-23.5,0-42.6,19.1-42.6,42.6V416c0,44.2,35.8,80,80,80h12.9l-5.8-11.6  C237.7,465.6,235.6,443.9,241.1,423.6z M176,416v-13.4c0-12.9,9.2-23.9,21.9-26.2c-3.5,9-5.5,18.5-5.8,28.2l-15.9,15.9  C176.1,419,176,417.5,176,416z M180.3,439l11.7-11.7V440h16v-20.7l14.8,14.8c-1.8,15-0.2,30.3,4.7,44.6  C206,474.4,188.2,459.5,180.3,439z M228.3,409.7l-1.6,5.8l-18-18c1-6.5,2.8-12.8,5.5-18.8C225.8,384.3,231.7,397.3,228.3,409.7z">
  </path>
  <polygon
    points="128,270.1 167.9,294.1 178.1,334.8 193.6,330.9 187.3,305.8 205,316.4 213.3,302.7 195.5,292 220.7,285.8   216.8,270.2 176.1,280.4 135.5,256 176.1,231.6 216.8,241.8 220.7,226.2 195.5,220 213.3,209.3 205,195.6 187.3,206.2 193.6,181.1   178.1,177.2 167.9,217.9 128,241.9 128,195.3 157.7,165.7 146.3,154.3 128,172.7 128,152 112,152 112,172.7 93.7,154.3 82.3,165.7   112,195.3 112,241.9 72.1,217.9 61.9,177.2 46.4,181.1 52.7,206.2 35,195.6 26.7,209.3 44.5,220 19.3,226.2 23.2,241.8 63.9,231.6   104.5,256 63.9,280.4 23.2,270.2 19.3,285.8 44.5,292 26.7,302.7 35,316.4 52.7,305.8 46.4,330.9 61.9,334.8 72.1,294.1 112,270.1   112,316.7 82.3,346.3 93.7,357.7 112,339.3 112,360 128,360 128,339.3 146.3,357.7 157.7,346.3 128,316.7 ">
  </polygon>
  <path
    d="M456,216c-2.7,0-5.4,0.3-8,0.8c0-0.3,0-0.5,0-0.8c0-26.5-21.5-48-48-48s-48,21.5-48,48c0,0.3,0,0.5,0,0.8  c-21.6-4.4-42.8,9.5-47.2,31.2c-4.4,21.6,9.5,42.8,31.2,47.2c2.6,0.5,5.3,0.8,8,0.8h112c22.1,0,40-17.9,40-40S478.1,216,456,216z   M456,280H344c-13.3,0-24-10.7-24-24c0-13.3,10.7-24,24-24s24,10.7,24,24h16c0-12-5.4-23.4-14.7-31c-5-17,4.7-34.7,21.7-39.7  c17-5,34.7,4.7,39.7,21.7c2.9,9.7,1,20.2-5.1,28.2l12.8,9.6c2.2-3,4.1-6.2,5.6-9.6l0,0c11.5-6.6,26.2-2.7,32.8,8.8  c6.6,11.5,2.7,26.2-8.8,32.8C464.3,278.9,460.2,280,456,280z">
  </path>
</svg>