<svg class="hvr-pop" height='100px' width='100px' fill="#000000"
  xmlns="http://www.w3.org/2000/svg" xmlns:xlink="http://www.w3.org/1999/xlink"
  version="1.1" x="0px" y="0px" viewBox="0 0 100 100"
  style="enable-background:new 0 0 100 100;" xml:space="preserve">
  <title>In Season</title>
  <path
    d="M54.4,97.5c-0.7,0.5-1.3,0-2,0c-1.9,0.1-3.8,0.2-5.6,0.2c-0.9,0-1.8,0.3-2.8,0.1c-1.7-0.3-3.5,0.2-5.1-0.8  c-0.1,0-0.2-0.1-0.3-0.1c-1.1,0.5-2.2-0.4-3.3-0.1c-0.6,0.2-1.1-0.2-1.6-0.4c-0.5-0.2-0.9-0.5-1.4-0.6c-1.2-0.1-1.8-1.1-2.7-1.7  c-1.4-1-1.3-2.6-1.7-3.9c-0.8-2.2-1-4.6-1.4-7c-0.3-1.5-0.2-3-0.5-4.4c-0.1-0.8-0.5-1.4-0.9-2c-0.6,0.6-0.5,0.6-0.4,1.3  c0.1,1-0.4,1.9-1,2.6c-0.6,0.6-0.6,1.1,0,1.7c0.8,0.8,1.2,2.4,0,3.4c-0.5,0.4-0.6,1.2-1.3,1.5c-0.1,0-0.2,0.3-0.1,0.5  c0.2,1.2-0.4,2-1.2,2.7c-1.1,1-2.2,1.8-3.8,1.8c-1.6,0-2.6-0.7-2.6-2.3c0-0.7-0.3-1.1-0.8-1.3c-0.6-0.3-0.9-0.7-0.9-1.4  c0-0.4-0.2-0.5-0.5-0.7c-0.6-0.5-1.2-1-1.7-1.6c-0.6-0.8,0.1-1.6,0.2-2.3c0.1-0.4,0.2-0.7-0.1-1.2c-0.6-0.8-0.6-1.7-0.1-2.5  c0.2-0.4,0.2-0.6,0-1c-0.4-0.8-0.6-1.8-0.5-2.7c0-0.3,0-0.5-0.2-0.8c-0.7-1-0.7-1.8,0-2.7c0.2-0.3,0.3-0.5,0.1-0.9  c-0.6-1.3-0.2-3,0.9-4c0.3-0.3,0.7-0.6,0.6-1.1c-0.1-0.4,0.2-0.6,0.5-0.7c0.2-0.1,0.4-0.1,0.6-0.2c0.7-0.4,1.5-0.5,1.5-1.8  c0-1.4,1.2-2.5,2.6-3c0.6-0.2,1-0.5,1.2-1.1c0.4-0.9,1.2-1.4,2.1-1.8c0.7-0.3,1.2-0.7,1.7-1.3c0.8-1.1,1.8-2,3.3-1.7  c0.3,0.1,0.5,0,0.6-0.4c0.2-1.1,0.8-1.6,2-1.6c1.4,0,1.4,0.2,1.5-1.5c0-0.4,0.1-0.8,0.1-1.2c0-0.4,0.3-0.7,0.2-1.3  c-1.6,0.3-2.9,1.1-3.9,2.2c-0.3,0.3-0.7,0.7-1,1.1c-0.1,0.1-0.2,0.3-0.4,0.1c-0.2-0.2,0-0.4,0.1-0.5c1.2-1.2,2.3-2.7,4-3.2  c1.7-0.4,2.4-1.8,3.3-3c0.1-0.1,0.2-0.3,0-0.4c-0.1-0.1-0.3-0.1-0.3,0c-0.7,1.1-1.9,0.9-2.9,1.1c-1.4,0.3-2.6,1.1-3.9,1.7  c-0.3,0.2-0.5,0.5-0.5,0.8c-0.2,1.9-0.5,3.8-0.3,5.8c-0.6-0.3-0.7-0.9-0.7-1.5c0.1-0.7,0.1-1.3-0.6-1.9c-0.8-0.7-1.2-1.7-1.8-2.5  c-0.3,0.2-0.3,0.5-0.3,0.7c0.2,1.3-0.3,2.5-0.2,3.7c0,0.4-0.2,0.8,0.3,1.1c0.2,0.1,0.2,0.2,0,0.4c-0.6,0.7-0.4,1.5-0.3,2.2  c0.1,0.3,0.2,0.7-0.2,0.8c-0.5,0.1-0.4-0.4-0.5-0.7c-0.1-0.2-0.2-0.6-0.3-0.6c-0.3-0.1-0.4,0.3-0.5,0.5c-0.2,0.3-0.3,0.7-0.5,1  c-0.1,0.2-0.2,0.5-0.5,0.3c-0.2-0.1-0.1-0.4,0-0.6c0.3-0.5,0.5-1.1,0.8-1.5c0.9-1.5,1.1-2.6,0.8-4.5C18,51.7,17,52.8,16.1,54  c-1.4,2-2.2,4.3-2.9,6.7c-0.2,0.9-0.5,1.8-0.4,2.8c0,0.3-0.1,0.8-0.6,0.8c-0.5,0-0.3-0.5-0.3-0.7c0.2-1.6,0.3-3.3,1.1-4.8  c0.4-0.6,0.4-1.4,0.7-2.1c1.1-2.9,3.1-5.1,5.5-6.9c0.5-0.4,0.2-0.9,0.3-1.4c0.2-1.2,0.6-2.4,0.2-3.6c-0.1-0.4,0.2-1,0.3-1.5  c0.4-1.8,0.7-3.7,0.9-5.6c-0.6-0.1-1.2,0.1-1.7,0.4c-0.1,0.1-0.3,0-0.2,0.2c0.3,1-0.6,0.8-1,0.9c-1.2,0.3-2.2,0.8-3,1.7  c-0.6,0.7-1.5,0.9-2.1,1.5c-1,0.8-1.6,1.9-2.3,2.8c-0.9,1.2,0,2.3-0.1,3.5c0,0.3,0.2,0.3,0.5,0.3c0.9-0.2,1.8-0.1,2.5-0.6  c1.5-1,3.3-1.3,5.1-1.6c0.3-0.1,0.5,0.1,0.6,0.3c0.1,0.3-0.1,0.3-0.4,0.4c-0.6,0.1-1.3,0.4-1.9,0.5c-1,0.1-1.8,0.6-2.7,1  c-0.8,0.4-1.8,0.6-2.7,0.9c-0.4,0.1-0.7,0.1-1,0.3c-0.8,0.5-1.5,0.3-2-0.3c-0.4-0.5-0.6-1.3-0.2-2c0.4-0.8,0.9-1.6,1-2.5  c0-0.5,0.5-0.9,0.8-1.2c1.5-1.7,3.2-3.2,5.1-4.5c1.1-0.8,2.3-1.4,3.5-2.1c0.7-0.4,1.5-0.7,2.4-0.5c0.4,0.1,0.4-0.2,0.4-0.4  c0.7-2.4,1.4-4.8,2.5-7.1c1.2-2.4,2.5-4.8,4.6-6.7c0.8-0.7,1.9-1.4,2.1-2.6c0-0.2,0.2-0.4,0.4-0.4c1.3-0.1,1.8-1.2,2.7-1.8  c1.1-0.9,2.3-1.7,3.6-2.4c2.4-1.2,5-2.1,7.5-3c1-0.4,2.1-0.3,3.1-0.6c1-0.3,2.3-0.1,2.9-1.4c0.1-0.1,0.2-0.2,0.3-0.3  c0.3-0.2,1.1,0,0.9-0.5c-0.2-0.4-0.7-1-1.4-1C49.2,8.6,48,8.4,46.7,8c-0.7-0.2-0.6-0.7-0.3-0.9c0.9-0.8,2.1-1.2,3.3-1.2  c0.6,0,1.2,0.2,1.8,0.3c0.6,0.1,0.8,0,0.6-0.6c-0.2-0.6,0-1.2,0.1-1.8c0-0.3,1.5-1.4,1.7-1.4c0.3,0,0.5,0.3,0.5,0.6  c0,1.2,0.2,2.3,1.4,2.9c0.3,0.2,0.2,0.4,0.1,0.7c-0.1,0.2,0,0.4,0.2,0.5c0.3,0.1,0.4,0,0.5-0.3c0.2-0.4,0.6-0.7,0.1-1.2  c-0.1-0.1-0.1-0.3,0-0.4c1-1.9,2.5-3.3,4.6-4c0.5-0.2,0.6,0.1,0.6,0.5c0,0.3,0,0.5-0.2,0.8c-0.6,1-0.8,2.1-1,3.2  c-0.1,0.3-0.1,0.6,0.1,0.8c0.3,0.2,0.6,0,0.8-0.2c1.4-1,2.8-2.1,4.2-3.2c0.9-0.6,1.7-1.3,2.6-1.9c0.2-0.1,0.4-0.4,0.6-0.2  c0.3,0.1,0,0.4,0.1,0.6c0.7,1.7-0.7,2.6-1.4,3.7c-0.3,0.5-0.6,0.9-1.1,1.6c0.9-0.3,1.5-0.7,2.1-1c1.3-0.6,2.6-1.2,4.1-1.2  c0.3,0,0.6-0.1,0.8,0.2c0.2,0.4-0.1,0.6-0.3,0.9C72.6,6.6,71.6,7.1,71,8c-0.1,0.1-0.2,0.2-0.3,0.4c0.4,0.1,0.7-0.2,0.9-0.4  c0.9-0.9,2.1-1.3,3-2C75.7,5.2,77,5,78.3,4.7c0.1,0,0.2,0,0.4,0c0.4,0.1,1,0.1,1.2,0.5c0.2,0.5-0.4,0.7-0.7,1  c0.4,0.3,0.9,0.1,1.4,0.3c0.5,0.2,1,0.4,0.9,1.1c0,0.5,0,1-0.7,1.3c-0.9,0.4-1.7,1.2-2.3,2c0.2,0.1,0.4,0,0.6,0  c0.3-0.1,0.7-0.2,0.9,0.1c0.2,0.4,0.1,0.8-0.2,1.1c-0.7,0.7-1.6,1.4-2.4,2c-0.7,0.5-1.5,0.8-1.4,1.9c0,0.2-0.1,0.5-0.5,0.4  c-0.5-0.2-0.7,0.4-0.9,0.6c-0.2,0.3,0.1,0.6,0.3,0.8c1.9,1.4,2.9,3.4,3.7,5.6c0.1,0.3,0.3,0.6,0.5,0.8c1.4,1.6,2.2,3.4,2.8,5.4  c0.3,0.9,0.8,1.8,1.1,2.8c0.5,1.8,0.8,3.6,0.9,5.5c0.1,1.7,0,3.5,0.3,5.2c0.1,0.4,0,0.7-0.3,0.7c-0.5,0.1-0.5-0.3-0.5-0.7  c0-0.9,0-1.8-0.3-2.8c-0.9,0.9-1.4,1.8-1.6,2.8c0,0.2-0.1,0.4-0.3,0.4c-0.2,0-0.4-0.2-0.5-0.5c-0.1-0.9-0.6-1.8-0.5-2.7  c0.2-2.2-0.7-4.2-0.9-6.3c-0.3-2.7-1.5-5.1-2.1-7.6c0,0,0-0.1,0-0.1c-0.3-0.5-0.4-1.3-0.8-1.5c-0.6-0.2-0.7,0.7-1,1  c-0.5,0.4-0.8,0.9-1.2,1.3c-0.2,0.3-0.4,0.6-0.2,0.9c0.2,0.3,0.5,0.2,0.8,0.2c0.1,0,0.3-0.1,0.4-0.1c0.4,0.1,0.8,0,1,0.5  c0.1,0.4,0,0.8-0.4,1c-0.9,0.6-1.7,1.3-2.7,1.9c-1.1,0.7-1.4,1.8-2,2.8c-0.2,0.3,0.2,0.4,0.4,0.6c1,0.9,2.2,1.6,2.8,2.7  c1.2,2.2,2.6,4.3,2.5,7c0,0.6,0.2,0.6,0.6,0.4c1.7-0.8,3.4-1.2,5.3-0.9c0.3,0,0.6,0,0.8,0c1.1,0,2,0.3,3,1c1.6,1.1,2.6,2.5,3.6,4  c1.1,1.6,1.1,3.4,0.8,5.2c-0.4,2.7-2,4.4-4.1,5.9c-0.4,0.3-1.1,0.4-1.6,0.6c-0.3,0.1-0.6,0.2-0.6,0.6c0,1-0.7,1.8-0.6,2.8  c0,0.5-0.7,0.6-0.5,1.1c0.9-0.6,1.9-1,1.8-2.3c0-0.2-0.1-0.7,0.3-0.6c0.4,0,0.3,0.4,0.2,0.7c-0.1,0.7,0.3,1.1,0.6,1.7  c0.5,1.2,0.3,2.4,0.1,3.6c-0.2,1.3,0.3,2.6,0.2,4c-0.3,2.4,0,4.9-0.3,7.3c-0.4,3.1-0.5,6.2-1.1,9.3c0,0.2-0.1,0.4,0,0.6  c0.3,1.8-0.1,2.8-1.6,3.6c-0.9,0.5-1.9,0.9-2.8,1.3c-1.8,0.8-3.7,1-5.7,1.4c-1.6,0.3-3.1,0.1-4.6,0.3c-1.8,0.3-3.6,0.4-5.5,0.8  c-1.6,0.3-3.2,0.8-4.9,0.8c-0.4,0-0.8-0.1-1.1-0.3c0,0,0,0,0,0c0.5-0.2,1.1,0,1.5-0.5c-1,0-1.9,0-2.8,0c-0.2,0-0.4,0.1-0.4,0.4l0,0  C56.7,96.7,54.9,96.8,54.4,97.5L54.4,97.5z M84.3,57.5c1.1,0.2,0.8-0.9,1.3-1.3C85,56.5,84.1,56.4,84.3,57.5c-0.3-0.2-0.7-0.8-1-0.5  c-0.3,0.3,0.3,0.6,0.4,1c0,0.1,0.2,0.2,0.3,0.3C84.2,58,84.4,57.8,84.3,57.5z M71.7,69.8c-1.6,0.3-3.3,0.5-4.9,0.6  c-0.2,0-0.5-0.1-0.5,0.1c0,0.7-0.7,0.7-1,1.1c-0.4,0.4-1.1,0.3-1.4,0.9c0.9,0.2,1.6-0.4,2.5-0.3c1.8,0.1,3.4-0.4,4.7-1.7  C71.3,70.3,71.8,70.2,71.7,69.8c2,0.8-0.6,0.9-0.1,1.5c0.9-0.2,1.9-0.5,2.9-0.5c1.2-0.1,1.9-0.7,2.3-1.8  C75.1,69.3,73.4,69.5,71.7,69.8z M51.6,73c-0.7-0.5-0.3-0.8,0.2-1.1c0.5-0.3,1-0.6,1.5-1.1c-0.8-0.2-1.4,0.3-2.1,0.1  c-1.4-0.4-2.7-0.2-3.9,0.6c-0.5,0.3-1.1,0.4-1.6,0.9c2,0.4,3.8,0.4,5.7,0.6C51.5,73.1,51.5,73,51.6,73c1.1,0.4,2.2,0,3.3,0  c0.5,0,1.1,0.2,1.4-0.1c0.7-0.9,1.6-1.4,2.5-2c-1.3-0.1-2.6,0.1-3.8-0.1c-0.1,0-0.2,0-0.3,0.1C54,71.9,52.5,72.1,51.6,73z   M31.9,74.1c0.5-0.6,0.2-1.4,0-2c-0.1-0.5-0.9-0.3-1.4-0.4c-0.5-0.1-1-0.3-1.5-0.4c-0.5-0.2-1.1-0.5-1.6-0.4  c-0.8,0.2-1.1-0.1-1.2-0.9c-0.8,0.8,0.3,1.7-0.3,2.3c0,0,0,0.2,0.1,0.2c0.1,0.1,0.1,0.1,0.2,0.1c0.9,0.2,1.7,0.8,2.7,0.8  C30.1,73.4,31,73.7,31.9,74.1c-0.1,0.2,0,0.6-0.5,0.5c-1.4-0.3-2.9-0.2-4.3-0.9c-0.5-0.2-1-0.3-1.5-0.5c-0.2-0.1-0.4-0.1-0.5,0.1  c-0.1,0.2-0.1,0.6,0,0.6c1.1,0.3,0.4,1.2,0.5,1.8c0.1,0.5,0.1,1.2,0.4,1.3c1.9,0.5,3.8,1.1,5.8,0.9c0.3,0,0.4-0.1,0.4-0.4  C32.3,76.4,32.5,75.2,31.9,74.1z M60.3,50.4c-0.1-0.5-0.2-1.1,0.1-1.6c0.3-0.4,0.4-0.8,0.1-1.2c-0.4-0.4-0.9-0.3-1.4-0.1  c-0.4,0.2-0.8,0.4-1.1,0.6c-0.1-0.1-0.1-0.1-0.2-0.2c0.7-0.7,0.8-1.6,1.1-2.4c0.2-0.5,0.5-0.4,0.8-0.1c0.2,0.2,0,0.5,0.4,0.6  c0.2-1-0.1-1.3-1-1.3c-0.3,0-0.3-0.2-0.2-0.4c0.1-0.2,0.2-0.4,0-0.6c-0.6,0.1-1,0.6-1.4,1.1c-0.8,1-0.8,2-0.1,3.1  c0.3,0.5,0.7,1,0.8,1.6c0,0.2,0.3,0.5-0.1,0.6c-0.4,0.1-0.4-0.2-0.4-0.5c-0.3-1.3-1-1.6-2.1-1.1c-0.1,0-0.2,0.1-0.3,0.2  c-0.5,0.3-0.6-0.1-0.6-0.4c0-0.2,0.1-0.4,0.2-0.6c0.1-0.2,0.3-0.5,0-0.6c-0.3-0.1-0.3,0.2-0.5,0.3c-0.6,0.5-0.6,1.2-0.5,1.8  c0.1,0.4-0.2,0.7-0.6,0.6c-0.4,0-0.3-0.4-0.2-0.6c0.2-0.5-0.2-0.9-0.4-1.4c-0.3-0.7-0.6-0.9-1.2-0.4c-0.7,0.6-0.9,0.5-1.3-0.4  c-0.3,0-0.3,0.7-0.7,0.4c-0.6-0.5-0.7,0.1-0.8,0.4c-0.2,0.9,0,1.9,0.1,2.8c0,0.4,0.3,0.5,0.7,0.3c0.9-0.5,1.9-0.8,3-0.8  c1.7,0,3.1,1.1,4.4,2.1c1,0.7,2.1,1.1,3.3,1.2C59.8,52.4,59.1,51.4,60.3,50.4c-0.2,1.2,0.8,2.1,0.9,3.2c0,0.1,0.2,0.2,0.3,0.3  c0.5,0.3,1.1,0.6,1.7,0.7c1.9,0.3,3.4,1.3,4,3.2c0.2,0.5,0.5,0.7,1,0.6c0.6-0.1,1.3-0.2,1.7-0.7c1.1-1.3,2.5-2.1,4.1-2.7  c1.4-0.6,2.9-1.1,4.4-1.2c0.1-0.3-0.3-0.3-0.3-0.6c0-0.9-0.7-1.4-1.3-1.8c-0.9-0.6-2.1,0.2-2.2,1.4c-0.1,0.7-0.5,1.2-1.2,1.4  c-0.4,0.1-1,0-0.9-0.7c0.2-2.2-0.9-4-2.2-5.4c-2.3-2.3-5.9-2.8-8.5,0C60.9,48.8,60.9,49.8,60.3,50.4z M48.4,56.9  c0.8-0.2,1.5-0.4,2.3-0.4c0.9,0,1.7,0.3,2.6,0.4c1.6,0.2,2.5,1.3,3.2,2.5c0.7,1.1,0.4,2.5,0.1,3.7c-0.1,0.6-0.2,1.3-0.6,1.9  c-1.1,1.4-2.2,2.8-3.9,3.5c-0.2,0.1-0.4,0-0.4,0.4c0.4,0,0.8,0,1.2,0c0.2,0,0.4,0.1,0.5-0.3c0.1-0.5,0.4-0.5,0.8-0.5  c0.2,0,0.6,0,0.5-0.4c-0.1-0.3-0.2-0.7,0.1-0.8c0.4-0.2,0.5,0.3,0.7,0.5c0.9,0.8,1.8,1.7,3,1.7c2.6,0,5.1-0.4,7.3-1.9  c1-0.7,1.4-1.9,0.8-3c-0.2-0.3-0.2-0.7,0-1.1c0.7-1.6,0.6-3.1,0-4.7c-0.5-1.4-1.3-2.5-2.8-3c-1.9-0.6-3.7-1.5-5.7-1.7  c-1.4-0.1-2.3-1.3-3.5-2c-1.5-0.8-2.8-1.2-4.4-0.5c-0.6,0.3-1.5,0.5-1.6,1.4c-0.1,0.8,0.6,1.6-0.1,2.5C48.5,55.5,49,56.4,48.4,56.9  c-0.5-0.4-1,0-1.4,0.1c-1.4,0.3-2.4,1.3-3.2,2.5c-0.7,0.9-0.6,1.9-0.3,2.9c0.1,0.2,0.1,0.4,0.1,0.5c0,0.6,0.3,1,0.7,1.4  c1.2,1.6,3,1.4,4.6,1.8c1.3,0.3,2.8-0.1,4.1-0.8c0.9-0.4,1.7-0.9,2.3-1.7c0.6-0.8,0.2-1.8,0.8-2.6c0.1-0.1,0-0.3,0-0.4  c-0.6-1.4-1.3-2.7-3-3.1c-1.5-0.3-2.9-0.7-4.5-0.4C48.4,57.2,48.3,57.1,48.4,56.9z M36.6,43.7c-0.8,0.2-1.5,0.2-1.8,1.4  c-0.2,0.9-0.1,1.6,0.2,2.3c0.1,0.3,0,0.4-0.2,0.5c-0.5,0.3-1,0.6-1.6,1c0.5-0.9,1.6-1.3,1.1-2.5C34.1,46,34,45.7,33.5,46  c0.1-0.2,0.3-0.4,0.5-0.7c-0.3,0.1-0.5,0.2-0.7,0.2c-0.7,0.3-0.8,0.4-0.3,0.9c0.2,0.2,0,0.4-0.1,0.5c-0.3,0.4-0.7,0.7-0.9,1.2  c-0.3,0.5,0,1.3,0.3,1.5c0.6,0.4,0.4,1,0.2,1.1c-0.6,0.6-0.4,1.1,0.2,1.6c-1.4,0.1-0.5,0.8-0.4,1.4c-0.6-0.4-1.1-0.7-1.6-1  c-0.1,1.1-0.2,2.2,1.1,2.7c0.2,0.1,0.4,0.3,0.5,0.5c0.5,0.9,1.1,1.5,2.3,1c0.3-0.1,0.5,0.1,0.8,0.1c0.8,0.2,1.2-0.2,1.4-0.9  c0.1-0.4,0.1-0.7,0.2-1.1c0.2-1.5,0.5-3,2.2-3.7c0.3-0.1,0.7-0.4,0.9,0c0.2,0.4-0.2,0.5-0.5,0.6c-1.5,0.9-2.4,3.8-1.6,5.3  c0.1,0.1,0.1,0.4,0.4,0.3c0.2,0,0.3-0.2,0.3-0.4c0-0.2,0.1-0.5,0.3-0.6c0.9-0.6,3.2-0.5,3.9,0.3c0.4,0.4,0.8,0.5,1.3,0.4  c1.9-0.6,3.1-1.8,3.6-3.7c0.3-1,0-1.3-1-1.5c-0.7-0.1-1.4-0.2-2-0.4c-0.2,0-0.4-0.1-0.4-0.3c0-0.2,0.1-0.3,0.3-0.3  c0.8-0.1,1.5-0.4,2.3-0.1c0.3,0.1,0.8,0.2,1,0c0.2-0.3,0-0.7-0.2-1c-0.4-0.5-0.4-1.1-0.3-1.7c0.3-1.1,0.1-2.2,0.4-3.3  c0.1-0.2-0.1-0.3-0.2-0.5c-0.5-0.7-0.9-1.4-1.8-1.7c-0.6-0.2-0.9-0.8-1.1-1.4c-0.2-0.7-0.4-0.9-1.1-0.4c-0.4,0.2-0.9,0.4-1.4,0.3  c-0.5-0.1-0.4-0.7-0.6-1C41.5,40,41,40,40.7,40c-0.4-0.1-0.3,0.3-0.3,0.5c-0.2,0.5-0.4,0.9-0.9,1c-0.7,0.2-1.4,0.6-2.2,0.9  c-0.6,0.2-1.6,0.2-1.8,1.1c0.5,0.2,0.8-0.2,1.1-0.3c0.3-0.1,0.7-0.4,0.8-0.1c0.3,0.5-0.4,0.3-0.5,0.5C36.8,43.7,36.7,43.7,36.6,43.7  L36.6,43.7z M51.7,16.5c-0.1-0.3-0.1-0.5-0.2-0.8c-0.2-0.6-0.4-1.1-1.3-0.8c-1.1,0.4-2.3,0.7-3.4,0.9c-1.3,0.3-2.6,0.5-3.8,1.1  c-1.4,0.7-2.9,1.2-4.3,1.9c-0.8,0.4-2.1,0.7-2.1,2.1c0,0.2-0.4,0.4-0.5,0.2c-0.4-0.6-0.8-0.1-1,0.1c-2.1,2.1-4.4,4-6.2,6.4  c-1.5,2-2.3,4.2-3.2,6.5c-0.3,0.7,0,0.9,0.7,0.7c0.5-0.2,1-0.3,1.5-0.4c2.2-0.4,4.5-0.5,6.7-1c2.5-0.6,4.9-0.1,7.3,0  c1.6,0.1,3.2,0.6,4.7,1.4c1.6,0.9,2.9,1.9,3.9,3.4c0.3,0.4,0.5,0.5,0.8,0.1c1-1,2.2-1.9,2.6-3.5c0.1-0.2,0.3-0.5,0.5-0.7  c0.9-0.9,2-1.2,3.2-1.4c0.3-0.1,0.7,0,0.7-0.4c0-0.3-0.4-0.5-0.7-0.7c-0.1,0-0.2-0.1-0.3-0.1c-1.9-0.4-3.6-1.3-5.6-1.3  c-0.6,0-0.8-0.4-0.5-1c0.5-0.9,1.3-1.3,2.1-1.8c0.2-0.1,0.4-0.2,0.4-0.5c-0.1-0.2-0.3-0.2-0.5-0.2c-1.3-0.3-2.4-0.9-3.4-1.7  c-0.3-0.3-0.7-0.7-0.4-1c0.4-0.4,0.4-1,0.8-1.3c0.4-0.3,0.3-0.4-0.2-0.6c-1-0.3-1.9-0.6-2.8-0.9c-0.8-0.2-1-0.9-1.1-1.6  C46,19.2,46.6,19,47,18.7c1.2-1.1,2.8-1.2,4.2-1.7C51.5,16.9,51.8,17,51.7,16.5z M37.4,33.9c-1.1,0-2.2,0.3-3.2,0.4  c-2.6,0.2-5.1,0.5-7.6,1.4c-1,0.4-1.7,0.8-1.6,1.9c0,0.4-0.2,0.8-0.3,1.2c-0.4,1.9-0.7,3.9-0.6,5.9c0,0.5,0.1,0.7,0.7,0.4  c0.9-0.5,1.8-0.8,2.8-1c1.6-0.3,3.2-1.2,5-0.6c0.2,0.1,0.4-0.1,0.5-0.3c0.7-0.7,1.4-1.6,2.5-1.8c0.1,0,0.3-0.1,0.4-0.3  c0.2-0.4,0.4-0.6,0.9-0.3c0.6,0.3,1.4,0.3,2.1-0.2c0.4-0.3,0.4-0.5,0.2-0.9c-0.3-0.7-0.8-1.3-1.2-2c-0.3-0.5-0.7-0.5-1.1-0.4  c-3.7,0.9-7.4,1.7-10.9,3c-0.4,0.1-1,0.6-1.2,0.1c-0.2-0.5,0.5-0.6,0.9-0.8c3-1.4,6.4-1.9,9.5-2.9c2.2-0.7,4.4-0.6,6.7-0.1  c0.3,0.1,0.7,0.2,1.1,0c0.4-0.1,0.7,0,0.9,0.4c0.2,0.3,0.2,0.6-0.2,1c-0.4,0.4-0.3,0.8,0.4,0.8c0.6,0,1.2,0.1,1.8-0.3  c0.2-0.2,0.5-0.1,0.7,0.1c0.2,0.2,0.2,0.5,0,0.6c-0.5,0.2-0.6,0.7-0.9,1c-0.7,0.6-0.3,1.1,0.1,1.5c0.4,0.3,0.9,0.6,1.4,0.8  c0.3,0.1,0.5,0.3,0.5,0.6c0,0.3,0,0.7,0.3,0.7c0.4,0,0.5-0.4,0.6-0.7c0.3-1,0.8-1.8,1.3-2.7c0.2-0.3,0.3-0.7,0.2-1.1  c-0.6-1.7-1.8-2.9-3.3-3.6c-1.5-0.7-3-1.3-4.7-1.5C40.5,34.1,38.9,34.2,37.4,33.9z M75.3,66.8c1,0.4,1.9,0.7,3,0.7  c1.1,0,2.3-0.4,2.9-1c1.1-1.1,1.9-2.3,2.3-4c0.7-2.9-1.2-7.6-5.4-7.8c-1.7-0.1-3.3,0.4-4.5,1.8c-0.4,0.4-0.5,1.2-1.3,0.6  c-0.1-0.1-0.3,0-0.4,0.1c-1.1,0.7-2.1,1.6-2.2,3c-0.1,2.7,1.1,4.8,3.2,6.5c0.8,0.7,1.9,1,3,1.1C75.8,67.2,75.3,67.4,75.3,66.8z   M69.6,90.7c-0.1,0.4-0.3,0.4-0.5,0.4c-2.6,0.3-5.2,0.8-7.8,0.9c-0.6,0-0.7,0.2-0.7,0.7c0.1,0.6,0.3,1.2,0.2,1.8  c-0.1,0.3-0.1,0.8-0.5,0.8c-0.5,0-0.5-0.5-0.4-0.8c0.1-0.4-0.2-0.6-0.2-0.9c-0.2-3.5-0.3-7.1-0.5-10.6c-0.1-1.8-0.4-3.6-0.5-5.4  c-0.1-1.2-0.4-2.4-0.2-3.6c0.1-0.4,0-0.4-0.3-0.4c-0.3,0-0.7-0.1-0.7,0.2c0,1.8-0.2,3.7,0,5.5c0.2,2.4,0.1,4.8,0.6,7.2  c0.3,1.4,0.3,2.9,0.4,4.4c0.1,1.3,0.3,2.6,0.2,3.9c0,0.4-0.1,1.1,0.6,1c1.7-0.2,3.4,0.2,5.2-0.1c1.9-0.3,3.9-0.4,5.8-0.6  c0.4,0,0.6-0.1,0.5-0.5c0-0.4-0.1-0.6-0.6-0.6c-0.2,0-0.4,0-0.6,0c-2,0.2-4.1,0.1-6.1,0.7c-0.3,0.1-0.7,0-0.8-0.3  c-0.1-0.3,0.2-0.4,0.5-0.5c0.7-0.2,1.3-0.4,2-0.4c1.5,0,2.9,0,4.4,0c0.3,0,0.7,0.1,0.7-0.4c0-1.2-0.1-2.3-0.1-3.5  c0-0.9-0.4-1.8-0.3-2.6c0.1-1.3,0-2.6-0.1-3.8c0-0.4-0.2-0.6-0.6-0.5c-0.9,0.3-1.9,0.1-2.8,0.2c-2,0.2-4,0.5-5.9,0.7  c-0.5,0-0.6,0.2-0.6,0.6c0,0.8,0.4,1.1,1.1,1c0.3,0,0.5-0.1,0.8-0.1c1.9,0.2,3.8,0.1,5.7-0.4c0.4-0.1,0.8-0.3,0.9,0.2  c0.1,0.6-0.5,0.6-0.8,0.6c-1,0-2.1,0.2-3.1,0.3c-1.3,0.1-2.7,0.2-4,0.3c-0.3,0-0.5,0-0.5,0.4c0,0.6,0.2,1.1,0.1,1.7  c0,0.2,0.1,0.2,0.3,0.2c1.8-0.2,3.6-0.3,5.4-0.4c0.7-0.1,1.5-0.1,2.2-0.1c0.2,0,0.6,0.1,0.5,0.4c0,0.2-0.3,0.3-0.5,0.3  c-2.4,0.1-4.8,0.3-7.1,0.7c-0.3,0.1-0.8,0-0.7,0.5c0.1,0.5-0.2,1.3,0.7,1.3c1.6,0.1,3.3,0,4.9-0.3C67.1,90.7,68.3,90.4,69.6,90.7z   M34,66.7c-0.2,0.4-0.8,0.1-0.8,0.6c0,0.5,0.4,0.8,0.9,0.9c1.7,0.5,3.4,0.8,5.1,1.2c1.5,0.4,2.7,0.3,3.9-0.7c0.9-0.7,1-0.9,0.2-1.7  c-1.3-1.4-2-3.1-1.5-5.1c0.2-0.9,0.8-1.8,1.2-2.7c0.3-0.6,0.2-0.9-0.3-1.2c-0.3-0.2-0.5-0.3-0.8-0.5c-0.8-0.5-2.2-0.1-2.7,0.7  c-0.5,1-2.6,1.1-3.3,0.3c-0.2-0.2,0-0.6-0.3-0.7C35,57.5,33,58,32.7,58.5c-0.1,0.2-0.3,0.5-0.1,0.6c0.3,0.2,0.4,0,0.5-0.2  c0.1-0.2,0.3-0.3,0.6-0.2c-0.1,0.2-0.2,0.4-0.3,0.6c0.2,0.2,0.6-0.1,0.8,0.3C34,60,33.6,60,33.3,60.1c-1,0.4-1.1,0.7-0.3,1.4  c0.4,0.4,0.9,0.7,1.3,1c-1-0.2-2.1-0.4-2.3,0.8c-0.2,1.1,1,0.8,1.7,1c-0.2,0.5-0.6,0.3-0.8,0.3c-1.1-0.2-1.6,0.4-1.3,1.5  c0.1,0.3,0.3,0.4,0.6,0.5c0.4,0.1,0.3-0.3,0.3-0.5c0.2-0.6,0.7-1,1.5-1.1C33,66.5,33,66.5,34,66.7z M80.1,78.6  c-0.8,0.2-1.6,0.4-2.4,0.5c-1.6,0.2-3.2,0.4-4.9,0.6c-0.3,0-0.6,0-0.7,0.4c0,0.5-0.1,1-0.1,1.5c0,0.3,0,0.6,0.5,0.5  c2-0.5,4-0.1,6-0.2c0.3,0,0.5,0.2,0.5,0.5c0,0.3-0.3,0.4-0.6,0.3c-1.2-0.1-2.4-0.1-3.6,0c-0.8,0.1-1.6,0.3-2.4,0.1  c-0.3-0.1-0.3,0.1-0.3,0.3c0,0.4,0,0.9,0.1,1.3c0,0.2,0.1,0.6,0.4,0.5c0.8-0.1,1.6,0.3,2.5,0.1c1.2-0.3,2.5-0.3,3.7-0.6  c0.3-0.1,0.7-0.1,0.7,0.3c0.1,0.5-0.3,0.4-0.6,0.5c-2,0.4-4,0.7-6,0.6c-0.4,0-0.7,0.1-0.6,0.5c0.1,1.6-0.3,3.3,0.4,4.9  c0.3-0.1,0.6-0.3,1-0.4c2-0.2,4-0.3,6-0.5c0.1,0,0.3,0.1,0.4-0.1c0.1-0.6,0.2-1.2,0-1.7c-0.1-0.4-0.6-0.2-0.9-0.2  c-1.9,0.1-3.8,0.1-5.6,0.5c-0.3,0.1-0.7,0.1-0.8-0.4c-0.1-0.5,0.3-0.6,0.6-0.7c0.2,0,0.5,0,0.7,0c1.8,0,3.5,0,5.3-0.2  c0.6-0.1,0.8-0.2,0.8-0.9c0-1.2-0.2-2.3-0.2-3.5C80.1,81.5,80.1,80.1,80.1,78.6z M65.4,38.9c0,0.7-0.8,0.5-1.1,0.9  c-0.6,0.7-0.8,0.2-1.3-0.2c-0.6-0.5-0.7-0.8-0.1-1.3c0.2-0.2,0.5-0.3,0.7-0.5c0.4-0.5,1-0.7,1.6-0.4c0.6,0.3,0.9,0.8,0.9,1.5  c0,0.4,0.1,0.7,0.5,0.8c0.6,0.1,0.9,0.6,1.1,1.1c0.2,0.4,0.3,0.8,0.6,1c0.4,0.3,0.9,1,1.3-0.1c0.2-0.4,0.7-0.8,1.2-1.1  c0.4-0.2,0.8-0.5,1.3-0.3c0.9,0.6,1.7,1.3,2,2.4c0.1,0.3,0,0.5-0.2,0.6c-0.3,0.1-0.3-0.2-0.4-0.4c-0.2-0.9-0.8-1.4-1.5-1.8  c-0.1-0.1-0.5-0.2-0.4,0c0.1,1-0.7,1-1.2,1.3c-0.3,0.1-0.4,0.2-0.4,0.5c0,0.7,0.4,1.2,0.8,1.6c0.3,0.3,0.7-0.3,1-0.5  c1.2-0.8,2.1-0.5,2.5,0.8c0.1,0.4,0.2,0.8,0.4,1.1c0.1,0.2,0.1,0.7,0.5,0.6c0.4-0.1,0.5-0.5,0.4-0.9c-0.4-1.1-0.7-2.3-0.7-3.5  c0-2.2-1.2-3.7-2.8-5c-0.5-0.4-1.2-0.7-1.6-1.3c-0.5-0.6-1.3-0.7-1.8-0.3c-1.2,1-1.4,1.1-2.8,0.3c-0.8-0.4-1.7-0.2-1.6,0.5  c0.1,1.2-0.9,0.4-1.3,0.7c-0.3,0.2-0.5-0.3-0.6-0.6c-0.4-1.2-0.8-1.4-1.8-0.7c-0.1,0.1-0.3,0.1-0.4,0.2c-0.3,0.3-0.6,0.7-1,1  c-0.7,0.6,0.3,0.7,0.4,1c0.2,0.7,0.5,0.7,0.8,0c0.1-0.2,0.3-0.4,0.5-0.3c0.2,0.1,0.3,0.3,0.2,0.5c-0.2,0.4,0,0.8,0.2,1.2  c0.1,0.2,0.3,0.4,0,0.6c-0.2,0.1-0.4,0.1-0.6,0c-0.1-0.1-0.4-0.5-0.4-0.3c-0.3,0.6-0.7,0.4-1.1,0.4c-0.5,0-1,0.1-1.1,0.6  c-0.1,0.6-0.1,1.3,0.3,1.7c0.4,0.4,0.9,0.2,1.3-0.1c0.3-0.2,0.5-0.5,0.7-0.8c0.2-0.3,0.4-0.6,0.7-0.9c0.5-0.6,0.9-0.5,1.4,0.1  c0.7,0.8,0.9,2,2.2,2.3c0.2,0.1,0.4,0.5,0.6,0.7c0.1,0.1,0.2,0.4,0.3,0.4c1,0.1,1.2-1.1,2-1.4c0.3-0.1,0.3-0.4,0.1-0.7  c-0.2-0.4-0.4-0.6-0.8-0.2c-0.5,0.5-1.5-0.1-2,0.8c0,0.1-0.3,0-0.3-0.2c0.1-0.5,0-1.3,0.3-1.5C65.9,40.6,65.7,39.8,65.4,38.9z   M50.6,94.2c0.1-0.6,0.5-0.7,1-0.8c1.7-0.3,3.4-0.4,5.1-0.4c0.3,0,0.9,0.3,0.9-0.4c-0.1-1.8-0.2-3.7-0.3-5.5c0-0.5-0.3-0.6-0.8-0.7  c-0.6,0-1.1,0.2-1.7,0.2c-2,0-3.9,0-5.8,0c-0.5,0-0.7,0.1-0.6,0.6c0.1,1.2,0.2,2.3,0.4,3.5c0.1,0.5,0.2,0.7,0.7,0.7  c1.3-0.1,2.6,0.1,3.9-0.1c1-0.2,2.1-0.2,3.1-0.2c0.2,0,0.5,0,0.4,0.3c0,0.3-0.3,0.2-0.4,0.2c-2.2,0.3-4.4,0.7-6.7,0.5  C49,92,48.9,92.4,49,93c0.1,0.5,0.3,1.1,0.3,1.6c0,1.2,0.3,1.7,1.5,1.5c1.8-0.3,3.5,0.2,5.2,0c1.6-0.1,1.8-0.2,1.6-1.8  c-0.1-0.6-0.3-0.8-0.8-0.7c-1.1,0.2-2.3,0.3-3.4,0.5C52.5,94.2,51.6,94.7,50.6,94.2z M45.5,82.2c-0.2-1.8-0.4-3.5-0.5-5.2  c0-0.6-0.2-0.7-0.7-0.7c-1.8,0-3.6-0.3-5.4-0.5c-1.2-0.1-2.3-0.4-3.5-0.6c-0.6-0.1-0.9,0.1-0.8,0.8c0.1,0.7,0.3,1.4,0.2,2.1  c0,0.5,0.2,0.6,0.7,0.6c2.3,0,4.5,0.1,6.8,0.2c0.6,0,1.2-0.2,1.8,0c0.2,0.1,0.4,0.1,0.4,0.3c0,0.2-0.2,0.4-0.4,0.4  c-0.2,0-0.4,0-0.6,0c-2.1,0-4.2,0-6.4-0.1c-2.1-0.1-2.3,0.1-1.9,2.1c0.1,0.3,0.2,0.5,0.5,0.5c0.7,0.1,1.5,0.2,2.2,0.2  C40.4,82.5,42.9,82,45.5,82.2z M36.1,88.9c0.2,2,0.7,3.8,0.8,5.6c0,0.7,0.3,1.4,1.4,1.4c0.9,0,1.9,0,2.8-0.1c1.7-0.1,3.3,0.3,5,0.1  c0.4,0,0.8-0.1,0.7-0.6c-0.1-1.1-0.2-2.2-0.4-3.3c0-0.3-0.2-0.4-0.5-0.4c-2.1,0.1-4.2-0.1-6.3,0.2c-0.7,0.1-1.4,0-2.1,0  c-0.2,0-0.5,0-0.5-0.3c0-0.3,0.1-0.4,0.4-0.5c0.5,0,0.9-0.2,1.4-0.1c2.5,0,5-0.1,7.5,0.3c0-0.3,0-0.6,0-0.8c0-1.6,0-1.6-1.5-1.3  c-1,0.1-2.1,0.5-3.1,0.4C39.8,89,38,89.4,36.1,88.9z M68.3,82.2C68.3,82.2,68.3,82.2,68.3,82.2c0.2,0,0.3,0,0.5,0  c0.8,0.1,1.1-0.2,1-1c-0.1-1.3-0.2-2.6-0.3-3.9c-0.1-1.2-0.1-1.4-1.3-1.1c-2.5,0.7-5.1,0.4-7.7,0.6c-1.4,0.1-1.4,0-1.1,1.4  c0,0.1,0.1,0.2,0.1,0.4c0,0.6,0.3,0.6,0.7,0.7c2.1,0.1,4.2-0.2,6.3-0.5c0.3,0,0.6-0.3,0.7,0.1c0.1,0.4-0.4,0.4-0.6,0.4  c-1.7,0.4-3.3,0.7-5,0.7c-2.1,0-2.1,0-1.9,2.1c0,0.2,0,0.3,0.1,0.5c0.1,0.2,0.2,0.3,0.4,0.3c1.1-0.2,2.2,0,3.3-0.2  C65,82.4,66.7,82.3,68.3,82.2z M54.5,83.1c0.6,0,1.2,0,1.8,0c0.5,0,0.7-0.2,0.6-0.7c-0.1-1.7-0.1-3.3-0.2-5c0-0.5-0.1-0.5-0.7-0.5  c-2.4,0.2-4.9,0.2-7.3-0.2c-1.2-0.2-1.2-0.2-1.2,0.9c0,1.4,0.6,2,2,2c1,0,1.9-0.1,2.9-0.3c0.8-0.1,1.7,0,2.5-0.2  c0.2-0.1,0.6,0,0.6,0.4c0,0.2-0.2,0.4-0.4,0.4c-1.9,0-3.7,0.5-5.6,0.4c-1.8-0.1-1.8-0.1-1.6,1.7c0,0.5,0.2,0.6,0.7,0.7  C50.5,83,52.5,83,54.5,83.1z M58.4,11.2c-1.5,0.5-3,0-4.5,0.4c-1.1,0.3-1.7,0.9-2.2,1.6c-0.2,0.3-0.2,0.6,0.2,0.6  c0.5,0.1,1,0.4,1.5,0.2c1.3-0.5,2.7-0.2,4-0.1c2,0.1,4.1,0.2,6.1,0.9c1.9,0.6,3.9,0.9,5.6,2.1c0.6,0.4,0.7-0.1,1-0.4  c1.3-0.8,0.7-1.3-0.1-2.1c-1.1-1.2-2.6-1.5-4.1-2c-0.4-0.1-0.8,0.2-1.1,0.6c-0.4,0.5-0.6,1.1-1.1,1.5c-0.1-0.9,0.2-1.5,0.7-2  c0.4-0.5,0.2-0.7-0.2-0.9c-1-0.4-2.1-0.5-3.2-0.6c-1.4-0.2-1.9,0.7-2.2,1.6c-0.1,0.3-0.1,0.7-0.5,1C57.5,12.8,58.2,12.1,58.4,11.2z   M41.7,88.6c1.6,0.1,2.7-0.4,3.9-0.4c0.4,0,0.6-0.3,0.5-0.7c-0.2-1.4-0.4-2.9-0.6-4.3c0-0.2-0.1-0.3-0.3-0.3c-0.9,0-1.8-0.3-2.8-0.1  c-0.9,0.2-1.8,0.2-2.8,0.2c-1.2,0-2.5-0.1-3.7-0.1c-0.4,0-0.7,0.1-0.7,0.6c0.1,0.5-0.3,1.3,0.5,1.4c2.4,0.4,4.8,1.1,7.3,0.6  c0.7-0.1,1.4,0.2,2,0.4c0.2,0,0.4,0.3,0.4,0.5c0,0.2-0.2,0.2-0.4,0.2c-1-0.1-1.9-0.3-2.9,0.1c0,0-0.2-0.1-0.2-0.1  c-0.2-0.5-0.7-0.4-1.1-0.4c-1.3,0.1-2.6-0.1-3.9-0.3c-0.5-0.1-1.1-0.3-1.5-0.1c-0.5,0.3,0.2,0.9,0.1,1.3c0,0.1,0,0.1,0,0.2  c0,0.5,0.2,0.7,0.7,0.8C38.3,88.6,40.2,88.3,41.7,88.6z M60.9,21c1.2-1,2.6-1.6,3.8-2.5c0.3-0.2,0.7-0.6,1-0.2  c0.3,0.3,0,0.7-0.2,1.1c-0.9,1.1-1.6,2.2-1.9,3.6c-0.1,0.2-0.4,0.5,0,0.7c0.3,0.2,0.5-0.2,0.7-0.3c0.7-0.6,1.4-1.3,2.3-1.7  c0.6-0.3,0.9-0.7,0.5-1.3c-0.2-0.3-0.2-0.6-0.2-1c0-0.2-0.2-0.6,0.2-0.5c0.2,0,0.5,0.2,0.4,0.6c-0.2,0.5,0.1,0.8,0.2,1.2  c0,0.1,0.2,0.3,0.4,0.2c0.1-0.1,0.3-0.3,0.2-0.3c-0.2-0.6-0.1-1.4-0.8-1.8c-0.8-0.5-1.6-1-2.4-1.5c-0.4-0.3-0.8-0.5-1.1,0.1  c-0.1,0.2-0.3,0.3-0.5,0.1c-0.2-0.1-0.1-0.3,0-0.5c0.1-0.2,0.2-0.4,0.3-0.5c0.2-0.3,0.1-0.6-0.3-0.6c-0.8,0-1.4-0.4-2.2-0.5  c-0.3,0-0.6-0.1-0.8,0.1c-0.2,0.3,0.2,0.4,0.4,0.6c0.1,0.2,0.3,0.3,0.4,0.5c-0.4,0.2-0.6-0.1-0.9-0.2c-0.2-0.1-0.3-0.2-0.4,0.1  c-0.5,0.8-0.8,0.6-1.2-0.2c-0.2-0.5-0.5-1-1.2-0.6c-0.6,0.3-0.5,0.9-0.5,1.4c0,0.6,0.4,0.8,1.1,0.5c-0.5,0.7-0.9,0.8-1.5,0.2  c-0.3-0.3-0.4-1.1-1.1-0.9c-0.8,0.1-1.6,0.2-2.1,1c0.8,0.7,1.5,1.4,2.2,2.1c1.4,1.5,1.4,1.5,2.6-0.3c0.7-1,1.6-1.8,2.9-2.1  c0.4-0.1,0.8-0.1,1,0.3c0.2,0.4,0.1,0.7-0.1,1c-0.2,0.2-0.4,0.3-0.6,0c-0.4-1.1-1-0.4-1.3,0c-0.6,0.8-1,1.7-1.3,2.7  c1.5,0.1,1.5-1.6,2.7-2C61.6,20,61,20.3,60.9,21z M32.1,87.7c0.2,0,0.5,0,0.7,0c0.2,0,0.5-0.1,0.5,0.2c0,0.3-0.2,0.3-0.4,0.4  c-0.2,0.1-0.5,0.1-0.7,0.1c-1,0-2-0.1-2.9-0.4c-0.4-0.1-1.1-0.3-1.2,0c-0.2,0.5-0.1,1.1,0.3,1.6c0.1,0.2,0.3,0.2,0.5,0.2  c1.5,0,3,0,4.4,0.2c0.6,0.1,0.7,0,0.7-0.6c-0.2-2.3-0.5-4.5-0.9-6.7c-0.1-0.3-0.2-0.5-0.5-0.5c-1.7,0-3.4,0-5.1-0.2  c-0.2,0-0.4,0-0.5,0.2C26.6,82.9,27.3,84,28,84c1.5-0.1,2.9,0.6,4.4,0.6c0.2,0,0.4,0.1,0.4,0.4c0,0.3-0.2,0.4-0.5,0.4  c-0.8,0-1.5,0-2.3-0.2c-0.7-0.2-1.5-0.2-2.3-0.3c-0.1,0-0.3,0-0.4,0.1c-0.2,0.2,0.3,1.9,0.7,2C29.4,87.1,30.6,87.8,32.1,87.7z   M70.8,28.5c-1.5,0.3-2.6,0.9-3.7,1.4c-0.8,0.4-1.3,1-1.5,1.8c-0.1,0.4-0.8,0.9-0.4,1.3c0.4,0.4,0.9-0.1,1.5-0.2  c-0.3,0.6-0.8,0.8-1.3,1c-0.2,0.1-0.4,0.3-0.3,0.4c0.4,0.3,0.8,1.2,1.2,0.9c0.9-0.5,2.2,0.3,2.7-1.1c0.1-0.2,0.3-0.2,0.5-0.1  c0.4,0.3,0.4,0,0.6-0.3c0.3-0.4,0.5-0.8,0.8-1.1c1.1-1.3,2.5-2.3,3.7-3.6c-1.6,0.3-3.3,0.5-4.6,1.8c-0.2,0.2-0.4,0.6-0.8,0.4  c-0.5-0.3-0.1-0.7,0.1-0.9C69.6,29.7,70.2,29.2,70.8,28.5z M79.2,8.3C79.1,8.2,79,8.1,79,8.1c-0.9,0.7-1.8,1.5-2.6,2.2  c-1,0.9-2,1.8-3,2.8c-0.2,0.2-0.4,0.3-0.7,0.1c-0.2-0.2-0.3-0.4-0.1-0.7c0.1-0.2,0.2-0.4,0.3-0.7c0.2-1.2,0.7-2.2,1.6-3.1  c0.8-0.8,1.8-1.4,2.8-2.3c-0.3,0-0.4,0-0.6,0c-2.3,0.2-4.8,2.4-5.1,4.9c0,0.3-0.1,0.5-0.4,0.4c-0.4,0-0.3-0.3-0.3-0.5  c0-0.4,0.2-0.7,0.4-1c0.1-0.3,0.5-0.4,0.3-0.8c-0.1,0-0.1,0-0.2,0c-1,0.9-1.6,2.1-2.4,3.1c-0.2,0.3,0.1,0.4,0.3,0.5  c1.2,1.1,2.5,2,3.8,2.9c0.3,0.2,0.5,0.3,0.6-0.1c0.1-0.2,0.3-0.4,0.2-0.7c-0.3-0.1-0.6,0.2-0.8-0.2c-0.1-0.1-0.1-0.3,0.1-0.4  c0.8-0.3,1-1.1,1.6-1.6c0.8-0.5,1.7-1.1,2-2.2c0-0.2,0.2-0.3,0.4-0.3C78.2,10.1,78.6,9.1,79.2,8.3z M59.1,36.1  c0.9-0.3,1.4-1.1,2.2-1.6c0.9-0.6,1-0.6,1.5,0.4c0.2,0.4,0.4,0.7,0.8,0.5c0.5-0.3,1.2-0.7,1.1-1.3c-0.1-0.4-0.2-0.9-0.3-1.4  c-0.2,0.2-0.5,0.4-0.7,0.6c-0.1,0.1-0.2,0.2-0.4,0c-0.3-0.3-0.2-2.6,0-3c0.6-1.1,1.6-1.7,2.5-2.5c-0.5-0.7-1-0.7-1.6-0.2  c-0.9,0.6-1.7,1.3-2.5,2.1c-0.4,0.4,0.4,0.5,0,0.7c-0.7,0.4-1.3,0.9-2.2,0.6c-0.3-0.1-0.6-0.1-1-0.1c-0.1,0.9-0.1,0.9,0.2,1.3  c0.5,0.7,0.4,1-0.5,1.2c-0.4,0.1-0.8,0.3-1.1,0.6c0.6,0.5,1.3-0.4,1.7,0.2C59.4,34.7,59.1,35.4,59.1,36.1z M63,73.4  c-0.3,0-0.7,0-1,0.1c-0.3,0-0.7,0-1,0.1c-1.6,0-1.6,0-1.7,1.6c0,0.1,0,0.3-0.1,0.4c-0.2,0.5,0,0.6,0.5,0.6c0.7-0.1,1.4-0.1,2.1-0.1  c1.7-0.1,3.5,0.2,5.2-0.2c0.7-0.2,1.5-0.2,2.1-0.4c1-0.4-0.1-1.3,0.2-1.9c0.2-0.6-0.1-0.6-0.6-0.5C66.7,73,64.9,73.3,63,73.4z   M43.3,75.6c0.4,0,0.8,0,1.2,0c0.2,0,0.4-0.1,0.4-0.4c-0.1-0.6-0.1-1.2-0.3-1.8c-0.2-0.4-0.7-0.2-1-0.2c-1.3-0.2-2.6-0.5-3.9-0.6  c-1.5-0.1-3-0.3-4.5-0.5c-0.6-0.1-0.8,0-0.8,0.7c0,0.8,0,1.3,1.1,1.6C38.1,75.2,40.7,75.3,43.3,75.6z M72.2,77.3  c0.1,1.7,0.1,1.7,1.2,1.6c2.2-0.2,4.3-0.5,6.5-0.8c0.3,0,0.2-0.2,0.2-0.3c0-0.8,0.1-1.6,0.1-2.4c0-0.5-0.1-0.7-0.8-0.6  c-2,0.4-4,1-6.1,0.9c-0.8,0-1.1,0.3-1,1C72.2,76.9,72.2,77.1,72.2,77.3z M52.8,21.6c0.6,0.6,1.1,1.1,1.7,1.5  c0.5,0.3,0.9,0.6,1.1-0.2c0.1-0.2,0.2-0.3,0.4-0.2c0.5,0.2-0.1,0.2-0.1,0.4c0,0.3-0.1,0.6,0.3,0.8c0.7,0.3,1,0.9,1.3,1.5  c0.3,0.5,0.5,0.4,0.8,0.1c0.5-0.6,1-1.1,1.3-1.7c0.3-0.6,0.3-1.4,0.1-1.8c-0.2-0.4-0.6,0.5-1.1,0.4c-0.1,0-0.2,0.2-0.3,0.1  c-0.1-0.3,0.1-0.4,0.2-0.5c0.1-0.2,0.2-0.4,0-0.6c-0.2,0-0.2,0.1-0.3,0.2c-0.2,0.3-0.4,0.8-0.8,1c-0.7,0.2-0.5-0.5-0.7-0.8  c-1.4-1.4-3.1-1.8-5.1-1.6c0.4,0.4,0.9,0.3,1.3,0.3c0.3,0,0.7,0.1,0.7,0.4c0.1,0.4-0.4,0.5-0.6,0.5c-1.1-0.2-2.3,0-3-0.9  c-0.4-0.5-1-0.6-1.6-0.8c-0.5-0.2-0.7,0.4-1,0.6c-0.3,0.3,0.2,0.4,0.4,0.6c0.7,0.5,1.5,0.8,2.3,0.9c0.9,0.1,1.7,0.4,2.3,1.1  c0.2,0.2,0.4,0.3,0.7,0.4C53.2,22.5,52.5,22.3,52.8,21.6z M60.4,2.7C59.1,4,58,5.4,57.4,7.1c-0.2,0.5-0.1,1.3-0.6,1.3  c-0.6,0-1.1-0.6-1.6-1.1c-0.3-0.4-0.5-0.8-0.8-1.1c-0.2-0.3-0.4-0.6-0.9-0.8C53.6,6,53.6,6.6,54.1,7c0.4,0.3,0.4,0.8,0.5,1.2  C54.8,8.8,54.4,9,54,8.7c-1.1-0.8-0.7,0.2-0.7,0.6c0,0.2,0.1,0.5,0,0.6c-0.6,1,0.3,0.7,0.6,0.7c0.5,0,1-0.4,1.5-0.3  c1.1,0.2,2.1,0.1,3.2,0.1c1.2,0,1.5-0.3,1.3-1.4c-0.2-1.4-0.2-2.7,0-4.1C60,4.3,60.4,3.6,60.4,2.7z M47,90c0.2,1.7,0.5,3.4,0.5,5.1  c0,0.4,0.1,0.9,0.6,0.8c0.4-0.1,0.3-0.6,0.2-0.9c-0.6-2.9-0.3-5.8-0.8-8.7c-0.2-1.2-0.3-2.6-0.2-3.9c0.1-1.3-0.3-2.5-0.3-3.7  c0-1.6-0.4-3.2-0.3-4.8c0-0.4-0.1-0.5-0.4-0.5c-0.3,0-0.7-0.2-0.7,0.4c0,1.6-0.1,3.2,0.1,4.8C46.1,82.3,46.8,86.1,47,90z M75.7,24  c-2.6-3.6-6-6.2-10.2-7.7c0.7,0.8,1.4,1.7,2.4,1.9c0.7,0.2,1.4,0.1,1.1,1.1c0,0,0.1,0.1,0.2,0.2c0.5,0.2,0.4,0.5,0.2,0.9  c-0.2,0.3-0.3,0.7,0.4,0.5c0.2-0.1,0.5-0.2,0.6,0.2c0.1,0.3-0.1,0.4-0.3,0.6c-0.6,0.6-1,0-1.5-0.2c-0.1,0.6-0.3,1.2-0.6,1.7  c-0.3,0.4-0.1,0.7,0.1,0.9c0.2,0.2,0.5-0.1,0.7-0.2c0.9-0.7,1.9-1.2,2.9-1.7c0.2-0.1,0.5-0.3,0.7-0.1c0.3,0.3,0,0.5-0.1,0.7  c-0.2,0.3-0.3,0.7-0.4,1c-0.2,0.5,0.4,0.6,0.4,1.1c0.2-0.1,0.4-0.2,0.6-0.3c0.5-0.2,0.9-0.5,1.4-0.7C74.6,23.5,75.2,23.4,75.7,24z   M64.5,19.5c-1.8,0.7-2.8,1.9-4,3c-0.1,0.1-0.2,0.2-0.2,0.5c0,0.5,0.9,0.1,0.6,0.7c-0.2,0.6-0.8-0.2-0.9,0.4c0,0,0,0-0.1,0.1  c-0.6,0.8-1.2,1.5-1.7,2.3c-0.2,0.4-0.8,1-0.3,1.5c0.8,0.7,1.5,1.5,2.4,2.1c0.2,0.2,0.3,0.1,0.5-0.1c0.6-0.9,1.4-1.6,2.3-2.3  c0.2-0.2,0.5-0.4,0.3-0.7c-0.3-0.3-0.6-0.3-0.9,0c-0.2,0.3-0.5,0.5-0.8,0.8c-0.3,0.3-0.6,0.6-1,0.4c-0.3-0.2-0.1-0.7,0.1-1  c0.2-0.3,0.3-0.5,0.2-0.9c-0.2,0.2-0.4,0.3-0.6,0.5c-0.2,0.2-0.4,0.4-0.6,0.1c-0.1-0.2,0-0.5,0.3-0.6c0.7-0.3,1.3-0.9,1.7-1.4  c0.6-0.8,1.6-1.7,0.8-3c-0.2-0.3,0.1-0.3,0.1-0.3C64,21.4,63.8,20.3,64.5,19.5z M72.3,73.5C72.3,73.5,72.4,73.5,72.3,73.5  c0,0.3,0.1,0.7,0,1c-0.1,0.3,0,0.5,0.3,0.5c0.6-0.1,1.2,0.1,1.8,0c1.3-0.3,2.7-0.6,4-0.9c1.4-0.3,1.4-0.3,1.3-1.8  c0-0.2,0-0.4,0.1-0.5c0.1-0.6-0.2-0.9-0.8-0.8c-2.1,0.4-4.2,0.7-6.3,1.1c-0.3,0.1-0.6,0.1-0.4,0.6C72.4,72.9,72.3,73.2,72.3,73.5z   M47.3,73.6c0.1,0.6,0.1,1.2,0.1,1.8c0,0.3,0.1,0.5,0.5,0.5c2.7,0.4,5.5,0.5,8.2,0.4c0.3,0,0.8-0.1,0.6-0.4c-0.3-0.6,0.1-1.4-0.4-2  c0,0-0.1,0-0.2,0c-1-0.1-2.1-0.2-3.1-0.2C51.2,73.8,49.2,73.8,47.3,73.6z M85.2,81.8c0.6-2.4,0.3-4.7,0.4-7c0.1-1.5,0-1.5-1.4-1  c-0.2,0.1-0.3,0.1-0.5,0.2c-1.6,0.5-1.8,0.7-1.5,2.4c0,0.2,0.1,0.4,0.1,0.5c0,0.5,0.2,0.6,0.7,0.6c0.5,0,1,0,1.6,0  c0.2,0,0.5,0,0.5,0.3c0,0.3-0.3,0.3-0.5,0.4c-0.6,0.2-1.2,0-1.8,0.3c-0.2,0.1-0.5,0.1-0.4,0.5c0.2,0.7,0.1,1.3,0.2,2  c0.1,0.5,0.3,0.8,0.9,0.7C84,81.4,84.7,81.1,85.2,81.8z M79.2,45.1c1.5,0.1,2.9,0.4,4.4,0.5c0.8,0,1.6,0.4,2.3,1.1  c0.8,0.7,1.2,1.8,1.9,2.5c1.8,2,1.7,4.2,0.8,6.3c-0.7,1.6-1.5,3.3-3.4,3.9c-0.2,0.1-0.8,0.2-0.6,0.7c0.2,0.3,0.5-0.1,0.7,0  c0.3,0.1,0.6-0.1,0.9-0.3c2.7-1.8,3.9-4.3,4-7.4c0-1.6-0.7-2.9-1.7-4c-1.5-1.8-2.9-3.7-5.6-3.5c-0.1,0-0.2-0.1-0.3-0.1  C81.4,44.8,80.2,44.5,79.2,45.1z M72.9,50.9c0.2-1.2,0.6-2.2,1.2-3c0.2-0.3,0.5-0.6,0.3-0.8c-0.6-0.7-0.1-2.3-1.8-2.2  c-0.4,0-0.7,0-0.9,0.2c-0.2,0.2-0.4,0.4-0.6,0.6c-0.5,0.4-0.8,0.3-0.9-0.3c-0.1-0.7-0.5-1.2-0.9-1.7c-0.5-0.5-0.9-0.4-1.1,0.3  c-0.1,0.3,0,0.7-0.5,0.6c-0.4-0.1-0.6,0.2-0.7,0.5c-0.1,0.4,0.2,0.5,0.5,0.7c0.2,0.1,0.5,0.1,0.8,0.2c1.1,0.4,2.1,1,2.9,2  C71.7,48.9,72.1,50,72.9,50.9z M34.3,81.1c0.2-1.2-0.1-2.1-0.2-3c-0.1-1.8-0.1-3.7-0.5-5.5c-0.1-0.4-0.1-0.8-0.6-0.7  c-0.5,0.1-0.3,0.5-0.3,0.8c-0.2,2.4,0.4,4.7,0.6,7.1c0.1,1,0.1,2.1,0.4,3.1c0.2,1,0.4,2,0.5,3c0.1,1,0.4,2,0.3,3  c-0.1,1,1.3,1.5,0.5,2.5c0,0.1,0,0.2,0,0.3c0,1.2,0.4,2.4,0.6,3.6c0,0.2-0.3,0.4,0,0.5c0.2,0,0.4,0.1,0.5,0c0.2-0.1,0-0.3,0-0.5  c-0.4-3.2-0.8-6.4-1.4-9.5c-0.2-1,0.2-2.3-0.8-3.1c0,0,0-0.2,0-0.2C34.8,82,34.2,81.4,34.3,81.1z M70.9,23.3c-1.2,0.4-2,1.2-2.8,1.9  c-0.4,0.3-0.5,0.7-0.4,1.2c0.1,0.6-0.1,1.1-0.7,1.4c-0.4,0.2-0.8,0.5-1.2,0.8c-0.8,0.3-1.6,1.9-1.6,2.8c1.3-1.2,2.8-2,4.3-2.7  c0.9-0.4,1.7-1,2.7-0.9c1.1,0.1,1.4-0.8,2-1.4c0.1-0.1,0-0.5-0.1-0.4c-0.6,0.5-1.3,0-2,0.2c-0.6,0.2-1.3,0.4-1.9,0.7  C70.4,26.1,70.6,24.8,70.9,23.3z M85.7,53.9c-0.6,0.5-1.2,0-1.8,0c-0.3,0-0.7,0.1-0.7-0.3c0-0.5,0.4-0.5,0.8-0.5  c0.4,0,0.6,0.3,1.1,0.1c1-0.4,1.5-1.9,0.9-2.7c-0.4-0.5-0.7-0.7-1.1,0c-0.3,0.5-0.7,1-1.3,1.2c-0.2,0.1-0.4,0.2-0.4,0.4  c0,0.6-0.2,0.8-0.7,0.4c-0.2-0.2-0.4-0.3-0.5,0c0,0.1-0.3,0.6,0.3,0.6c0.7,0,0.4,0.4,0.2,0.7c-0.4,0.4-0.9,0.4-1.4,0.2  c-0.5-0.2,0-0.6,0-0.9c0-0.2,0.1-0.5,0.1-0.7c0-0.3-0.2-0.6-0.5-0.7c-0.4-0.2-0.7,0-1,0.3c-0.2,0.2-0.5,0.4-0.2,0.8  c0.3,0.4,0.2,0.8-0.2,1.2c0.4,0.2,0.7,0.4,1,0.4c0.8,0.1,1.3,0.5,1.8,1c0.4,0.5,0.7,0.8,1.5,0.6C84.6,55.9,85.7,55,85.7,53.9z   M80.2,93.3c-0.7-0.2-1.3-0.2-1.9-0.1c-1.3,0.2-2.6,0.5-3.9,0.6c-0.3,0-0.7,0.1-0.8-0.3c-0.1-0.5,0.4-0.4,0.7-0.4  c1.8-0.4,3.6-0.8,5.4-0.8c0.9,0,0.6-0.7,0.7-1.1c0-0.7-0.4-0.4-0.8-0.4c-1.7,0.1-3.3,0.6-4.9,0.6c-1.7,0-1.7,0.1-1.6,1.8  c0,0.4,0.2,0.7,0.1,1.1c-0.2,0.5,0,0.7,0.5,0.6c0.3,0,0.5-0.1,0.8-0.1c1.4-0.1,2.7-0.8,4.2-0.8C79.1,94.2,79.7,94,80.2,93.3z   M53.9,86c0.9,0.1,1.6-0.3,2.3-0.4c0.4,0,1,0.1,0.9-0.6c-0.1-0.6,0.1-1.4-1-1.2c-2.1,0.4-4.1-0.1-6.2-0.2c-1.8-0.1-1.8-0.2-1.6,1.5  c0,0.4,0.2,0.5,0.6,0.6C50.6,86,52.4,85.6,53.9,86z M76.3,47.7c0.4-0.4,1,0.5,1.4-0.2c0.6-1,1.3-1.3,2.3-0.9  c0.6,0.2,1.3,0.3,1.9,0.4c0.9,0.1,1.8,0.2,2.5,1c0.6,0.7,1.2,1.5,2.1,2c0.2,0.1,0.3,0.4,0.3,0.6c0,1,0.1,1.9-0.1,2.9  c-0.1,0.7-0.6,1.3-0.4,2c0.2,0.7,0.1,1.2-0.4,1.7c-0.2,0.3-0.4,0.6-0.4,1.1c0.5-0.1,0.8-0.5,1.1-0.8c0.6-0.7,0.8-1.5,1.1-2.4  c0.5-1.4,0.6-2.8,0.1-4.2c-0.3-0.7-1-1-1.3-1.7c-0.6-1.5-1.7-2.4-3.4-2.7c-1-0.1-2-0.1-2.9-0.3C78.6,46,77.4,46.7,76.3,47.7z   M52.7,40.1c-0.5,0.5-0.7,1.2-1.5,1c-0.1,0-0.4-0.3-0.4,0c0,0.2-0.3,0.5-0.1,0.8c0.2,0.3,0.5,0.6,0.7,1c0.4,0.6,0.8,0.7,1.3,0  c0.4-0.5,0.9-1.1,1.5-1c0.5,0.1,0.7-0.1,1-0.4c0.5-0.5,1-1.1,1.9-1.2c0.2,0,0.3-0.1,0.3-0.3c0-0.2-0.2-0.2-0.3-0.3  c-0.2,0-0.5,0-0.7-0.1c-0.8-0.2-0.9-0.5-0.3-1.2c0.4-0.4,0.9-0.4,1.4-0.6c0.2-0.1,0.7-0.3,0.5-0.5c-0.5-0.6-0.2-1.1,0-1.7  c0.1-0.2,0.1-0.4-0.1-0.5c-0.1-0.1-0.3,0-0.4,0c-0.7,0.3-1.3,0.7-1.9,1.3c0.2,0.2,0.7,0.1,0.7,0.5c0,0.4-0.4,0.5-0.7,0.6  c-0.1,0.1-0.3,0.1-0.4,0.1c-0.4,0-0.8-0.1-1,0.5c-0.2,0.5,0.1,0.8,0.4,1.1c0.3,0.4,0.5,1,0.3,1.5c-0.2,0.6-0.5,0-0.8-0.1  c0,0-0.2,0.1-0.2,0.1C53,41.2,52.8,40.8,52.7,40.1z M32.9,79.9c-0.3-0.4,0-1.3-1-1.2c-1.5,0.1-3.1-0.2-4.6-0.5  c-0.5-0.1-0.8-0.2-0.7,0.6c0.1,0.5,0.1,1.1,0.1,1.7c0,0.5,0.2,0.5,0.6,0.6c1.4,0.3,2.8,0.4,4.2,0.3c0.5,0,1,0.4,1.3,0  C33.1,81.1,32.6,80.4,32.9,79.9z M22.9,49.7c0.6-1.5,0.2-3,0.4-4.5c0.1-0.8,0.1-1.7-0.4-2.4c-0.6-0.7-1.1-1.5-1.6-2.3  c-0.2,0.3-0.4,0.6-0.3,0.9c0.1,1.1-0.2,2.3-0.3,3.4c-0.1,1.5,0.4,2.6,1,3.9C21.9,49.2,22.3,49.5,22.9,49.7z M81.2,91.3  c-0.1,1.7-0.1,1.7,1.2,1.2c0.1-0.1,0.3-0.1,0.4-0.2c0.6-0.5,1.5-0.9,1.3-1.7c-0.1-0.4-0.1-0.8,0-1.2c0.4-1.3,0.4-2.6,0.6-3.9  c0.1-0.7-0.1-0.8-0.8-0.7c-1.3,0.2-1.3,0.2-1.3,1.5c0,0.2-0.1,0.3,0,0.5c0.4,0.8,0.5,1.5,0.1,2.3c-0.3,0.5-0.1,1.3,0,1.9  c0.1,0.4,0,0.8-0.4,0.9c-0.5,0-0.6-0.4-0.6-0.8c0-0.6,0-1.3,0-1.9c0-0.4-0.3-0.6-0.6-0.6c-0.3,0-0.2,0.4-0.2,0.6  C81.1,89.9,81.5,90.6,81.2,91.3z M44,14c-1.5,0.1-2.9,0.8-4.2,1.3c-1,0.4-1.8,1-2.5,1.8c-0.5,0.5-0.8,1.2-0.6,2  c0.2-0.1,0.4-0.1,0.6-0.3c1.2-1.1,2.8-1.4,4.2-2C42.5,16.2,44.1,15.9,44,14z M77,70.2c0.4,0,0.7,0,1,0c2.3-0.3,4.4-1.3,6.6-2.1  c1.2-0.5,0.9-1.5,1.2-2.3c0.1-0.3-0.1-0.5-0.6-0.3c-0.6,0.4-1.4,0.7-1.9,1.1c-1.5,1.2-3.5,1.6-5,2.8C77.9,69.7,77.3,69.6,77,70.2z   M80.4,35.7c0.5-1.1,1.2-1.8,1.8-2.5c0.2-0.2,0-0.4,0-0.6c-0.2-1.3-1.2-2.4-1.3-3.8c0-0.2-0.3-0.4-0.4-0.7c-0.1-0.2-0.3-0.3-0.4-0.2  c-0.5,0.5-1.3,0.9-1,1.7C79.7,31.5,79.9,33.5,80.4,35.7z M85.1,72.6c0.8,0.3,0.9-0.3,0.8-0.7c-0.1-0.6,0-1.2-0.2-1.7  c-0.1-0.5,0.2-1-0.2-1.3c-0.5-0.3-0.8,0.4-1.3,0.5c-0.1,0-0.2,0-0.3,0.1c-2.1,0.7-2.1,0.7-2.1,2.9c0,0.9,0.4,1,1.1,0.8  C83.7,73,84.4,72.7,85.1,72.6z M83,37.7c0.2-1.1-0.1-2.2-0.4-3.2c0-0.2,0-0.5-0.3-0.5c-0.4,0-1.8,1.8-1.7,2.1  c0.3,1.1,0.4,2.3,0.3,3.4c0,0.5,0.1,1,0.2,1.5c0.1,0.4,0.3,0.4,0.5,0.1C82.2,40.1,83.4,39.2,83,37.7z M70,17.4  c1.4,1.3,3,2.1,4.1,3.5c0.2,0.2,0.4,0.5,0.7,0.5c0.6-0.1,1.1-1.6,0.6-2.1c-0.8-0.8-1.7-1.5-2.4-2.3c-0.3-0.3-0.7-1.2-1.5-0.7  C71,16.6,70.5,17,70,17.4z M65.5,6.8c-0.8,1.1-1.5,2-2.2,2.9c-0.1,0.1-0.2,0.3-0.4,0.2c-0.1-0.1-0.2-0.2-0.2-0.3  c0.4-0.7,0.7-1.4,1.2-1.9c0.2-0.2,0.6-0.4,0.8-0.7c0.2-0.2,0.4-0.6,0.6-0.6c1.2-0.3,1-1.3,1.5-2.2c-2,1-5,4-5.7,5.7  c-0.2,0.4-0.1,0.7,0.4,0.7c0.8-0.1,1.5,0.1,2.3,0.4c0.4,0.1,0.7,0.1,0.7-0.5c0-0.7,0.3-1.4,0.6-2.1C65.4,7.9,65.5,7.4,65.5,6.8z   M35.9,17.5c-0.2,0.1-0.4,0.2-0.6,0.3c-1.5,0.7-2.4,2-3.6,3c-0.8,0.7-0.7,1.8-0.9,2.7c0,0.1,0.1,0.3,0.2,0.4c0.1,0.1,0.2,0,0.3-0.1  c0.9-0.9,1.8-1.8,2.7-2.7c1.1-0.9,2.2-1.8,2-3.5C35.9,17.6,35.9,17.6,35.9,17.5z M22.8,34.3c-0.5,0.9-0.4,1.8-0.8,2.6  c-0.6,1.3-0.2,2.5,0.1,3.8c0.1,0.4,0.3,0.7,0.6,1c0.2,0.2,0.3,0.3,0.6,0.2c0.2-0.1,0.2-0.3,0.2-0.5c0-1,0.3-2,0.5-3  c0.1-0.6,0.4-1.6,0.1-1.8C23.4,36,23.2,35.2,22.8,34.3z M51.2,12.2c-1.4,0.1-2.6,0.6-3.9,0.7c-1.1,0.1-1.8,0.5-2.4,1.3  c-0.2,0.3-0.7,0.5-0.4,0.9c0.3,0.4,0.7,0.2,1.1,0.2c1.6-0.4,3.1-0.8,4.7-1.2c0.2-0.1,0.4-0.2,0.4-0.3C50.7,13.2,51.1,12.8,51.2,12.2  z M70.1,78.1c-0.1,1.2,0.1,2.3,0.3,3.4c0,0.3,0.1,0.5,0.4,0.5c0.3,0,0.5-0.2,0.5-0.4c0-0.7,0.4-1.5-0.3-2.1  c-0.2-0.2-0.2-0.4,0.1-0.6c0.2-0.1,0.4-0.3,0.4-0.6c0-1.7,0-3.5-0.1-5.2c0-0.4-0.2-0.5-0.5-0.5c-0.3,0-0.5,0.2-0.5,0.5  c0,0.5,0,1,0,1.6c-0.1,0.4-0.2,0.7,0.2,0.9c0.3,0.1,0.2,0.4-0.1,0.5c-0.5,0.1-0.4,0.5-0.4,0.8C70.1,77.3,70.1,77.7,70.1,78.1z   M34.4,92.1c-0.1-1.3-0.3-1.5-1.6-1.5c-1.3-0.1-2.5,0.2-3.8-0.1c-0.4-0.1-0.4,0.2-0.3,0.4c0.2,0.5,0.5,1,0.7,1.5  c0.1,0.2,0.3,0.4,0.6,0.3c1.2-0.3,2.5-0.3,3.8-0.1C34.1,92.7,34.7,92.8,34.4,92.1z M25.6,27.8c-0.6,1.3-1.4,2.4-1.7,3.7  c-0.3,1.1-0.4,2.3,0.1,3.5c0.1,0.2,0.1,0.4,0.4,0.4c0.3,0,0.2-0.3,0.2-0.4c0.5-1.3,0.7-2.6,1.4-3.8C26.5,30.1,26.5,29,25.6,27.8z   M65.3,70.6c-1.6-0.1-3.1,0-4.5,0.4c-1.2,0.3-2.3,1.2-3.4,1.9C60.2,72.8,63.1,73.2,65.3,70.6z M76.4,20.8c-0.3,0.3-0.3,0.7-0.7,0.9  c-0.3,0.1-0.3,0.5-0.1,0.8c1.3,1.6,2.3,3.4,2.7,5.4c0,0.2,0.1,0.3,0.2,0.3c0.1,0,0.3-0.1,0.3-0.3c0.2-0.2,0.2-0.4,0.4-0.6  c0.6-0.5,0.5-0.9,0-1.4c-0.7-1-1.7-1.8-1.9-3.1c-0.1-0.5-0.6-1-0.8-1.6C76.8,21.1,76.6,21,76.4,20.8z M27,28.9  c0.9-1.5,1.7-2.8,2.9-3.8c0.1-0.1,0.2-0.4,0.2-0.6c0-0.7,0-1.4,0-2.1C27.8,24.2,25.9,26.8,27,28.9z M67.5,10.3  C68,9.5,69.1,9.1,69.3,8c0-0.2,0.2-0.6,0.7-0.4c0.4,0.2,0.6-0.4,0.8-0.7c0.1-0.2,0.2-0.4,0-0.5c-0.3-0.2-0.6,0-0.8,0.1  c-1.8,0.7-3.2,1.9-4,3.6c-0.6,1.3-0.6,1.3,0.7,1.8c1.1,0.5,1.2,0.5,1.1-0.8c-0.2,0.2-0.3,0.4-0.5,0.5c-0.2,0.1-0.4,0.1-0.4-0.2  c0-1.1,0.3-2,0.9-2.9c0.1-0.2,0.3-0.3,0.5-0.1C68.1,9,67.3,9.4,67.5,10.3z M33.4,68.9c-0.9,0.6-2,1-3,1.6c-0.5,0.3,0.1,0.4,0.3,0.5  c0.6,0.1,1.2,0.2,1.9,0.2c0.5,0,1.1,0.3,1.6,0c0.6-0.4,1.2-0.8,1.8-1.1c0.4-0.2,0.4-0.4-0.1-0.6C35.1,69.2,34.4,69.1,33.4,68.9z   M60.9,45.9c-0.1,0.4,0,0.7,0.1,1c0.2,0.4,0.3,0.5,0.7,0.2c1-0.7,2.1-1.3,3.3-1.5c0.5-0.1,0.5-0.4,0.3-0.8c-0.3-0.4-0.6-0.9-1.2-0.9  c-0.5,0-1.8,1.4-1.8,1.8c0,0.2,0.3,0.5-0.1,0.6c-0.1,0-0.4,0-0.4-0.1c-0.2-0.2-0.2-0.5,0-0.8c0.3-0.5,0.4-1.1,0.9-1.5  c0.2-0.1,0.5-0.3,0.1-0.6c-0.3-0.2-0.4,0.1-0.5,0.3c-0.1,0.2-0.3,0.5-0.6,0.5c-0.8,0.1-1,0.5-0.7,1.2C60.9,45.7,60.9,45.8,60.9,45.9  z M24.9,55.5c-1-0.3-1.3,1.2-2.2,1.2c0,0-0.1,0.2,0,0.3c0.1,0.7,0.4,1.3,1.1,1.5c0.5,0.2,1,0.3,1.4-0.4c0.1-0.2,0.3-0.3,0.5-0.3  c0.6-0.3,0.7-0.8,0.6-1.3C26.1,55.9,25.7,55.5,24.9,55.5z M73.2,67.8c-0.4-0.3-0.8-0.5-1.2-0.7c-1.6-1.2-2.6-2.9-3-4.8  c-0.1-0.3-0.1-0.6-0.4-0.6c-0.3,0-0.6,0.5-0.5,0.8c0.3,1,0.2,2-0.2,3c0.9-0.4,1-0.3,0.9,0c-0.2,0.7,0.3,0.4,0.5,0.3  c0.3-0.1,0.6-0.3,0.6,0.1c0,0.5,0.5,1.1-0.5,1.6c0.5-0.1,0.8-0.1,1.1-0.2c0.4-0.1,1-0.6,0.9,0.5c0,0.2,0.4,0.4,0.7,0.2  C72.5,67.8,72.8,67.9,73.2,67.8z M26.6,70.1c0.8-0.3,1.6-0.2,2.2,0.2c0.4,0.3,0.8,0.2,1-0.2c0.4-0.5,1.1-0.5,1.4-1.1  c0.1-0.1,0.6,0.1,0.4-0.3c-0.1-0.3-0.4-0.2-0.6-0.2c-1-0.1-2-0.2-3-0.6c-0.5-0.2-0.8-0.2-0.9,0.3C26.9,68.7,26.8,69.3,26.6,70.1z   M67.1,67.7c-0.7,0.4-1.6,0.6-2,1.2c-0.4,0.7-0.8,0.5-1.3,0.6c-0.9,0.1-1.9,0.3-2.8,0.4c3.5-0.1,7,0.1,10.4-1.1  c-1-0.5-1.8-0.4-2.6-0.1C67.7,69.1,67.2,68.8,67.1,67.7z M80.8,85c0.1,0.9,0.2,1.7,0.3,2.5c0.1,0.6,0.4,0.3,0.5,0.2  c0.3-0.2,0.2-0.5,0.2-0.8c0-2.5-0.1-5-0.3-7.5c0-0.4,0.1-0.8-0.5-0.7c-0.7,0.1-0.3,0.5-0.3,0.8C80.8,81.3,80.8,83.1,80.8,85z   M46.8,70.8c-2-0.3-4-0.3-5.9,0.7c-0.1,0.1-0.4,0.1-0.3,0.4c0,0.1,0.2,0.2,0.3,0.2c1.1,0.2,2.3,0.1,3.4,0.5c0.2,0.1,0.5-0.1,0.6-0.3  C45.3,71.6,46.1,71.2,46.8,70.8z M54.3,30.2c1,0.4,2,0.7,3.2,0.7c-0.9-0.8-1.2-1.9-2.4-1.9c-0.2,0-0.5-0.2-0.7-0.3  c-0.1-0.1-0.2-0.1-0.1-0.3c0.1-0.1,0.2-0.2,0.3-0.2c0.2,0,0.4,0.1,0.5,0.1c1.1,0.3,2,0.9,2.9,1.6c0.3,0.2,0.8,0.6,1.1,0.3  c0.3-0.3-0.2-0.5-0.4-0.8c-0.2-0.3-0.3-0.6-0.8-0.3c-0.3,0.2-0.5-0.2-0.7-0.3c-1.2-1.2-3.1-1.1-4.2,0.3c0.6,0.4,1.2,0.2,1.8,0.4  c0.6,0.2,1.3,0.3,1.9,0.9C55.8,30.5,55.2,29.7,54.3,30.2z M16.3,64.6c-0.9-0.2-1.4,0.7-2,1.2c-0.2,0.2-0.2,0.5,0,0.8  c0.3,0.6,0.9,0.9,1.6,0.9c0.5,0,1-0.2,1.1-0.9c0-0.2,0.2-0.4,0.3-0.6c0.1-0.3,0.6-0.5,0.4-0.9C17.3,64.6,16.8,64.5,16.3,64.6z   M27.2,60.9c0.7,0,1.6-0.7,1.6-1.3c0-0.9-0.7-1.7-1.4-1.7c-0.6,0-1.7,0.7-1.7,1.2C25.7,59.8,26.5,60.8,27.2,60.9z M18.7,68.9  c0.3,0,0.5-0.1,0.7-0.1c0.9,0.1,1.2-0.4,1.4-1.1c0.2-0.6,0-1.1-0.4-1.6c-0.2-0.3-0.5-0.7-0.6,0.1c0,0.2-0.2,0.7-0.6,0.3  c-0.8-0.9-1.1-0.1-1.3,0.4C17.4,68,17.8,68.9,18.7,68.9z M13.6,73.4c0-0.9-1-2-1.7-1.8c-0.6,0.2-1.2,1.2-1.1,2.1  c0,0.2,1.2,1.2,1.4,1.2C13,74.9,13.6,74.2,13.6,73.4z M41.3,70.6c-0.6-0.5-1.2-0.2-1.7-0.4c-1.4-0.5-2.7-0.1-3.9,0.7  c-0.2,0.1-0.5,0.1-0.4,0.4c0.1,0.2,0.3,0.2,0.5,0.2c1,0,2-0.1,3,0.3c0.1,0.1,0.4,0,0.4-0.1C39.8,71.2,40.5,70.9,41.3,70.6z   M34.7,94.7c0.1-0.9,0-1.4-1.1-1.4c-0.9-0.1-1.7,0.2-2.5,0.1c-0.2,0-0.5-0.2-0.6,0.2c-0.1,0.2,0.2,0.4,0.3,0.5  c0.9,1,2.1,0.9,3.2,1.3C34.6,95.6,35,95.5,34.7,94.7z M12.6,67.3c-1,0-1.3,0.4-1.1,1.9c0.1,0.5,0.3,0.8,0.8,0.9  c0.5,0.1,0.9,0,1.2-0.4c0.2-0.3,0.4-0.5,0.6-0.8c0.6-0.5,0.3-0.9-0.2-1.2C13.7,67.5,13.2,67.3,12.6,67.3z M51,24.5  c0.2,0.1,0.3,0.1,0.4,0.2c1.4,1.4,3.4,1.6,5,2.7c0.1,0.1,0.3,0,0.4-0.2c0.4-0.7,0.3-1-0.5-1.2c-1.3-0.4-2.7-0.7-3.7-1.6  C52,23.9,51.6,23.9,51,24.5z M82.1,51.5c1,0,2.1-0.9,2.2-1.5c0.1-0.8-0.2-1.4-0.9-1.8c-0.7-0.3-1.1-0.2-1.2,0.6  c-0.1,0.3-0.2,0.5-0.3,0.8c-0.1,0.4-0.2,0.8,0.4,0.9c0.2,0,0.3,0.1,0.3,0.3c0,0.2-0.2,0.2-0.3,0.2c-0.2,0-0.6-0.1-0.6,0.3  C81.7,51.6,82,51.5,82.1,51.5z M79.6,50.6c0.6-0.3,1.1-0.7,1.4-1.2c0.5-0.6,0.5-1.6-0.1-1.8c-0.6-0.3-1.2-0.4-1.9-0.3  c-0.4,0-0.6,0.4-0.7,0.7c-0.2,0.3,0.2,0.4,0.3,0.6C79.1,49.2,79.6,49.7,79.6,50.6z M16.4,75.5c1.2,0,1.7-0.7,1.2-1.8  c-0.2-0.4-0.4-0.9-1.1-0.5c-0.2,0.1-0.4,0.1-0.5,0c-0.7-0.4-1,0-1.2,0.5C14.3,74.6,15.2,75.5,16.4,75.5z M64,26.1  c0.3,0.1,0.5,0,0.8-0.1c1.8-0.6,2.2-2.3,2.8-3.7c0.1-0.2,0-0.4-0.3-0.4c-0.4,0-2.2,1.1-2.3,1.5c0,0.1,0,0.2,0,0.2  c0.6,0.5,0.1,0.9-0.2,1.2C64.5,25.3,64.2,25.6,64,26.1z M22.3,70.4c0.9,0,1.4-0.3,1.9-0.8c0.4-0.4,0.6-0.8,0.1-1.1  c-0.4-0.3-0.8-1-1.5-0.4c-0.2,0.1-0.3,0.1-0.5,0.1c-0.7,0-1.1,0.3-1.1,1C21.3,70,21.8,70.4,22.3,70.4z M20.6,78.3  c-0.2,0-0.6,0.2-1,0.4c-0.4,0.2-0.7,0.5-0.7,1c0,0.4,0.4,0.7,0.7,0.8c0.8,0.4,2.5-0.3,2.7-1.2c0-0.2,0-0.6-0.1-0.6  C21.7,78.8,21.4,78.3,20.6,78.3z M20.8,89.1c-0.4-0.1-0.6,0.1-0.9,0.2c-0.5,0.2-1,0.2-1.3-0.2c-0.6-0.7-1.1-0.6-1.7,0  c-0.1,0.1-0.5,0-0.5,0.3c0,0.2,0.1,0.3,0.3,0.3c0.2,0,0.4,0.1,0.5-0.3c0.2-0.4,0.7-0.3,0.9-0.1c0.3,0.2,0.1,0.6-0.1,0.8  c-0.5,0.5-1.1,0.6-1.8,0.4c-0.2,0-0.6-0.4-0.7,0.1c0,0.3,0.1,0.6,0.5,0.8c0.6,0.2,1.4,0.3,1.9,0C19.1,90.7,20.1,90.2,20.8,89.1z   M28.1,62.7c0-0.5-0.4-1-1.1-1c-0.8,0-1.8,0.7-1.8,1.2c0,0.8,0.5,1.5,1.1,1.5C27,64.3,28.1,63.4,28.1,62.7z M53.2,19.8  c0-0.1,0-0.1,0-0.2c-0.1-0.1-0.1-0.1-0.2-0.2c-0.2-0.1-0.5-0.2-0.3-0.5c0.2-0.4,0.4-0.1,0.6,0c0.4,0.1,0.7,0.5,1.2,0.4  c-0.9-1.2-2.3-1.3-3.5-1.3c-0.5,0-1.2,0-1.7,0.5c-0.1,0.2-0.4,0.2-0.3,0.5c0,0.2,0.3,0.2,0.5,0.2C50.8,19.4,52,19.6,53.2,19.8z   M13,78.5c0.7,0,1.9-1.7,1.7-2.3c0-0.1-0.1-0.2-0.2-0.2c-0.5-0.3-1-0.6-1.6-0.4c-0.6,0.2-0.7,0.7-0.7,1.3c0,0.2,0,0.4,0,0.5  C12,78.1,12.3,78.5,13,78.5z M19.1,64.2c-0.1,0.6,0.2,0.9,0.9,0.8c0.9-0.1,1.9-0.9,1.8-1.6c0-0.5-0.9-1-1.7-1  C19.6,62.6,19.1,63.4,19.1,64.2z M20.8,60.7c0.9,0.1,1.1-0.7,1.4-1.2c0.2-0.3-0.1-0.7-0.4-1c-0.5-0.4-1.4-0.3-1.8,0.4  c-0.2,0.3-0.3,0.5-0.6,0.1c-0.1-0.1-0.1-0.3-0.3-0.2c-0.1,0.1-0.1,0.2-0.1,0.3C19,60,19.9,60.7,20.8,60.7z M17,69.4  c-0.3,0.9-0.8,0.5-1.2,0.2c-0.5-0.3-0.9-0.4-1.1,0.2c-0.2,0.4-0.3,0.9,0,1.4c0.3,0.5,0.9,0.4,1.3,0.3c0.5-0.2,1.3,0,1.6-0.7  c0-0.1,0-0.2,0-0.4C17.4,70.1,17.4,69.7,17,69.4z M13.7,81.9c0.9,0,1.4-0.6,1.4-1.4c-0.1-0.6-0.4-1-1.1-1c-0.9,0-1.6,0.6-1.6,1.3  C12.3,81.4,12.9,81.9,13.7,81.9z M16.8,76.5c-0.1,0.4,0.3,1-0.5,0.7c-0.8-0.4-0.8,0.5-1.1,0.8c-0.3,0.2,0,0.7,0.3,1  c0.7,0.5,1.3,0.1,1.9-0.2c0.7-0.3,0.9-0.9,0.4-1.6C17.5,77,17.2,76.7,16.8,76.5z M18.4,62.5c0-0.5-0.1-1.1-0.8-1.1  c-0.8,0-2,0.9-1.9,1.4c0.1,0.8,0.7,1,1.4,1C18,63.8,18.4,63.5,18.4,62.5z M30.9,58.3c0.3,0,0.5-0.1,0.8-0.3c0.3-0.2,0.8-0.2,0.7-0.7  c-0.1-0.5-0.3-1-0.8-1.3c-0.1-0.1-0.3-0.1-0.3,0c-0.1,0.7-0.4,0.3-0.8,0.1c-0.4-0.2-0.8-0.1-1,0.4C29.2,57.4,29.9,58.3,30.9,58.3z   M71.3,90.4c0.1,0,0.2,0,0.3,0c0-0.1,0-0.3,0-0.4c0-2.1-0.1-4.2-0.3-6.3c0-0.3,0.3-0.9-0.4-0.8c-0.6,0.1-0.3,0.6-0.3,0.9  c0.1,1.3,0.2,2.6,0.3,3.9C71,88.5,71.2,89.4,71.3,90.4z M51.9,45.1c0.3,0.6,0.8,1.1,1,1.8c0.1,0.2,0.2,0.4,0.4,0.3  c0.5-0.4,1.2-0.7,1.4-1.3c0.1-0.2,0.2-0.6-0.2-0.8c-0.7-0.3-1.3-1.1-2-0.1C52.4,45.2,52.1,45.1,51.9,45.1z M16.9,80.1  c0.1,0.3,0.5,0.5,0.3,0.9c-0.2,0.3-0.5,0.1-0.7,0c-0.3-0.1-0.4,0.2-0.5,0.4c-0.1,0.3,0,0.6,0.2,0.8c0.3,0.3,2.5-0.2,2.7-0.6  c0.1-0.1,0.1-0.3,0-0.4C18.8,80.3,17.9,79.8,16.9,80.1z M18.6,75.7c0.1,0.6,0.2,1.2,1,1.5c0.5,0.2,1.2-0.2,1.1-0.6  c-0.3-0.5,0.2-0.8,0.2-1.2c0-0.2,0.4-0.3,0.2-0.6c-0.3-0.3-0.4,0.1-0.5,0.2c-0.2,0.2-0.4,0-0.6-0.1C19.1,74.4,18.6,74.8,18.6,75.7z   M23.3,66.6c1,0.2,1.2-0.6,1.4-1.2c0.2-0.5-0.6-0.6-0.9-0.7c-0.6-0.2-1.2,0-1.7,0.3c-0.4,0.3-0.1,0.7,0,1  C22.2,66.6,22.8,66.7,23.3,66.6z M57.6,14.9c-0.2-0.2-0.4-0.3-0.7-0.2c-0.8,0.1-1.6,0.2-2.4-0.1c-0.3-0.1-0.6,0-0.9,0.1  c-0.5,0.2-0.6,0.7-0.2,1c0.3,0.2,0.5,0.3,0.9,0.3C55.6,16.1,56.5,15.4,57.6,14.9z M28.3,55.6c0.4-0.1,1-0.1,1.2-0.7  c0.1-0.6-0.7-1.7-1.2-1.7c-0.3,0-1.3,0.9-1.3,1.2C27.1,55.1,27.5,55.5,28.3,55.6z M16.3,88.4c0.7,0,1.6-0.8,1.5-1.4  c-0.1-0.5-0.4-0.8-1-0.8c-0.7,0-1.5,0.7-1.5,1.4C15.2,88.5,15.9,88.3,16.3,88.4z M38.9,37.3c0.5,0.8,1.4,0.9,2,1.5  c0.3,0.3,0.7,0.6,1.1,0.3c0.4-0.4,0.9-0.8,0.9-1.3c-0.1-0.4-0.7-0.1-1.1-0.2c-0.2,0-0.4-0.1-0.6-0.1C40.4,37.3,39.7,37.1,38.9,37.3z   M55.2,43.5c0.1,0.6,0.1,1.1,0.1,1.6c0,0.5,0.4,0.6,0.6,0.4c0.6-0.5,1.1-1.1,1.5-1.7c0.1-0.1-0.2-0.1-0.2-0.2  c-0.2-0.7-1-0.3-1.3-0.8c-0.2-0.5-0.5-0.2-0.6,0C55.2,43,55.2,43.4,55.2,43.5z M46.9,97.1c-0.8-0.6-5.8-0.7-7.3-0.2  C40.5,97.3,45.3,97.4,46.9,97.1z M20.3,73c0.7,0,1.5-0.5,1.5-1c0-0.7-0.6-1.2-1.3-1.2c-0.9,0-1,0.6-1,1.2  C19.5,72.4,19.6,73.1,20.3,73z M23.5,62.3c0.6,0,1.1-0.1,1.3-0.8c0.1-0.6-0.3-1-0.7-1.3c-0.4-0.3-0.9-0.5-0.9,0.4  c0,0.3-0.1,0.3-0.3,0.3c-0.5,0-0.4,0.3-0.3,0.6C22.6,62,23.1,62.2,23.5,62.3z M21.5,83.8c0.3,0.1,0.6,0,0.7-0.4  c0.1-0.4-0.8-1.7-1.2-1.7c-0.3,0-1.3,0.9-1.3,1.3C19.9,84.2,20.9,83.6,21.5,83.8z M78.6,50.1c0-0.5-1-1.6-1.6-1.5  c-0.6,0.1-0.9,0.6-1.2,1.2c-0.1,0.2,0,0.4,0.2,0.6c0.2,0.2,2.3,0.2,2.5,0C78.6,50.3,78.6,50.2,78.6,50.1z M57.9,70  c-2.2-1.4-3.2-1.4-4.9,0.2C54.6,69.8,56.2,70.4,57.9,70z M16,85.5c0.5-0.1,1-0.1,1.6,0c0.3,0,0.8-0.1,0.8-0.6  c-0.1-0.4-0.3-0.8-0.8-0.5c-0.2,0.1-0.4,0.1-0.5,0c-0.5-0.6-0.9-0.5-1.4,0c-0.2,0.2-0.6,0.1-0.5,0.6C15.2,85.3,15.5,85.5,16,85.5z   M47.3,69.9c-0.8-0.4-1.6-0.4-1.7-1.5c0-0.2-0.7-0.7-0.9-0.2c-0.4,0.8-1.1,1-1.8,1.7C44.4,69.7,45.7,70.1,47.3,69.9z M33,44.5  c-0.8,0.6-1.2,1.3-1.6,1.9c-0.8,1.1-1.3,2.4-1.2,3.9c0,0.3,0,0.6,0.4,0.6c0.4,0,0.2-0.4,0.2-0.6c0.2-1.4,0.5-2.7,1.1-4  C32.1,45.8,32.7,45.4,33,44.5z M26,54.9c0.3,0.5,0.7,0.8,0.8,1.2c0.2,0.7,0.5,1.2,1.3,1.4c0.9,0.2,0.9,1.1,1.3,1.7  c0.1,0.1,0.1,0.5,0.4,0.4c0.2,0,0.3-0.3,0.4-0.5c0.2-0.3-0.1-0.4-0.3-0.5c-0.2-0.2-0.5-0.4-0.7-0.5c-0.6-0.4-0.1-1.4-0.6-1.7  c-0.6-0.3-1.2-0.3-1.7-0.7C26.6,55.5,26.6,55,26,54.9z M85,82.1c-0.6,0.1-1.2,0.2-1.8,0.3c-0.6,0-0.6,0.4-0.6,0.8  c0,0.4,0.1,0.8,0.7,0.7c0.3-0.1,0.6,0,0.9,0c0.5,0.1,0.7-0.2,0.8-0.7C85,82.8,85,82.5,85,82.1z M20.2,85.5c0.1,0.4,0,1,0.6,1  c0.8,0.1,1.7-0.6,1.6-1.2c0-0.4-0.3-0.7-0.7-0.7C20.9,84.5,20.2,84.9,20.2,85.5z M48.8,45.9c1-0.3,1.4-1,2.1-1.3  c0.3-0.1,0.4-0.4,0.3-0.7c-0.2-0.4-0.4-0.8-0.8-0.9c-0.3-0.1-0.5,0.2-0.6,0.4C49.4,44.2,49.1,44.9,48.8,45.9z M24.2,70.3  c-0.5,0.2-0.9,0.4-1.3,0.6c-0.2,0.1-0.7-0.1-0.6,0.3c0.1,0.4,0.5,0.3,0.8,0.3c0.5,0,1,0.1,1.3,0.6c0.1,0.2,0.2,0.4,0.5,0.3  c0.2-0.1,0.4-0.3,0.4-0.6c0.1-0.3,0-0.6-0.3-0.6C24.5,71.1,24.4,70.7,24.2,70.3z M13.2,84.4c0.4-0.1,1.1-0.2,1.1-0.8  c0-0.6-0.5-0.8-1.1-0.8c-0.5,0-1,0-1,0.8C12.2,84.2,12.6,84.4,13.2,84.4z M23.5,76.8c-0.1-0.4-0.1-0.9-0.6-1  c-0.3-0.1-1.5,1.2-1.4,1.5c0.1,0.5,0.7,0.5,1,0.5C23.1,77.7,23.5,77.3,23.5,76.8z M24.7,64.3c-0.3-0.4,0.3-1.4-0.6-1.4  c-0.6,0-1.2-0.1-1.8-0.3C22.2,64.4,23.8,63.8,24.7,64.3z M28.9,63.6c1.4-1.2,1.3-1.8,0.1-2.6c-0.3-0.2-0.5,0-0.7,0.1  c-0.2,0.1-0.1,0.2,0,0.4C28.9,62,28.9,62.8,28.9,63.6z M16.9,83c0.6,0.6,1.5,0.7,2,1.3c0.2,0.2,0.3,0.3,0.5,0.1  c0.1-0.1,0.1-0.3-0.1-0.5c-0.4-0.4-0.7-0.9-0.4-1.5C18.2,82.6,17.6,82.8,16.9,83z M80.9,74.3c-0.3,1.1,0,2.3-0.2,3.4  c0,0.3,0.2,0.2,0.4,0.2c0.3-0.1,0.4-0.4,0.4-0.7c-0.1-0.7-0.1-1.5-0.1-2.2C81.3,74.7,81.4,74.3,80.9,74.3z M26.2,67.1  c0.4,0,1,0.1,1.1-0.4c0-0.4-0.5-0.7-1.1-0.7c-0.6,0-1,0.3-1,0.8c0,0.7,0.5,0.2,0.8,0.2C26.1,67,26.1,67.1,26.2,67.1z M31.8,67.5  c-1.2-0.4-2.1-1.2-2.5-2.6C29.2,67.4,29.7,67.4,31.8,67.5z M10.9,70.1c0.2,0.4,0.4,0.8,0.9,0.8c1,0.1,1.9,0.4,2.3,1.4  c0,0.1,0.1,0.2,0.3,0.2c0.2-0.1,0.3-0.2,0.2-0.4c-0.3-0.5-0.6-1.3-1.2-1.3C12.4,70.8,11.7,70.6,10.9,70.1z M62.6,26  c-0.1-0.3-0.1-0.6-0.2-0.7c-0.2-0.1-0.4,0.1-0.6,0.3c-0.2,0.4-0.5,0.9-0.8,1.3c-0.1,0.1-0.1,0.3,0,0.4c0.1,0.1,0.2,0.1,0.3,0.1  C62.1,27.2,62.4,26.6,62.6,26z M14.9,86.1c-1.2-1.1-1.3-1.2-2.2-0.7C13.9,86.4,13.9,86.4,14.9,86.1z M23.5,73c0-0.1,0.3-0.2,0-0.4  c-0.2-0.1-0.5-0.1-0.7,0.1c-0.3,0.2-0.3,0.5-0.2,0.8c0.1,0.3,0.1,0.8,0.5,0.9c0.3,0.1,0.5,0,0.7-0.2c0.3-0.3-0.1-0.4-0.2-0.5  C23.5,73.5,23.4,73.3,23.5,73z M49.1,7.1c1,0.8,2.2,0.7,3.2,1.5C51.7,7.4,50.9,7,49.1,7.1z M28,65.6c0-0.2-0.2-0.3-0.3-0.4  c-0.5-0.5-1.1-0.4-1.7-0.3c-0.2,0-0.4-0.1-0.4,0.2c0,0.2,0.2,0.3,0.4,0.3c0.6,0,1.1,0.3,1.6,0.6C28,66.3,27.9,65.9,28,65.6z   M73.6,11.6c0.7-0.6,1.3-1.1,1.8-1.5c0.3-0.3,0.2-0.6,0-0.8c-0.1-0.2-0.3-0.2-0.5,0C74.4,9.9,73.8,10.5,73.6,11.6z M67.8,60  c0.2,0.1-0.3,0.8,0.3,0.7c0.5-0.1,0.9-0.6,0.8-1.2c0-0.2,0-0.5-0.3-0.4C68.3,59.3,67.4,59,67.8,60z M19.1,62  c0.9-0.9,0.9-0.9-0.2-1.3c-0.9-0.3-0.9-0.3-1.6,0C18.2,60.6,18.7,61.2,19.1,62z M62.1,7c-0.7,0-1.1,0.3-1.5,0.7  c-0.3,0.3-0.2,0.6,0,0.9c0.1,0.2,0.3,0.1,0.3,0C61.3,8.1,61.8,7.7,62.1,7z M25.1,68.1c0.4,0.5,0.2,1,0,1.4c-0.1,0.1-0.1,0.2,0,0.3  c0.1,0.1,0.2,0,0.3,0c0.4-0.3,0.9-0.5,0.8-1.1C26.2,67.9,25.4,68.4,25.1,68.1z M19.1,86.5c0.1-0.1,0.6,0.3,0.5-0.3  c-0.1-0.3,0-0.9-0.5-0.9c-0.4,0-0.9,0.2-0.9,0.7C18.2,86.4,18.5,86.7,19.1,86.5z M61.9,41.9c0.2-0.3,0-0.4-0.2-0.3  c-0.4,0.2-0.7,0.6-0.8,1c-0.1,0.3,0,0.6,0.3,0.8c0.4,0.2,0.4-0.3,0.5-0.5C61.9,42.6,61.9,42.2,61.9,41.9z M54.2,65.8  c-0.6,0.3-1,0.6-1.4,0.7c-0.7,0.2-0.3,0.6-0.2,0.8c0.1,0.4,0.5,0.1,0.6,0C53.6,66.9,54.1,66.6,54.2,65.8z M76.6,9  c0.6-0.2,0.9-0.8,1.3-1.2c0,0-0.1-0.3-0.2-0.4c-0.1-0.1-0.2-0.1-0.3,0c-0.4,0.4-0.8,0.8-1.2,1.2c-0.1,0.1-0.1,0.2-0.1,0.3  C76.3,9,76.4,9.1,76.6,9z M71.9,93.9c0.2-1,0.1-1.7-0.1-2.5c0-0.2-0.1-0.4-0.3-0.3c-0.2,0-0.3,0.3-0.2,0.4  C71.6,92.2,71.2,93,71.9,93.9z M20.4,73.5c0.7,0.5,1,1.1,1.7,1c0,0,0.1-0.8-0.1-1C21.5,72.8,21.1,73.6,20.4,73.5z M31.1,63.6  c-0.6,0.8-0.6,2,0.1,2.9C31.2,65.4,31.4,64.6,31.1,63.6z M55.6,25.4c-0.5-0.5-0.7-1.4-1.6-1.3c-0.2,0-0.4,0-0.4,0.2  c-0.1,0.2,0.1,0.3,0.2,0.4C54.4,24.9,55,25.2,55.6,25.4z M31.2,62.6c0.1,0.2,0,0.6,0.2,0.4c0.4-0.3,0.7-0.8,1-1.2  c0.1-0.2-0.2-0.4-0.4-0.4C31.5,61.6,31.3,62,31.2,62.6z M18.7,73.6c-0.3-0.3-0.7-0.6-0.8-1c-0.2-1.1-0.7-0.6-1.4-0.3  C17.6,72.3,17.7,73.5,18.7,73.6z M20.4,88c-0.3-0.6-0.7,0-1.1-0.2c-0.3-0.2-0.4,0.1-0.3,0.3c0.1,0.4,0.4,0.5,0.8,0.4  C20.1,88.6,20.3,88.3,20.4,88z M25.8,61c-0.5-1.5-0.8-1.8-1.6-1.7C24.7,59.8,25.2,60.4,25.8,61z M24.7,75.3c-0.1-0.1,0-0.6-0.3-0.5  c-0.3,0.1-0.7,0.1-0.7,0.5c0,0.3,0.2,0.7,0.5,0.7C24.5,76,24.7,75.7,24.7,75.3z M66.8,40.9c-0.1-0.2-0.1-0.5-0.3-0.4  c-0.2,0.1-0.6,0.2-0.6,0.6c0,0.3,0.2,0.5,0.5,0.4C66.6,41.5,66.8,41.2,66.8,40.9z M23.2,83.3c0,0.3-0.2,0.6-0.4,0.8  c-0.3,0.2,0,0.4,0.1,0.5c0.1,0.1,0.2,0.2,0.4,0.2c0.3-0.1,0.1-0.3,0.2-0.5C23.5,83.9,23.3,83.6,23.2,83.3z M33.5,44.7  c0.6-0.3,1.2-0.5,1.2-1.3C34,43.6,33.8,44.2,33.5,44.7z M13.3,66.1c-0.2-0.2,0.3-0.7-0.3-0.7c-0.3,0-0.4,0.3-0.4,0.5  c0,0.3,0.2,0.5,0.5,0.6C13.3,66.6,13.4,66.4,13.3,66.1z M47.3,69c0.8,0.4,1.4,0.4,2.1,0C48.8,69,48.1,69,47.3,69z M47.9,54.8  c-0.2,0.4-0.5,0.8-0.2,1.2c0,0.1,0.4,0,0.4,0C48.3,55.6,48.2,55.3,47.9,54.8z">
  </path>
  <path
    d="M19.3,42.9c0,0.3-0.2,0.5-0.4,0.5c-1.3,0.2-2.4,1-3.4,1.7c-0.2,0.2-0.5,0.4-0.8,0.1c-0.2-0.3,0.1-0.6,0.3-0.8  c1.1-0.8,2.3-1.4,3.5-1.9C18.8,42.4,19.1,42.6,19.3,42.9z">
  </path>
  <path
    d="M59,97.4C59,97.4,59,97.5,59,97.4c-0.2,0.5-0.5,0.3-0.8,0.3c-0.9,0-1.9,0-2.8,0.1c-0.3,0-0.8,0.1-1.1-0.3c0,0,0,0,0,0  c0.2-0.1,0.4-0.2,0.5-0.2c0.9,0.4,1.7-0.1,2.5-0.1c0,0,0,0,0,0c0.4,0,0.7,0,1.1,0C58.6,97.2,58.9,97,59,97.4z">
  </path>
  <path
    d="M36.6,43.8c0.3,0,0.6,0,1,0.1c-0.6,0.5-1.1,0.7-1.8,0.7C36,44.2,36.5,44.2,36.6,43.8C36.6,43.7,36.6,43.8,36.6,43.8z">
  </path>
  <path
    d="M61,57.8c0.4,0.6,0.2,1.3,0.5,1.9c0.3-0.2,0.1-0.4,0.2-0.6c0-0.2,0.1-0.4,0.3-0.4c0.3,0,0.3,0.3,0.3,0.5  c-0.2,1.1,0.5,1.7,1.1,2.4c0.1,0.1,0.1,0.1,0.1,0.2c0,0,0,0.1,0,0.1c-0.6,0.1-0.7-0.7-1.2-0.5c-0.2,0.6-0.1,1.3-0.1,2  c-0.6,0-0.8-0.5-0.9-0.8c-0.5-0.7-1.6-0.8-1.5-1.9c0-0.1,0-0.1-0.1-0.2C59.1,60,59.1,60,59,59.1c-0.1-0.6-0.6-0.8-1.1-1  c-0.3-0.1-0.7-0.3-0.5-0.6c0.2-0.3,0.5,0,0.7,0.1c0.3,0.2,0.6,0.1,1,0.1c0.5,0.1,0.6-0.2,0.5-0.6c0-0.2-0.1-0.4-0.1-0.6  c0.1-0.3-0.2-0.7,0.3-0.7c0.3,0,0.3,0.5,0.3,0.8c0,0.3-0.1,0.6-0.2,0.9c0,0.4,0.2,0.8,0.5,0.9C60.9,58.6,60.6,57.9,61,57.8z">
  </path>
  <path
    d="M78.7,64.5c0.3,0,0.6,0.1,0.6,0.4c0,0.4-0.3,0.5-0.7,0.5c-0.2,0-0.5,0-0.5-0.3C78.2,64.8,78.4,64.6,78.7,64.5z">
  </path>
  <path
    d="M78.1,63.3c-0.1,0.3-0.3,0.6-0.7,0.7c-0.3,0-0.3-0.2-0.3-0.4c0-0.4,0.3-0.6,0.7-0.7C78,62.9,78.1,63.1,78.1,63.3z">
  </path>
  <path
    d="M81.3,60.5c0,0.3-0.2,0.4-0.4,0.4c-0.3-0.1-0.6-0.1-0.7-0.5c0-0.3,0.2-0.4,0.5-0.4C81.1,60,81.2,60.3,81.3,60.5z">
  </path>
  <path
    d="M74,62.8c-0.1,0.3-0.3,0.5-0.6,0.4c-0.2,0-0.5-0.2-0.4-0.5c0.1-0.3,0.2-0.6,0.5-0.5C73.8,62.3,74,62.5,74,62.8z">
  </path>
  <path
    d="M78.1,62c-0.4,0-0.4-0.3-0.4-0.5c0-0.3,0.3-0.4,0.6-0.4c0.2,0,0.5,0.1,0.5,0.3C78.7,61.7,78.3,61.8,78.1,62z">
  </path>
  <path
    d="M77,58.1c-0.1,0.3-0.5,0.4-0.8,0.4c-0.1,0-0.4,0-0.3-0.2c0.1-0.3,0.2-0.6,0.6-0.6C76.7,57.7,77,57.7,77,58.1z">
  </path>
  <path
    d="M78.1,59.2c-0.4,0-0.6-0.2-0.5-0.4c0-0.2,0.1-0.5,0.4-0.5c0.2,0,0.4,0.2,0.5,0.5C78.4,59,78.3,59.1,78.1,59.2z">
  </path>
  <path
    d="M69.6,53.4c-0.5,0.8-0.4,1.8-1,2.5c-0.6,0.7-1,0.7-1.3-0.2c-0.2-0.5-0.5-0.5-0.8-0.5c-0.5,0-0.9-0.1-1.3-0.5  c0-0.1-0.2,0-0.3-0.1c-0.8-0.2,0.1-1.3-0.8-1.5c-0.8-0.2-0.9-0.7-0.5-1.4c0.2-0.3-0.2-0.5-0.3-0.7c-0.2-0.4-0.3-0.9,0.3-0.8  c0.8,0.1,0.9-0.4,1.1-0.9c0.2-0.5,0.3-0.9,1-0.4c0.5,0.4,1.1,0.6,1.7-0.1c0.3-0.3,0.8-0.1,0.6,0.4c-0.1,0.5,0,0.6,0.5,0.7  c0.4,0,0.8,0.2,0.5,0.7c-0.1,0.2-0.1,0.5,0.2,0.5c0.8,0.1,0.8,0.8,1.1,1.4c0.1,0.3,0.3,0.6,0,0.9C70,53.9,69.8,53.6,69.6,53.4z   M68.7,53.4c0-0.5-0.3-0.8-0.5-1.2c-0.4-0.7-1.2-0.4-1.8-0.7c-0.2-0.1-0.6-0.4-0.8,0c-0.1,0.4-0.5,0.9-0.1,1.4  c0.5,0.7,1.2,1.2,2.2,1.3C68.5,54.3,68.7,54,68.7,53.4z">
  </path>
  <path
    d="M68.2,39.3c-0.1-0.8,0.4-1.3,0.9-1.8c0.4-0.3,0.9-0.3,1.3,0.2c0.2,0.2,0.3,0.5,0.4,0.8c0.4,0.9,0.5,1.4,1.6,0.7  c0.3-0.2,0.6-0.3,0.8,0c0.3,0.4,0.9,0.6,0.9,1.1c0,0.3-0.4,0.2-0.5,0.1c-0.7-0.7-1.3-1-2.2-0.3c-0.2,0.1-0.5,0-0.6-0.2  c-0.1-0.1-0.2-0.3-0.2-0.4c-0.2-0.5-0.4-1.3-1-1.3c-0.5,0-0.6,0.7-0.8,1.2c-0.1,0.2,0,0.6-0.4,0.5C68.1,39.8,68.1,39.5,68.2,39.3z">
  </path>
  <path
    d="M69.5,36.8c-0.3-0.1-0.8,0.2-0.8-0.3c0-0.3,0.3-0.5,0.6-0.4c0.4,0.1,1,0.1,1,0.5C70.3,37,69.7,36.7,69.5,36.8z">
  </path>
  <path
    d="M57.1,89.3c-1,0.3-1.9-0.1-2.8-0.1c-1.3,0-2.7,0.1-4,0.2c-0.3,0-0.7,0.1-0.7-0.3c0-0.4,0.4-0.4,0.8-0.4c1.7,0,3.3,0,5,0  C56.1,88.6,56.7,88.7,57.1,89.3z">
  </path>
  <path
    d="M50.2,59.7c0.5-0.2,0.6-0.9,1.1-0.6c0.5,0.2,0.2,0.6,0.1,0.9c0.4,0.1,0.7-0.1,1.1-0.3c0.2-0.1,0.3-0.2,0.5,0  c0.2,0.2,0,0.5-0.1,0.6c-0.6,0.4-0.3,0.7,0,1c0.4,0.4,0.6,0.8-0.2,1.1c-0.1,0-0.3,0.1-0.2,0.2c0.5,1-0.5,1.2-0.9,1.7  c-0.4,0.8-1.4,0.6-2,0.3c-0.7-0.3-1.2-0.1-1.7,0.1c-0.9,0.3-2.2-0.5-2.2-1.4c0-0.3,0.1-0.6-0.2-0.7c-0.7-0.3-0.5-0.6-0.1-1  c0.2-0.2,0.5-0.3,0.3-0.7c-0.1-0.2,0-0.4,0.2-0.5c0.7-0.2,1.1-0.4,1.2-1.2c0-0.3,0.6-0.3,0.8-0.1c0.6,0.4,1,0,1.5-0.3  c0.3-0.2,0.5-0.6,0.8-0.4c0.3,0.2,0.1,0.6,0.1,0.9C50.3,59.4,50.3,59.5,50.2,59.7z M49.5,60.9c-0.7-0.2-1.1,0.3-1.6,0.7  c-0.2,0.1-0.5,0.2-0.4,0.5c0.1,0.3,0.3,0.5,0.6,0.6c0.9,0.3,1.9,0,2.7-0.3c0.7-0.3,0.7-0.7,0-1.2C50.3,61,49.9,60.8,49.5,60.9z">
  </path>
  <path
    d="M45.7,93.9c-0.7,0.4-1.5,0.2-2.2,0.2c-1.4-0.1-2.7,0-4.1,0.2c-0.3,0-0.7,0.2-0.8-0.2c-0.1-0.5,0.4-0.6,0.7-0.7  c2.1-0.2,4.2-0.4,6.2,0.2C45.6,93.6,45.6,93.8,45.7,93.9z">
  </path>
  <path
    d="M61.4,33.6c-0.3,0.5-0.7,0.7-1.1,1c-0.2,0.2-0.5,0.4-0.7,0.2c-0.3-0.2,0-0.5,0-0.7c0.1-0.2,0.1-0.4,0.3-0.5  C60.2,34.1,60.2,34.1,61.4,33.6z">
  </path>
  <path
    d="M58.9,5.6c0.3,0,0.3,0.3,0.2,0.4c-0.6,0.9-0.7,1.9-0.8,3c0,0.1,0,0.3-0.2,0.3c-0.1,0-0.2-0.1-0.3-0.2  c-0.3-0.5,0.4-3.2,0.9-3.4C58.8,5.7,58.8,5.7,58.9,5.6z">
  </path>
</svg>