<svg id="shopping-icon"  xmlns="http://www.w3.org/2000/svg" xmlns:xlink="http://www.w3.org/1999/xlink"
  version="1.1" x="0px" y="0px" viewBox="0 0 100 100"
  enable-background="new 0 0 100 100" xml:space="preserve">
  <title>Shopping list</title>
  <rect fill="none" width="100" height="100"></rect>
  <path 
    d="M27.167,12.457v75.086h45.667V12.457H27.167z M36.607,75.51c-1.395,0-2.525-1.131-2.525-2.525  s1.13-2.525,2.525-2.525c1.394,0,2.524,1.131,2.524,2.525S38.001,75.51,36.607,75.51z M36.607,66.316  c-1.395,0-2.525-1.131-2.525-2.525s1.13-2.525,2.525-2.525c1.394,0,2.524,1.131,2.524,2.525S38.001,66.316,36.607,66.316z   M36.607,57.121c-1.395,0-2.525-1.131-2.525-2.523c0-1.395,1.13-2.525,2.525-2.525c1.394,0,2.524,1.131,2.524,2.525  C39.132,55.99,38.001,57.121,36.607,57.121z M36.607,47.928c-1.395,0-2.525-1.131-2.525-2.525c0-1.395,1.13-2.525,2.525-2.525  c1.394,0,2.524,1.13,2.524,2.525C39.132,46.797,38.001,47.928,36.607,47.928z M36.607,38.734c-1.395,0-2.525-1.13-2.525-2.525  s1.13-2.525,2.525-2.525c1.394,0,2.524,1.13,2.524,2.525S38.001,38.734,36.607,38.734z M36.607,29.541  c-1.395,0-2.525-1.13-2.525-2.525s1.13-2.525,2.525-2.525c1.394,0,2.524,1.13,2.524,2.525S38.001,29.541,36.607,29.541z   M65.314,73.588H41.163c-0.333,0-0.604-0.27-0.604-0.604s0.271-0.604,0.604-0.604h24.151c0.332,0,0.604,0.27,0.604,0.604  S65.646,73.588,65.314,73.588z M65.314,64.395H41.163c-0.333,0-0.604-0.271-0.604-0.604c0-0.334,0.271-0.604,0.604-0.604h24.151  c0.332,0,0.604,0.27,0.604,0.604C65.918,64.123,65.646,64.395,65.314,64.395z M65.314,55.201H41.163  c-0.333,0-0.604-0.271-0.604-0.604c0-0.334,0.271-0.604,0.604-0.604h24.151c0.332,0,0.604,0.27,0.604,0.604  C65.918,54.93,65.646,55.201,65.314,55.201z M65.314,46.007H41.163c-0.333,0-0.604-0.27-0.604-0.604  c0-0.334,0.271-0.604,0.604-0.604h24.151c0.332,0,0.604,0.27,0.604,0.604C65.918,45.737,65.646,46.007,65.314,46.007z   M65.314,36.813H41.163c-0.333,0-0.604-0.27-0.604-0.604s0.271-0.604,0.604-0.604h24.151c0.332,0,0.604,0.271,0.604,0.604  S65.646,36.813,65.314,36.813z M65.314,27.62H41.163c-0.333,0-0.604-0.271-0.604-0.604s0.271-0.604,0.604-0.604h24.151  c0.332,0,0.604,0.271,0.604,0.604S65.646,27.62,65.314,27.62z">
  </path>
</svg>