<svg class="account-icons"
  xmlns:dc="http://purl.org/dc/elements/1.1/"
  xmlns:cc="http://creativecommons.org/ns#"
  xmlns:rdf="http://www.w3.org/1999/02/22-rdf-syntax-ns#"
  xmlns:svg="http://www.w3.org/2000/svg" xmlns="http://www.w3.org/2000/svg"
  xmlns:sodipodi="http://sodipodi.sourceforge.net/DTD/sodipodi-0.dtd"
  xmlns:inkscape="http://www.inkscape.org/namespaces/inkscape"
  viewBox="0 0 16.933333 16.933333" version="1.1" x="0px" y="0px">
  <title>Sign Out</title>
  <g transform="translate(0,-280.06669)">
    <path
      d="M 8.0019531 8 C 4.7125471 8 2 10.712555 2 14.001953 L 2 19.996094 A 2.0004921 2.0004921 0 1 0 6.0019531 19.996094 L 6.0019531 14.001953 C 6.0019531 12.85944 6.8593868 12.001953 8.0019531 12.001953 L 28 12.001953 C 29.142561 12.001953 30 12.85944 30 14.001953 L 30 16.001953 A 2.0004923 2.0004923 0 1 0 34.001953 16.001953 L 34.001953 14.001953 C 34.001953 10.712555 31.289404 8 28 8 L 8.0019531 8 z M 44.275391 18.001953 C 43.2179 17.981884 42.17308 18.248487 41.25 18.742188 C 39.403844 19.729589 38.046875 21.627144 38.046875 23.96875 L 38.046875 25.976562 L 28.042969 25.976562 C 24.753557 25.976562 22.042969 28.681305 22.042969 31.970703 C 22.042969 35.260102 24.753557 37.970703 28.042969 37.970703 L 38.046875 37.970703 L 38.046875 39.972656 C 38.046875 43.234162 40.711754 45.921783 43.966797 45.966797 C 45.165678 45.981915 46.358813 45.647856 47.376953 44.96875 L 59.373047 36.966797 C 62.876049 34.630104 62.876076 29.317124 59.373047 26.980469 L 47.376953 18.978516 C 46.403026 18.328872 45.332881 18.022022 44.275391 18.001953 z M 44.068359 21.923828 C 44.426519 21.94693 44.79785 22.068908 45.154297 22.306641 L 57.150391 30.308594 C 58.398659 31.141224 58.398685 32.805966 57.150391 33.638672 L 45.154297 41.640625 C 44.828615 41.857948 44.433897 41.978326 44.017578 41.972656 C 42.899212 41.957538 42.046875 41.084971 42.046875 39.972656 L 42.046875 35.970703 A 2.0002 2.0002 0 0 0 40.046875 33.970703 L 28.042969 33.970703 C 26.900385 33.970703 26.042969 33.11333 26.042969 31.970703 C 26.042969 30.828152 26.900385 29.976562 28.042969 29.976562 L 40.046875 29.976562 A 2.0002 2.0002 0 0 0 42.046875 27.976562 L 42.046875 23.96875 C 42.046875 23.112007 42.466425 22.457487 43.066406 22.136719 C 43.366399 21.976278 43.7102 21.900726 44.068359 21.923828 z M 3.9707031 29.96875 A 2.0002 2.0002 0 0 0 2 32 L 2 49.996094 C 2 53.28553 4.7125471 55.998047 8.0019531 55.998047 L 28 55.998047 C 31.289404 55.998047 34.001953 53.28553 34.001953 49.996094 L 34.001953 48.003906 A 2.0004923 2.0004923 0 1 0 30 48.003906 L 30 49.996094 C 30 51.138721 29.142561 51.996094 28 51.996094 L 8.0019531 51.996094 C 6.8593868 51.996094 6.0019531 51.138721 6.0019531 49.996094 L 6.0019531 32 A 2.0002 2.0002 0 0 0 3.9707031 29.96875 z "
      transform="matrix(0.26458333,0,0,0.26458333,0,280.06669)"></path>
  </g>
</svg>