  <svg id="light-theme-select" class="nav-icons"  data-toggle="tooltip" data-placement="bottom" title="Light theme"
    xmlns:dc="http://purl.org/dc/elements/1.1/"
    xmlns:cc="http://creativecommons.org/ns#"
    xmlns:rdf="http://www.w3.org/1999/02/22-rdf-syntax-ns#"
    xmlns:svg="http://www.w3.org/2000/svg" xmlns="http://www.w3.org/2000/svg"
    xmlns:sodipodi="http://sodipodi.sourceforge.net/DTD/sodipodi-0.dtd"
    xmlns:inkscape="http://www.inkscape.org/namespaces/inkscape"
    viewBox="0 0 8.4666665 8.4666669" version="1.1" x="0px" y="0px">
    <g transform="translate(0,-288.53333)">
      <path
        
        d="M 15.988281 0.98242188 A 1.0001001 1.0001001 0 0 0 15.886719 0.98828125 A 1.0001001 1.0001001 0 0 0 15 2 L 15 4 A 1.0002461 1.0002461 0 1 0 17 4 L 17 2 A 1.0001001 1.0001001 0 0 0 15.988281 0.98242188 z M 6.0898438 5.0878906 A 1.0001001 1.0001001 0 0 0 5.9863281 5.09375 A 1.0001001 1.0001001 0 0 0 5.3964844 6.8046875 L 6.8066406 8.2226562 A 1.0021986 1.0021986 0 1 0 8.2226562 6.8046875 L 6.8066406 5.3964844 A 1.0001001 1.0001001 0 0 0 6.0898438 5.0878906 z M 25.880859 5.09375 A 1.0001001 1.0001001 0 0 0 25.195312 5.3964844 L 23.777344 6.8066406 A 1.0021986 1.0021986 0 1 0 25.195312 8.2226562 L 26.603516 6.8066406 A 1.0001001 1.0001001 0 0 0 25.880859 5.09375 z M 16 7 C 14.527557 7.0005669 13.078592 7.3654784 11.78125 8.0566406 A 1.0004679 1.0004679 0 1 0 12.722656 9.8222656 C 13.732954 9.2840231 14.857753 9.0004535 16 9 C 19.877374 8.998526 23 12.122167 23 16 C 23 19.877833 19.877838 23 16 23 C 12.122162 23 8.9976306 19.877115 9 16 C 9.0006459 14.943017 9.2463348 13.898585 9.7128906 12.945312 A 1.0001544 1.0001544 0 1 0 7.9160156 12.066406 C 7.317524 13.289235 7.0008349 14.634306 7 16 C 6.9969692 20.959458 11.041282 25 16 25 C 20.958718 25 25 20.95874 25 16 C 25 11.041298 20.959182 6.9981102 16 7 z M 2 15 A 1.000252 1.000252 0 1 0 2 17 L 4.0019531 17 A 1.000252 1.000252 0 1 0 4.0019531 15 L 2 15 z M 28 15 A 1.000252 1.000252 0 1 0 28 17 L 30 17 A 1.000252 1.000252 0 1 0 30 15 L 28 15 z M 7.5058594 23.472656 A 1.0001001 1.0001001 0 0 0 7.4921875 23.474609 A 1.0001001 1.0001001 0 0 0 6.8066406 23.777344 L 5.3964844 25.193359 A 1.0001001 1.0001001 0 1 0 6.8066406 26.603516 L 8.2226562 25.193359 A 1.0001001 1.0001001 0 0 0 7.5058594 23.472656 z M 24.478516 23.474609 A 1.0001001 1.0001001 0 0 0 23.777344 25.193359 L 25.195312 26.603516 A 1.0001001 1.0001001 0 1 0 26.603516 25.193359 L 25.195312 23.777344 A 1.0001001 1.0001001 0 0 0 24.478516 23.474609 z M 15.982422 26.988281 A 1.0001001 1.0001001 0 0 0 15 28 L 15 30 A 1.0002461 1.0002461 0 1 0 17 30 L 17 28 A 1.0001001 1.0001001 0 0 0 15.982422 26.988281 z "
        transform="matrix(0.26458333,0,0,0.26458333,0,288.53333)"></path>
    </g>
  </svg>