<svg xmlns="http://www.w3.org/2000/svg" data-name="Слой 1" viewBox="0 0 100 100"
  x="0px" y="0px">
  <title>Tomato</title>
  <path
    d="M43.21571,25.10514a6.5704,6.5704,0,0,1-2.95583-1.64053,7.20544,7.20544,0,0,0-1.60643-.96567,4.75818,4.75818,0,0,1-1.33136-.73154,1.68179,1.68179,0,0,0-1.86005-.33368.65037.65037,0,0,1-.28428.01248c-.02867-.001-.05625-.03244-.15383-.09323.16679-.36889.42352-.81534-.23049-1.03563-.1077-.03627-.10157-.27241-.01046-.36.45671-.43914.21012-.822-.05493-1.22425a5.03093,5.03093,0,0,0-.43779-.775.33341.33341,0,0,1,.064-.52038c.1653-.13015.30522-.01518.41736.12071A3.01464,3.01464,0,0,1,35.78418,19.351a.65236.65236,0,0,0,.49155.67195,18.70806,18.70806,0,0,1,2.56773,1.277,2.23849,2.23849,0,0,0,.7396.27534c2.02311.11223,3.61624,1.30749,5.35512,2.13549a.96639.96639,0,0,1,.5111.45629.79969.79969,0,0,0,1.06567.46687,7.37571,7.37571,0,0,1,3.25079-.15945c.49877.09742.54682-.24864.64783-.5546.60239-1.82512.96781-3.71211,1.4482-5.56916a14.34017,14.34017,0,0,1,.74676-2.24906c.16462-.37021.37-.57268.8489-.41253a1.717,1.717,0,0,0,1.42749-.17165c.38193-.22344.54288-.06133.57987.32635a10.83119,10.83119,0,0,1-.25846,3.55629,15.94754,15.94754,0,0,0-.3602,4.44133c.03086.69609.11159.75816.82209.82733a.8244.8244,0,0,1,.19808.00662c1.17642.44478,1.99014-.22126,2.84391-.87251.97474-.74354,1.87765-1.57181,2.843-2.32217a14.88149,14.88149,0,0,1,2.08307-1.29335A35.60663,35.60663,0,0,1,67.55077,18.262a14.34382,14.34382,0,0,1,3.04646-.88374c.35738-.05455.70143-.191,1.056-.26994a5.61009,5.61009,0,0,1,1.551-.293,21.71075,21.71075,0,0,0,4.33929-.42476,2.43593,2.43593,0,0,0,1.81715-.8799,1.3424,1.3424,0,0,1,.37576-.31848c.17671-.10864.38955-.16412.5396.02663.12192.15507-.00559.29585-.09634.44a6.30042,6.30042,0,0,1-2.5817,1.94942.2017.2017,0,0,1-.2697-.04629c-.10594-.14419.01506-.23422.10374-.32577.0602-.06217.20228-.05518.14675-.26363-.35942.07613-.91138-.28138-.89873.54295.00277.17964-.25795.24809-.47529.27739a14.06444,14.06444,0,0,1-1.66262.26665c-.49861.006-.582.70829-1.04293.56416a2.01667,2.01667,0,0,0-1.16844.02491,13.13419,13.13419,0,0,0-3.25242,1.20014,1.1153,1.1153,0,0,1-.36431.14378c-1.084.18238-1.73657,1.01157-2.54866,1.62483-.9281.70085-1.43673,1.8032-2.42275,2.40931-.79142.48647-1.55935,1.00075-2.30426,1.553a.55017.55017,0,0,0-.27414.37533c.67407.20479,1.36076.40307,2.04006.624.358.11644.56407-.06761.75986-.31246.4551-.56911.892-1.15454,1.37625-1.69772.19837-.22251.39179-.70828.843-.19756.14189.16063.42989-.0633.6374-.15658a22.35834,22.35834,0,0,1,3.73761-.91653,2.114,2.114,0,0,1,1.25841.20693,3.95016,3.95016,0,0,0,2.33076.28124,1.89613,1.89613,0,0,1,1.24064.103,1.44462,1.44462,0,0,1-1.4562.64656c-1.03565-.16867-2.082-.08807-3.144-.20894.15983-.28847.47448-.05923.61294-.27413a1.25985,1.25985,0,0,0-1.836.1585.869.869,0,0,1-.9087.39441c-.54649-.05325-1.0661.46653-1.547.81154A3.66227,3.66227,0,0,0,65.7199,27.2307a18.65511,18.65511,0,0,1,5.31478,2.32765A55.59,55.59,0,0,1,77.294,33.75189a16.34707,16.34707,0,0,1,2.18441,2.2874,28.79649,28.79649,0,0,1,2.37368,3.41806A24.08109,24.08109,0,0,1,84.31994,44.503a18.50454,18.50454,0,0,1,.70313,8.53033c-.12309.98449-.17877,1.97753-.30694,2.96124-.06767.5195-.23786,1.0248-.33931,1.54093-.27385,1.3935-.45632,2.81054-.8217,4.1791a41.33286,41.33286,0,0,1-1.86629,5.44605A10.912,10.912,0,0,1,79.71308,70.467a12.28952,12.28952,0,0,0-.93943,1.28256,7.0599,7.0599,0,0,1-1.94224,1.957,9.4612,9.4612,0,0,0-1.44307,1.36086,9.49943,9.49943,0,0,1-2.92449,2.167,13.28781,13.28781,0,0,0-2.3368,1.665,20.592,20.592,0,0,1-3.97116,2.44142,7.51556,7.51556,0,0,1-2.28959.60173c-.30743.02735-.71047-.04407-.65.56081.02315.23122-.48647.28038-.76261.36611a51.99442,51.99442,0,0,1-6.55019,1.64526,16.43221,16.43221,0,0,1-2.16072.32843c-.5172.02014-1.03244.2142-1.50452-.19256-.09731-.08387-.32095-.02652-.48627-.02526-.92937.007-1.86134-.02308-2.78735.03714a15.365,15.365,0,0,1-2.52551-.3934A46.99077,46.99077,0,0,1,40.009,83.0756a13.36983,13.36983,0,0,1-2.77249-1.06668c-1.36681-.67384-2.76719-1.28244-4.11562-1.98507a35.617,35.617,0,0,1-10.24811-7.59616,11.87616,11.87616,0,0,1-2.048-2.2896c-1.63278-3.15091-3.20439-6.32325-3.6077-9.924-.09552-.85307-.34347-1.68167-.43439-2.54114a8.01243,8.01243,0,0,1-.06548-1.66606c.11241-1.11126-.06427-2.21867.00929-3.344a41.95235,41.95235,0,0,1,.9477-5.97318,25.55364,25.55364,0,0,1,2.01224-5.2401,42.9132,42.9132,0,0,1,3.12447-5.39482,24.22248,24.22248,0,0,1,2.06022-2.79157,7.28623,7.28623,0,0,1,1.316-1.20062c.89224-.62636,1.76079-1.28684,2.631-1.94393a2.45659,2.45659,0,0,1,.93912-.5439,37.40346,37.40346,0,0,0,3.524-1.33865.571.571,0,0,0,.41029-.28924.6958.6958,0,0,0-.57673-.44423,4.63272,4.63272,0,0,0-2.489-.3823,2.60309,2.60309,0,0,1-.78787-.03015,6.86446,6.86446,0,0,0-2.46767.17354,3.52864,3.52864,0,0,1-.78458.122,35.29639,35.29639,0,0,0-5.367.8654,3.60084,3.60084,0,0,1-2.668-.26358,5.64147,5.64147,0,0,0-2.8254-.81361,1.408,1.408,0,0,1-.758-.21358.38553.38553,0,0,1-.14354-.51818.27628.27628,0,0,1,.47643-.12478,2.92378,2.92378,0,0,0,2.07784.42383,27.287,27.287,0,0,1,3.77384.10309.79053.79053,0,0,0,.39475.00148c1.13576-.4635,2.3659-.22,3.52946-.48741,1.15745-.266,2.29922-.60088,3.445-.90117.699-.18318,1.33959-.68416,2.06445-.92954a3.19492,3.19492,0,0,1,1.75423-.17558,1.89155,1.89155,0,0,0,.68756.04419,3.421,3.421,0,0,1,1.93709.317,15.85128,15.85128,0,0,0,3.40724,1.03209,1.05449,1.05449,0,0,1,.521.25.71968.71968,0,0,0,.91733.03466,3.47639,3.47639,0,0,1,1.9034-.47565A3.45369,3.45369,0,0,0,43.21571,25.10514ZM75.67444,35.99657c.10094-.40909.74744-.14992.8226-.69389-.481.04595-.97178-.02349-.8214.6927a1.87863,1.87863,0,0,1,.58312.74934c.24168.3908.485.78074.73735,1.16469.13284.20217.44766.235.42891.02689-.053-.58809.61262-.52794.7256-.96348a3.129,3.129,0,0,1-.30447-.34939,1.528,1.528,0,0,0-1.87906-.6705A2.112,2.112,0,0,1,75.67444,35.99657ZM61.76275,28.43293c.301-.49536,1.05639-.5512,1.20426-1.194-.79577-.33592-1.72269-.07677-2.415-.702-.19042-.172-.44362-.0606-.63662.086a1.55454,1.55454,0,0,0-.60881,1.06436c1.47734-.64838,1.53127-.63161,2.39258.67128a.71039.71039,0,0,0,.06524.074c-.42986.003-.59852-.358-.85019-.6059-.13761-.13554-.32331-.3651-.493-.21143a5.24,5.24,0,0,1-1.3051.66039c-.32071.16232-.36871.43752-.15789.81078a3.82593,3.82593,0,0,1,2.51443-.60875A1.52622,1.52622,0,0,0,61.76275,28.43293ZM74.98323,64.18781c-.2793.91651-.2793.92072.64453.92043a6.543,6.543,0,0,0,.89056-.04977c.31355-.04328.71292.106.91142-.24348a3.72388,3.72388,0,0,0,.33493-1.42765c.02568-.212-.20192-.24243-.3627-.22963-.83765.06668-1.75953-.05933-2.21655.93013-.03137.06785-.15752.09191-.23959.13634-.0674-.29351.35451-.49222.11115-.90712a12.7818,12.7818,0,0,1-3.08994.199.59072.59072,0,0,0-.56538.32741c-.1812.366-.5299.65354-.56605,1.08023a1.18215,1.18215,0,0,0,.70964.15688c.65878.02778,1.32013.00881,1.97745.05308a1.0933,1.0933,0,0,0,1.08616-.52653C74.70914,64.45463,74.74235,64.2226,74.98323,64.18781Zm5.24752-18.41573a10.07454,10.07454,0,0,1,2.26068.32773c-.04432.46661-.40593.55435-.68209.70056-.44051.23323-.244.57337-.14322.85392.10047.27988.37833.24015.59008.116.39351-.23062.885-.27016,1.25856-.64727a23.15024,23.15024,0,0,1-1.36344-3.16532c-.48044-1.12045-.96569-2.23953-1.41207-3.37369-.45739-1.16215-.43844-1.17137-1.60142-.74481-.11358.04166-.25865.05765-.29481.21369.11016.48883.27585.85108.90928.6077a.68436.68436,0,0,1,.74323.0747c-.09928.29572-.37751.2069-.57982.2785-.20275.07176-.52752.05049-.46767.38064.05069.27939.13658.58507.53306.61729.21609.01756.46716-.09022.65228.12647-.14327.27031-.79378-.07125-.646.49582a21.00754,21.00754,0,0,1,.27,3.15378c-.34974.13789-.32287.43883-.32032.73217.00333.38441.22836.41294.52008.32456.1856-.05624.38441-.126.433-.33695.051-.22107-.09189-.34889-.279-.45053A3.10681,3.10681,0,0,1,80.23075,45.77208Zm-1.01034,3.39126a1.126,1.126,0,0,0,.51215-1.15574c-.0481-.21741-.111-.37306-.35952-.34418-.19713.02291-.26305.16535-.249.34651.02969.38449.06512.76854.09821,1.15276-.03268.23211-.18069.30016-.30826.11775-.07324-.10473.02938-.31837.01211-.47861-.10322-.95916-.153-.98769-1.08047-.72691-.70113.19715-1.40227.39477-2.1069.5788a.45421.45421,0,0,0-.35174.67422,40.56825,40.56825,0,0,1,1.4288,5.7891,5.26875,5.26875,0,0,0,.19045.76947c.07873.23073.08459.56508.488.47827a.4905.4905,0,0,0,.448-.54886,3.95087,3.95087,0,0,1,.11575-1.2343c.3974.52857.3974.52858,1.49472.02979.72268-.32852.72268-.32852.51375-1.32378-.64713-.01194-1.27325.40671-2.09168.164.6268-.38,1.30417-.24565,1.72161-.74621.23059-.27654.61209-.502.37187-.9036-.20693-.346-.52988-.05745-.80321-.00728-.04988.00916-.10967-.0357-.16346-.05512.13627-.34569.64754-.28805.77506-.70681-.93328-.07169-1.73052.59936-2.68632.44836.11694-.36286.34568-.38969.56725-.43945.54928-.12338,1.0965-.25581,1.64488-.38316.58726-.13639.607-.21069.56221-.91229C79.93173,49.22945,79.71787,49.03942,79.22041,49.16334ZM69.15949,78.09668l-.03376.027a26.28849,26.28849,0,0,0,6.873-5.7122c-1.77.18326-1.81076.20624-2.6566,1.4298-.01885.02726-.03575.05588-.05352.0839a11.43432,11.43432,0,0,0-.99223,1.36036c-.101.22479-.3393.37407-.57111.19039-.25975-.20583-.016-.40854.09084-.59713a1.06524,1.06524,0,0,1,.12757-.152,5.11356,5.11356,0,0,0,.95463-1.5211c.32122-.55725,1.12881-.71787,1.48139-1.32912.10425-.18075.41343-.249.31218-.54712-.88149-.03293-.88164-.033-1.37759.61639q-.81306,1.0647-1.62569,2.12973c-.12005.15727-.29476.30729-.27458.514.04277.4382-.19674.48879-.54155.46851a25.20652,25.20652,0,0,1-4.96992-.915.47238.47238,0,0,1-.3814-.29726c1.44769.24,2.87313.51512,4.31008.70173,1.06707.13859,1.50325-.23426,1.84643-1.40021a18.00638,18.00638,0,0,1-2.451-.29792c-.759-.25457-1.63322-.08556-2.40981-.62858a2.44405,2.44405,0,0,1,1.16365.02385c1.07767.17411,2.15406.36286,3.23718.49465,1.01462.12344,1.62318-.39567,1.85871-1.51512-.79383-.04841-1.58742-.07294-2.37541-.15265a1.72251,1.72251,0,0,0-1.61212.48533c-.03173-.31178.19249-.61852-.29068-.62738a13.55164,13.55164,0,0,1-1.57829-.163,1.99037,1.99037,0,0,1-1.20509-.32561c.20863-.19657.40577-.11091.59993-.09263.8908.08383,1.78326.15182,2.67284.24658a1.24326,1.24326,0,0,0,1.08033-.37149c.32887-.32608.69632-.61318,1.026-.9385a1.091,1.091,0,0,1,.77615-.38207,19.39117,19.39117,0,0,0-1.67152,1.79042c.97907.06159,1.82172.11808,2.66489.16509a.5512.5512,0,0,0,.5317-.20384,11.33043,11.33043,0,0,0,1.48716-2.2768,10.72984,10.72984,0,0,1-1.66-.01724,1.35842,1.35842,0,0,0-1.37309.56519c.04438-.35929.02736-.61663-.46806-.64266-.99106-.05209-1.97745-.18883-2.968-.258-.2149-.015-.4738-.08584-.6686.07137a10.35641,10.35641,0,0,1-2.52193,1.25511,15.421,15.421,0,0,0-3.67932,1.93731,6.76863,6.76863,0,0,1-1.08052.59079A8.33421,8.33421,0,0,1,64.127,69.49928c.88421-.37382,1.76747-.75015,2.64461-1.14012.201-.08934.54437-.2159.43434-.456-.26955-.58816.18067-.35777.35178-.325,1.44332.27647,2.9118.16726,4.36353.304.29335.02764.66787.0983.817-.21121a17.34256,17.34256,0,0,0,1.10562-2.11845c-.90459-.04089-1.72755-.07459-2.55012-.11649-.55111-.02807-1.0592-.00068-1.33523.605a.31838.31838,0,0,1-.49593.13173c-.09343-.26953.28413-.46211.11307-.73771a8.34123,8.34123,0,0,1-2.39289-.46641,12.27358,12.27358,0,0,1,1.97256.03567,1.36233,1.36233,0,0,0,1.52621-.81742,13.95172,13.95172,0,0,1,1.42167-2.43641.73592.73592,0,0,0,.17-.76016c-1.27989.07807-2.5632.15989-3.847.23364a14.19327,14.19327,0,0,1-3.73135.00011c.02872-.26607.1361-.31269.22383-.30744a67.8452,67.8452,0,0,0,7.13459-.2811,1.45857,1.45857,0,0,0,1.27405-.77469,4.18171,4.18171,0,0,0,.61636-1.76588.54748.54748,0,0,1,.64662-.55625c.59575.00735,1.19288-.01171,1.78754-.04951.18536-.0118.41017-.07722.399-.34865-.01544-.37454-.28859-.27384-.50892-.26455-.087.00367-.17977.09316-.25556-.01491.06991-.3121.65238-.08728.57326-.54983-.09112-.53275-.19055-1.06407-.29953-1.669-.53233.34289-.12591,1.00836-.62539,1.25378a.95992.95992,0,0,1-.00613-.85419,9.0208,9.0208,0,0,0-.58536-5.428.72914.72914,0,0,0-.97231-.54891,2.02715,2.02715,0,0,1-1.63734-.15238,7.74375,7.74375,0,0,0,1.68969-.19641c.20956-.08177.51764-.16023.41238-.45547a5.1965,5.1965,0,0,0-.7814-2.00682c-.10838-.11764-.45963-.132-.20236-.40219.215-.22583.417-.0692.60015.09474a1.33818,1.33818,0,0,1,.30268.61715c.15463.43661.31067.87476.42629,1.32256.11441.443.31949.59632.7851.4466.59582-.1916,1.19072-.38584,1.806-.52633,1.09467-.25,1.19257-.48648.65338-1.47943a27.062,27.062,0,0,0-1.91355-3.0096c-.425-.5838-.40119-.58384-1.03672-.29138-.25627.11792-.4943.35859-.84353.22351.10879-.273.378-.34211.57933-.48436.5523-.39028.5532-.3847.18483-.97925a27.25442,27.25442,0,0,0-3.54373-4.49635c-.14166-.1477-.34791-.273-.32946-.57071a1.85107,1.85107,0,0,1,.84451.5957,16.69307,16.69307,0,0,1,1.92105,2.14676c.2276.29224.46517.61892.89226.32018.61793-.43222,1.22044-.88643,1.83165-1.33281a11.73846,11.73846,0,0,0-4.84324-3.90622.71938.71938,0,0,0-.89061.16937A18.19955,18.19955,0,0,1,69.20508,36.12a7.45068,7.45068,0,0,1-2.25721,1.32858c1.25762-1.165,2.77026-2.01483,4.08827-3.38694-.89389.11523-1.48626.65577-2.313.62327.49885-.62624,1.36249-.56249,1.80548-1.09092-.16824-.44642-.732-.09042-.75315-.35935-.048-.61073-.33729-.33368-.55283-.20294a5.63689,5.63689,0,0,0-1.22352,1.0006.18012.18012,0,0,1-.26376.0013c-.09427-.07391-.06721-.16932-.01006-.25767.08138-.12585.26782-.21083.25072-.24224-.33153-.38592-.68423.02287-.94427-.35984.42485-.47138,1.05284-.75258,1.46719-1.432-1.48093.46913-2.67206,1.2789-3.98577,1.83024,1.04351-.93353,2.24847-1.6259,3.35044-2.47659-.37634-.0771-.89175-.60423-.91422.306-.00129.05228-.14561.12629-.23361.14732A10.3944,10.3944,0,0,0,64.08176,33.101c-.53342.30586-.97882.82425-1.68049.76723l.0275.02963c.30476-.34448.98787-.46828.73773-1.16865-.47468-.01419-.64893.48065-1.12151.56019.089-.463.41225-.58756.677-.7434a14.7851,14.7851,0,0,1,1.91311-1.0545c.76465-.308,1.10189-1.0759,1.78615-1.46533a1.0011,1.0011,0,0,0-.15309-.2467c-.48341-.42415-.50155-.4134-.77239.17294a3.30643,3.30643,0,0,1-2.51755,1.73313,11.43348,11.43348,0,0,0-2.00259.51295c-1.1612.48281-2.30047,1.01824-3.46,1.50521a3.3678,3.3678,0,0,1-1.67386.42974c2.00329-.917,3.99185-1.84954,6.13047-2.81849-.26481-.09422-.36657-.17128-.43451-.14831a10.67956,10.67956,0,0,0-2.13891.75205c-.43518.25814-1.01109.28043-1.29934.78431-.73612-.15975-1.40608.26426-2.14644.21761a5.989,5.989,0,0,0-3.06876.58393,1.3141,1.3141,0,0,1-1.10576.11877,18.70589,18.70589,0,0,0-3.645-.95726,1.27588,1.27588,0,0,1-1.01615-.5505.71756.71756,0,0,0-.86877-.28389,7.38543,7.38543,0,0,1-2.7322-.09624,3.08786,3.08786,0,0,1-1.61144-.69693c-.45-.391-.87458-.81123-1.32176-1.20567A15.11977,15.11977,0,0,0,37.27508,28.101a.65447.65447,0,0,0-.29442-.01312,9.13718,9.13718,0,0,0-4.28764,1.048,24.07787,24.07787,0,0,0-6.11792,4.37152,11.45271,11.45271,0,0,1-1.3282,1.46853,4.31967,4.31967,0,0,0-1.11,1.36223c-.30184.50006-.40034,1.21037-1.2,1.2723-.11088.00859-.20948.23848-.30487.37227a14.51715,14.51715,0,0,0-.85219,1.22219c-.96054,1.69212-2.15041,3.27767-2.62287,5.20584-.19556.798-.44849,1.5823-.62039,2.38069a28.54219,28.54219,0,0,0,.88555,17.25386,3.052,3.052,0,0,0,2.85135,1.88436c-.48092-1.34574-.48909-1.34921-1.70513-1.80256a4.06879,4.06879,0,0,1-.71237-.34217c-.17327-.10687-.31569-.29416-.15008-.493.15692-.18845.28093.00987.402.1035a2.01773,2.01773,0,0,0,1.19577.44772,13.4229,13.4229,0,0,1-1.28254-3.95754c-.0424-.30883-.33084-.29931-.51893-.39288-.35295-.17557-.78155-.22394-1.03451-.68353.55361-.05382.9041.37808,1.40261.36929a59.80237,59.80237,0,0,0-.6029-6.11061c-.14463-.94609-.17011-1.91117-.229-2.86891-.01231-.20017-.06381-.49271.35606-.47544.07835.75076.15511,1.50408.23592,2.257.24724,2.30334.50266,4.60582.73829,6.91034a.8022.8022,0,0,0,.63881.77221,2.43418,2.43418,0,0,1,1.24511.664c-.53048-.11961-1.02011-.44876-1.59415-.27815a1.93789,1.93789,0,0,0,.11872,1.08181,19.06446,19.06446,0,0,0,.91876,2.40821c.21321.452.42031.71555.94211.66977.28029-.02458.582-.01793.72064.3144-.33377.3111-.74744.01539-1.07466.24877-.03292.25965.214.38375.30242.58331.25559.57646.45245,1.23917,1.33414.87756.04253-.01744.172.09232.2108.16842a.176.176,0,0,1-.16494.27219c-.48156-.09818-.656.37268-1.02822.5737-.46465-.97576-1.41009-.86373-2.32808-1.20889.632.767.94062,1.56091,1.684,2.0224a7.38267,7.38267,0,0,0,2.43953.51593c-.28039.38234-.69753.2333-.95161.51953.95507.85509,2.18741.92219,3.24065,1.41922-1.88962.0369-3.47256-.94162-5.18975-1.5637a23.55042,23.55042,0,0,0,2.78,2.81c1.01324.81938,2.35878,1.08738,3.56112,1.7675-.54989.18539-.93542-.3301-1.55357-.04972,1.98688,1.523,3.85693,3.00032,5.83362,4.34436a8.65353,8.65353,0,0,1-2.34141-1.26718,3.9489,3.9489,0,0,0-1.3473-.80062.57516.57516,0,0,0-.59866-.42824c.21.14.28822.46155.61756.407.1457.59012.75674.68317,1.1166,1.04466.15935.16.49537.16185.5131.42673.039.58346.5226.70542.8943.95412,2.36593,1.583,5.08614,2.32306,7.73435,3.22233a35.46652,35.46652,0,0,0,8.41211,1.74494A21.98,21.98,0,0,0,57.30273,81.954c2.65719-1.00686,5.42946-1.67833,8.15465-2.486A19.1748,19.1748,0,0,0,69.15949,78.09668ZM28.64738,26.31359c.57175,0,1.05034.01511,1.52753-.00432a3.92307,3.92307,0,0,1,1.37768-.023,4.04589,4.04589,0,0,0,1.86182.07494,2.47581,2.47581,0,0,1,1.71058.31658,2.58483,2.58483,0,0,0,1.59892.46572,3.14,3.14,0,0,1,2.21105.69279A31.65864,31.65864,0,0,1,41.818,29.96612a8.83738,8.83738,0,0,0,2.33786,1.02136,2.598,2.598,0,0,0,1.63721-.07017,2.26844,2.26844,0,0,1,2.45227.61061,1.366,1.366,0,0,0,.80086.37062,2.80889,2.80889,0,0,1,1.1594.54072,2.0035,2.0035,0,0,0,1.78559.31842c1.60619-.42006,3.25913-.45809,4.875-.761a5.65247,5.65247,0,0,0,2.12923-.73978,8.32486,8.32486,0,0,1,2.75141-1.34086,1.84461,1.84461,0,0,0,1.33285-.95233,11.314,11.314,0,0,1,1.48463-2.10494c.10957-.13222.359-.23676.054-.59758-.36268.4037-.7096.80219-1.06979,1.1883a7.64,7.64,0,0,1-2.63,2.06666c-.67826.27225-1.32181.60553-1.98141.90967a2.88856,2.88856,0,0,1-1.41776.30561,21.64731,21.64731,0,0,0-4.41012.40519,2.10235,2.10235,0,0,1-1.15424-.112,7.5362,7.5362,0,0,1-1.23119-.62948,1.84165,1.84165,0,0,0-1.41737-.27669q-1.02193.19458-2.04563.38c-.08569.01565-.12809-.03238-.12284-.11944-.05855-.30178.47378-.2804.33121-.6487-.38886-.17465-.82357.17076-1.28533-.08865.08357-.16661.48773-.37667.02-.5664-.22636-.09182-.042-.59871-.54923-.51726a6.97307,6.97307,0,0,1-3.45743-.61335c-.46605-.16575-.91862-.355-1.40273-.47943-.5265-.13532-1.18409-.07107-1.56284-.324a7.36025,7.36025,0,0,0-2.7391-.97769,13.7609,13.7609,0,0,1-3.63727-.91221,1.08917,1.08917,0,0,0-.76451.01556c-.61659.11333-1.21832.62365-1.87809.10481-.05187-.0408-.20892-.00511-.28061.04611C29.541,25.69731,29.03284,25.8086,28.64738,26.31359ZM82.17853,60.59621c-.67064.38019-1.53827.35576-2.111.98455-.08382.092-.12807.26247-.29.16014a.24782.24782,0,0,1-.0341-.416.67673.67673,0,0,0,.18123-.81387c-.18684-.27844-.55436-.08331-.83842-.082-.5016.00236-.704.32071-.675.7865.03414.548-.16691,1.13214.23034,1.62926a3.00328,3.00328,0,0,0-.63779,1.50835c-.02463.15459-.08554.32756.04569.451.27794.17137.62486-.2339.97068.22558A2.32524,2.32524,0,0,0,77.12,66.61933c-.13286.2773-.29133.50012.02424.78308.28866.2588.06736.46161-.17009.62586a1.57536,1.57536,0,0,1-.73493.27865.95736.95736,0,0,0-.73822.4457c-.42033.65216-.84112,1.304-1.279,1.98289a1.30044,1.30044,0,0,0,1.47058-.46676c.58094-.67121.62361-.54895,1.561-.75343.892-.19458,1.91641-.3966,2.12855-1.65493a17.73332,17.73332,0,0,1-2.612.72589A8.86539,8.86539,0,0,1,79.38019,67.298a2.5664,2.5664,0,0,0,1.564-1.957c-1.18982.12543-2.11347.93891-3.26307.87963.78318-.424,1.58624-.79034,2.39206-1.15056a2.523,2.523,0,0,1,.96908-.187c.14118-.00424.28656-.068.29432-.21153a6.14607,6.14607,0,0,1,1.01924-2.2953A1.33367,1.33367,0,0,0,82.17853,60.59621Zm1.32025-7.128c-.17571.3678-.76068.2-.74449.63088a6.22681,6.22681,0,0,1-.40567,2.18993c.444.146.61737-.30956.94965-.28533.15687.4901-.17223.65541-.47579.759-.70912.242-.85834.779-.91648,1.44844,1.0472-.27226.93719-.34914,1.4269-1.04987.50821-.72717.35669-1.52462.54473-2.276a4.78921,4.78921,0,0,0,.21284-2.06216,17.87937,17.87937,0,0,1-.11295-2.56818,10.00084,10.00084,0,0,0-.18266-2.0647c-.10826-.40969-.28951-.46989-.63366-.34445-.12435.04532-.25537.07295-.37855.12089-.32745.12738-.82493.16954-.7958.60326.0354.527.05614,1.21124.584,1.46228.45062.21429.52622.2793.08933.51393-.36058.19364-.17566.44844-.128.68391.05634.27843.28229.20587.47609.19428.14736-.00882.33352-.08869.39786.228-.23093.23284-.86133.09116-.75144.78224C82.74612,53.00933,82.85435,53.42335,83.49878,53.46825Zm-4.8623-11.05779c.01014-.08017.05663-.11046.13962-.10969.30615.00281.53749-.06315.4244-.45691-.08543-.29747-.26162-.492-.5764-.37244a12.48616,12.48616,0,0,0-1.8688.65454c-.37369.21332-.59541.42141-.25043.83194.08459.10065.1476.2192.22342.32748a10.50658,10.50658,0,0,1,2.03439,3.5929c.05928.26126.21836.42824.49267.36616.294-.06652.29683-.33517.27183-.56442a8.6367,8.6367,0,0,0-.49505-2.1146c-.116-.30882-.36722-.62837-.14767-1.08177.49639.66912.53736,1.50019,1.03743,2.19734a5.476,5.476,0,0,0-.15025-2.1747C79.59872,42.50922,79.59447,42.51,78.63648,42.41046ZM53.354,19.77492a11.20485,11.20485,0,0,0-.78435,2.87107,21.71517,21.71517,0,0,0-.49588,2.3226c-.04608.33869-.07112.67041.2945.86543.05264.02808.145.05453.18142.02874.31183-.22063.15638-.53844.12032-.80405a4.84,4.84,0,0,1,.59125-2.96951c.273-.5078.79436-.86243.45945-1.53626a.31348.31348,0,0,1,.09175-.268c.68348-.62573.54933-1.51828.76608-2.29559a.32807.32807,0,0,0-.07385-.358c-.47679-.47515-1.5451-.27991-1.64579.35733-.195,1.23434-.47818,2.44677-.74218,3.665a3.12469,3.12469,0,0,0-.00455.56787C52.71537,21.42178,52.4804,20.32491,53.354,19.77492Zm.46748,7.21941a.719.719,0,0,0-.19932.06561c-.15648.11626-.30607.30533-.51682.15406-.25846-.1855-.01923-.33317.076-.48518a.23526.23526,0,0,0-.13262-.38714c-.18615-.06824-.417-.12076-.52018.10646-.06157.13558-.08588.38648-.00591.471.35091.3709.01814.7616.07237,1.13744.03591.24905-.18826.4248-.42794.47478a.52766.52766,0,0,1-.50364-.25557c-.19188-.23227.04615-.33265.12175-.49611.15784-.34134.411-.68537.1085-1.15562a11.21624,11.21624,0,0,1-1.35875.8023,1.61635,1.61635,0,0,0-.86454,1.01982c-.26818.67539.05817,1.07126.8055.99643.55843-.05591,1.11583-.12267,1.67282-.19158a4.87266,4.87266,0,0,0,1.272-.18018,1.021,1.021,0,0,0,.7273-1.36293A4.89,4.89,0,0,0,53.82147,26.99433ZM72.16191,62.56685a.73337.73337,0,0,0,.672.19248c.62783-.015,1.25567-.03261,1.88361-.03847a1.93613,1.93613,0,0,0,2.02667-1.59419c.07193-.286.01473-.43776-.32893-.41677-.7911.04832-1.58466.1146-2.37528.09486a1.45765,1.45765,0,0,0-1.53587.99476C72.39625,62.06358,72.27211,62.321,72.16191,62.56685Zm1.2464-2.05991c.95821-.06558,1.70657-.11139,2.454-.16923,1.13985-.08822,1.18491-.13979,1.13535-1.28851a6.12,6.12,0,0,0-.083-.78487.47473.47473,0,0,0-.5299-.45867c-.679.01733-1.35867.00515-2.04551.00515A5.03723,5.03723,0,0,1,73.40831,60.50694ZM58.83184,26.0567c-.18785-.08191-.28234.01935-.37691.09919-1.1354.95856-2.319,1.85167-3.52629,2.7189-.32708.235-.91045.16069-.97817.56351-.08066.47973-.49866.553-.7852.839a1.27067,1.27067,0,0,0,1.115-.19893,2.5761,2.5761,0,0,1,1.49869-.43012c.42728-.0098.85323-.07356,1.28005-.11a.682.682,0,0,0,.6083-.43673A18.89782,18.89782,0,0,0,58.83184,26.0567Zm18.29628,39.425c-2.39056-.28628-2.69748-.13449-3.77384,1.84147a1.73822,1.73822,0,0,0-.15868.24586c-.05848.177-.01044.36377.18957.37127a17.51931,17.51931,0,0,0,1.97708.00488c.45736-.03474.55942-.50341.76771-.83171.08511-.13412.24506-.2182.35324-.34072A2.123,2.123,0,0,0,77.12812,65.48172ZM78.37669,40.5941c-.23113-.38347-1.02112-.14732-.6846-.86194.05442-.11559-.18563-.24444-.349-.29054-.15725-.04436-.36856-.07008-.367-.26253.00283-.34972-.16031-.3011-.35188-.17738-.5227.33758-1.02463.70919-1.55984,1.02482-.2994.17656-.36248.35484-.17344.62925.26062.37834.53415.74792.7894,1.12977.171.25567.35757.378.64786.17647A14.74141,14.74141,0,0,0,78.37669,40.5941ZM65.31929,20.14292a12.08247,12.08247,0,0,0-2.471,1.59738c-.28185.2506-.30721.65586-.63562.855A10.4349,10.4349,0,0,0,59.50282,25.182c-.11246.14257-.35268.2451-.0651.54385.55167-.62417,1.48989-.77534,1.94954-1.47182a4.18864,4.18864,0,0,1,2.32852-1.75035c.83687-.25812,1.34678-.66545,1.28271-1.5898C64.97959,20.64139,65.303,20.51105,65.31929,20.14292ZM75.97076,34.81156c-.42125-.3924-.74687-.72287-1.10038-1.02015-1.38073-1.16115-1.38457-1.15788-2.76452.08545-.03611.03255-.02682.11546-.0374.16844.4252.63113,1.25027.59569,1.76172,1.063a1.12861,1.12861,0,0,0,1.5629.04964C75.557,35.04776,75.732,34.95393,75.97076,34.81156ZM42.39562,27.22088A3.58691,3.58691,0,0,0,45.66747,27.8c.1664-.03628.316-.14.27337-.34529a3.15069,3.15069,0,0,0-.80988-1.56219c-.3273-.34542-.61671-.22324-.94556-.00972-.06371.04137-.23222-.07528-.35088-.12276-.19208-.07685-.42547-.14656-.55663.02693-.32581.43088-.84282.33571-1.25975.50474-.35774.145-.75427.1926-.99094.57032a1.06375,1.06375,0,0,0,1.3729-.12537,2.71322,2.71322,0,0,1,1.66882-.55716,1.943,1.943,0,0,1,1.33781.56191c.15011.11194.10758.37709-.08635.36387-.58042-.03955-1.07015.3853-1.68.35666.06716-.42968.62422-.31269.624-.73927A2.10507,2.10507,0,0,0,42.39562,27.22088ZM78.40533,58.81006c0,.26424.00618.52866-.00148.79268-.01133.39117.15387.54248.54942.46122.25751-.05289.52745-.04424.78564-.09481.19-.03722.41629-.093.43732-.33678a6.04786,6.04786,0,0,0,.13763-1.57583c-.10127-.58523-.20143-.65988-.7788-.60365C78.284,57.57473,78.284,57.57472,78.40533,58.81006ZM66.23251,28.61373c-.21347-.13891-.31779-.22182-.43441-.28024-.79786-.39976-.92674-.36152-1.40283.42644a3.96335,3.96335,0,0,1-.94142,1.00729,3.62108,3.62108,0,0,0-1.17375,1.586c.81535-.16546,1.35561-.71216,2.08116-.65372.07773.00626.17994-.08588.2442-.15655.18588-.20444.57078-.40754.26-.71651-.30186-.30009-.39242.20415-.61224.273-.04608.01444-.108-.02153-.21089-.04556.08333-.425.256-.82146.729-.76464C65.40379,29.36523,65.72574,28.93589,66.23251,28.61373Zm14.56921,28.588c.49705-.19692,1.05265-.21348,1.17-.74386a4.82778,4.82778,0,0,0,.27811-2.35776,4.45564,4.45564,0,0,0-1.32473.374.42316.42316,0,0,0-.29631.54927C80.83861,55.69911,80.63209,56.40357,80.80172,57.20176Zm-.63818-2.35123a4.79615,4.79615,0,0,0-1.69885.55674c-.26019.11456-.28168.34873-.23711.58605.05238.27864.27959.21079.4683.2072.33574-.00638.69812-.09269.98087.32822-.45371.09977-.85649-.07022-1.22561.09488a.323.323,0,0,0-.21892.29412c-.00289.09211-.01641.193.09646.25521a5.7296,5.7296,0,0,0,1.83887-.13426.37511.37511,0,0,0,.15293-.34264A4.69422,4.69422,0,0,0,80.16354,54.85053ZM46.92514,26.71916c.19975.65525.38786,1.23789.55319,1.82691.11008.39214.41024.47631.74989.54012.364.06838.42517-.24651.58357-.436a1.58208,1.58208,0,0,0,.23375-1.323c-.03074-.22906-.16645-.40886-.37659-.38481A11.06644,11.06644,0,0,1,46.92514,26.71916ZM77.93659,69.92874A3.29078,3.29078,0,0,0,74.9344,71.903C76.51289,72.09025,77.19671,71.0416,77.93659,69.92874ZM76.3748,62.57226c.24093.01608.37112.03056.5015.03256,1.12412.0173,1.21824-.07222,1.26094-1.191.00251-.06565.00336-.13161,0-.19717-.01318-.25785.03195-.55371-.34733-.59468-.31845-.0344-.69513.03779-.72353.35483C77.01349,61.56654,76.52741,61.94048,76.3748,62.57226ZM80.4859,50.276c.17245.09348.32421-.02194.48195-.01812.88146.02137.92326-.28688.70741-1.04215-.08662-.30312-.12739-.66114-.61131-.58968-.55658.08218-.74471.26155-.73088.80553A1.67351,1.67351,0,0,0,80.4859,50.276Zm-10.877-18.284c.50891.18336.91872-.43218,1.39663.02767-.28839.14233-.52776.245-.748.37906a.26918.26918,0,0,0-.08627.24936.27357.27357,0,0,0,.24037.11884,6.3994,6.3994,0,0,0,1.89949-.94182C71.294,31.04009,70.87288,31.06975,69.6089,31.99193Zm10.76,28.92159a14.38946,14.38946,0,0,0,1.49115-.631,1.76011,1.76011,0,0,0,1.35719-1.92875c-.43539.06343-.97236-.06215-.65382.72349.10546.26-.17739.54816-.47653.67076a4.47023,4.47023,0,0,1-1.20795.41983C80.51224,60.20738,80.25,60.37115,80.36889,60.91352ZM70.90933,30.72141c-1.05437-.80578-1.75838-.76165-2.53558.16654.22568-.08765.37139-.14677.51894-.20077.1245-.04557.34794-.0313.25632.102-.20453.29744-.18743.306.16885.361A1.76439,1.76439,0,0,0,70.90933,30.72141Zm2.3286,1.64372c-.34984-.02474-.45617-.22195-.70072-.10719-.44231.20757-.9123.35571-1.35748.55788-.15356.06973-.42563.09648-.36309.37021.0364.15937.18687.24691.34028.32456a.64166.64166,0,0,0,.79534-.08217C72.31861,33.10733,72.70232,32.806,73.23793,32.36513Zm4.14,26.64211.036.00062c-.02082.26064-.05.521-.05975.782-.00749.20119.01235.39671.28951.41051a.35639.35639,0,0,0,.41372-.41982c-.03212-.61925-.08914-1.2373-.14228-1.8553a.23547.23547,0,0,0-.25911-.23207.28.28,0,0,0-.27188.2399C77.36569,58.2903,77.37792,58.64908,77.37792,59.00724Zm4.90974-5.80361c.0311-.23637-.05814-.40828-.30944-.37506a6.9641,6.9641,0,0,0-1.05492.22478.628.628,0,0,0-.2977.81659c.15115.29023.38458.15624.592.07512.243-.09506.47871-.20873.72093-.306A.53542.53542,0,0,0,82.28766,53.20363ZM79.37424,38.18816c-.69338-1.04474-.92084-1.04487-1.54679-.10735a1.0611,1.0611,0,0,1-.14254.13818.29925.29925,0,0,0-.037.43987.30885.30885,0,0,0,.36268.07678C78.4393,38.56394,78.86778,38.39155,79.37424,38.18816Zm2.74292,13.03322c-.01155-.26736-.123-.43917-.36822-.35763a6.15,6.15,0,0,0-1.08324.467c-.18466.10432-.16314.34969-.09929.54443.093.28346.31125.17491.48866.12224.25233-.07492.49637-.17753.7451-.265A.43625.43625,0,0,0,82.11716,51.22138ZM78.49583,39.656c.33683-.13529.73457-.29448,1.13178-.4549.12752-.05149.25022-.13784.22711-.27992a.32452.32452,0,0,0-.36112-.27046,3.05081,3.05081,0,0,0-1.28526.48407.23258.23258,0,0,0-.09062.33957A.3288.3288,0,0,0,78.49583,39.656Zm1.74278,8.75722a.92481.92481,0,0,0,.67-.09575c.28049-.11241.45111-.25439.30867-.59539-.10077-.2413-.11908-.55038-.48752-.508-.31.03565-.59657.13345-.59516.52778A1.03439,1.03439,0,0,0,80.23861,48.41318ZM64.08446,80.37779a10.69377,10.69377,0,0,0-3.20262,1.06976A9.04781,9.04781,0,0,0,64.08446,80.37779ZM47.45912,25.72546c.36742.13684.71327-.09427,1.07668-.06563.41.03233.70745.33409,1.09063.39373.20119.03131.254-.164.28292-.32833.03059-.174.01525-.333-.21328-.34462A7.807,7.807,0,0,0,47.45912,25.72546Zm18.79849,3.45323c.71324.77769.73374.77834,1.69185.03636C67.36621,29.05365,66.84171,28.50014,66.25761,29.17869ZM80.8282,58.65441a1.12861,1.12861,0,0,0,.83609-1.29833C80.61354,57.68223,80.61354,57.68223,80.8282,58.65441ZM75.36558,33.51857a6.01913,6.01913,0,0,0,1.73389,1.593C76.57762,34.58369,76.45487,33.63449,75.36558,33.51857ZM51.33973,24.48281a2.07344,2.07344,0,0,0-.88142,1.69545A1.95257,1.95257,0,0,0,51.33973,24.48281Zm.23008,1.32552c-.61107.57769-.61107.57769-.766,1.095C51.22372,26.66633,51.82853,26.60442,51.56981,25.80833Zm29.6634,33.77739c.40049-.10437.70109-.17336.75745-.51347.01766-.10657-.15666-.22047-.2933-.21544C81.28542,58.872,81.30247,59.19538,81.23321,59.58572ZM67.9054,30.33845a1.46086,1.46086,0,0,0,1.13922-.60119C68.19243,29.66886,68.19243,29.66886,67.9054,30.33845ZM53.16053,23.82268a2.20457,2.20457,0,0,0-.08316,1.15933c.012.09.04739.21118.16712.18832a.43135.43135,0,0,0,.20236-.15045C53.25138,24.66558,53.5689,24.19376,53.16053,23.82268Zm-10.49244.456c-.41248-.25633-.69851-.77651-1.393-.64376A1.963,1.963,0,0,0,42.66809,24.27872Zm8.78631-1.06109c-.17033.29985-.49167.55364-.267,1.06724C51.57047,23.95665,51.43648,23.564,51.4544,23.21763ZM73.55694,63.10692a2.4177,2.4177,0,0,0-1.75608.01975A4.30843,4.30843,0,0,0,73.55694,63.10692Zm4.01811-6.335c-.16124.04215-.40066.02792-.35139.3173a.28815.28815,0,0,0,.35813.232c.16756-.01929.319-.10035.32785-.28511C77.91922,56.83648,77.76963,56.77458,77.57505,56.77189ZM54.89,25.78153l-.05143.23719c.38483-.06645.72047.45037,1.24762-.01666Zm25.79267,33.988c.23925-.23868.39373-.43637.23324-.71706-.03494-.06108-.216-.11767-.24975-.08733-.19587.17619-.1397.4115-.09656.6356C80.57522,59.63009,80.60447,59.65488,80.68262,59.76954ZM63.50593,23.23864c-.55533.10907-.55407.11123-.79337.53346A1.046,1.046,0,0,0,63.50593,23.23864Zm-7.5215,6.73643a1.4465,1.4465,0,0,0-.9798.356C55.382,30.20862,55.70044,30.35264,55.98443,29.97507ZM82.549,43.88147c.14393.39248.14342.69934.5283.85071C83.01151,44.37282,82.97788,44.09083,82.549,43.88147Zm-.55-1.87632a.78768.78768,0,0,0,.269.82575C82.4616,42.47129,82.28139,42.28407,81.999,42.00515ZM67.36349,19.88222c-.30189-.1595-.44236.06-.6732.20229C67.03215,20.23728,67.176,20.02674,67.36349,19.88222ZM63.70107,32.4327c.27241.0924.40282-.08217.5672-.229C63.98362,32.0749,63.86557,32.27776,63.70107,32.4327Zm-9.34245-8.7106c-.09766.22683-.152.38022-.04693.53484.04192.06176.11825.05508.146-.02694A.48852.48852,0,0,0,54.35862,23.7221Z">
  </path>
  <path
    d="M69.15949,78.09668a11.11294,11.11294,0,0,0-4.89523.0248c-.06821.30057.32411.19588.32333.494-.24438.22294-.51156-.02326-.76244-.06195a2.04029,2.04029,0,0,0-2.12076.67793.42583.42583,0,0,1-.412.20873,1.36172,1.36172,0,0,0-1.52565.93259c-.09194-.50328-.23227-.695-.72088-.5744a2.585,2.585,0,0,1-1.73416-.00905c.7617-.5462,1.83021.09382,2.34989-.79465a4.76182,4.76182,0,0,0,2.59594-.71843,16.356,16.356,0,0,1-3.79016-1.288c1.16816.25794,2.34059.49814,3.50276.78071a3.71638,3.71638,0,0,0,1.94416-.00351,14.98315,14.98315,0,0,1,4.93443-.21355c.40712.0252.36275.29452.27708.57176Z">
  </path>
  <path
    d="M23.039,40.83635c.29741.29264.665.18912,1.034.32857-.18271.28-.428.18932-.61236.151-.50339-.10473-.73569.1328-.83869.58406-.07993.35019-.31475.66456-.24511,1.04814.7.4558,1.6352.21208,2.367.77949A7.193,7.193,0,0,1,20.59955,42.638c.26719-.26985.47777-.00374.68363.06064.58194.182.728.1661.853-.4176a24.1658,24.1658,0,0,1,1.02466-3.06756,10.16277,10.16277,0,0,1,4.80827-5.58343c.31653-.17614.64434-.33216.96857-.49414a1.4183,1.4183,0,0,1,.30123.02475A23.96372,23.96372,0,0,0,26.454,35.07337a11.18923,11.18923,0,0,0-2.19214,2.68051A12.5697,12.5697,0,0,0,23.039,40.83635Z">
  </path>
  <path
    d="M68.35459,51.23137A30.10416,30.10416,0,0,0,66.838,44.35361a19.88212,19.88212,0,0,0-3.64123-5.82481C65.78869,39.5988,69.24559,48.13523,68.35459,51.23137Z">
  </path>
  <path
    d="M38.81289,79.65312a.70274.70274,0,0,1,.56791-.28958,30.08293,30.08293,0,0,1,6.61983-.41293c1.41236.1522,2.805.47905,4.22872.54369.68463.03108,1.3718.00536,2.05677.0956a15.79986,15.79986,0,0,1-3.9494.03794,23.78863,23.78863,0,0,0-5.43454-.28533c-1.18216.13307-2.36227.284-3.54319.42788C39.17567,79.79273,38.97763,79.91277,38.81289,79.65312Z">
  </path>
  <path
    d="M35.361,30.58862c-.38826.62561-1.20942.24026-1.62533.87662a7.705,7.705,0,0,0,2.23931-.03425c-.49328.39047-.83113.5533-1.21229.49034-1.36873-.22609-2.42148.50022-3.46963,1.167-.94557.60154-1.82341,1.30951-2.7767,1.92279a5.63624,5.63624,0,0,1,1.67675-1.63167,8.51737,8.51737,0,0,1,2.01076-1.2697c.53933-.201.49785-.51576.11506-.91495C33.45527,31.39849,34.213,30.31909,35.361,30.58862Z">
  </path>
  <path
    d="M54.39414,39.51357c2.66458,2.28794,3.21578,5.32253,3.34013,8.51886-.247-1.10214-.46636-2.21137-.74753-3.30471a8.91179,8.91179,0,0,0-2.18036-4.17421C54.57223,40.31524,54.20083,40.09345,54.39414,39.51357Z">
  </path>
  <path
    d="M69.0976,76.65355a44.06583,44.06583,0,0,1-8.67293-1.50976L60.455,74.938c.93331.16771,1.86842.32622,2.79946.50561,1.00606.19385,2.00874.40555,3.01225.61252A10.14752,10.14752,0,0,1,69.0976,76.65355Z">
  </path>
  <path
    d="M36.739,75.9439a19.22186,19.22186,0,0,0,5.18374-.57515,6.07652,6.07652,0,0,1,2.16928-.01522.66092.66092,0,0,1,.63438.51c-2.13528-.54333-4.133.27621-6.18571.37182A3.26254,3.26254,0,0,1,36.739,75.9439Z">
  </path>
  <path
    d="M33.27323,75.36506c.38048-.20617.68156.02971.98126.17627A31.688,31.688,0,0,1,37.78188,77.716c.37331.24752.74136.50294,1.22228.82981a1.30734,1.30734,0,0,1-1.08244-.25223,38.099,38.099,0,0,0-4.55482-2.72777C33.32709,75.548,33.31715,75.46338,33.27323,75.36506Z">
  </path>
  <path
    d="M60.53251,75.89371c-1.78189.403-3.6666-.08-5.377.73958-.16574-.24869-.03929-.37274.1645-.46237.09027-.03969.18646-.06557.27869-.101A13.42062,13.42062,0,0,1,60.53251,75.89371Z">
  </path>
  <path
    d="M45.00413,77.99092c1.40706-.06914,2.77314-.6248,4.20975-.34276A10.9983,10.9983,0,0,1,45.00413,77.99092Z">
  </path>
  <path
    d="M56.13134,60.82005c-.26217,1.30572.5061,2.35543.64832,3.53864a4.66421,4.66421,0,0,1-1.0737-2.65377A.75449.75449,0,0,1,56.13134,60.82005Z">
  </path>
  <path
    d="M54.24718,70.64489a31.4364,31.4364,0,0,1,2.27989-2.901A5.22824,5.22824,0,0,1,54.24718,70.64489Z">
  </path>
  <path
    d="M26.97192,36.14893l2.48254.40575a3.54336,3.54336,0,0,1-2.52364-.17975Z">
  </path>
  <path
    d="M61.29991,42.38071l-1.21722-2.13036A2.86915,2.86915,0,0,1,61.29991,42.38071Z">
  </path>
  <path
    d="M51.618,81.841c-.54655.61537-1.13357.378-1.64854.43218-.02308.00243-.08511-.10467-.08134-.15734a.26906.26906,0,0,1,.24462-.26885C50.57951,81.831,51.02724,81.841,51.618,81.841Z">
  </path>
  <path
    d="M55.09892,80.93638a8.482,8.482,0,0,1,1.58265-.16156A1.92148,1.92148,0,0,1,55.09892,80.93638Z">
  </path>
  <path d="M46.54865,75.98342h1.82082l.00085.10628H46.51954Z"></path>
  <path
    d="M54.33663,80.57983a.51913.51913,0,0,1-.41729-.55143C54.37124,79.96979,54.28834,80.329,54.33663,80.57983Z">
  </path>
  <path
    d="M55.58929,74.83146c-.1407.18922-.26807.37487-.55315.25092C55.17163,74.88143,55.3104,74.72056,55.58929,74.83146Z">
  </path>
  <path
    d="M62.40127,33.86827c-.01955.36508-.29807.31965-.62989.46632a.89508.89508,0,0,1,.65814-.43579Z">
  </path>
  <path
    d="M79.34912,63.85867c.57432-.23389,1.14641-.47365,1.72489-.69674.11721-.0452.26131-.04256.49567.17282l-2.17349.70282Z">
  </path>
</svg>