<svg xmlns="http://www.w3.org/2000/svg" xmlns:xlink="http://www.w3.org/1999/xlink"
  version="1.1" x="0px" y="0px" viewBox="0 0 64 64"
  enable-background="new 0 0 64 64" xml:space="preserve">
  <title>Two people</title>
  <g display="none">
    <rect x="-84.495" y="-84.8" display="inline" fill="#000000" width="787"
      height="375.042"></rect>
  </g>
  <g display="none">
    <g display="inline">
      <g>
        <path fill="#000000"
          d="M32,63C14.906,63,1,49.093,1,32S14.906,1,32,1s31,13.906,31,31S49.094,63,32,63z">
        </path>
      </g>
      <g>
        <g>
          <path fill="#000000"
            d="M32,2c16.542,0,30,13.458,30,30c0,16.542-13.458,30-30,30S2,48.542,2,32C2,15.458,15.458,2,32,2 M32,0      C14.327,0,0,14.327,0,32s14.327,32,32,32s32-14.327,32-32S49.673,0,32,0L32,0z">
          </path>
        </g>
      </g>
    </g>
    <g display="inline">
      <g>
        <circle cx="23.251" cy="17.324" r="2.849"></circle>
      </g>
      <g>
        <path
          d="M26.432,21.312h-6.362c-2.243,0-4.069,1.826-4.069,4.069v7.979c0,0.817,0.663,1.48,1.48,1.48s1.48-0.663,1.48-1.48     v-7.157h0.888v6.747c0,0.003-0.001,0.006-0.001,0.009v15.086c0,0.817,0.663,1.48,1.48,1.48s1.48-0.663,1.48-1.48V35.909h0.888     v12.137c0,0.817,0.663,1.48,1.48,1.48s1.48-0.663,1.48-1.48V35.909V32.96v-6.756h0.888v7.157c0,0.817,0.663,1.48,1.48,1.48     s1.48-0.663,1.48-1.48v-7.979C30.501,23.138,28.675,21.312,26.432,21.312z">
        </path>
      </g>
      <g>
        <circle fill="#000000" cx="40.749" cy="17.324" r="2.849"></circle>
      </g>
      <g>
        <path fill="#000000"
          d="M43.931,21.312h-6.362c-2.243,0-4.069,1.826-4.069,4.069v7.979c0,0.817,0.663,1.48,1.48,1.48     c0.817,0,1.48-0.663,1.48-1.48v-7.157h0.888v6.747c0,0.003-0.001,0.006-0.001,0.009v15.086c0,0.817,0.663,1.48,1.48,1.48     c0.817,0,1.48-0.663,1.48-1.48V35.909h0.888v12.137c0,0.817,0.663,1.48,1.48,1.48c0.817,0,1.48-0.663,1.48-1.48V35.909V32.96     v-6.756h0.888v7.157c0,0.817,0.663,1.48,1.48,1.48c0.817,0,1.48-0.663,1.48-1.48v-7.979C48,23.138,46.174,21.312,43.931,21.312z">
        </path>
      </g>
    </g>
  </g>
  <g display="none">
    <path display="inline"
      d="M32,0C14.327,0,0,14.327,0,32s14.327,32,32,32s32-14.327,32-32S49.673,0,32,0z M23.251,14.474   c1.574,0,2.849,1.276,2.849,2.849c0,1.574-1.276,2.849-2.849,2.849c-1.574,0-2.849-1.276-2.849-2.849   C20.401,15.75,21.677,14.474,23.251,14.474z M30.501,33.36c0,0.817-0.663,1.48-1.48,1.48s-1.48-0.662-1.48-1.48v-7.157h-0.888   v6.756v2.949v12.137c0,0.817-0.663,1.48-1.48,1.48c-0.817,0-1.48-0.663-1.48-1.48V35.909h-0.888v12.137   c0,0.817-0.662,1.48-1.48,1.48s-1.48-0.663-1.48-1.48V32.96c0-0.003,0.001-0.006,0.001-0.009v-6.747H18.96v7.157   c0,0.817-0.663,1.48-1.48,1.48c-0.817,0-1.48-0.662-1.48-1.48v-7.979c0-2.243,1.826-4.069,4.069-4.069h6.362   c2.243,0,4.069,1.826,4.069,4.069V33.36z M40.749,14.474c1.574,0,2.849,1.276,2.849,2.849c0,1.574-1.276,2.849-2.849,2.849   c-1.574,0-2.849-1.276-2.849-2.849C37.9,15.75,39.176,14.474,40.749,14.474z M48,33.36c0,0.817-0.663,1.48-1.48,1.48   c-0.817,0-1.48-0.662-1.48-1.48v-7.157h-0.888v6.756v2.949v12.137c0,0.817-0.662,1.48-1.48,1.48s-1.48-0.663-1.48-1.48V35.909   h-0.888v12.137c0,0.817-0.663,1.48-1.48,1.48s-1.48-0.663-1.48-1.48V32.96c0-0.003,0.001-0.006,0.001-0.009v-6.747h-0.888v7.157   c0,0.817-0.662,1.48-1.48,1.48s-1.48-0.662-1.48-1.48v-7.979c0-2.243,1.826-4.069,4.069-4.069h6.362   c2.243,0,4.069,1.826,4.069,4.069V33.36z">
    </path>
  </g>
  <g>
    <g>
      <path
        d="M32,64c17.673,0,32-14.327,32-32S49.673,0,32,0S0,14.327,0,32S14.327,64,32,64z M32,2c16.542,0,30,13.458,30,30    S48.542,62,32,62S2,48.542,2,32S15.458,2,32,2z">
      </path>
      <circle cx="23.251" cy="17.324" r="2.849"></circle>
      <path
        d="M17.48,34.84c0.817,0,1.48-0.662,1.48-1.48v-7.157h0.888v6.747c0,0.003-0.001,0.006-0.001,0.009v15.086    c0,0.817,0.663,1.48,1.48,1.48s1.48-0.663,1.48-1.48V35.909h0.888v12.137c0,0.817,0.663,1.48,1.48,1.48    c0.817,0,1.48-0.663,1.48-1.48V35.909V32.96v-6.756h0.888v7.157c0,0.817,0.662,1.48,1.48,1.48s1.48-0.662,1.48-1.48v-7.979    c0-2.243-1.826-4.069-4.069-4.069h-6.362c-2.243,0-4.069,1.826-4.069,4.069v7.979C16,34.177,16.663,34.84,17.48,34.84z">
      </path>
      <circle cx="40.749" cy="17.324" r="2.849"></circle>
      <path
        d="M34.979,34.84c0.817,0,1.48-0.662,1.48-1.48v-7.157h0.888v6.747c0,0.003-0.001,0.006-0.001,0.009v15.086    c0,0.817,0.662,1.48,1.48,1.48s1.48-0.663,1.48-1.48V35.909h0.888v12.137c0,0.817,0.663,1.48,1.48,1.48s1.48-0.663,1.48-1.48    V35.909V32.96v-6.756h0.888v7.157c0,0.817,0.663,1.48,1.48,1.48c0.817,0,1.48-0.662,1.48-1.48v-7.979    c0-2.243-1.826-4.069-4.069-4.069h-6.362c-2.243,0-4.069,1.826-4.069,4.069v7.979C33.499,34.177,34.162,34.84,34.979,34.84z">
      </path>
    </g>
  </g>
  <g display="none">
    <g display="inline">
      <g>
        <path fill="#000000"
          d="M32,63C14.906,63,1,49.093,1,32S14.906,1,32,1s31,13.906,31,31S49.094,63,32,63z">
        </path>
        <path
          d="M32,2c16.542,0,30,13.458,30,30S48.542,62,32,62S2,48.542,2,32S15.458,2,32,2 M32,0C14.327,0,0,14.327,0,32     s14.327,32,32,32s32-14.327,32-32S49.673,0,32,0L32,0z">
        </path>
      </g>
      <g>
        <circle fill="#000000" cx="32" cy="32" r="27.562"></circle>
      </g>
    </g>
    <g display="inline">
      <circle cx="23.251" cy="17.324" r="2.849"></circle>
      <path
        d="M26.432,21.312h-6.362c-2.243,0-4.069,1.826-4.069,4.069v7.979c0,0.817,0.663,1.48,1.48,1.48s1.48-0.663,1.48-1.48v-7.157    h0.888v6.747c0,0.003-0.001,0.006-0.001,0.009v15.086c0,0.817,0.663,1.48,1.48,1.48s1.48-0.663,1.48-1.48V35.909h0.888v12.137    c0,0.817,0.663,1.48,1.48,1.48s1.48-0.663,1.48-1.48V35.909V32.96v-6.756h0.888v7.157c0,0.817,0.663,1.48,1.48,1.48    s1.48-0.663,1.48-1.48v-7.979C30.501,23.138,28.675,21.312,26.432,21.312z">
      </path>
      <circle cx="40.749" cy="17.324" r="2.849"></circle>
      <path
        d="M43.931,21.312h-6.362c-2.243,0-4.069,1.826-4.069,4.069v7.979c0,0.817,0.663,1.48,1.48,1.48    c0.817,0,1.48-0.663,1.48-1.48v-7.157h0.888v6.747c0,0.003-0.001,0.006-0.001,0.009v15.086c0,0.817,0.663,1.48,1.48,1.48    c0.817,0,1.48-0.663,1.48-1.48V35.909h0.888v12.137c0,0.817,0.663,1.48,1.48,1.48c0.817,0,1.48-0.663,1.48-1.48V35.909V32.96    v-6.756h0.888v7.157c0,0.817,0.663,1.48,1.48,1.48c0.817,0,1.48-0.663,1.48-1.48v-7.979C48,23.138,46.174,21.312,43.931,21.312z">
      </path>
    </g>
  </g>
</svg>