<svg id="vegan" class="modal-icons" xmlns="http://www.w3.org/2000/svg" data-name="Layer 1" viewBox="0 0 100 100"
  x="0px" y="0px">
  <title>Noun_Project_50Icon_5px_grid - diëten iconen line thick - samengesteld
    pad</title>
  <path
    d="M50,8.75A41.25,41.25,0,1,0,91.25,50,41.3,41.3,0,0,0,50,8.75Zm0,79.5A38.25,38.25,0,1,1,88.25,50,38.29,38.29,0,0,1,50,88.25ZM48.9,42.41a3.47,3.47,0,0,0-.33-2.74A5.4,5.4,0,0,0,47.4,38.3c1.75-1.66,4.34-4.55,4.08-6.9a3.39,3.39,0,0,0-3.07-2.8,5.25,5.25,0,0,0-3-5,1.79,1.79,0,0,0-.32-.13L45,23.4l-.34-.06A5.25,5.25,0,0,0,39.39,26a2.89,2.89,0,0,0-1.55-.4,3,3,0,0,0-2.54,1.09c-1.48,1.82-.89,5.6-.32,8a5.46,5.46,0,0,0-1.88.53,3.48,3.48,0,0,0-1.76,2.13,153.76,153.76,0,0,0-3,17.08c-.07.58-.13,1.13-.19,1.67v.07c-1.21,11.3,0,14.64,1.4,15.91a1.5,1.5,0,0,0,.93.59h0a1.24,1.24,0,0,0,.5.1,1.5,1.5,0,0,0,.47-.08c2-.25,5-2.44,10.69-14.21a154,154,0,0,0,6.73-16ZM37.59,28.55a.41.41,0,0,1,.13,0h.18a1.42,1.42,0,0,1,.29.64,1.49,1.49,0,0,0,1.41,1.13h0a1.5,1.5,0,0,0,1.43-1.05s1.07-3.3,3.11-3c1.91.82,1,4.13,1,4.16A1.5,1.5,0,0,0,47.67,32a1.36,1.36,0,0,1,.59-.38l.16.09.08,0c.11.74-1.69,3.07-3.77,4.93a18.84,18.84,0,0,0-1.9-.74l.82-2.8a1.5,1.5,0,1,0-2.88-.84L40,35.09c-.56-.15-1.18-.28-1.84-.39C37.36,32,37.12,29,37.59,28.55Zm8.43,13c-.34,1.14-2,5.37-4.12,10.27L39.09,51a1.5,1.5,0,0,0-.85,2.88l2.41.71c-.38.82-.78,1.65-1.18,2.48C34.74,66.8,32.26,69,31.41,69.48c-.4-.77-1.15-3.35-.43-11.36l2.31.68a1.52,1.52,0,0,0,.42.06,1.5,1.5,0,0,0,.42-2.94l-2.84-.83c0-.14,0-.27.05-.41.38-3.18.87-6.33,1.34-9l2.23.66a1.52,1.52,0,0,0,.42.06,1.5,1.5,0,0,0,.43-2.94l-2.54-.75c.44-2.26.81-3.93,1-4.57a.48.48,0,0,1,.28-.31,3.18,3.18,0,0,1,1.44-.25,16.32,16.32,0,0,1,4.6.85h.05c2.22.58,4.78,1.71,5.36,2.75A.46.46,0,0,1,46,41.56Zm22.46-4.14a9.7,9.7,0,0,0-3.57-3.92l-.19-2.77a1.5,1.5,0,0,0-1.6-1.39l-5.7.4A1.5,1.5,0,0,0,56,31.35l.19,2.77a8.16,8.16,0,0,0-2.49,4.51c-.28,1.28-.43,2.33-.55,3.18-.32,2.19-.43,2.68-1.51,3.4a2.09,2.09,0,0,0-1.15,2.16,1.87,1.87,0,0,0,1.53,1.45,4.86,4.86,0,0,0,1.74,0,14.12,14.12,0,0,1-2.13,5.9c-4.41,6.35-4.15,14.94.6,19.58a8.74,8.74,0,0,0,6.14,2.35,10.84,10.84,0,0,0,3-.42c4.37-1.26,7.59-4.92,8.84-10A39.33,39.33,0,0,0,70,46.89a7.79,7.79,0,0,0,2.55,0,1.51,1.51,0,0,0,.8-2.57A29,29,0,0,1,68.48,37.42ZM56.15,42.24c.12-.85.26-1.8.51-3a5,5,0,0,1,2-3.21,1.5,1.5,0,0,0,.65-1.35l-.15-2.07,2.71-.19L62,34.55a1.52,1.52,0,0,0,.89,1.27,6.31,6.31,0,0,1,2.95,3,38.8,38.8,0,0,0,2.86,4.61A15.18,15.18,0,0,1,64.8,41.1a1.5,1.5,0,0,0-2.43.75l-.53,2-.4-1.26a1.5,1.5,0,0,0-2.65-.42A9.52,9.52,0,0,1,55.55,45,14.18,14.18,0,0,0,56.15,42.24ZM67.27,65.45c-1,4.06-3.44,6.93-6.75,7.87a6.32,6.32,0,0,1-6.17-1.19c-3.27-3.19-4.25-9.94-.23-15.71A18.63,18.63,0,0,0,57,47.67,12.71,12.71,0,0,0,59.37,46l1.17,3.69a1.5,1.5,0,0,0,1.43,1h0a1.49,1.49,0,0,0,1.41-1.11l1.29-4.88a19.66,19.66,0,0,0,1.93,1.07A36.67,36.67,0,0,1,67.27,65.45Z">
  </path>
</svg>