<svg class="account-icons"  data-toggle="tooltip" data-placement="right" title="Subscription"
  xmlns:dc="http://purl.org/dc/elements/1.1/"
  xmlns:cc="http://creativecommons.org/ns#"
  xmlns:rdf="http://www.w3.org/1999/02/22-rdf-syntax-ns#"
  xmlns:svg="http://www.w3.org/2000/svg" xmlns="http://www.w3.org/2000/svg"
  xmlns:sodipodi="http://sodipodi.sourceforge.net/DTD/sodipodi-0.dtd"
  xmlns:inkscape="http://www.inkscape.org/namespaces/inkscape"
  viewBox="0 0 8.4666665 8.4666669" version="1.1" x="0px" y="0px">
  <g transform="translate(0,-288.53333)">
    <path
      d="m 4.0019531,2.9960938 c -1.6447067,0 -3.00585939,1.3611601 -3.00585935,3.0058593 C 0.99609375,6.0146784 1,12 1,12 0.9808869,13.352315 3.0191148,13.352315 3,12 V 8.8125 C 3.315292,8.9259415 3.6500386,8.9980469 4.0019531,8.9980469 L 26,9 c 0.571301,0 1,0.4287244 1,1 v 3 h -3.001953 c -1.644707,0 -2.996094,1.359207 -2.996094,3.003906 v 3.992188 c 0,1.644699 1.35141,3.005859 2.996094,3.005859 H 27 V 26 c 0,0.571276 -0.428699,1 -1,1 H 4 C 3.4286994,27 3,26.571276 3,26 V 16.027344 C 3.0077178,15.463589 2.548128,15.004866 1.984375,15.013672 1.4328598,15.021231 0.99244873,15.475797 1,16.027344 V 26 c 0,1.644699 1.355301,3 3,3 h 22 c 1.644699,0 3,-1.355301 3,-3 v -3.185547 c 1.156299,-0.418695 1.996094,-1.525573 1.996094,-2.818359 v -3.992188 c 0,-1.292786 -0.83979,-2.399664 -1.996094,-2.818359 V 10 C 29,8.3553008 27.644699,7 26,7 H 23.001953 V 6.0019531 c 0,-1.6446992 -1.3592,-3.0058593 -3.003906,-3.0058593 z m 0,2 H 19.998047 c 0.571293,0 1.003906,0.4345837 1.003906,1.0058593 V 6.9980469 H 4.0019531 C 3.437699,6.9980469 3.0104867,6.5821613 3.0038,6.0059435 2.9971133,5.4297258 3.4313336,4.9960938 4.0019531,4.9960938 Z M 23.998047,15 H 28 c 0.571293,0 1.003906,0.432631 1.003906,1.003906 v 3.992188 c 0,0.571313 -0.43259,1.005859 -1.003906,1.005859 h -4.001953 c -0.571316,0 -0.996094,-0.434546 -0.996094,-1.005859 V 16.003906 C 23.001953,15.432631 23.426754,15 23.998047,15 Z"
      transform="matrix(0.26458333,0,0,0.26458333,0,288.53333)"></path>
  </g>
</svg>