<svg class="footer-icon"
  xmlns="http://www.w3.org/2000/svg" xmlns:xlink="http://www.w3.org/1999/xlink"
  xmlns:serif="http://www.serif.com/" viewBox="0 0 100 100" version="1.1"
  xml:space="preserve" style="" x="0px" y="0px" fill-rule="evenodd"
  clip-rule="evenodd" stroke-linejoin="round" stroke-miterlimit="1.41421">
  <title>Website</title>
  <path
    d="M95,69L92,69L92,27C92,22.611 88.389,19 84,19L16,19C11.611,19 8,22.611 8,27L8,69L5,69C3.903,69 3,69.903 3,71C3,78.132 8.868,84 16,84L84,84C91.132,84 97,78.132 97,71C97,69.903 96.097,69 95,69ZM84,80L16,80C11.813,80.002 8.15,77.082 7.22,73L77.22,73C78.317,73 79.22,72.097 79.22,71C79.22,69.903 78.317,69 77.22,69L12,69L12,27C12,24.806 13.806,23 16,23L84,23C86.194,23 88,24.806 88,27L88,69L85.5,69C84.403,69 83.5,69.903 83.5,71C83.5,72.097 84.403,73 85.5,73L92.78,73C91.85,77.082 88.187,80.002 84,80Z"
    style="" fill-rule="nonzero"></path>
  <path
    d="M68,28L32,28C29.806,28 28,29.806 28,32L28,60C28,62.194 29.806,64 32,64L68,64C70.194,64 72,62.194 72,60L72,32C72,29.806 70.194,28 68,28ZM32,60L32,39L63,39C64.097,39 65,38.097 65,37C65,35.903 64.097,35 63,35L32,35L32,32L68,32L68,60L32,60Z"
    style="" fill-rule="nonzero"></path>
  <path
    d="M56,42L40,42C38.903,42 38,42.903 38,44C38,45.097 38.903,46 40,46L56,46C57.097,46 58,45.097 58,44C58,42.903 57.097,42 56,42Z"
    style="" fill-rule="nonzero"></path>
  <path
    d="M48,50L40,50C38.903,50 38,50.903 38,52C38,53.097 38.903,54 40,54L48,54C49.097,54 50,53.097 50,52C50,50.903 49.097,50 48,50Z"
    style="" fill-rule="nonzero"></path>
  <path
    d="M52,74L48,74C46.903,74 46,74.903 46,76C46,77.097 46.903,78 48,78L52,78C53.097,78 54,77.097 54,76C54,74.903 53.097,74 52,74Z"
    style="" fill-rule="nonzero"></path>
</svg>